<?xml version="1.0" encoding="UTF-8" standalone="no"?><!-- Generator: Gravit.io --><svg xmlns="http://www.w3.org/2000/svg" xmlns:xlink="http://www.w3.org/1999/xlink" style="isolation:isolate" viewBox="0 0 48 48" width="48pt" height="48pt"><linearGradient id="_lgradient_16" x1="0.36055817634891596" y1="0.07216221496532434" x2="0.9328725932559039" y2="1.0119595858103791" gradientTransform="matrix(39.37,0,0,45,4.315,1.5)" gradientUnits="userSpaceOnUse"><stop offset="2.1739130434782608%" stop-opacity="1" style="stop-color:rgb(91,100,237)"/><stop offset="51.66666666666667%" stop-opacity="1" style="stop-color:rgb(198,116,251)"/><stop offset="98.33333333333333%" stop-opacity="1" style="stop-color:rgb(249,162,78)"/></linearGradient><path d=" M 20.736 23.224 L 20.736 4.764 L 20.736 4.764 C 20.736 2.963 22.198 1.5 24 1.5 L 24 1.5 C 25.802 1.5 27.264 2.963 27.264 4.764 L 27.264 4.764 L 27.264 23.224 L 30.431 20.009 L 30.431 20.009 C 31.692 18.73 33.755 18.716 35.034 19.977 L 35.034 19.977 C 36.313 21.238 36.328 23.301 35.067 24.58 L 35.067 24.58 L 28.603 31.141 C 27.395 32.382 25.73 33.1 24 33.1 C 22.27 33.1 20.605 32.382 19.397 31.141 L 12.933 24.58 L 12.933 24.58 C 11.672 23.301 11.687 21.238 12.966 19.977 L 12.966 19.977 C 14.245 18.716 16.308 18.73 17.569 20.009 L 17.569 20.009 L 20.736 23.224 Z  M 6.742 33.1 L 15.142 33.1 L 22.139 38.712 C 23.184 39.55 24.879 39.547 25.921 38.705 L 32.858 33.1 L 41.258 33.1 C 42.597 33.1 43.685 34.188 43.685 35.527 L 43.685 44.073 C 43.685 45.412 42.597 46.5 41.258 46.5 L 6.742 46.5 C 5.403 46.5 4.315 45.412 4.315 44.073 L 4.315 35.527 C 4.315 34.188 5.403 33.1 6.742 33.1 Z " fill-rule="evenodd" fill="url(#_lgradient_16)"/></svg>