<?xml version="1.0" encoding="UTF-8" standalone="no"?><!-- Generator: Gravit.io --><svg xmlns="http://www.w3.org/2000/svg" xmlns:xlink="http://www.w3.org/1999/xlink" style="isolation:isolate" viewBox="0 0 48 48" width="48pt" height="48pt"><linearGradient id="_lgradient_1" x1="0.5757686770476378" y1="0.38670359678755284" x2="0.12794859489947474" y2="0.7917820853291071" gradientTransform="matrix(45,0,0,40.414,1.5,3.793)" gradientUnits="userSpaceOnUse"><stop offset="0%" stop-opacity="1" style="stop-color:rgb(211,0,220)"/><stop offset="100%" stop-opacity="1" style="stop-color:rgb(135,0,255)"/></linearGradient><path d=" M 9 8.79 L 39 8.79 L 39 29.21 L 9 29.21 L 9 8.79 L 9 8.79 Z  M 9 3.793 L 39 3.793 C 41.76 3.793 44 6.034 44 8.793 L 44 29.207 C 44 31.966 41.76 34.207 39 34.207 L 9 34.207 C 6.24 34.207 4 31.966 4 29.207 L 4 8.793 C 4 6.034 6.24 3.793 9 3.793 L 9 3.793 Z  M 3.5 39.207 L 44.5 39.207 C 45.604 39.207 46.5 40.103 46.5 41.207 L 46.5 42.207 C 46.5 43.311 45.604 44.207 44.5 44.207 L 3.5 44.207 C 2.396 44.207 1.5 43.311 1.5 42.207 L 1.5 41.207 C 1.5 40.103 2.396 39.207 3.5 39.207 Z " fill-rule="evenodd" fill="url(#_lgradient_1)"/></svg>