<?xml version="1.0" encoding="UTF-8"?>
<svg width="64" height="64" version="1.1" viewBox="0 0 16.933 16.933" xmlns="http://www.w3.org/2000/svg" xmlns:xlink="http://www.w3.org/1999/xlink">
<defs>
<linearGradient id="c" x1="-315.95" x2="322.14" y1="58.955" y2="58.955" gradientUnits="userSpaceOnUse">
<stop offset="0"/>
<stop stop-opacity="0" offset="1"/>
</linearGradient>
<linearGradient id="a" x1=".34874" x2="16.531" y1="10.161" y2="10.161" gradientUnits="userSpaceOnUse">
<stop stop-color="#ff0f0f" offset="0"/>
<stop stop-color="#e3e755" offset="1"/>
</linearGradient>
<linearGradient id="b" x1="-189.03" x2="300.93" y1="82.834" y2="82.834" gradientUnits="userSpaceOnUse">
<stop stop-color="#ff0f0f" offset="0"/>
<stop stop-color="#e3e755" offset="1"/>
</linearGradient>
</defs>
<g>
<path d="m11.373 10.915-0.99704-1.7419c-0.10045 0.051864-0.1857 0.13145-0.24412 0.23309l-1.8742 3.2507c-0.053056 0.09181-0.079584 0.19404-0.079882 0.29628h2.0286z" fill="url(#a)" stroke-width=".029807"/>
<path d="m8.115 13.253c-2.973e-4 0.10254 0.025635 0.20507 0.077498 0.29717l0.70612 1.2453c0.055441 0.09807 0.13622 0.17616 0.231 0.22862l1.0137-1.7711z" fill="url(#a)" stroke-width=".029807"/>
<path d="m12.713 13.257h-2.3333l-1.0137 1.7711c0.087036 0.04799 0.18599 0.07482 0.28883 0.07482h3.7831c0.10283 0 0.20179-0.02683 0.28883-0.07482z" fill="url(#a)" stroke-width=".029807"/>
<path d="m12.948 13.253 1.0137 1.7711c0.09508-0.05246 0.17586-0.13055 0.231-0.22862l0.70612-1.2453c0.05216-0.0921 0.07809-0.19464 0.0775-0.29717z" fill="url(#a)" stroke-width=".029807"/>
<path d="m12.885 12.953h2.0286c-3.38e-4 -0.10224-0.02712-0.20447-0.07988-0.29628l-1.8743-3.2507c-0.058421-0.10134-0.14397-0.18123-0.24412-0.23309l-0.99704 1.7419z" fill="url(#a)" stroke-width=".029807"/>
<path d="m12.543 9.0596c-0.083458-0.042922-0.17675-0.066767-0.27392-0.066767h-1.4462c-0.09717 0-0.19046 0.023548-0.27392 0.066767l0.99704 1.7419z" fill="url(#a)" stroke-width=".029807"/>
<polygon transform="matrix(.033027 0 0 .033027 6.5919 7.4254)" points="110.86 173.56 150 105.18 189.14 173.56 150 105.18" fill="url(#b)"/>
<polygon points="150 173.56 189.14 173.56 150 105.18 110.86 173.56" display="none" fill="url(#c)"/>
<path d="m3.175 8.1312c-0.20461 0-0.37042-0.16581-0.37042-0.37042s0.16581-0.37042 0.37042-0.37042h1.9932c0.19473 0 0.47907-0.0949 0.635-0.21167l2.2578-1.6933c0.15593-0.11677 0.44027-0.21167 0.635-0.21167h6.8439c0.5842 0 1.0583 0.47413 1.0583 1.0583v9.2075c0 0.5842-0.47413 1.0583-1.0583 1.0583h-14.146c-0.5842 0-1.0583-0.47413-1.0583-1.0583v-3.8982c0-0.20461 0.1658-0.37042 0.37042-0.37042 0.20461 0 0.37042 0.1658 0.37042 0.37042v3.6865c0 0.2921 0.23707 0.52917 0.52917 0.52917h13.723c0.2921 0 0.52917-0.23707 0.52917-0.52917v-8.7842c0-0.2921-0.23707-0.52917-0.52917-0.52917h-6.3853c-0.19473 0-0.47907 0.0949-0.635 0.21167l-2.2578 1.6933c-0.15593 0.11677-0.44027 0.21167-0.635 0.21167zm-2.099 0.68792c0 0.20461-0.1658 0.37042-0.37042 0.37042-0.20461 0-0.37042-0.16581-0.37042-0.37042v-4.251c0-0.5842 0.47413-1.0583 1.0583-1.0583h4.4027c0.19473 0 0.46461 0.11183 0.60219 0.24941l0.91828 0.91828c0.14393 0.14393 0.14393 0.37818 0 0.52211-0.14393 0.14393-0.37818 0.14393-0.52211 0l-0.94897-0.94897h-4.2404c-0.2921 0-0.52917 0.23707-0.52917 0.52917z" fill="url(#a)" fill-rule="evenodd" stroke-width=".35278" style="isolation:isolate"/>
</g>
</svg>
