<?xml version="1.0" encoding="UTF-8" standalone="no"?><!-- Generator: Gravit.io --><svg xmlns="http://www.w3.org/2000/svg" xmlns:xlink="http://www.w3.org/1999/xlink" style="isolation:isolate" viewBox="0 0 48 48" width="48pt" height="48pt"><linearGradient id="_lgradient_24" x1="-0.4583333333333333" y1="1.3291666803072988" x2="0.9611945636623753" y2="0.0512696635764438" gradientTransform="matrix(45,0,0,45,1.5,1.5)" gradientUnits="userSpaceOnUse"><stop offset="0%" stop-opacity="1" style="stop-color:rgb(84,51,255)"/><stop offset="49.166666666666664%" stop-opacity="1" style="stop-color:rgb(233,72,255)"/><stop offset="97.08333333333333%" stop-opacity="1" style="stop-color:rgb(255,0,91)"/></linearGradient><path d=" M 44.556 2.685 C 43.321 1.679 41.718 1.287 40.153 1.611 L 19.591 5.93 C 17.155 6.435 15.387 8.607 15.387 11.094 L 15.387 30.816 C 13.938 29.737 12.143 29.097 10.201 29.097 C 5.403 29.097 1.5 33.001 1.5 37.799 C 1.5 42.597 5.403 46.5 10.201 46.5 C 14.986 46.5 18.881 42.618 18.902 37.838 C 18.902 37.835 18.902 37.831 18.902 37.828 L 18.902 18.046 L 42.984 12.924 L 42.984 25.191 C 41.535 24.112 39.74 23.472 37.799 23.472 C 33.001 23.472 29.098 27.376 29.098 32.174 C 29.098 36.972 33.001 40.875 37.799 40.875 C 38.74 40.875 39.666 40.725 40.552 40.43 C 41.473 40.123 41.971 39.127 41.664 38.206 C 41.357 37.285 40.361 36.788 39.44 37.095 C 38.913 37.27 38.361 37.359 37.799 37.359 C 34.939 37.359 32.613 35.033 32.613 32.174 C 32.613 29.314 34.939 26.988 37.799 26.988 C 40.658 26.988 42.984 29.314 42.984 32.174 L 42.984 32.185 C 42.984 33.156 43.771 33.943 44.742 33.943 C 45.713 33.943 46.5 33.156 46.5 32.185 L 46.5 6.774 L 46.5 6.774 L 46.5 6.774 C 46.5 5.181 45.791 3.691 44.556 2.685 L 44.556 2.685 Z  M 10.201 42.984 C 7.342 42.984 5.016 40.658 5.016 37.799 C 5.016 34.939 7.342 32.613 10.201 32.613 C 13.061 32.613 15.387 34.939 15.387 37.799 C 15.387 40.658 13.061 42.984 10.201 42.984 Z  M 18.902 11.094 C 18.902 10.265 19.492 9.541 20.309 9.372 L 40.87 5.053 C 40.99 5.028 41.11 5.016 41.229 5.016 C 41.629 5.016 42.019 5.153 42.336 5.411 C 42.748 5.746 42.984 6.243 42.984 6.774 L 42.984 9.33 L 18.902 14.452 L 18.902 11.094 Z " fill="url(#_lgradient_24)"/></svg>