<?xml version="1.0" encoding="UTF-8" standalone="no"?><!-- Generator: Gravit.io --><svg xmlns="http://www.w3.org/2000/svg" xmlns:xlink="http://www.w3.org/1999/xlink" style="isolation:isolate" viewBox="0 0 48 48" width="48pt" height="48pt"><linearGradient id="_lgradient_2" x1="0.5747991967871465" y1="0.05780024981522669" x2="0.16147925033462074" y2="1.0538236608002025" gradientTransform="matrix(45,0,0,43.471,1.5,2.264)" gradientUnits="userSpaceOnUse"><stop offset="6%" stop-opacity="1" style="stop-color:rgb(43,134,208)"/><stop offset="89%" stop-opacity="1" style="stop-color:rgb(33,215,137)"/></linearGradient><path d=" M 28.5 40.507 L 35.236 40.507 L 35.236 23.775 L 38.177 23.775 L 24.043 8.33 L 9.577 23.775 L 12.593 23.775 L 12.754 40.507 L 12.754 40.507 L 19.5 40.507 L 19.5 29.004 L 28.5 29.004 L 28.5 40.507 Z  M 43.204 29.004 L 40.583 29.004 L 40.583 42.075 C 40.583 43.048 40.187 43.979 39.482 44.658 C 38.786 45.349 37.835 45.736 36.84 45.736 L 11.171 45.736 C 10.187 45.736 9.235 45.349 8.529 44.669 C 7.823 43.989 7.428 43.069 7.417 42.096 L 7.299 29.004 L 4.807 29.004 C 4.155 29.025 3.524 28.857 2.957 28.544 C 2.026 27.989 1.459 26.986 1.502 25.919 C 1.545 25.135 1.877 24.392 2.422 23.827 L 21.251 3.498 C 21.946 2.725 22.941 2.275 24 2.264 C 25.016 2.275 25.979 2.693 26.674 3.415 L 45.492 23.786 C 46.091 24.35 46.444 25.114 46.498 25.929 C 46.541 27.017 45.963 28.042 44.99 28.575 C 44.444 28.868 43.835 29.025 43.204 29.004 L 43.204 29.004 Z " fill-rule="evenodd" fill="url(#_lgradient_2)"/></svg>