<?xml version="1.0" encoding="UTF-8"?>
<svg id="svg5" width="48pt" height="48pt" style="isolation:isolate" version="1.1" viewBox="0 0 48 48" xmlns="http://www.w3.org/2000/svg">
	<defs id="defs2">
		<style id="current-color-scheme" type="text/css">.ColorScheme-Text { color:#fff; }
.ColorScheme-Highlight { color:#50c9c3; }
.ColorScheme-HighlightedText { color:#fff }</style>
		<linearGradient id="a" x1="1.5" x2="46" y1="32" y2="32" gradientTransform="translate(-.000766 -.557)" gradientUnits="userSpaceOnUse">
			<stop id="stop1" stop-color="#fff" stop-opacity="0" offset="0"/>
			<stop id="stop2" class="ColorScheme-HighlightedText" stop-color="currentColor" stop-opacity=".4" offset="1"/>
		</linearGradient>
	</defs>
	<path id="path2" class="ColorScheme-Highlight" d="m6.43 11.5c-2.71 0-4.92 2.21-4.92 4.93l-0.00593 25.1c0 2.72 2.21 4.93 4.92 4.93h35.2c2.71 0 4.92-2.21 4.92-4.93v-20.1c0-2.72-2.21-4.93-4.92-4.93h-15.1c-4.02 0-6.53-1.91-9.24-3.82-0.904-0.634-2.52-1.21-3.63-1.21z" fill="currentColor"/>
	<path id="path3" d="m6.52 11.5c-1.41-0.00369-2.69 0.568-3.59 1.45-0.703 2.2 0.405 3.25 2.48 3.55h21.1c-4.02 0-6.43-1.8-9.24-3.8-0.904-0.64-2.52-1.2-3.63-1.2z" fill-opacity=".2"/>
	<path id="path4" class="ColorScheme-HighlightedText" d="m1.51 16.5c-0.00201 8.43-0.00392 17.1-0.00593 25.1 6e-7 2.71 2.21 4.92 4.92 4.92h35.2c2.71 0 4.92-2.21 4.92-4.92v-20.1c0-2.71-2.21-5-4.92-5z" fill="url(#a)"/>
	<path id="pathtext" class="ColorScheme-Text" d="m31.3 26.5c-1.01 0-1.82 0.815-1.82 1.82v14.6c0 0.228 0.127 0.435 0.33 0.539 0.202 0.104 0.446 0.0863 0.631-0.0454l3.9-2.78 3.9 2.78c0.185 0.132 0.428 0.15 0.63 0.0454 0.202-0.104 0.33-0.311 0.33-0.539v-3.04c0-0.335-0.271-0.606-0.606-0.606-0.335 0-0.608 0.271-0.608 0.606v1.86l-3.29-2.35c-0.211-0.151-0.495-0.151-0.706 0l-3.29 2.35v-13.4c0-0.335 0.273-0.606 0.608-0.606h6.07c0.335 0 0.606 0.271 0.606 0.606v0.608c0 0.335 0.273 0.606 0.608 0.606 0.335 0 0.606-0.271 0.606-0.606v-0.608c0-1.01-0.815-1.82-1.82-1.82h-6.07zm5.49 4.4c-1.16 0-2.1 0.965-2.1 2.16 0 0.623 0.254 1.19 0.661 1.59l3.23 3.17 3.23-3.17c0.407-0.395 0.661-0.964 0.661-1.59 0-1.2-0.944-2.16-2.1-2.16-0.763 0-1.42 0.415-1.79 1.04-0.367-0.629-1.03-1.04-1.79-1.04z" fill="currentColor" stroke-width=".607" style="isolation:isolate"/>
	<path id="path6" d="m31.3 26.5c-1.01 0-1.82 0.815-1.82 1.82v14.6c0 0.228 0.127 0.435 0.33 0.539 0.202 0.104 0.446 0.0863 0.631-0.0454l3.9-2.78 3.9 2.78c0.185 0.132 0.428 0.15 0.63 0.0454 0.202-0.104 0.33-0.311 0.33-0.539v-3.04c0-0.335-0.271-0.606-0.606-0.606-0.335 0-0.608 0.271-0.608 0.606v1.86l-3.29-2.35c-0.211-0.151-0.495-0.151-0.706 0l-3.29 2.35v-13.4c0-0.335 0.273-0.606 0.608-0.606h6.07c0.335 0 0.606 0.271 0.606 0.606v0.608c0 0.335 0.273 0.606 0.608 0.606 0.335 0 0.606-0.271 0.606-0.606v-0.608c0-1.01-0.815-1.82-1.82-1.82h-6.07zm5.49 4.4c-1.16 0-2.1 0.965-2.1 2.16 0 0.623 0.254 1.19 0.661 1.59l3.23 3.17 3.23-3.17c0.407-0.395 0.661-0.964 0.661-1.59 0-1.2-0.944-2.16-2.1-2.16-0.763 0-1.42 0.415-1.79 1.04-0.367-0.629-1.03-1.04-1.79-1.04z" fill="#fff" fill-opacity=".2" stroke-width=".607" style="isolation:isolate"/>
</svg>
