<?xml version="1.0" encoding="UTF-8"?>
<svg xmlns="http://www.w3.org/2000/svg" id="svg5" width="48pt" height="48pt" style="isolation:isolate" version="1.1" viewBox="0 0 48 48">
	<defs id="defs2">
		<style id="current-color-scheme" type="text/css">.ColorScheme-Text { color:#fff; }
.ColorScheme-Highlight { color:#50c9c3; }
.ColorScheme-HighlightedText { color:#fff }</style>
		<linearGradient id="a" x1="1.5" x2="46" y1="32" y2="32" gradientTransform="translate(-.000766 -.557)" gradientUnits="userSpaceOnUse">
			<stop id="stop1" stop-color="#fff" stop-opacity="0" offset="0"/>
			<stop id="stop2" class="ColorScheme-HighlightedText" stop-color="currentColor" stop-opacity=".4" offset="1"/>
		</linearGradient>
	</defs>
	<path id="path2" class="ColorScheme-Highlight" d="m6.43 11.5c-2.71 0-4.92 2.21-4.92 4.93l-0.00593 25.1c0 2.72 2.21 4.93 4.92 4.93h35.2c2.71 0 4.92-2.21 4.92-4.93v-20.1c0-2.72-2.21-4.93-4.92-4.93h-15.1c-4.02 0-6.53-1.91-9.24-3.82-0.904-0.634-2.52-1.21-3.63-1.21z" fill="currentColor"/>
	<path id="path3" d="m6.52 11.5c-1.41-0.00369-2.69 0.568-3.59 1.45-0.703 2.2 0.405 3.25 2.48 3.55h21.1c-4.02 0-6.43-1.8-9.24-3.8-0.904-0.64-2.52-1.2-3.63-1.2z" fill-opacity=".2"/>
	<path id="path4" class="ColorScheme-HighlightedText" d="m1.51 16.5c-0.00201 8.43-0.00392 17.1-0.00593 25.1 6e-7 2.71 2.21 4.92 4.92 4.92h35.2c2.71 0 4.92-2.21 4.92-4.92v-20.1c0-2.71-2.21-5-4.92-5z" fill="url(#a)"/>
	<path id="path3-3" class="ColorScheme-Text" d="m41.8 26.9c-0.467-0.38-1.07-0.528-1.66-0.406l-7.77 1.63c-0.92 0.19-1.59 1.01-1.59 1.95v7.45c-0.547-0.408-1.22-0.649-1.96-0.649-1.81 0-3.29 1.47-3.29 3.29 0 1.81 1.48 3.29 3.29 3.29 1.81 0 3.28-1.47 3.29-3.27v-4e-3 -7.47l9.1-1.94v4.63c-0.548-0.408-1.23-0.649-1.96-0.649-1.81 0-3.29 1.47-3.29 3.29 0 1.81 1.47 3.29 3.29 3.29 0.355 0 0.705-0.057 1.04-0.168 0.348-0.116 0.536-0.492 0.42-0.84s-0.492-0.536-0.84-0.42c-0.199 0.066-0.408 0.1-0.62 0.1-1.08 0-1.96-0.879-1.96-1.96s0.879-1.96 1.96-1.96 1.96 0.879 1.96 1.96v4e-3c0 0.367 0.297 0.664 0.664 0.664s0.664-0.297 0.664-0.664v-9.6c0-0.601-0.268-1.16-0.734-1.54zm-13 15.2c-1.08 0-1.96-0.879-1.96-1.96s0.879-1.96 1.96-1.96 1.96 0.879 1.96 1.96-0.879 1.96-1.96 1.96zm3.29-12c0-0.314 0.223-0.587 0.532-0.651l7.77-1.63c0.045-9e-3 0.091-0.014 0.136-0.014 0.151 0 0.298 0.052 0.418 0.149 0.156 0.127 0.245 0.315 0.245 0.515v0.966l-9.1 1.94z" fill="currentColor" style="isolation:isolate"/>
	<path id="path6" d="m41.8 26.9c-0.467-0.38-1.07-0.528-1.66-0.406l-7.77 1.63c-0.92 0.19-1.59 1.01-1.59 1.95v7.45c-0.547-0.408-1.22-0.649-1.96-0.649-1.81 0-3.29 1.47-3.29 3.29 0 1.81 1.48 3.29 3.29 3.29 1.81 0 3.28-1.47 3.29-3.27v-4e-3 -7.47l9.1-1.94v4.63c-0.548-0.408-1.23-0.649-1.96-0.649-1.81 0-3.29 1.47-3.29 3.29 0 1.81 1.47 3.29 3.29 3.29 0.355 0 0.705-0.057 1.04-0.168 0.348-0.116 0.536-0.492 0.42-0.84s-0.492-0.536-0.84-0.42c-0.199 0.066-0.408 0.1-0.62 0.1-1.08 0-1.96-0.879-1.96-1.96s0.879-1.96 1.96-1.96 1.96 0.879 1.96 1.96v4e-3c0 0.367 0.297 0.664 0.664 0.664s0.664-0.297 0.664-0.664v-9.6c0-0.601-0.268-1.16-0.734-1.54zm-13 15.2c-1.08 0-1.96-0.879-1.96-1.96s0.879-1.96 1.96-1.96 1.96 0.879 1.96 1.96-0.879 1.96-1.96 1.96zm3.29-12c0-0.314 0.223-0.587 0.532-0.651l7.77-1.63c0.045-9e-3 0.091-0.014 0.136-0.014 0.151 0 0.298 0.052 0.418 0.149 0.156 0.127 0.245 0.315 0.245 0.515v0.966l-9.1 1.94z" fill="#fff" fill-opacity=".2" style="isolation:isolate"/>
</svg>
