<?xml version="1.0" encoding="UTF-8"?>
<svg id="svg5" width="48pt" height="48pt" style="isolation:isolate" version="1.1" viewBox="0 0 48 48" xmlns="http://www.w3.org/2000/svg">
	<defs id="defs2">
		<style id="current-color-scheme" type="text/css">.ColorScheme-Text { color:#fff; }
.ColorScheme-Highlight { color:#50c9c3; }
.ColorScheme-HighlightedText { color:#fff }</style>
		<linearGradient id="a" x1="1.5" x2="46" y1="32" y2="32" gradientTransform="translate(-.000766 -.557)" gradientUnits="userSpaceOnUse">
			<stop id="stop1" stop-color="#fff" stop-opacity="0" offset="0"/>
			<stop id="stop2" class="ColorScheme-HighlightedText" stop-color="currentColor" stop-opacity=".4" offset="1"/>
		</linearGradient>
	</defs>
	<path id="path2" class="ColorScheme-Highlight" d="m6.43 11.5c-2.71 0-4.92 2.21-4.92 4.93l-0.00593 25.1c0 2.72 2.21 4.93 4.92 4.93h35.2c2.71 0 4.92-2.21 4.92-4.93v-20.1c0-2.72-2.21-4.93-4.92-4.93h-15.1c-4.02 0-6.53-1.91-9.24-3.82-0.904-0.634-2.52-1.21-3.63-1.21z" fill="currentColor"/>
	<path id="path3" d="m6.52 11.5c-1.41-0.00369-2.69 0.568-3.59 1.45-0.703 2.2 0.405 3.25 2.48 3.55h21.1c-4.02 0-6.43-1.8-9.24-3.8-0.904-0.64-2.52-1.2-3.63-1.2z" fill-opacity=".2"/>
	<path id="path4" class="ColorScheme-HighlightedText" d="m1.51 16.5c-0.00201 8.43-0.00392 17.1-0.00593 25.1 6e-7 2.71 2.21 4.92 4.92 4.92h35.2c2.71 0 4.92-2.21 4.92-4.92v-20.1c0-2.71-2.21-5-4.92-5z" fill="url(#a)"/>
	<path id="pathtext" class="ColorScheme-Text" d="m39.7 36.1c1.32 0.29 2.47 1.35 2.68 2.72 0.27 1.44-0.0337 3.19-1.36 4.02-1.24 0.801-2.77 0.566-4.17 0.604-2.65-0.0088-5.31 0.0178-7.96-0.0137-1.33-0.0341-2.72-0.764-3.16-2.08-0.502-1.47-0.349-3.35 0.884-4.43 0.463-0.406 1.04-0.666 1.63-0.82 0.484-2.52 2.75-4.59 5.34-4.73 2.52-0.213 5 1.45 5.85 3.81 0.114 0.299 0.203 0.608 0.267 0.922zm-1.32 1.33 0.0011-3.62e-4zm0-3.62e-4c0.985 0.022 2.2 0.405 2.47 1.48 0.196 0.902 0.193 2.12-0.682 2.68-0.942 0.512-2.05 0.297-3.07 0.344-2.7-0.0071-5.4 0.0144-8.1-0.011-0.804-0.013-1.71-0.402-1.91-1.26-0.259-1-0.144-2.36 0.908-2.86 0.434-0.364 1.44-0.195 1.6-0.644 0.136-1.15 0.56-2.3 1.43-3.1 1.39-1.38 3.72-1.58 5.32-0.457 1.18 0.781 1.88 2.14 1.99 3.54 0.0143 0.0978 0.0286 0.196 0.0429 0.294z" fill="currentColor" fill-rule="evenodd" stroke-width=".362" style="isolation:isolate"/>
	<path id="path6" d="m39.7 36.1c1.32 0.29 2.47 1.35 2.68 2.72 0.27 1.44-0.0337 3.19-1.36 4.02-1.24 0.801-2.77 0.566-4.17 0.604-2.65-0.0088-5.31 0.0178-7.96-0.0137-1.33-0.0341-2.72-0.764-3.16-2.08-0.502-1.47-0.349-3.35 0.884-4.43 0.463-0.406 1.04-0.666 1.63-0.82 0.484-2.52 2.75-4.59 5.34-4.73 2.52-0.213 5 1.45 5.85 3.81 0.114 0.299 0.203 0.608 0.267 0.922zm-1.32 1.33 0.0011-3.62e-4zm0-3.62e-4c0.985 0.022 2.2 0.405 2.47 1.48 0.196 0.902 0.193 2.12-0.682 2.68-0.942 0.512-2.05 0.297-3.07 0.344-2.7-0.0071-5.4 0.0144-8.1-0.011-0.804-0.013-1.71-0.402-1.91-1.26-0.259-1-0.144-2.36 0.908-2.86 0.434-0.364 1.44-0.195 1.6-0.644 0.136-1.15 0.56-2.3 1.43-3.1 1.39-1.38 3.72-1.58 5.32-0.457 1.18 0.781 1.88 2.14 1.99 3.54 0.0143 0.0978 0.0286 0.196 0.0429 0.294z" fill="#fff" fill-opacity=".2" fill-rule="evenodd" stroke-width=".362" style="isolation:isolate"/>
</svg>
