<?xml version="1.0" encoding="UTF-8"?>
<svg id="svg5" width="48pt" height="48pt" style="isolation:isolate" version="1.1" viewBox="0 0 48 48" xmlns="http://www.w3.org/2000/svg">
	<defs id="defs2">
		<style id="current-color-scheme" type="text/css">.ColorScheme-Text { color:#fff; }
.ColorScheme-Highlight { color:#50c9c3; }
.ColorScheme-HighlightedText { color:#fff }</style>
		<linearGradient id="a" x1="1.5" x2="46" y1="32" y2="32" gradientTransform="translate(-.000766 -.557)" gradientUnits="userSpaceOnUse">
			<stop id="stop1" stop-color="#fff" stop-opacity="0" offset="0"/>
			<stop id="stop2" class="ColorScheme-HighlightedText" stop-color="currentColor" stop-opacity=".4" offset="1"/>
		</linearGradient>
	</defs>
	<path id="path2" class="ColorScheme-Highlight" d="m6.43 11.5c-2.71 0-4.92 2.21-4.92 4.93l-0.00593 25.1c0 2.72 2.21 4.93 4.92 4.93h35.2c2.71 0 4.92-2.21 4.92-4.93v-20.1c0-2.72-2.21-4.93-4.92-4.93h-15.1c-4.02 0-6.53-1.91-9.24-3.82-0.904-0.634-2.52-1.21-3.63-1.21z" fill="currentColor"/>
	<path id="path3" d="m6.52 11.5c-1.41-0.00369-2.69 0.568-3.59 1.45-0.703 2.2 0.405 3.25 2.48 3.55h21.1c-4.02 0-6.43-1.8-9.24-3.8-0.904-0.64-2.52-1.2-3.63-1.2z" fill-opacity=".2"/>
	<path id="path4" class="ColorScheme-HighlightedText" d="m1.51 16.5c-0.00201 8.43-0.00392 17.1-0.00593 25.1 6e-7 2.71 2.21 4.92 4.92 4.92h35.2c2.71 0 4.92-2.21 4.92-4.92v-20.1c0-2.71-2.21-5-4.92-5z" fill="url(#a)"/>
	<path id="pathtext" class="ColorScheme-Text" d="m36 29.1-4.74 0.0161h-0.00732-0.0146c-0.197 0.00963-0.394 0.0671-0.561 0.171-0.174 0.0971-0.32 0.241-0.42 0.41-0.00364 0.0037-0.00665 0.00802-0.0103 0.0117l-4.6 8.2c1e-4 0.00731-0.00372 0.0109-0.00732 0.0146-0.0894 0.169-0.135 0.359-0.129 0.549-0.00113 0.216 0.0603 0.428 0.176 0.609 1e-4 0.00366 0.00362 0.011 0.00732 0.0146l2.64 3.96c0.138 0.232 0.389 0.375 0.659 0.375 0.0203-7.59e-4 0.0401-0.00357 0.0601-0.00586 0.0326 0.0111 0.0676 0.019 0.104 0.019h0.212l9.42 0.0366h0.00732 0.0176c0.191-0.00589 0.378-0.055 0.542-0.146 0.172-0.085 0.317-0.208 0.431-0.36 0.00328-0.00373 0.00665-0.00802 0.0103-0.0117l2.56-3.63c0.103-0.131 0.157-0.289 0.163-0.454 9.77e-4 -0.221-0.104-0.427-0.281-0.555l-0.00146-0.00146-0.142-0.226-5.32-8.42v-0.00293c-0.0362-0.16-0.126-0.305-0.256-0.407-0.148-0.108-0.33-0.168-0.513-0.163zm-0.551 1.1-6.49 11.8-2.35-3.55 4.62-8.23 4.22-0.0308zm0.828 0.775 4.58 7.2-3.95-0.00293-0.0498-0.0835-2.34-3.86 1.76-3.25zm-2.35 4.35 1.72 2.84-3.27-0.00293 0.444-0.79 1.11-2.05zm-2.16 3.91h0.249l9.07 0.00879-2.17 3.08c-0.014 0.0181-0.0349 0.0363-0.0601 0.0439-0.025 0.0146-0.0502 0.0246-0.0791 0.0249h-0.00293l-8.76-0.0337 1.75-3.12z" fill="currentColor" stroke-width=".366" style="isolation:isolate"/>
	<path id="path6" d="m36 29.1-4.74 0.0161h-0.00732-0.0146c-0.197 0.00963-0.394 0.0671-0.561 0.171-0.174 0.0971-0.32 0.241-0.42 0.41-0.00364 0.0037-0.00665 0.00802-0.0103 0.0117l-4.6 8.2c1e-4 0.00731-0.00372 0.0109-0.00732 0.0146-0.0894 0.169-0.135 0.359-0.129 0.549-0.00113 0.216 0.0603 0.428 0.176 0.609 1e-4 0.00366 0.00362 0.011 0.00732 0.0146l2.64 3.96c0.138 0.232 0.389 0.375 0.659 0.375 0.0203-7.59e-4 0.0401-0.00357 0.0601-0.00586 0.0326 0.0111 0.0676 0.019 0.104 0.019h0.212l9.42 0.0366h0.00732 0.0176c0.191-0.00589 0.378-0.055 0.542-0.146 0.172-0.085 0.317-0.208 0.431-0.36 0.00328-0.00373 0.00665-0.00802 0.0103-0.0117l2.56-3.63c0.103-0.131 0.157-0.289 0.163-0.454 9.77e-4 -0.221-0.104-0.427-0.281-0.555l-0.00146-0.00146-0.142-0.226-5.32-8.42v-0.00293c-0.0362-0.16-0.126-0.305-0.256-0.407-0.148-0.108-0.33-0.168-0.513-0.163zm-0.551 1.1-6.49 11.8-2.35-3.55 4.62-8.23 4.22-0.0308zm0.828 0.775 4.58 7.2-3.95-0.00293-0.0498-0.0835-2.34-3.86 1.76-3.25zm-2.35 4.35 1.72 2.84-3.27-0.00293 0.444-0.79 1.11-2.05zm-2.16 3.91h0.249l9.07 0.00879-2.17 3.08c-0.014 0.0181-0.0349 0.0363-0.0601 0.0439-0.025 0.0146-0.0502 0.0246-0.0791 0.0249h-0.00293l-8.76-0.0337 1.75-3.12z" fill="#fff" fill-opacity=".2" stroke-width=".366" style="isolation:isolate"/>
</svg>
