<?xml version="1.0" encoding="UTF-8"?>
<svg id="svg5" width="48pt" height="48pt" style="isolation:isolate" version="1.1" viewBox="0 0 48 48" xmlns="http://www.w3.org/2000/svg">
	<defs id="defs2">
		<style id="current-color-scheme" type="text/css">.ColorScheme-Text { color:#fff; }
.ColorScheme-Highlight { color:#50c9c3; }
.ColorScheme-HighlightedText { color:#fff }</style>
		<linearGradient id="a" x1="1.5" x2="46" y1="32" y2="32" gradientTransform="translate(-.000766 -.557)" gradientUnits="userSpaceOnUse">
			<stop id="stop1" stop-color="#fff" stop-opacity="0" offset="0"/>
			<stop id="stop2" class="ColorScheme-HighlightedText" stop-color="currentColor" stop-opacity=".4" offset="1"/>
		</linearGradient>
	</defs>
	<path id="path2" class="ColorScheme-Highlight" d="m6.43 11.5c-2.71 0-4.92 2.21-4.92 4.93l-0.00593 25.1c0 2.72 2.21 4.93 4.92 4.93h35.2c2.71 0 4.92-2.21 4.92-4.93v-20.1c0-2.72-2.21-4.93-4.92-4.93h-15.1c-4.02 0-6.53-1.91-9.24-3.82-0.904-0.634-2.52-1.21-3.63-1.21z" fill="currentColor"/>
	<path id="path3" d="m6.52 11.5c-1.41-0.00369-2.69 0.568-3.59 1.45-0.703 2.2 0.405 3.25 2.48 3.55h21.1c-4.02 0-6.43-1.8-9.24-3.8-0.904-0.64-2.52-1.2-3.63-1.2z" fill-opacity=".2"/>
	<path id="path4" class="ColorScheme-HighlightedText" d="m1.51 16.5c-0.00201 8.43-0.00392 17.1-0.00593 25.1 6e-7 2.71 2.21 4.92 4.92 4.92h35.2c2.71 0 4.92-2.21 4.92-4.92v-20.1c0-2.71-2.21-5-4.92-5z" fill="url(#a)"/>
	<path id="pathtext" class="ColorScheme-Text" d="m29.3 26.5c-1.05 0-1.9 0.854-1.9 1.91v7.81c0 0.447 0.322 0.809 0.718 0.809 0.396 0 0.716-0.362 0.716-0.809v-6.95c0-0.631 0.513-1.14 1.14-1.14h4.25v1.35h-1.23v0.946h1.23v0.948h-1.23v0.946h1.23v0.948h-1.23v0.946h1.23v0.801c-0.423 0.219-0.708 0.626-0.708 1.09v1.89c0 0.697 0.635 1.26 1.42 1.26 0.782 0 1.42-0.566 1.42-1.26v-1.89c0-0.467-0.285-0.874-0.708-1.09v-0.801h1.23v-0.946h-1.23v-0.948h1.23v-0.946h-1.23v-0.948h1.23v-0.946h-1.23v-1.35h2.88c0.0623 0 0.122-0.00835 0.179-0.0264 0.0567 0.0181 0.118 0.0264 0.18 0.0264h1.01c0.631 0 1.14 0.513 1.14 1.14v1.28c0 0.447 0.32 0.81 0.716 0.81 0.396 0 0.718-0.363 0.718-0.81v-2.14c0-1.05-0.852-1.91-1.9-1.91h-1.68c-0.0623 0-0.124 0.00946-0.18 0.0278-0.0567-0.0184-0.116-0.0278-0.179-0.0278h-9.22zm12.4 6.88c-0.396 0-0.716 0.362-0.716 0.809v6.55c0 0.631-0.513 1.14-1.14 1.14h-5.67c-0.396 0-0.718 0.363-0.718 0.81 0 0.447 0.321 0.809 0.718 0.809h6.35c1.05 0 1.9-0.853 1.9-1.9v-7.4c0-0.447-0.322-0.809-0.718-0.809zm-6.82 2.24a0.526 0.473 0 0 1 0.526 0.473 0.526 0.473 0 0 1-0.526 0.473 0.526 0.473 0 0 1-0.527-0.473 0.526 0.473 0 0 1 0.527-0.473zm0.00439 1.74a0.53 0.631 0 0 1 0.53 0.631 0.53 0.631 0 0 1-0.53 0.631 0.53 0.631 0 0 1-0.53-0.631 0.53 0.631 0 0 1 0.53-0.631zm-6.82 1.29c-0.396 0-0.718 0.362-0.718 0.809v2.14c0 1.05 0.852 1.9 1.9 1.9h1.68c0.396 0 0.718-0.362 0.718-0.809 0-0.447-0.322-0.81-0.718-0.81h-1.01c-0.631 0-1.14-0.513-1.14-1.14v-1.28c0-0.447-0.32-0.809-0.716-0.809z" fill="currentColor" stroke-width=".354" style="isolation:isolate"/>
	<path id="path10" d="m29.3 26.5c-1.05 0-1.9 0.854-1.9 1.91v7.81c0 0.447 0.322 0.809 0.718 0.809 0.396 0 0.716-0.362 0.716-0.809v-6.95c0-0.631 0.513-1.14 1.14-1.14h4.25v1.35h-1.23v0.946h1.23v0.948h-1.23v0.946h1.23v0.948h-1.23v0.946h1.23v0.801c-0.423 0.219-0.708 0.626-0.708 1.09v1.89c0 0.697 0.635 1.26 1.42 1.26 0.782 0 1.42-0.566 1.42-1.26v-1.89c0-0.467-0.285-0.874-0.708-1.09v-0.801h1.23v-0.946h-1.23v-0.948h1.23v-0.946h-1.23v-0.948h1.23v-0.946h-1.23v-1.35h2.88c0.0623 0 0.122-0.00835 0.179-0.0264 0.0567 0.0181 0.118 0.0264 0.18 0.0264h1.01c0.631 0 1.14 0.513 1.14 1.14v1.28c0 0.447 0.32 0.81 0.716 0.81 0.396 0 0.718-0.363 0.718-0.81v-2.14c0-1.05-0.852-1.91-1.9-1.91h-1.68c-0.0623 0-0.124 0.00946-0.18 0.0278-0.0567-0.0184-0.116-0.0278-0.179-0.0278h-9.22zm12.4 6.88c-0.396 0-0.716 0.362-0.716 0.809v6.55c0 0.631-0.513 1.14-1.14 1.14h-5.67c-0.396 0-0.718 0.363-0.718 0.81 0 0.447 0.321 0.809 0.718 0.809h6.35c1.05 0 1.9-0.853 1.9-1.9v-7.4c0-0.447-0.322-0.809-0.718-0.809zm-6.82 2.24a0.526 0.473 0 0 1 0.526 0.473 0.526 0.473 0 0 1-0.526 0.473 0.526 0.473 0 0 1-0.527-0.473 0.526 0.473 0 0 1 0.527-0.473zm0.00439 1.74a0.53 0.631 0 0 1 0.53 0.631 0.53 0.631 0 0 1-0.53 0.631 0.53 0.631 0 0 1-0.53-0.631 0.53 0.631 0 0 1 0.53-0.631zm-6.82 1.29c-0.396 0-0.718 0.362-0.718 0.809v2.14c0 1.05 0.852 1.9 1.9 1.9h1.68c0.396 0 0.718-0.362 0.718-0.809 0-0.447-0.322-0.81-0.718-0.81h-1.01c-0.631 0-1.14-0.513-1.14-1.14v-1.28c0-0.447-0.32-0.809-0.716-0.809z" fill="#fff" fill-opacity=".2" stroke-width=".354" style="isolation:isolate"/>
</svg>
