<?xml version="1.0" encoding="UTF-8"?>
<svg id="svg5" width="48pt" height="48pt" style="isolation:isolate" version="1.1" viewBox="0 0 48 48" xmlns="http://www.w3.org/2000/svg">
	<defs id="defs2">
		<style id="current-color-scheme" type="text/css">.ColorScheme-Text { color:#fff; }
.ColorScheme-Highlight { color:#50c9c3; }
.ColorScheme-HighlightedText { color:#fff }</style>
		<linearGradient id="a" x1="1.5" x2="46" y1="32" y2="32" gradientTransform="translate(-.000766 -.557)" gradientUnits="userSpaceOnUse">
			<stop id="stop1" stop-color="#fff" stop-opacity="0" offset="0"/>
			<stop id="stop2" class="ColorScheme-HighlightedText" stop-color="currentColor" stop-opacity=".4" offset="1"/>
		</linearGradient>
	</defs>
	<path id="path2" class="ColorScheme-Highlight" d="m6.43 11.5c-2.71 0-4.92 2.21-4.92 4.93l-0.00593 25.1c0 2.72 2.21 4.93 4.92 4.93h35.2c2.71 0 4.92-2.21 4.92-4.93v-20.1c0-2.72-2.21-4.93-4.92-4.93h-15.1c-4.02 0-6.53-1.91-9.24-3.82-0.904-0.634-2.52-1.21-3.63-1.21z" fill="currentColor"/>
	<path id="path3" d="m6.52 11.5c-1.41-0.00369-2.69 0.568-3.59 1.45-0.703 2.2 0.405 3.25 2.48 3.55h21.1c-4.02 0-6.43-1.8-9.24-3.8-0.904-0.64-2.52-1.2-3.63-1.2z" fill-opacity=".2"/>
	<path id="path4" class="ColorScheme-HighlightedText" d="m1.51 16.5c-0.00201 8.43-0.00392 17.1-0.00593 25.1 6e-7 2.71 2.21 4.92 4.92 4.92h35.2c2.71 0 4.92-2.21 4.92-4.92v-20.1c0-2.71-2.21-5-4.92-5z" fill="url(#a)"/>
	<path id="pathtext" class="ColorScheme-Text" d="m41 33.8c0.0162 0.459-0.128 0.682-0.259 1.08l-0.235 0.122c-0.192 0.39 0.0192 0.248-0.118 0.558-0.3 0.278-0.91 0.871-1.1 0.925-0.143-0.0031 0.0965-0.176 0.128-0.243-0.402 0.288-0.322 0.432-0.937 0.607l-0.0181-0.0419c-1.51 0.744-3.62-0.73-3.59-2.74-0.0162 0.128-0.0462 0.0958-0.0796 0.147-0.0781-1.04 0.458-2.07 1.36-2.5 0.884-0.457 1.92-0.27 2.55 0.347-0.348-0.476-1.04-0.98-1.86-0.933-0.804 0.0134-1.56 0.547-1.81 1.13-0.412 0.271-0.46 1.04-0.639 1.19-0.242 1.85 0.454 2.65 1.63 3.6 0.185 0.13 0.0519 0.15 0.0769 0.249-0.391-0.191-0.749-0.48-1.04-0.833 0.156 0.239 0.325 0.471 0.543 0.653-0.369-0.13-0.862-0.933-1-0.965 0.635 1.19 2.58 2.08 3.59 1.64-0.471 0.0181-1.07 0.0101-1.6-0.194-0.223-0.119-0.524-0.366-0.47-0.412 1.39 0.541 2.82 0.41 4.02-0.596 0.306-0.249 0.64-0.672 0.736-0.677-0.145 0.228 0.025 0.11-0.0865 0.311 0.304-0.513-0.133-0.209 0.314-0.885l0.165 0.237c-0.0615-0.426 0.507-0.943 0.448-1.62 0.13-0.206 0.145 0.222 0.0073 0.695 0.192-0.525 0.0508-0.61 0.0996-1.04 0.0531 0.146 0.123 0.3 0.159 0.454-0.125-0.508 0.128-0.855 0.191-1.15-0.0623-0.0284-0.193 0.224-0.223-0.375 0.0047-0.26 0.0696-0.137 0.0946-0.201-0.0488-0.0292-0.177-0.229-0.255-0.612 0.0562-0.0904 0.151 0.233 0.228 0.247-0.0496-0.305-0.135-0.537-0.139-0.77-0.225-0.492-0.0796 0.0658-0.262-0.211-0.24-0.781 0.199-0.182 0.229-0.536 0.363 0.55 0.57 1.4 0.666 1.76-0.0727-0.43-0.19-0.848-0.333-1.25 0.111 0.0488-0.178-0.885 0.144-0.267-0.343-1.32-1.47-2.55-2.5-3.13 0.127 0.121 0.286 0.273 0.229 0.297-0.515-0.32-0.425-0.345-0.498-0.48-0.419-0.178-0.447 0.0146-0.724 2.85e-4 -0.791-0.438-0.943-0.392-1.67-0.666l0.0331 0.162c-0.523-0.182-0.61 0.0688-1.18 2.9e-4 -0.0342-0.0277 0.182-0.102 0.359-0.128-0.507 0.07-0.483-0.104-0.978 0.0192 0.122-0.0896 0.252-0.149 0.382-0.225-0.413 0.0261-0.986 0.251-0.809 0.0462-0.673 0.314-1.87 0.755-2.54 1.41l-0.0212-0.147c-0.308 0.385-1.34 1.15-1.42 1.65l-0.0823 0.02c-0.16 0.283-0.264 0.604-0.391 0.895-0.209 0.373-0.307 0.143-0.277 0.202-0.412 0.872-0.617 1.6-0.793 2.21 0.126 0.197 0.0031 1.18 0.0504 1.97-0.207 3.9 2.62 7.69 5.71 8.56 0.453 0.17 1.13 0.163 1.7 0.18-0.676-0.202-0.763-0.107-1.42-0.347-0.475-0.234-0.579-0.501-0.916-0.806l0.133 0.246c-0.66-0.245-0.384-0.302-0.921-0.48l0.142-0.194c-0.214-0.0169-0.567-0.376-0.663-0.576l-0.234 0.0096c-0.281-0.362-0.431-0.623-0.42-0.826l-0.0758 0.141c-0.0862-0.153-1.03-1.36-0.543-1.08-0.0915-0.0869-0.213-0.142-0.345-0.392l0.1-0.12c-0.236-0.318-0.436-0.726-0.42-0.862 0.126 0.178 0.214 0.212 0.301 0.242-0.598-1.55-0.632-0.0854-1.08-1.58l0.0954-0.0077c-0.0731-0.116-0.118-0.241-0.177-0.365l0.0419-0.434c-0.43-0.519-0.12-2.21-0.0585-3.14 0.0435-0.377 0.36-0.778 0.6-1.41l-0.147-0.0266c0.28-0.51 1.6-2.05 2.21-1.97 0.296-0.388-0.0588-0.0016-0.117-0.0992 0.651-0.703 0.855-0.497 1.29-0.623 0.473-0.293-0.406 0.115-0.182-0.112 0.818-0.218 0.58-0.497 1.65-0.607 0.113 0.0669-0.262 0.103-0.355 0.19 0.682-0.349 2.16-0.269 3.12 0.193 1.11 0.543 2.36 2.15 2.41 3.66l0.0562 0.0158c-0.0285 0.6 0.0877 1.3-0.114 1.93l0.137-0.302" fill="currentColor" stroke-width=".385" style="isolation:isolate"/>
	<path id="path6" d="m41 33.8c0.0162 0.459-0.128 0.682-0.259 1.08l-0.235 0.122c-0.192 0.39 0.0192 0.248-0.118 0.558-0.3 0.278-0.91 0.871-1.1 0.925-0.143-0.0031 0.0965-0.176 0.128-0.243-0.402 0.288-0.322 0.432-0.937 0.607l-0.0181-0.0419c-1.51 0.744-3.62-0.73-3.59-2.74-0.0162 0.128-0.0462 0.0958-0.0796 0.147-0.0781-1.04 0.458-2.07 1.36-2.5 0.884-0.457 1.92-0.27 2.55 0.347-0.348-0.476-1.04-0.98-1.86-0.933-0.804 0.0134-1.56 0.547-1.81 1.13-0.412 0.271-0.46 1.04-0.639 1.19-0.242 1.85 0.454 2.65 1.63 3.6 0.185 0.13 0.0519 0.15 0.0769 0.249-0.391-0.191-0.749-0.48-1.04-0.833 0.156 0.239 0.325 0.471 0.543 0.653-0.369-0.13-0.862-0.933-1-0.965 0.635 1.19 2.58 2.08 3.59 1.64-0.471 0.0181-1.07 0.0101-1.6-0.194-0.223-0.119-0.524-0.366-0.47-0.412 1.39 0.541 2.82 0.41 4.02-0.596 0.306-0.249 0.64-0.672 0.736-0.677-0.145 0.228 0.025 0.11-0.0865 0.311 0.304-0.513-0.133-0.209 0.314-0.885l0.165 0.237c-0.0615-0.426 0.507-0.943 0.448-1.62 0.13-0.206 0.145 0.222 0.0073 0.695 0.192-0.525 0.0508-0.61 0.0996-1.04 0.0531 0.146 0.123 0.3 0.159 0.454-0.125-0.508 0.128-0.855 0.191-1.15-0.0623-0.0284-0.193 0.224-0.223-0.375 0.0047-0.26 0.0696-0.137 0.0946-0.201-0.0488-0.0292-0.177-0.229-0.255-0.612 0.0562-0.0904 0.151 0.233 0.228 0.247-0.0496-0.305-0.135-0.537-0.139-0.77-0.225-0.492-0.0796 0.0658-0.262-0.211-0.24-0.781 0.199-0.182 0.229-0.536 0.363 0.55 0.57 1.4 0.666 1.76-0.0727-0.43-0.19-0.848-0.333-1.25 0.111 0.0488-0.178-0.885 0.144-0.267-0.343-1.32-1.47-2.55-2.5-3.13 0.127 0.121 0.286 0.273 0.229 0.297-0.515-0.32-0.425-0.345-0.498-0.48-0.419-0.178-0.447 0.0146-0.724 2.85e-4 -0.791-0.438-0.943-0.392-1.67-0.666l0.0331 0.162c-0.523-0.182-0.61 0.0688-1.18 2.9e-4 -0.0342-0.0277 0.182-0.102 0.359-0.128-0.507 0.07-0.483-0.104-0.978 0.0192 0.122-0.0896 0.252-0.149 0.382-0.225-0.413 0.0261-0.986 0.251-0.809 0.0462-0.673 0.314-1.87 0.755-2.54 1.41l-0.0212-0.147c-0.308 0.385-1.34 1.15-1.42 1.65l-0.0823 0.02c-0.16 0.283-0.264 0.604-0.391 0.895-0.209 0.373-0.307 0.143-0.277 0.202-0.412 0.872-0.617 1.6-0.793 2.21 0.126 0.197 0.0031 1.18 0.0504 1.97-0.207 3.9 2.62 7.69 5.71 8.56 0.453 0.17 1.13 0.163 1.7 0.18-0.676-0.202-0.763-0.107-1.42-0.347-0.475-0.234-0.579-0.501-0.916-0.806l0.133 0.246c-0.66-0.245-0.384-0.302-0.921-0.48l0.142-0.194c-0.214-0.0169-0.567-0.376-0.663-0.576l-0.234 0.0096c-0.281-0.362-0.431-0.623-0.42-0.826l-0.0758 0.141c-0.0862-0.153-1.03-1.36-0.543-1.08-0.0915-0.0869-0.213-0.142-0.345-0.392l0.1-0.12c-0.236-0.318-0.436-0.726-0.42-0.862 0.126 0.178 0.214 0.212 0.301 0.242-0.598-1.55-0.632-0.0854-1.08-1.58l0.0954-0.0077c-0.0731-0.116-0.118-0.241-0.177-0.365l0.0419-0.434c-0.43-0.519-0.12-2.21-0.0585-3.14 0.0435-0.377 0.36-0.778 0.6-1.41l-0.147-0.0266c0.28-0.51 1.6-2.05 2.21-1.97 0.296-0.388-0.0588-0.0016-0.117-0.0992 0.651-0.703 0.855-0.497 1.29-0.623 0.473-0.293-0.406 0.115-0.182-0.112 0.818-0.218 0.58-0.497 1.65-0.607 0.113 0.0669-0.262 0.103-0.355 0.19 0.682-0.349 2.16-0.269 3.12 0.193 1.11 0.543 2.36 2.15 2.41 3.66l0.0562 0.0158c-0.0285 0.6 0.0877 1.3-0.114 1.93l0.137-0.302" fill="#fff" fill-opacity=".2" stroke-width=".385" style="isolation:isolate"/>
</svg>
