<?xml version="1.0" encoding="UTF-8"?>
<svg id="svg5" width="48pt" height="48pt" style="isolation:isolate" version="1.1" viewBox="0 0 48 48" xmlns="http://www.w3.org/2000/svg">
	<defs id="defs2">
		<style id="current-color-scheme" type="text/css">.ColorScheme-Text { color:#fff; }
.ColorScheme-Highlight { color:#50c9c3; }
.ColorScheme-HighlightedText { color:#fff }</style>
		<linearGradient id="a" x1="1.5" x2="46" y1="32" y2="32" gradientTransform="translate(-.000766 -.557)" gradientUnits="userSpaceOnUse">
			<stop id="stop1" stop-color="#fff" stop-opacity="0" offset="0"/>
			<stop id="stop2" class="ColorScheme-HighlightedText" stop-color="currentColor" stop-opacity=".4" offset="1"/>
		</linearGradient>
	</defs>
	<path id="path2" class="ColorScheme-Highlight" d="m6.43 11.5c-2.71 0-4.92 2.21-4.92 4.93l-0.00593 25.1c0 2.72 2.21 4.93 4.92 4.93h35.2c2.71 0 4.92-2.21 4.92-4.93v-20.1c0-2.72-2.21-4.93-4.92-4.93h-15.1c-4.02 0-6.53-1.91-9.24-3.82-0.904-0.634-2.52-1.21-3.63-1.21z" fill="currentColor"/>
	<path id="path3" d="m6.52 11.5c-1.41-0.00369-2.69 0.568-3.59 1.45-0.703 2.2 0.405 3.25 2.48 3.55h21.1c-4.02 0-6.43-1.8-9.24-3.8-0.904-0.64-2.52-1.2-3.63-1.2z" fill-opacity=".2"/>
	<path id="path4" class="ColorScheme-HighlightedText" d="m1.51 16.5c-0.00201 8.43-0.00392 17.1-0.00593 25.1 6e-7 2.71 2.21 4.92 4.92 4.92h35.2c2.71 0 4.92-2.21 4.92-4.92v-20.1c0-2.71-2.21-5-4.92-5z" fill="url(#a)"/>
	<path id="pathtext" class="ColorScheme-Text" d="m34 26.5c-2.26 0-4.42 0.897-6.02 2.49-1.59 1.6-2.49 3.76-2.49 6.01s0.896 4.42 2.49 6.01c1.6 1.59 3.76 2.49 6.02 2.49 2.15 0 4.22-0.811 5.79-2.27 1.57-1.46 2.54-3.46 2.7-5.6 0.0321-0.427-0.288-0.798-0.713-0.829-0.426-0.0309-0.797 0.289-0.829 0.713-0.131 1.75-0.918 3.39-2.21 4.58-1.29 1.19-2.98 1.85-4.74 1.85-1.85 0-3.62-0.734-4.92-2.04-1.3-1.31-2.04-3.07-2.04-4.92 0-1.84 0.735-3.61 2.04-4.92 1.31-1.3 3.08-2.04 4.92-2.04 0.427 0 0.775-0.347 0.775-0.773 0-0.427-0.348-0.772-0.775-0.772zm3.59 0.885c-0.274 0.0039-0.539 0.154-0.675 0.413-0.198 0.377-0.053 0.845 0.325 1.04 1.32 0.695 2.38 1.79 3.03 3.13 0.188 0.384 0.652 0.544 1.04 0.357 0.384-0.187 0.544-0.651 0.356-1.03-0.793-1.63-2.09-2.97-3.7-3.82-0.118-0.0619-0.244-0.0911-0.369-0.0894zm-2.79 1.33 0.135 0.529c0.106 0.419 0.0647 0.747-0.063 1.04-0.128 0.291-0.349 0.544-0.615 0.785-0.533 0.482-1.24 0.894-1.64 1.49-0.285 0.428-0.209 0.907 0.0601 1.35 0.269 0.441 0.721 0.878 1.24 1.34l0.239-0.171c-0.219-0.494-0.654-0.914-0.806-1.35-0.0759-0.217-0.0898-0.429 0.0102-0.678 0.1-0.249 0.325-0.539 0.751-0.876 1.12-0.882 1.42-1.64 1.41-2.2-0.0071-0.491-0.237-0.719-0.294-0.784-0.0027-0.0112 0.0043-0.018 0.0015-0.0293l-0.0102 0.0059c-0.0044-0.0049-0.0293-0.0762-0.0293-0.0762zm1.6 2.55s-0.0371 0.0173-0.0381 0.0176c-0.0424 0.0106-0.921 0.226-1.64 0.722-0.368 0.254-0.695 0.582-0.807 1.01-0.112 0.426 0.0118 0.926 0.475 1.46 0.226 0.26 0.188 0.459 0.105 0.634-0.0828 0.175-0.224 0.293-0.224 0.293l0.154 0.234c-0.916 0.0656-1.86 0.0726-2.32 0.0102-0.0996-0.0133-0.14-0.0278-0.193-0.0425 0.0338-0.0174 0.0587-0.0331 0.103-0.0513 0.312-0.129 0.801-0.248 0.801-0.248l-0.0234-0.296s-0.0444 0.0102-0.0454 0.0102v-0.0059s-0.078 0.0254-0.0879 0.0278c-0.108-0.0043-0.745-0.0513-1.64 0.384-0.0781 0.0378-0.141 0.0772-0.192 0.126-0.0506 0.0488-0.0968 0.12-0.0923 0.205 0.0046 0.0849 0.057 0.149 0.108 0.19 0.0514 0.0412 0.109 0.0707 0.177 0.0967 0.272 0.104 0.715 0.163 1.26 0.195 1.09 0.0634 2.56-0.0052 3.58-0.275l0.0249-0.0059 0.022-0.0161c0.188-0.128 0.469-0.249 0.469-0.249l-0.0586-0.193 0.249-0.0981s0.0586-0.0227 0.208-0.0542c0.241-0.0502 0.564 0.124 0.611 0.398 0.0234 0.137-0.0119 0.312-0.18 0.529-0.155 0.199-0.424 0.427-0.851 0.662l-0.4-0.141c-0.237-0.0838-0.39-0.236-0.39-0.236l-0.0557-0.0571-0.0791 0.0161c-1.24 0.239-1.94 0.23-2.85 0.136-0.154-0.0158-0.223-0.0484-0.246-0.063 0.0076-0.0129 0.0164-0.0291 0.0337-0.0469 0.0236-0.0244 0.0425-0.0381 0.0425-0.0381l-0.136-0.262c-0.0196 0.0065-0.0238 0.0154-0.0425 0.022-0.208 0.0729-0.376 0.143-0.483 0.231-0.0588 0.0481-0.106 0.103-0.135 0.17-0.0287 0.067-0.0318 0.149-0.0073 0.217 0.0488 0.136 0.165 0.21 0.305 0.275 0.14 0.0649 0.317 0.116 0.526 0.157 0.836 0.161 2.2 0.146 3.51-0.236l0.313-0.0923c-0.0068 0.0036-0.0136 0.0067-0.0205 0.0102l-0.0498 0.0249-0.0161 0.0425-0.0015 0.0029c-0.0014 0.0015-0.0044 0.0029-0.0044 0.0029l0.0015 0.0029 0.138 0.253c0.695-0.183 1.17-0.435 1.46-0.722 0.293-0.287 0.407-0.618 0.363-0.911-0.088-0.587-0.775-0.961-1.49-0.709-0.115 0.0406-0.136 0.0894-0.171 0.133-9.6e-5 3.6e-5 -0.0059 0.0015-0.0059 0.0015l0.0015 0.0029c-0.0145 0.0181-0.0747 0.0557-0.0747 0.0557l-0.152 0.237c-0.142 0.0244-0.838 0.14-1.56 0.201-0.0688 0.0058-0.139 0.011-0.208 0.0161 0.0015-0.0021 0.0042-0.0058 0.0044-0.0059 0.0339-0.0176 0.333-0.17 0.596-0.457 0.139-0.152 0.264-0.337 0.311-0.56 0.0465-0.222 4e-3 -0.478-0.168-0.721-0.144-0.202-0.273-0.372-0.347-0.523-0.0739-0.151-0.0976-0.27-0.0527-0.415 0.0898-0.289 0.536-0.73 1.71-1.41zm-0.81 0.68c-0.0999 0.0777-0.214 0.158-0.328 0.239 0.0934-0.0746 0.201-0.153 0.319-0.236 0.0031-0.0012 0.0057-0.0017 0.0088-0.0029zm-3.03 5.47-0.0205 0.0059c-0.0158 0.0044-0.02 0.0102-0.0352 0.0146l-0.0015 0.0029c-0.194 0.0577-0.348 0.119-0.45 0.205-0.11 0.093-0.17 0.248-0.125 0.376s0.151 0.211 0.28 0.283c0.129 0.0722 0.291 0.133 0.482 0.182 0.762 0.194 1.98 0.206 3.08-0.264l0.337-0.144-0.343-0.133c-0.333-0.13-0.571-0.28-0.571-0.28l-0.0483-0.0308-0.0586 0.0117c-0.938 0.177-1.35 0.189-2.2 0.0923-0.128-0.0147-0.174-0.0332-0.22-0.0498l0.466-0.272h-0.557zm-1.14 0.785c-0.0925 0.0031-0.191 0.0142-0.293 0.0322-0.271 0.0483-0.563 0.144-0.8 0.261-0.118 0.0585-0.222 0.121-0.305 0.195-0.0831 0.0733-0.158 0.161-0.163 0.286-0.0042 0.124 0.0863 0.233 0.199 0.296 0.113 0.0633 0.261 0.107 0.469 0.141 0.141 0.0228 0.281 0.0437 0.42 0.063l0.406 0.338s0.0367 0.0277 0.0894 0.0527c0.0527 0.0251 0.132 0.055 0.25 0.0879 0.236 0.0657 0.628 0.14 1.28 0.182 0.984 0.063 2.22 0.045 3.24-0.105 0.508-0.0752 0.959-0.182 1.3-0.338 0.21-0.0956 0.273-0.271 0.385-0.42 0.0584-0.04 0.124-0.0821 0.155-0.114 0.024-0.0248 0.0406-0.046 0.0527-0.0644 0.0121-0.0185 0.0234-0.044 0.0234-0.044l-0.0234-0.0059c0.0026-0.0161 0.0324-0.02 0.0337-0.0366l-0.289-0.0659s7e-3 -0.0134 0.0059-0.0117c-0.0011 0.0017-0.0087 0.0082-0.0205 0.0205-0.0236 0.0245-0.0726 0.0679-0.171 0.123-0.197 0.11-0.586 0.265-1.31 0.401-1.64 0.308-3.69 0.273-4.88 0.0762l-0.173-0.0293c1.87 0.223 3.54 0.138 4.69-0.0674 0.654-0.117 1.13-0.263 1.41-0.442 0.14-0.0895 0.258-0.2 0.255-0.362-0.0017-0.0811-0.0432-0.157-0.0967-0.211-0.0441-0.0448-0.103-0.0753-0.166-0.107-5.5e-5 -4e-5 -0.0015-0.0044-0.0015-0.0044l-0.041-0.0352-0.0571 0.0015-0.0571 0.278-0.0352-0.0117s0.0174 0.0293 0.0176 0.0264c6.6e-5 -0.0015 0.0075 0.0064-0.0308 0.0381-0.0383 0.0317-0.122 0.0779-0.271 0.123-0.573 0.174-1.85 0.298-3.1 0.313-0.623 0.0079-1.24-0.0098-1.77-0.0586-0.505-0.0468-0.908-0.127-1.15-0.224 0.0099-0.0069 0.0024-0.0038 0.0146-0.0102 0.137-0.0728 0.377-0.144 0.475-0.166 0.222-0.0481 0.331-0.0396 0.331-0.0396l0.536 0.0381-0.439-0.311c-0.023-0.0162-0.0531-0.0111-0.0776-0.022l0.0015-0.0044s-0.0115 0.0029-0.0117 0.0029c-0.0737-0.0306-0.146-0.0612-0.231-0.0644-0.0294-0.0011-0.06-1e-3 -0.0908 0zm2.23 1.61c-0.23 0.013-0.46 0.0379-0.664 0.0249-0.0538-0.0035-0.0539-0.0108-0.104-0.0146 0.252 0.014 0.504-6.14e-4 0.768-0.0102z"  fill="currentColor" style="-inkscape-stroke:none;isolation:isolate"/>
	<path id="path28" d="m34 26.5c-2.26 0-4.42 0.897-6.02 2.49-1.59 1.6-2.49 3.76-2.49 6.01s0.896 4.42 2.49 6.01c1.6 1.59 3.76 2.49 6.02 2.49 2.15 0 4.22-0.811 5.79-2.27 1.57-1.46 2.54-3.46 2.7-5.6 0.0321-0.427-0.288-0.798-0.713-0.829-0.426-0.0309-0.797 0.289-0.829 0.713-0.131 1.75-0.918 3.39-2.21 4.58-1.29 1.19-2.98 1.85-4.74 1.85-1.85 0-3.62-0.734-4.92-2.04-1.3-1.31-2.04-3.07-2.04-4.92 0-1.84 0.735-3.61 2.04-4.92 1.31-1.3 3.08-2.04 4.92-2.04 0.427 0 0.775-0.347 0.775-0.773 0-0.427-0.348-0.772-0.775-0.772zm3.59 0.885c-0.274 0.0039-0.539 0.154-0.675 0.413-0.198 0.377-0.053 0.845 0.325 1.04 1.32 0.695 2.38 1.79 3.03 3.13 0.188 0.384 0.652 0.544 1.04 0.357 0.384-0.187 0.544-0.651 0.356-1.03-0.793-1.63-2.09-2.97-3.7-3.82-0.118-0.0619-0.244-0.0911-0.369-0.0894zm-2.79 1.33 0.135 0.529c0.106 0.419 0.0647 0.747-0.063 1.04-0.128 0.291-0.349 0.544-0.615 0.785-0.533 0.482-1.24 0.894-1.64 1.49-0.285 0.428-0.209 0.907 0.0601 1.35 0.269 0.441 0.721 0.878 1.24 1.34l0.239-0.171c-0.219-0.494-0.654-0.914-0.806-1.35-0.0759-0.217-0.0898-0.429 0.0102-0.678 0.1-0.249 0.325-0.539 0.751-0.876 1.12-0.882 1.42-1.64 1.41-2.2-0.0071-0.491-0.237-0.719-0.294-0.784-0.0027-0.0112 0.0043-0.018 0.0015-0.0293l-0.0102 0.0059c-0.0044-0.0049-0.0293-0.0762-0.0293-0.0762zm1.6 2.55s-0.0371 0.0173-0.0381 0.0176c-0.0424 0.0106-0.921 0.226-1.64 0.722-0.368 0.254-0.695 0.582-0.807 1.01-0.112 0.426 0.0118 0.926 0.475 1.46 0.226 0.26 0.188 0.459 0.105 0.634-0.0828 0.175-0.224 0.293-0.224 0.293l0.154 0.234c-0.916 0.0656-1.86 0.0726-2.32 0.0102-0.0996-0.0133-0.14-0.0278-0.193-0.0425 0.0338-0.0174 0.0587-0.0331 0.103-0.0513 0.312-0.129 0.801-0.248 0.801-0.248l-0.0234-0.296s-0.0444 0.0102-0.0454 0.0102v-0.0059s-0.078 0.0254-0.0879 0.0278c-0.108-0.0043-0.745-0.0513-1.64 0.384-0.0781 0.0378-0.141 0.0772-0.192 0.126-0.0506 0.0488-0.0968 0.12-0.0923 0.205 0.0046 0.0849 0.057 0.149 0.108 0.19 0.0514 0.0412 0.109 0.0707 0.177 0.0967 0.272 0.104 0.715 0.163 1.26 0.195 1.09 0.0634 2.56-0.0052 3.58-0.275l0.0249-0.0059 0.022-0.0161c0.188-0.128 0.469-0.249 0.469-0.249l-0.0586-0.193 0.249-0.0981s0.0586-0.0227 0.208-0.0542c0.241-0.0502 0.564 0.124 0.611 0.398 0.0234 0.137-0.0119 0.312-0.18 0.529-0.155 0.199-0.424 0.427-0.851 0.662l-0.4-0.141c-0.237-0.0838-0.39-0.236-0.39-0.236l-0.0557-0.0571-0.0791 0.0161c-1.24 0.239-1.94 0.23-2.85 0.136-0.154-0.0158-0.223-0.0484-0.246-0.063 0.0076-0.0129 0.0164-0.0291 0.0337-0.0469 0.0236-0.0244 0.0425-0.0381 0.0425-0.0381l-0.136-0.262c-0.0196 0.0065-0.0238 0.0154-0.0425 0.022-0.208 0.0729-0.376 0.143-0.483 0.231-0.0588 0.0481-0.106 0.103-0.135 0.17-0.0287 0.067-0.0318 0.149-0.0073 0.217 0.0488 0.136 0.165 0.21 0.305 0.275 0.14 0.0649 0.317 0.116 0.526 0.157 0.836 0.161 2.2 0.146 3.51-0.236l0.313-0.0923c-0.0068 0.0036-0.0136 0.0067-0.0205 0.0102l-0.0498 0.0249-0.0161 0.0425-0.0015 0.0029c-0.0014 0.0015-0.0044 0.0029-0.0044 0.0029l0.0015 0.0029 0.138 0.253c0.695-0.183 1.17-0.435 1.46-0.722 0.293-0.287 0.407-0.618 0.363-0.911-0.088-0.587-0.775-0.961-1.49-0.709-0.115 0.0406-0.136 0.0894-0.171 0.133-9.6e-5 3.6e-5 -0.0059 0.0015-0.0059 0.0015l0.0015 0.0029c-0.0145 0.0181-0.0747 0.0557-0.0747 0.0557l-0.152 0.237c-0.142 0.0244-0.838 0.14-1.56 0.201-0.0688 0.0058-0.139 0.011-0.208 0.0161 0.0015-0.0021 0.0042-0.0058 0.0044-0.0059 0.0339-0.0176 0.333-0.17 0.596-0.457 0.139-0.152 0.264-0.337 0.311-0.56 0.0465-0.222 4e-3 -0.478-0.168-0.721-0.144-0.202-0.273-0.372-0.347-0.523-0.0739-0.151-0.0976-0.27-0.0527-0.415 0.0898-0.289 0.536-0.73 1.71-1.41zm-0.81 0.68c-0.0999 0.0777-0.214 0.158-0.328 0.239 0.0934-0.0746 0.201-0.153 0.319-0.236 0.0031-0.0012 0.0057-0.0017 0.0088-0.0029zm-3.03 5.47-0.0205 0.0059c-0.0158 0.0044-0.02 0.0102-0.0352 0.0146l-0.0015 0.0029c-0.194 0.0577-0.348 0.119-0.45 0.205-0.11 0.093-0.17 0.248-0.125 0.376s0.151 0.211 0.28 0.283c0.129 0.0722 0.291 0.133 0.482 0.182 0.762 0.194 1.98 0.206 3.08-0.264l0.337-0.144-0.343-0.133c-0.333-0.13-0.571-0.28-0.571-0.28l-0.0483-0.0308-0.0586 0.0117c-0.938 0.177-1.35 0.189-2.2 0.0923-0.128-0.0147-0.174-0.0332-0.22-0.0498l0.466-0.272h-0.557zm-1.14 0.785c-0.0925 0.0031-0.191 0.0142-0.293 0.0322-0.271 0.0483-0.563 0.144-0.8 0.261-0.118 0.0585-0.222 0.121-0.305 0.195-0.0831 0.0733-0.158 0.161-0.163 0.286-0.0042 0.124 0.0863 0.233 0.199 0.296 0.113 0.0633 0.261 0.107 0.469 0.141 0.141 0.0228 0.281 0.0437 0.42 0.063l0.406 0.338s0.0367 0.0277 0.0894 0.0527c0.0527 0.0251 0.132 0.055 0.25 0.0879 0.236 0.0657 0.628 0.14 1.28 0.182 0.984 0.063 2.22 0.045 3.24-0.105 0.508-0.0752 0.959-0.182 1.3-0.338 0.21-0.0956 0.273-0.271 0.385-0.42 0.0584-0.04 0.124-0.0821 0.155-0.114 0.024-0.0248 0.0406-0.046 0.0527-0.0644 0.0121-0.0185 0.0234-0.044 0.0234-0.044l-0.0234-0.0059c0.0026-0.0161 0.0324-0.02 0.0337-0.0366l-0.289-0.0659s7e-3 -0.0134 0.0059-0.0117c-0.0011 0.0017-0.0087 0.0082-0.0205 0.0205-0.0236 0.0245-0.0726 0.0679-0.171 0.123-0.197 0.11-0.586 0.265-1.31 0.401-1.64 0.308-3.69 0.273-4.88 0.0762l-0.173-0.0293c1.87 0.223 3.54 0.138 4.69-0.0674 0.654-0.117 1.13-0.263 1.41-0.442 0.14-0.0895 0.258-0.2 0.255-0.362-0.0017-0.0811-0.0432-0.157-0.0967-0.211-0.0441-0.0448-0.103-0.0753-0.166-0.107-5.5e-5 -4e-5 -0.0015-0.0044-0.0015-0.0044l-0.041-0.0352-0.0571 0.0015-0.0571 0.278-0.0352-0.0117s0.0174 0.0293 0.0176 0.0264c6.6e-5 -0.0015 0.0075 0.0064-0.0308 0.0381-0.0383 0.0317-0.122 0.0779-0.271 0.123-0.573 0.174-1.85 0.298-3.1 0.313-0.623 0.0079-1.24-0.0098-1.77-0.0586-0.505-0.0468-0.908-0.127-1.15-0.224 0.0099-0.0069 0.0024-0.0038 0.0146-0.0102 0.137-0.0728 0.377-0.144 0.475-0.166 0.222-0.0481 0.331-0.0396 0.331-0.0396l0.536 0.0381-0.439-0.311c-0.023-0.0162-0.0531-0.0111-0.0776-0.022l0.0015-0.0044s-0.0115 0.0029-0.0117 0.0029c-0.0737-0.0306-0.146-0.0612-0.231-0.0644-0.0294-0.0011-0.06-1e-3 -0.0908 0zm2.23 1.61c-0.23 0.013-0.46 0.0379-0.664 0.0249-0.0538-0.0035-0.0539-0.0108-0.104-0.0146 0.252 0.014 0.504-6.14e-4 0.768-0.0102z"  fill="#fff" fill-opacity=".2" style="-inkscape-stroke:none;isolation:isolate"/>
</svg>
