<?xml version="1.0" encoding="UTF-8"?>
<svg id="svg5" width="48pt" height="48pt" style="isolation:isolate" version="1.1" viewBox="0 0 48 48" xmlns="http://www.w3.org/2000/svg">
	<defs id="defs2">
		<style id="current-color-scheme" type="text/css">.ColorScheme-Text { color:#fff; }
.ColorScheme-Highlight { color:#50c9c3; }
.ColorScheme-HighlightedText { color:#fff }</style>
		<linearGradient id="a" x1="1.5" x2="46" y1="32" y2="32" gradientTransform="translate(-.000766 -.557)" gradientUnits="userSpaceOnUse">
			<stop id="stop1" stop-color="#fff" stop-opacity="0" offset="0"/>
			<stop id="stop2" class="ColorScheme-HighlightedText" stop-color="currentColor" stop-opacity=".4" offset="1"/>
		</linearGradient>
	</defs>
	<path id="path2" class="ColorScheme-Highlight" d="m6.43 11.5c-2.71 0-4.92 2.21-4.92 4.93l-0.00593 25.1c0 2.72 2.21 4.93 4.92 4.93h35.2c2.71 0 4.92-2.21 4.92-4.93v-20.1c0-2.72-2.21-4.93-4.92-4.93h-15.1c-4.02 0-6.53-1.91-9.24-3.82-0.904-0.634-2.52-1.21-3.63-1.21z" fill="currentColor"/>
	<path id="path3" d="m6.52 11.5c-1.41-0.00369-2.69 0.568-3.59 1.45-0.703 2.2 0.405 3.25 2.48 3.55h21.1c-4.02 0-6.43-1.8-9.24-3.8-0.904-0.64-2.52-1.2-3.63-1.2z" fill-opacity=".2"/>
	<path id="path4" class="ColorScheme-HighlightedText" d="m1.51 16.5c-0.00201 8.43-0.00392 17.1-0.00593 25.1 6e-7 2.71 2.21 4.92 4.92 4.92h35.2c2.71 0 4.92-2.21 4.92-4.92v-20.1c0-2.71-2.21-5-4.92-5z" fill="url(#a)"/>
	<path id="pathtext" class="ColorScheme-Text" d="m40.1 26.5c-0.388 0-0.7 0.312-0.7 0.7v14.1c0 0.388 0.312 0.7 0.7 0.7h0.145c0.388 0 0.7-0.312 0.7-0.7v-14.1c0-0.388-0.312-0.7-0.7-0.7h-0.145zm-9.27 6.18c-0.388 0-0.7 0.312-0.7 0.7v7.87c0 0.388 0.312 0.7 0.7 0.7h0.145c0.388 0 0.7-0.312 0.7-0.7v-7.87c0-0.388-0.312-0.7-0.7-0.7h-0.145zm3.09 3.09c-0.388 0-0.7 0.312-0.7 0.7v4.78c0 0.388 0.312 0.7 0.7 0.7h0.145c0.388 0 0.7-0.312 0.7-0.7v-4.78c0-0.388-0.312-0.7-0.7-0.7h-0.145zm3.09 2.32c-0.388 0-0.7 0.312-0.7 0.7v2.46c0 0.388 0.312 0.7 0.7 0.7h0.145c0.388 0 0.7-0.312 0.7-0.7v-2.46c0-0.388-0.312-0.7-0.7-0.7h-0.145zm-9.31 1.51c-0.371 0.0187-0.664 0.325-0.664 0.7v0.98c0 0.388 0.312 0.699 0.7 0.699h0.145c0.388 0 0.7-0.311 0.7-0.699v-0.98c0-0.388-0.312-0.7-0.7-0.7h-0.145c-0.0121 0-0.0247-6.03e-4 -0.0366 0zm-1.82 3.12c-0.214 0-0.387 0.173-0.387 0.387s0.173 0.385 0.387 0.385h16.2c0.214 0 0.385-0.171 0.385-0.385s-0.171-0.387-0.385-0.387h-16.2z" fill="currentColor" stroke-linejoin="round" stroke-width=".506" style="isolation:isolate"/>
	<path id="path6" d="m40.1 26.5c-0.388 0-0.7 0.312-0.7 0.7v14.1c0 0.388 0.312 0.7 0.7 0.7h0.145c0.388 0 0.7-0.312 0.7-0.7v-14.1c0-0.388-0.312-0.7-0.7-0.7h-0.145zm-9.27 6.18c-0.388 0-0.7 0.312-0.7 0.7v7.87c0 0.388 0.312 0.7 0.7 0.7h0.145c0.388 0 0.7-0.312 0.7-0.7v-7.87c0-0.388-0.312-0.7-0.7-0.7h-0.145zm3.09 3.09c-0.388 0-0.7 0.312-0.7 0.7v4.78c0 0.388 0.312 0.7 0.7 0.7h0.145c0.388 0 0.7-0.312 0.7-0.7v-4.78c0-0.388-0.312-0.7-0.7-0.7h-0.145zm3.09 2.32c-0.388 0-0.7 0.312-0.7 0.7v2.46c0 0.388 0.312 0.7 0.7 0.7h0.145c0.388 0 0.7-0.312 0.7-0.7v-2.46c0-0.388-0.312-0.7-0.7-0.7h-0.145zm-9.31 1.51c-0.371 0.0187-0.664 0.325-0.664 0.7v0.98c0 0.388 0.312 0.699 0.7 0.699h0.145c0.388 0 0.7-0.311 0.7-0.699v-0.98c0-0.388-0.312-0.7-0.7-0.7h-0.145c-0.0121 0-0.0247-6.03e-4 -0.0366 0zm-1.82 3.12c-0.214 0-0.387 0.173-0.387 0.387s0.173 0.385 0.387 0.385h16.2c0.214 0 0.385-0.171 0.385-0.385s-0.171-0.387-0.385-0.387h-16.2z" fill="#fff" fill-opacity=".2" stroke-linejoin="round" stroke-width=".506" style="isolation:isolate"/>
</svg>
