<?xml version="1.0" encoding="UTF-8"?>
<svg id="svg5" width="48pt" height="48pt" style="isolation:isolate" version="1.1" viewBox="0 0 48 48" xmlns="http://www.w3.org/2000/svg">
	<defs id="defs2">
		<style id="current-color-scheme" type="text/css">.ColorScheme-Text { color:#fff; }
.ColorScheme-Highlight { color:#50c9c3; }
.ColorScheme-HighlightedText { color:#fff }</style>
		<linearGradient id="a" x1="1.5" x2="46" y1="32" y2="32" gradientTransform="translate(-.000766 -.557)" gradientUnits="userSpaceOnUse">
			<stop id="stop1" stop-color="#fff" stop-opacity="0" offset="0"/>
			<stop id="stop2" class="ColorScheme-HighlightedText" stop-color="currentColor" stop-opacity=".4" offset="1"/>
		</linearGradient>
	</defs>
	<path id="path2" class="ColorScheme-Highlight" d="m6.43 11.5c-2.71 0-4.92 2.21-4.92 4.93l-0.00593 25.1c0 2.72 2.21 4.93 4.92 4.93h35.2c2.71 0 4.92-2.21 4.92-4.93v-20.1c0-2.72-2.21-4.93-4.92-4.93h-15.1c-4.02 0-6.53-1.91-9.24-3.82-0.904-0.634-2.52-1.21-3.63-1.21z" fill="currentColor"/>
	<path id="path3" d="m6.52 11.5c-1.41-0.00369-2.69 0.568-3.59 1.45-0.703 2.2 0.405 3.25 2.48 3.55h21.1c-4.02 0-6.43-1.8-9.24-3.8-0.904-0.64-2.52-1.2-3.63-1.2z" fill-opacity=".2"/>
	<path id="path4" class="ColorScheme-HighlightedText" d="m1.51 16.5c-0.00201 8.43-0.00392 17.1-0.00593 25.1 6e-7 2.71 2.21 4.92 4.92 4.92h35.2c2.71 0 4.92-2.21 4.92-4.92v-20.1c0-2.71-2.21-5-4.92-5z" fill="url(#a)"/>
	<g id="pathtext" class="ColorScheme-Text" transform="matrix(1.42 0 0 1.42 22.7 23.7)" fill="currentColor" style="isolation:isolate">
		<path id="path1" d="m8.11 2c-1.93-0.0322-3.83 0.862-5.02 2.56-1.9 2.71-1.24 6.45 1.47 8.36 0.0374 0.0262 0.0755 0.051 0.113 0.0762a1.6 1.6 0 0 1 0.00391-0.0156 0.5 0.5 0 0 0 0.58-0.182 0.5 0.5 0 0 0-0.123-0.697 0.5 0.5 0 0 0-0.00781-0.0039 1.6 1.6 0 0 1 0.00195-2e-3c-2.26-1.59-2.8-4.7-1.22-6.96 1.58-2.26 4.7-2.81 6.96-1.23 2.26 1.58 2.81 4.7 1.23 6.96-1 1.44-2.63 2.18-4.26 2.13a1.6 1.6 0 0 1 0 2e-3 1.6 1.6 0 0 1 0 2e-3 0.5 0.5 0 0 0-0.539 0.367 0.5 0.5 0 0 0 0.354 0.611 0.5 0.5 0 0 1 0.00195 0 1.6 1.6 0 0 1-0.00391 0.0117c0.0234 0.0013 0.0469 8.92e-4 0.0703 2e-3a0.5 0.5 0 0 0 0.0879 2e-3c1.95 0.0599 3.9-0.832 5.1-2.55 1.9-2.71 1.24-6.45-1.47-8.36-1.02-0.713-2.18-1.07-3.34-1.09zm-0.605 2a0.5 0.516 0 0 0-0.5 0.516v4.48h5a0.516 0.5 0 0 0 0.516-0.5 0.516 0.5 0 0 0-0.516-0.5h-4v-3.48a0.5 0.516 0 0 0-0.5-0.516zm-1.28 8.72a0.5 0.5 0 0 0-0.43 0.328 0.5 0.5 0 0 0 0.299 0.641 0.5 0.5 0 0 0 0.641-0.299 0.5 0.5 0 0 0-0.299-0.641 0.5 0.5 0 0 0-0.211-0.0293z" fill="currentColor"/>
	</g>
	<g id="g6" transform="matrix(1.42 0 0 1.42 22.7 23.7)" fill="#fff" fill-opacity=".2" style="isolation:isolate">
		<path id="path6" d="m8.11 2c-1.93-0.0322-3.83 0.862-5.02 2.56-1.9 2.71-1.24 6.45 1.47 8.36 0.0374 0.0262 0.0755 0.051 0.113 0.0762a1.6 1.6 0 0 1 0.00391-0.0156 0.5 0.5 0 0 0 0.58-0.182 0.5 0.5 0 0 0-0.123-0.697 0.5 0.5 0 0 0-0.00781-0.0039 1.6 1.6 0 0 1 0.00195-2e-3c-2.26-1.59-2.8-4.7-1.22-6.96 1.58-2.26 4.7-2.81 6.96-1.23 2.26 1.58 2.81 4.7 1.23 6.96-1 1.44-2.63 2.18-4.26 2.13a1.6 1.6 0 0 1 0 2e-3 1.6 1.6 0 0 1 0 2e-3 0.5 0.5 0 0 0-0.539 0.367 0.5 0.5 0 0 0 0.354 0.611 0.5 0.5 0 0 1 0.00195 0 1.6 1.6 0 0 1-0.00391 0.0117c0.0234 0.0013 0.0469 8.92e-4 0.0703 2e-3a0.5 0.5 0 0 0 0.0879 2e-3c1.95 0.0599 3.9-0.832 5.1-2.55 1.9-2.71 1.24-6.45-1.47-8.36-1.02-0.713-2.18-1.07-3.34-1.09zm-0.605 2a0.5 0.516 0 0 0-0.5 0.516v4.48h5a0.516 0.5 0 0 0 0.516-0.5 0.516 0.5 0 0 0-0.516-0.5h-4v-3.48a0.5 0.516 0 0 0-0.5-0.516zm-1.28 8.72a0.5 0.5 0 0 0-0.43 0.328 0.5 0.5 0 0 0 0.299 0.641 0.5 0.5 0 0 0 0.641-0.299 0.5 0.5 0 0 0-0.299-0.641 0.5 0.5 0 0 0-0.211-0.0293z" fill="#fff" fill-opacity=".2"/>
	</g>
</svg>
