<?xml version="1.0" encoding="UTF-8"?>
<svg id="svg6" width="48pt" height="48pt" style="isolation:isolate" version="1.1" viewBox="0 0 48 48" xmlns="http://www.w3.org/2000/svg">
	<defs id="defs2">
		<style id="current-color-scheme" type="text/css">.ColorScheme-Text { color:#fff; }
.ColorScheme-Highlight { color:#50c9c3; }
.ColorScheme-HighlightedText { color:#fff }</style>
		<linearGradient id="a" x1="1.5" x2="46" y1="32" y2="32" gradientTransform="translate(-.000766 -.557)" gradientUnits="userSpaceOnUse">
			<stop id="stop1" stop-color="#fff" stop-opacity="0" offset="0"/>
			<stop id="stop2" class="ColorScheme-HighlightedText" stop-color="currentColor" stop-opacity=".4" offset="1"/>
		</linearGradient>
	</defs>
	<path id="path2" class="ColorScheme-Highlight" d="m6.43 11.5c-2.71 0-4.92 2.21-4.92 4.93l-0.00593 25.1c0 2.72 2.21 4.93 4.92 4.93h35.2c2.71 0 4.92-2.21 4.92-4.93v-20.1c0-2.72-2.21-4.93-4.92-4.93h-15.1c-4.02 0-6.53-1.91-9.24-3.82-0.904-0.634-2.52-1.21-3.63-1.21z" fill="currentColor"/>
	<path id="path3" d="m6.52 11.5c-1.41-0.00369-2.69 0.568-3.59 1.45-0.703 2.2 0.405 3.25 2.48 3.55h21.1c-4.02 0-6.43-1.8-9.24-3.8-0.904-0.64-2.52-1.2-3.63-1.2z" fill-opacity=".2"/>
	<path id="path4" class="ColorScheme-HighlightedText" d="m1.51 16.5c-0.00201 8.43-0.00392 17.1-0.00593 25.1 6e-7 2.71 2.21 4.92 4.92 4.92h35.2c2.71 0 4.92-2.21 4.92-4.92v-20.1c0-2.71-2.21-5-4.92-5z" fill="url(#a)"/>
	<path id="path5" class="ColorScheme-Text" d="m41.7 36.8c-0.0716 0.262-0.158 0.52-0.259 0.773l1.03 0.825c-0.238 0.532-0.53 1.04-0.872 1.51l-1.23-0.479c-0.34 0.424-0.726 0.808-1.15 1.15l0.482 1.24c-0.472 0.342-0.977 0.635-1.51 0.873l-0.832-1.04c-0.505 0.198-1.03 0.339-1.57 0.419l-0.202 1.32c-0.579 0.0586-1.16 0.0578-1.74-0.0028l-0.202-1.32c-0.269-0.0372-0.535-0.0898-0.798-0.157-0.262-0.072-0.52-0.158-0.773-0.259l-0.825 1.03c-0.532-0.238-1.04-0.53-1.51-0.872l0.479-1.23c-0.424-0.34-0.808-0.726-1.15-1.15l-1.24 0.482c-0.342-0.472-0.635-0.977-0.873-1.51l1.04-0.832c-0.198-0.505-0.339-1.03-0.419-1.57l-1.32-0.202c-0.059-0.579-0.0582-1.16 0.0024-1.74l1.32-0.202c0.0372-0.269 0.0898-0.535 0.157-0.798 0.072-0.262 0.158-0.52 0.259-0.773l-1.03-0.825c0.238-0.532 0.53-1.04 0.872-1.51l1.23 0.479c0.34-0.424 0.726-0.808 1.15-1.15l-0.483-1.24c0.472-0.342 0.977-0.635 1.51-0.873l0.831 1.04c0.505-0.198 1.03-0.339 1.57-0.419l0.202-1.32c0.579-0.0586 1.16-0.0578 1.74 0.0028l0.202 1.32c0.269 0.0372 0.535 0.0898 0.798 0.157 0.262 0.072 0.52 0.158 0.773 0.259l0.825-1.03c0.532 0.238 1.04 0.53 1.51 0.872l-0.479 1.23c0.424 0.34 0.808 0.726 1.15 1.15l1.24-0.482c0.342 0.472 0.635 0.977 0.873 1.51l-1.04 0.832c0.14 0.358 0.252 0.726 0.252 0.726 0.0449 0.207-0.0995 0.375-0.323 0.375h-0.501c-0.223 0-0.449-0.176-0.504-0.392-0.0271-0.108-0.226-0.59-0.488-1.04-0.789-1.37-2.09-2.37-3.61-2.77-1.53-0.408-3.15-0.195-4.52 0.594s-2.37 2.09-2.77 3.61c-0.408 1.52-0.195 3.15 0.594 4.52s2.09 2.37 3.61 2.77c1.52 0.408 3.15 0.195 4.52-0.594s2.37-2.09 2.67-3.22c0.0578-0.216 0.286-0.391 0.509-0.391h0.501c0.223 0 0.382 0.0991 0.355 0.221zm-10.5-0.374 2.13 2.13 1.06-3.19zm1.28-5.3c-0.221 0.137-0.513 0.0684-0.651-0.152-0.138-0.22-0.0704-0.512 0.151-0.649 0.86-0.535 1.85-0.818 2.86-0.818 0.917 0 1.82 0.233 2.62 0.676 0.228 0.127 0.31 0.414 0.184 0.641-0.126 0.228-0.413 0.31-0.641 0.184-0.662-0.368-1.41-0.559-2.17-0.559-0.837 0-1.65 0.233-2.36 0.677zm-1.57 5.94c0.125 0.229 0.0404 0.516-0.188 0.64-0.229 0.124-0.515 0.0392-0.639-0.19-0.432-0.792-0.655-1.68-0.655-2.58 0-0.688 0.129-1.37 0.384-2.01 0.0962-0.242 0.371-0.36 0.613-0.264 0.242 0.0962 0.36 0.371 0.264 0.613-0.212 0.526-0.318 1.09-0.318 1.66 0 0.745 0.186 1.48 0.54 2.13zm6.02 1.83c0.231-0.12 0.516-0.0299 0.637 0.2 0.121 0.231 0.0324 0.516-0.198 0.637-0.775 0.406-1.64 0.618-2.52 0.618-0.844 0-1.68-0.195-2.43-0.575-0.233-0.117-0.327-0.401-0.21-0.634s0.401-0.327 0.634-0.21c0.622 0.314 1.31 0.476 2.01 0.476 0.723 0 1.44-0.174 2.08-0.512zm2.12-5.53c-0.091-0.243 0.0332-0.515 0.277-0.606 0.244-0.0914 0.516 0.0336 0.607 0.278 0.224 0.606 0.339 1.25 0.339 1.89 0 0.853-0.2 1.7-0.589 2.46-0.117 0.231-0.401 0.323-0.633 0.205s-0.325-0.403-0.206-0.634c0.321-0.63 0.486-1.32 0.486-2.03 0-0.535-0.0942-1.06-0.281-1.57zm-8.14 5.13c0-0.26 0.211-0.471 0.472-0.471 0.26 0 0.471 0.211 0.471 0.471s-0.211 0.472-0.471 0.472-0.472-0.211-0.472-0.472zm7.14-6.78c0-0.26 0.211-0.472 0.472-0.472 0.26 0 0.471 0.211 0.471 0.472 0 0.26-0.211 0.472-0.471 0.472s-0.472-0.212-0.472-0.472zm-7.55 0c0 0.26 0.211 0.472 0.472 0.472 0.26 0 0.471-0.212 0.471-0.472s-0.211-0.472-0.471-0.472-0.472 0.211-0.472 0.472zm7.44 6.78c0 0.26 0.211 0.472 0.471 0.472s0.472-0.211 0.472-0.472c0-0.26-0.211-0.471-0.472-0.471-0.26 0-0.471 0.211-0.471 0.471z" fill="currentColor" fill-rule="evenodd"/>
	<path id="path6" d="m41.7 36.8c-0.0716 0.262-0.158 0.52-0.259 0.773l1.03 0.825c-0.238 0.532-0.53 1.04-0.872 1.51l-1.23-0.479c-0.34 0.424-0.726 0.808-1.15 1.15l0.482 1.24c-0.472 0.342-0.977 0.635-1.51 0.873l-0.832-1.04c-0.505 0.198-1.03 0.339-1.57 0.419l-0.202 1.32c-0.579 0.0586-1.16 0.0578-1.74-0.0028l-0.202-1.32c-0.269-0.0372-0.535-0.0898-0.798-0.157-0.262-0.072-0.52-0.158-0.773-0.259l-0.825 1.03c-0.532-0.238-1.04-0.53-1.51-0.872l0.479-1.23c-0.424-0.34-0.808-0.726-1.15-1.15l-1.24 0.482c-0.342-0.472-0.635-0.977-0.873-1.51l1.04-0.832c-0.198-0.505-0.339-1.03-0.419-1.57l-1.32-0.202c-0.059-0.579-0.0582-1.16 0.0024-1.74l1.32-0.202c0.0372-0.269 0.0898-0.535 0.157-0.798 0.072-0.262 0.158-0.52 0.259-0.773l-1.03-0.825c0.238-0.532 0.53-1.04 0.872-1.51l1.23 0.479c0.34-0.424 0.726-0.808 1.15-1.15l-0.483-1.24c0.472-0.342 0.977-0.635 1.51-0.873l0.831 1.04c0.505-0.198 1.03-0.339 1.57-0.419l0.202-1.32c0.579-0.0586 1.16-0.0578 1.74 0.0028l0.202 1.32c0.269 0.0372 0.535 0.0898 0.798 0.157 0.262 0.072 0.52 0.158 0.773 0.259l0.825-1.03c0.532 0.238 1.04 0.53 1.51 0.872l-0.479 1.23c0.424 0.34 0.808 0.726 1.15 1.15l1.24-0.482c0.342 0.472 0.635 0.977 0.873 1.51l-1.04 0.832c0.14 0.358 0.252 0.726 0.252 0.726 0.0449 0.207-0.0995 0.375-0.323 0.375h-0.501c-0.223 0-0.449-0.176-0.504-0.392-0.0271-0.108-0.226-0.59-0.488-1.04-0.789-1.37-2.09-2.37-3.61-2.77-1.53-0.408-3.15-0.195-4.52 0.594s-2.37 2.09-2.77 3.61c-0.408 1.52-0.195 3.15 0.594 4.52s2.09 2.37 3.61 2.77c1.52 0.408 3.15 0.195 4.52-0.594s2.37-2.09 2.67-3.22c0.0578-0.216 0.286-0.391 0.509-0.391h0.501c0.223 0 0.382 0.0991 0.355 0.221zm-10.5-0.374 2.13 2.13 1.06-3.19zm1.28-5.3c-0.221 0.137-0.513 0.0684-0.651-0.152-0.138-0.22-0.0704-0.512 0.151-0.649 0.86-0.535 1.85-0.818 2.86-0.818 0.917 0 1.82 0.233 2.62 0.676 0.228 0.127 0.31 0.414 0.184 0.641-0.126 0.228-0.413 0.31-0.641 0.184-0.662-0.368-1.41-0.559-2.17-0.559-0.837 0-1.65 0.233-2.36 0.677zm-1.57 5.94c0.125 0.229 0.0404 0.516-0.188 0.64-0.229 0.124-0.515 0.0392-0.639-0.19-0.432-0.792-0.655-1.68-0.655-2.58 0-0.688 0.129-1.37 0.384-2.01 0.0962-0.242 0.371-0.36 0.613-0.264 0.242 0.0962 0.36 0.371 0.264 0.613-0.212 0.526-0.318 1.09-0.318 1.66 0 0.745 0.186 1.48 0.54 2.13zm6.02 1.83c0.231-0.12 0.516-0.0299 0.637 0.2 0.121 0.231 0.0324 0.516-0.198 0.637-0.775 0.406-1.64 0.618-2.52 0.618-0.844 0-1.68-0.195-2.43-0.575-0.233-0.117-0.327-0.401-0.21-0.634s0.401-0.327 0.634-0.21c0.622 0.314 1.31 0.476 2.01 0.476 0.723 0 1.44-0.174 2.08-0.512zm2.12-5.53c-0.091-0.243 0.0332-0.515 0.277-0.606 0.244-0.0914 0.516 0.0336 0.607 0.278 0.224 0.606 0.339 1.25 0.339 1.89 0 0.853-0.2 1.7-0.589 2.46-0.117 0.231-0.401 0.323-0.633 0.205s-0.325-0.403-0.206-0.634c0.321-0.63 0.486-1.32 0.486-2.03 0-0.535-0.0942-1.06-0.281-1.57zm-8.14 5.13c0-0.26 0.211-0.471 0.472-0.471 0.26 0 0.471 0.211 0.471 0.471s-0.211 0.472-0.471 0.472-0.472-0.211-0.472-0.472zm7.14-6.78c0-0.26 0.211-0.472 0.472-0.472 0.26 0 0.471 0.211 0.471 0.472 0 0.26-0.211 0.472-0.471 0.472s-0.472-0.212-0.472-0.472zm-7.55 0c0 0.26 0.211 0.472 0.472 0.472 0.26 0 0.471-0.212 0.471-0.472s-0.211-0.472-0.471-0.472-0.472 0.211-0.472 0.472zm7.44 6.78c0 0.26 0.211 0.472 0.471 0.472s0.472-0.211 0.472-0.472c0-0.26-0.211-0.471-0.472-0.471-0.26 0-0.471 0.211-0.471 0.471z" fill="#fff" fill-opacity=".2" fill-rule="evenodd"/>
</svg>
