<?xml version="1.0" encoding="UTF-8"?>
<svg xmlns="http://www.w3.org/2000/svg" id="svg5" width="48pt" height="48pt" style="isolation:isolate" version="1.1" viewBox="0 0 48 48">
	<defs id="defs2">
		<style id="current-color-scheme" type="text/css">.ColorScheme-Text { color:#fff; }
.ColorScheme-Highlight { color:#50c9c3; }
.ColorScheme-HighlightedText { color:#fff }</style>
		<linearGradient id="a" x1="1.5" x2="46" y1="32" y2="32" gradientTransform="translate(-.000766 -.557)" gradientUnits="userSpaceOnUse">
			<stop id="stop1" stop-color="#fff" stop-opacity="0" offset="0"/>
			<stop id="stop2" class="ColorScheme-HighlightedText" stop-color="currentColor" stop-opacity=".4" offset="1"/>
		</linearGradient>
	</defs>
	<path id="path2" class="ColorScheme-Highlight" d="m6.43 11.5c-2.71 0-4.92 2.21-4.92 4.93l-0.00593 25.1c0 2.72 2.21 4.93 4.92 4.93h35.2c2.71 0 4.92-2.21 4.92-4.93v-20.1c0-2.72-2.21-4.93-4.92-4.93h-15.1c-4.02 0-6.53-1.91-9.24-3.82-0.904-0.634-2.52-1.21-3.63-1.21z" fill="currentColor"/>
	<path id="path3" d="m6.52 11.5c-1.41-0.00369-2.69 0.568-3.59 1.45-0.703 2.2 0.405 3.25 2.48 3.55h21.1c-4.02 0-6.43-1.8-9.24-3.8-0.904-0.64-2.52-1.2-3.63-1.2z" fill-opacity=".2"/>
	<path id="path4" class="ColorScheme-HighlightedText" d="m1.51 16.5c-0.00201 8.43-0.00392 17.1-0.00593 25.1 6e-7 2.71 2.21 4.92 4.92 4.92h35.2c2.71 0 4.92-2.21 4.92-4.92v-20.1c0-2.71-2.21-5-4.92-5z" fill="url(#a)"/>
	<path id="path11" class="ColorScheme-Text" d="m34 26.5c-2.25-0.0036-4.42 0.893-6.02 2.48-1.59 1.6-2.49 3.76-2.48 6.01-0.0036 2.25 0.893 4.42 2.48 6.02 1.6 1.59 3.76 2.49 6.02 2.48 0.655 0 1.31-0.0795 1.95-0.231 0.427-0.116 0.799-0.377 1.06-0.738 0.224-0.329 0.34-0.719 0.33-1.12-0.0036-0.239-0.0442-0.474-0.12-0.702-0.0543-0.181-0.126-0.363-0.205-0.536-0.152-0.315-0.316-0.625-0.489-0.929-0.174-0.297-0.328-0.604-0.473-0.916-0.0036-0.0072-0.0081-0.0148-0.0117-0.022 0.224 0.0036 0.45 0.0149 0.674 0.0366 0.449 0.0326 0.9 0.0535 1.35 0.0571 0.416 0.0072 0.836-0.0249 1.25-0.0864 0.467-0.0687 0.919-0.214 1.34-0.423 0.492-0.25 0.919-0.619 1.24-1.07 0.333-0.499 0.539-1.07 0.601-1.67 0.0036-0.0506 0.0059-0.0973 0.0059-0.148 0.0036-2.25-0.893-4.42-2.48-6.01-1.6-1.59-3.76-2.49-6.01-2.48zm0 1.45c3.91 0 7.05 3.15 7.05 7.05-0.331 2.65-3.68 1.83-5.2 1.86-3.64 0.458 1.26 4.48-0.267 5.01-0.521 0.122-1.03 0.188-1.59 0.188-3.91 0-7.05-3.15-7.05-7.05 0-3.91 3.15-7.05 7.05-7.05zm2.35 1.27c-0.175 0-0.341 0.0354-0.492 0.0996-0.0757 0.0321-0.148 0.0716-0.215 0.117-0.0673 0.0456-0.13 0.0979-0.188 0.155-0.0573 0.0574-0.108 0.12-0.154 0.188-0.0455 0.0674-0.0852 0.14-0.117 0.215-0.0641 0.152-0.0996 0.317-0.0996 0.492 0 0.175 0.0356 0.341 0.0996 0.492 0.032 0.0757 0.0717 0.148 0.117 0.215 0.0455 0.0673 0.0965 0.13 0.154 0.188 0.0573 0.0573 0.12 0.108 0.188 0.154 0.0673 0.0455 0.14 0.0852 0.215 0.117 0.151 0.0641 0.317 0.0996 0.492 0.0996 0.0437 0 0.0864-0.0015 0.129-0.0059 0.128-0.013 0.25-0.0457 0.363-0.0938 0.0757-0.032 0.148-0.0717 0.215-0.117 0.0673-0.0455 0.13-0.0965 0.188-0.154 0.0573-0.0573 0.108-0.12 0.154-0.188 0.0455-0.0673 0.0852-0.14 0.117-0.215 0.0641-0.151 0.0996-0.317 0.0996-0.492s-0.0356-0.341-0.0996-0.492c-0.032-0.0758-0.0717-0.148-0.117-0.215-0.0455-0.0674-0.0965-0.13-0.154-0.188-0.0573-0.0574-0.12-0.11-0.188-0.155-0.0673-0.0456-0.14-0.0851-0.215-0.117-0.151-0.0642-0.317-0.0996-0.492-0.0996zm-4.34 0.362c-0.175 0-0.341 0.0354-0.492 0.0996-0.0758 0.0321-0.148 0.0716-0.215 0.117-0.0674 0.0456-0.13 0.0979-0.188 0.155-0.0574 0.0574-0.11 0.12-0.155 0.188-0.0456 0.0674-0.0851 0.14-0.117 0.215-0.0642 0.152-0.0996 0.317-0.0996 0.492 0 0.175 0.0354 0.341 0.0996 0.492 0.0321 0.0757 0.0716 0.148 0.117 0.215 0.0456 0.0673 0.0979 0.13 0.155 0.188 0.0574 0.0573 0.12 0.108 0.188 0.154 0.0674 0.0455 0.14 0.0852 0.215 0.117 0.152 0.0641 0.317 0.0996 0.492 0.0996 0.0437 0 0.0864-0.0015 0.129-0.0059 0.128-0.013 0.25-0.0457 0.363-0.0938 0.0757-0.032 0.148-0.0717 0.215-0.117 0.0673-0.0455 0.13-0.0965 0.188-0.154 0.0573-0.0573 0.108-0.12 0.154-0.188 0.0455-0.0673 0.0852-0.14 0.117-0.215 0.0641-0.151 0.0996-0.317 0.0996-0.492 0-0.175-0.0356-0.341-0.0996-0.492-0.032-0.0758-0.0717-0.148-0.117-0.215-0.0455-0.0674-0.0965-0.13-0.154-0.188-0.0573-0.0574-0.12-0.11-0.188-0.155-0.0673-0.0456-0.14-0.0851-0.215-0.117-0.151-0.0642-0.317-0.0996-0.492-0.0996zm-2.53 3.62c-0.175 0-0.341 0.0356-0.492 0.0996-0.0757 0.032-0.148 0.0717-0.215 0.117-0.0673 0.0455-0.13 0.0965-0.188 0.154-0.0573 0.0573-0.108 0.12-0.154 0.188-0.0455 0.0673-0.0852 0.14-0.117 0.215-0.0641 0.151-0.0996 0.317-0.0996 0.492 0 0.175 0.0356 0.341 0.0996 0.492 0.032 0.0757 0.0717 0.148 0.117 0.215 0.0455 0.0673 0.0965 0.13 0.154 0.188 0.0573 0.0573 0.12 0.108 0.188 0.154 0.0673 0.0455 0.14 0.0852 0.215 0.117 0.114 0.048 0.236 0.0808 0.363 0.0938 0.0425 0.0043 0.0852 0.0059 0.129 0.0059 0.0437 0 0.0864-0.0015 0.129-0.0059 0.128-0.013 0.25-0.0457 0.363-0.0938 0.0757-0.032 0.148-0.0717 0.215-0.117 0.0673-0.0455 0.13-0.0965 0.188-0.154 0.0573-0.0573 0.108-0.12 0.154-0.188 0.0455-0.0673 0.0852-0.14 0.117-0.215 0.0641-0.151 0.0996-0.317 0.0996-0.492 0-0.175-0.0356-0.341-0.0996-0.492-0.032-0.0757-0.0717-0.148-0.117-0.215-0.0455-0.0673-0.0966-0.13-0.154-0.188-0.0573-0.0573-0.12-0.108-0.188-0.154-0.0673-0.0455-0.14-0.0852-0.215-0.117-0.151-0.0641-0.317-0.0996-0.492-0.0996zm1.81 3.98c-0.175 0-0.341 0.0356-0.492 0.0996-0.0757 0.032-0.148 0.0717-0.215 0.117-0.0673 0.0455-0.13 0.0965-0.188 0.154-0.0573 0.0573-0.108 0.12-0.154 0.188-0.0455 0.0673-0.0852 0.14-0.117 0.215-0.0641 0.151-0.0996 0.317-0.0996 0.492s0.0356 0.341 0.0996 0.492c0.032 0.0757 0.0717 0.148 0.117 0.215 0.0455 0.0673 0.0965 0.13 0.154 0.188 0.0573 0.0573 0.12 0.108 0.188 0.154 0.0673 0.0455 0.14 0.0852 0.215 0.117 0.151 0.0641 0.317 0.0996 0.492 0.0996 0.0437 0 0.0864-0.0015 0.129-0.0059 0.128-0.013 0.25-0.0457 0.363-0.0938 0.0757-0.032 0.148-0.0717 0.215-0.117 0.0673-0.0455 0.13-0.0965 0.188-0.154 0.0573-0.0573 0.108-0.12 0.154-0.188 0.0455-0.0673 0.0852-0.14 0.117-0.215 0.0641-0.151 0.0996-0.317 0.0996-0.492s-0.0356-0.341-0.0996-0.492c-0.032-0.0757-0.0717-0.148-0.117-0.215-0.0455-0.0673-0.0965-0.13-0.154-0.188-0.0573-0.0573-0.12-0.108-0.188-0.154-0.0673-0.0455-0.14-0.0852-0.215-0.117-0.151-0.0641-0.317-0.0996-0.492-0.0996z" fill="currentColor" style="isolation:isolate"/>
	<path id="path6" d="m34 26.5c-2.25-0.0036-4.42 0.893-6.02 2.48-1.59 1.6-2.49 3.76-2.48 6.01-0.0036 2.25 0.893 4.42 2.48 6.02 1.6 1.59 3.76 2.49 6.02 2.48 0.655 0 1.31-0.0795 1.95-0.231 0.427-0.116 0.799-0.377 1.06-0.738 0.224-0.329 0.34-0.719 0.33-1.12-0.0036-0.239-0.0442-0.474-0.12-0.702-0.0543-0.181-0.126-0.363-0.205-0.536-0.152-0.315-0.316-0.625-0.489-0.929-0.174-0.297-0.328-0.604-0.473-0.916-0.0036-0.0072-0.0081-0.0148-0.0117-0.022 0.224 0.0036 0.45 0.0149 0.674 0.0366 0.449 0.0326 0.9 0.0535 1.35 0.0571 0.416 0.0072 0.836-0.0249 1.25-0.0864 0.467-0.0687 0.919-0.214 1.34-0.423 0.492-0.25 0.919-0.619 1.24-1.07 0.333-0.499 0.539-1.07 0.601-1.67 0.0036-0.0506 0.0059-0.0973 0.0059-0.148 0.0036-2.25-0.893-4.42-2.48-6.01-1.6-1.59-3.76-2.49-6.01-2.48zm0 1.45c3.91 0 7.05 3.15 7.05 7.05-0.331 2.65-3.68 1.83-5.2 1.86-3.64 0.458 1.26 4.48-0.267 5.01-0.521 0.122-1.03 0.188-1.59 0.188-3.91 0-7.05-3.15-7.05-7.05 0-3.91 3.15-7.05 7.05-7.05zm2.35 1.27c-0.175 0-0.341 0.0354-0.492 0.0996-0.0757 0.0321-0.148 0.0716-0.215 0.117-0.0673 0.0456-0.13 0.0979-0.188 0.155-0.0573 0.0574-0.108 0.12-0.154 0.188-0.0455 0.0674-0.0852 0.14-0.117 0.215-0.0641 0.152-0.0996 0.317-0.0996 0.492 0 0.175 0.0356 0.341 0.0996 0.492 0.032 0.0757 0.0717 0.148 0.117 0.215 0.0455 0.0673 0.0965 0.13 0.154 0.188 0.0573 0.0573 0.12 0.108 0.188 0.154 0.0673 0.0455 0.14 0.0852 0.215 0.117 0.151 0.0641 0.317 0.0996 0.492 0.0996 0.0437 0 0.0864-0.0015 0.129-0.0059 0.128-0.013 0.25-0.0457 0.363-0.0938 0.0757-0.032 0.148-0.0717 0.215-0.117 0.0673-0.0455 0.13-0.0965 0.188-0.154 0.0573-0.0573 0.108-0.12 0.154-0.188 0.0455-0.0673 0.0852-0.14 0.117-0.215 0.0641-0.151 0.0996-0.317 0.0996-0.492s-0.0356-0.341-0.0996-0.492c-0.032-0.0758-0.0717-0.148-0.117-0.215-0.0455-0.0674-0.0965-0.13-0.154-0.188-0.0573-0.0574-0.12-0.11-0.188-0.155-0.0673-0.0456-0.14-0.0851-0.215-0.117-0.151-0.0642-0.317-0.0996-0.492-0.0996zm-4.34 0.362c-0.175 0-0.341 0.0354-0.492 0.0996-0.0758 0.0321-0.148 0.0716-0.215 0.117-0.0674 0.0456-0.13 0.0979-0.188 0.155-0.0574 0.0574-0.11 0.12-0.155 0.188-0.0456 0.0674-0.0851 0.14-0.117 0.215-0.0642 0.152-0.0996 0.317-0.0996 0.492 0 0.175 0.0354 0.341 0.0996 0.492 0.0321 0.0757 0.0716 0.148 0.117 0.215 0.0456 0.0673 0.0979 0.13 0.155 0.188 0.0574 0.0573 0.12 0.108 0.188 0.154 0.0674 0.0455 0.14 0.0852 0.215 0.117 0.152 0.0641 0.317 0.0996 0.492 0.0996 0.0437 0 0.0864-0.0015 0.129-0.0059 0.128-0.013 0.25-0.0457 0.363-0.0938 0.0757-0.032 0.148-0.0717 0.215-0.117 0.0673-0.0455 0.13-0.0965 0.188-0.154 0.0573-0.0573 0.108-0.12 0.154-0.188 0.0455-0.0673 0.0852-0.14 0.117-0.215 0.0641-0.151 0.0996-0.317 0.0996-0.492 0-0.175-0.0356-0.341-0.0996-0.492-0.032-0.0758-0.0717-0.148-0.117-0.215-0.0455-0.0674-0.0965-0.13-0.154-0.188-0.0573-0.0574-0.12-0.11-0.188-0.155-0.0673-0.0456-0.14-0.0851-0.215-0.117-0.151-0.0642-0.317-0.0996-0.492-0.0996zm-2.53 3.62c-0.175 0-0.341 0.0356-0.492 0.0996-0.0757 0.032-0.148 0.0717-0.215 0.117-0.0673 0.0455-0.13 0.0965-0.188 0.154-0.0573 0.0573-0.108 0.12-0.154 0.188-0.0455 0.0673-0.0852 0.14-0.117 0.215-0.0641 0.151-0.0996 0.317-0.0996 0.492 0 0.175 0.0356 0.341 0.0996 0.492 0.032 0.0757 0.0717 0.148 0.117 0.215 0.0455 0.0673 0.0965 0.13 0.154 0.188 0.0573 0.0573 0.12 0.108 0.188 0.154 0.0673 0.0455 0.14 0.0852 0.215 0.117 0.114 0.048 0.236 0.0808 0.363 0.0938 0.0425 0.0043 0.0852 0.0059 0.129 0.0059 0.0437 0 0.0864-0.0015 0.129-0.0059 0.128-0.013 0.25-0.0457 0.363-0.0938 0.0757-0.032 0.148-0.0717 0.215-0.117 0.0673-0.0455 0.13-0.0965 0.188-0.154 0.0573-0.0573 0.108-0.12 0.154-0.188 0.0455-0.0673 0.0852-0.14 0.117-0.215 0.0641-0.151 0.0996-0.317 0.0996-0.492 0-0.175-0.0356-0.341-0.0996-0.492-0.032-0.0757-0.0717-0.148-0.117-0.215-0.0455-0.0673-0.0966-0.13-0.154-0.188-0.0573-0.0573-0.12-0.108-0.188-0.154-0.0673-0.0455-0.14-0.0852-0.215-0.117-0.151-0.0641-0.317-0.0996-0.492-0.0996zm1.81 3.98c-0.175 0-0.341 0.0356-0.492 0.0996-0.0757 0.032-0.148 0.0717-0.215 0.117-0.0673 0.0455-0.13 0.0965-0.188 0.154-0.0573 0.0573-0.108 0.12-0.154 0.188-0.0455 0.0673-0.0852 0.14-0.117 0.215-0.0641 0.151-0.0996 0.317-0.0996 0.492s0.0356 0.341 0.0996 0.492c0.032 0.0757 0.0717 0.148 0.117 0.215 0.0455 0.0673 0.0965 0.13 0.154 0.188 0.0573 0.0573 0.12 0.108 0.188 0.154 0.0673 0.0455 0.14 0.0852 0.215 0.117 0.151 0.0641 0.317 0.0996 0.492 0.0996 0.0437 0 0.0864-0.0015 0.129-0.0059 0.128-0.013 0.25-0.0457 0.363-0.0938 0.0757-0.032 0.148-0.0717 0.215-0.117 0.0673-0.0455 0.13-0.0965 0.188-0.154 0.0573-0.0573 0.108-0.12 0.154-0.188 0.0455-0.0673 0.0852-0.14 0.117-0.215 0.0641-0.151 0.0996-0.317 0.0996-0.492s-0.0356-0.341-0.0996-0.492c-0.032-0.0757-0.0717-0.148-0.117-0.215-0.0455-0.0673-0.0965-0.13-0.154-0.188-0.0573-0.0573-0.12-0.108-0.188-0.154-0.0673-0.0455-0.14-0.0852-0.215-0.117-0.151-0.0641-0.317-0.0996-0.492-0.0996z" fill="#fff" fill-opacity=".2" style="isolation:isolate"/>
</svg>
