<?xml version="1.0" encoding="UTF-8"?>
<svg id="svg5" width="48pt" height="48pt" style="isolation:isolate" version="1.1" viewBox="0 0 48 48" xmlns="http://www.w3.org/2000/svg">
	<defs id="defs2">
		<style id="current-color-scheme" type="text/css">.ColorScheme-Text { color:#fff; }
.ColorScheme-Highlight { color:#50c9c3; }
.ColorScheme-HighlightedText { color:#fff }</style>
		<linearGradient id="a" x1="1.5" x2="46" y1="32" y2="32" gradientTransform="translate(-.000766 -.557)" gradientUnits="userSpaceOnUse">
			<stop id="stop1" stop-color="#fff" stop-opacity="0" offset="0"/>
			<stop id="stop2" class="ColorScheme-HighlightedText" stop-color="currentColor" stop-opacity=".4" offset="1"/>
		</linearGradient>
	</defs>
	<path id="path2" class="ColorScheme-Highlight" d="m6.43 11.5c-2.71 0-4.92 2.21-4.92 4.93l-0.00593 25.1c0 2.72 2.21 4.93 4.92 4.93h35.2c2.71 0 4.92-2.21 4.92-4.93v-20.1c0-2.72-2.21-4.93-4.92-4.93h-15.1c-4.02 0-6.53-1.91-9.24-3.82-0.904-0.634-2.52-1.21-3.63-1.21z" fill="currentColor"/>
	<path id="path3" d="m6.52 11.5c-1.41-0.00369-2.69 0.568-3.59 1.45-0.703 2.2 0.405 3.25 2.48 3.55h21.1c-4.02 0-6.43-1.8-9.24-3.8-0.904-0.64-2.52-1.2-3.63-1.2z" fill-opacity=".2"/>
	<path id="path4" class="ColorScheme-HighlightedText" d="m1.51 16.5c-0.00201 8.43-0.00392 17.1-0.00593 25.1 6e-7 2.71 2.21 4.92 4.92 4.92h35.2c2.71 0 4.92-2.21 4.92-4.92v-20.1c0-2.71-2.21-5-4.92-5z" fill="url(#a)"/>
	<path id="pathtext" class="ColorScheme-Text" d="m26.3 26.5c-0.417 1.52e-4 -0.757 0.342-0.757 0.759v3.44c-6e-6 0.417 0.34 0.757 0.757 0.757 0.715 4.26e-4 1.23 0.263 1.58 0.656 0.349 0.393 0.526 0.922 0.526 1.45 0 0.531-0.177 1.06-0.526 1.45-0.349 0.392-0.867 0.657-1.58 0.656-0.417-2.6e-5 -0.757 0.342-0.757 0.759v3.44c1.59e-4 0.417 0.34 0.759 0.757 0.759h2.78c0.402 1.89 1.96 2.87 3.53 2.87 1.57 0 3.12-0.98 3.53-2.87h2.78c0.417-1.64e-4 0.757-0.342 0.757-0.759v-2.78c1.89-0.402 2.87-1.96 2.87-3.53 0-1.57-0.978-3.12-2.87-3.52v-2.78c-1.57e-4 -0.417-0.34-0.759-0.757-0.759h-2.87c-0.417-2.9e-5 -0.759 0.342-0.759 0.759-0.0021 0.713-0.267 1.23-0.659 1.58-0.392 0.348-0.919 0.524-1.45 0.524s-1.06-0.176-1.45-0.524c-0.392-0.348-0.656-0.863-0.658-1.58-1.52e-4 -0.417-0.34-0.759-0.757-0.759h-4.02zm0.76 1.52h2.6c0.403 1.89 1.96 2.87 3.53 2.87s3.12-0.981 3.52-2.87h1.45v2.68c-6e-6 0.417 0.343 0.757 0.76 0.757 0.715 3.69e-4 1.23 0.263 1.58 0.656 0.349 0.393 0.527 0.922 0.527 1.45 0 0.531-0.179 1.06-0.527 1.45-0.349 0.392-0.864 0.657-1.58 0.656-0.417-1.9e-5 -0.76 0.342-0.76 0.759v2.68h-2.68c-0.417-2.5e-5 -0.757 0.342-0.757 0.759-4.25e-4 0.715-0.263 1.23-0.656 1.58-0.393 0.349-0.923 0.524-1.45 0.524-0.531 0-1.06-0.176-1.45-0.524-0.392-0.349-0.655-0.867-0.655-1.58 2.6e-5 -0.417-0.34-0.759-0.757-0.759h-2.68v-2.02c1.89-0.402 2.87-1.96 2.87-3.53 0-1.57-0.978-3.12-2.87-3.52v-2.02z"  fill="currentColor" fill-rule="evenodd" style="-inkscape-stroke:none;isolation:isolate"/>
	<path id="path7" d="m26.3 26.5c-0.417 1.52e-4 -0.757 0.342-0.757 0.759v3.44c-6e-6 0.417 0.34 0.757 0.757 0.757 0.715 4.26e-4 1.23 0.263 1.58 0.656 0.349 0.393 0.526 0.922 0.526 1.45 0 0.531-0.177 1.06-0.526 1.45-0.349 0.392-0.867 0.657-1.58 0.656-0.417-2.6e-5 -0.757 0.342-0.757 0.759v3.44c1.59e-4 0.417 0.34 0.759 0.757 0.759h2.78c0.402 1.89 1.96 2.87 3.53 2.87 1.57 0 3.12-0.98 3.53-2.87h2.78c0.417-1.64e-4 0.757-0.342 0.757-0.759v-2.78c1.89-0.402 2.87-1.96 2.87-3.53 0-1.57-0.978-3.12-2.87-3.52v-2.78c-1.57e-4 -0.417-0.34-0.759-0.757-0.759h-2.87c-0.417-2.9e-5 -0.759 0.342-0.759 0.759-0.0021 0.713-0.267 1.23-0.659 1.58-0.392 0.348-0.919 0.524-1.45 0.524s-1.06-0.176-1.45-0.524c-0.392-0.348-0.656-0.863-0.658-1.58-1.52e-4 -0.417-0.34-0.759-0.757-0.759h-4.02zm0.76 1.52h2.6c0.403 1.89 1.96 2.87 3.53 2.87s3.12-0.981 3.52-2.87h1.45v2.68c-6e-6 0.417 0.343 0.757 0.76 0.757 0.715 3.69e-4 1.23 0.263 1.58 0.656 0.349 0.393 0.527 0.922 0.527 1.45 0 0.531-0.179 1.06-0.527 1.45-0.349 0.392-0.864 0.657-1.58 0.656-0.417-1.9e-5 -0.76 0.342-0.76 0.759v2.68h-2.68c-0.417-2.5e-5 -0.757 0.342-0.757 0.759-4.25e-4 0.715-0.263 1.23-0.656 1.58-0.393 0.349-0.923 0.524-1.45 0.524-0.531 0-1.06-0.176-1.45-0.524-0.392-0.349-0.655-0.867-0.655-1.58 2.6e-5 -0.417-0.34-0.759-0.757-0.759h-2.68v-2.02c1.89-0.402 2.87-1.96 2.87-3.53 0-1.57-0.978-3.12-2.87-3.52v-2.02z"  fill="#fff" fill-opacity=".2" fill-rule="evenodd" style="-inkscape-stroke:none;isolation:isolate"/>
</svg>
