<?xml version="1.0" encoding="UTF-8"?>
<svg id="svg5" width="48pt" height="48pt" style="isolation:isolate" version="1.1" viewBox="0 0 48 48" xmlns="http://www.w3.org/2000/svg">
	<defs id="defs2">
		<style id="current-color-scheme" type="text/css">.ColorScheme-Text { color:#fff; }
.ColorScheme-Highlight { color:#50c9c3; }
.ColorScheme-HighlightedText { color:#fff }</style>
		<linearGradient id="a" x1="1.5" x2="46" y1="32" y2="32" gradientTransform="translate(-.000766 -.557)" gradientUnits="userSpaceOnUse">
			<stop id="stop1" stop-color="#fff" stop-opacity="0" offset="0"/>
			<stop id="stop2" class="ColorScheme-HighlightedText" stop-color="currentColor" stop-opacity=".4" offset="1"/>
		</linearGradient>
	</defs>
	<path id="path2" class="ColorScheme-Highlight" d="m6.43 11.5c-2.71 0-4.92 2.21-4.92 4.93l-0.00593 25.1c0 2.72 2.21 4.93 4.92 4.93h35.2c2.71 0 4.92-2.21 4.92-4.93v-20.1c0-2.72-2.21-4.93-4.92-4.93h-15.1c-4.02 0-6.53-1.91-9.24-3.82-0.904-0.634-2.52-1.21-3.63-1.21z" fill="currentColor"/>
	<path id="path3" d="m6.52 11.5c-1.41-0.00369-2.69 0.568-3.59 1.45-0.703 2.2 0.405 3.25 2.48 3.55h21.1c-4.02 0-6.43-1.8-9.24-3.8-0.904-0.64-2.52-1.2-3.63-1.2z" fill-opacity=".2"/>
	<path id="path4" class="ColorScheme-HighlightedText" d="m1.51 16.5c-0.00201 8.43-0.00392 17.1-0.00593 25.1 6e-7 2.71 2.21 4.92 4.92 4.92h35.2c2.71 0 4.92-2.21 4.92-4.92v-20.1c0-2.71-2.21-5-4.92-5z" fill="url(#a)"/>
	<path id="pathtext" class="ColorScheme-Text" d="m41 35.8c0-0.426 0.346-0.773 0.773-0.773s0.773 0.346 0.773 0.773v5.8c0 1.07-0.866 1.93-1.93 1.93h-13.1c-1.07 0-1.93-0.866-1.93-1.93v-5.8c0-0.426 0.346-0.773 0.773-0.773s0.773 0.346 0.773 0.773v5.02c0 0.64 0.519 1.16 1.16 1.16h11.6c0.64 0 1.16-0.519 1.16-1.16zm-14.7-6.18h15.5c0.426 0 0.773 0.346 0.773 0.773v1.95c0 0.426-0.265 0.995-0.593 1.27l-6.43 5.37c-0.818 0.684-2.15 0.684-2.96 0l-6.43-5.37c-0.327-0.273-0.593-0.842-0.593-1.27v-1.95c0-0.426 0.346-0.773 0.773-0.773zm1.16 1.55h13.1c0.213 0 0.386 0.173 0.386 0.386v0.371c0 0.213-0.131 0.5-0.292 0.64l-5.79 5.02c-0.484 0.419-1.27 0.419-1.75 0l-5.79-5.02c-0.161-0.14-0.292-0.426-0.292-0.64v-0.371c0-0.213 0.173-0.386 0.386-0.386z" fill="currentColor" fill-rule="evenodd" stroke-width=".296" style="isolation:isolate"/>
	<path id="path6" d="m41 35.8c0-0.426 0.346-0.773 0.773-0.773s0.773 0.346 0.773 0.773v5.8c0 1.07-0.866 1.93-1.93 1.93h-13.1c-1.07 0-1.93-0.866-1.93-1.93v-5.8c0-0.426 0.346-0.773 0.773-0.773s0.773 0.346 0.773 0.773v5.02c0 0.64 0.519 1.16 1.16 1.16h11.6c0.64 0 1.16-0.519 1.16-1.16zm-14.7-6.18h15.5c0.426 0 0.773 0.346 0.773 0.773v1.95c0 0.426-0.265 0.995-0.593 1.27l-6.43 5.37c-0.818 0.684-2.15 0.684-2.96 0l-6.43-5.37c-0.327-0.273-0.593-0.842-0.593-1.27v-1.95c0-0.426 0.346-0.773 0.773-0.773zm1.16 1.55h13.1c0.213 0 0.386 0.173 0.386 0.386v0.371c0 0.213-0.131 0.5-0.292 0.64l-5.79 5.02c-0.484 0.419-1.27 0.419-1.75 0l-5.79-5.02c-0.161-0.14-0.292-0.426-0.292-0.64v-0.371c0-0.213 0.173-0.386 0.386-0.386z" fill="#fff" fill-opacity=".2" fill-rule="evenodd" stroke-width=".296" style="isolation:isolate"/>
</svg>
