<?xml version="1.0" encoding="UTF-8"?>
<svg id="svg5" width="48pt" height="48pt" style="isolation:isolate" version="1.1" viewBox="0 0 48 48" xmlns="http://www.w3.org/2000/svg">
	<defs id="defs2">
		<style id="current-color-scheme" type="text/css">.ColorScheme-Text { color:#fff; }
.ColorScheme-Highlight { color:#50c9c3; }
.ColorScheme-HighlightedText { color:#fff }</style>
		<linearGradient id="a" x1="1.5" x2="46" y1="32" y2="32" gradientTransform="translate(-.000766 -.557)" gradientUnits="userSpaceOnUse">
			<stop id="stop1" stop-color="#fff" stop-opacity="0" offset="0"/>
			<stop id="stop2" class="ColorScheme-HighlightedText" stop-color="currentColor" stop-opacity=".4" offset="1"/>
		</linearGradient>
	</defs>
	<path id="path2" class="ColorScheme-Highlight" d="m6.43 11.5c-2.71 0-4.92 2.21-4.92 4.93l-0.00593 25.1c0 2.72 2.21 4.93 4.92 4.93h35.2c2.71 0 4.92-2.21 4.92-4.93v-20.1c0-2.72-2.21-4.93-4.92-4.93h-15.1c-4.02 0-6.53-1.91-9.24-3.82-0.904-0.634-2.52-1.21-3.63-1.21z" fill="currentColor"/>
	<path id="path3" d="m6.52 11.5c-1.41-0.00369-2.69 0.568-3.59 1.45-0.703 2.2 0.405 3.25 2.48 3.55h21.1c-4.02 0-6.43-1.8-9.24-3.8-0.904-0.64-2.52-1.2-3.63-1.2z" fill-opacity=".2"/>
	<path id="path4" class="ColorScheme-HighlightedText" d="m1.51 16.5c-0.00201 8.43-0.00392 17.1-0.00593 25.1 6e-7 2.71 2.21 4.92 4.92 4.92h35.2c2.71 0 4.92-2.21 4.92-4.92v-20.1c0-2.71-2.21-5-4.92-5z" fill="url(#a)"/>
	<path id="pathtext" class="ColorScheme-Text" d="m32.5 27.8c-0.0545 8.82e-4 -0.108 0.0107-0.158 0.0308l-2.13 0.85c-0.201 0.0802-0.33 0.317-0.287 0.529l0.315 1.57-1.14 0.458-0.647-0.647c-0.153-0.153-0.401-0.153-0.554 0l-2.23 2.23c-0.153 0.153-0.153 0.401 0 0.554l1.14 1.14v1.72c0 0.324 0.263 0.587 0.587 0.587 0.324 0 0.587-0.264 0.587-0.587v-2.2l-0.933-0.933 1.13-1.13 0.643 0.643 2.77-1.11-0.393-1.96 1.06-0.426 0.693 1.04h2.19l0.693-1.04 1.06 0.426-0.393 1.96 2.77 1.11 0.643-0.643 1.13 1.13-0.932 0.933v5.25c-0.0667 0.215-0.152 0.427-0.258 0.627-0.11 0.212-0.244 0.407-0.393 0.587-0.157 0.188-0.333 0.36-0.524 0.513-0.227 0.176-0.466 0.328-0.716 0.461-0.11 0.055-0.223 0.109-0.337 0.157-0.125 0.0546-0.254 0.105-0.384 0.152-0.415 0.145-0.842 0.26-1.27 0.334-0.603 0.102-1.21 0.168-1.82 0.192-0.814 0.0352-1.63-0.0087-2.44-0.126-0.564-0.0824-1.11-0.238-1.64-0.461-0.274-0.117-0.54-0.258-0.791-0.419-0.227-0.145-0.443-0.31-0.643-0.498-0.2-0.18-0.38-0.38-0.541-0.592-0.141-0.192-0.273-0.391-0.387-0.599v-0.378h1.17v1.17h3.84v-1.17h2.04v1.17h3.84v-1.17h0.784v-1.1h-1.88v1.17h-1.64v-1.17h-4.23v1.17h-1.64v-1.17h-3.45v1.63c0 0.0942 0.0227 0.189 0.0659 0.271 0.16 0.309 0.348 0.606 0.56 0.888 0.204 0.266 0.431 0.518 0.678 0.749 0.251 0.231 0.52 0.439 0.81 0.623 0.306 0.196 0.626 0.364 0.959 0.508 0.619 0.263 1.26 0.447 1.93 0.545 0.877 0.125 1.77 0.173 2.66 0.138 0.662-0.0275 1.32-0.0985 1.97-0.208 0.501-0.0861 0.994-0.215 1.47-0.387 0.153-0.055 0.305-0.115 0.454-0.177 0.137-0.0626 0.275-0.126 0.412-0.196 0.317-0.165 0.619-0.359 0.901-0.579 0.258-0.203 0.493-0.431 0.7-0.686 0.204-0.243 0.384-0.51 0.533-0.795 0.153-0.294 0.278-0.603 0.368-0.92 0.0154-0.0546 0.0234-0.109 0.0234-0.164v-4.85l1.14-1.14c0.153-0.153 0.153-0.401 0-0.554l-2.23-2.23c-0.153-0.153-0.402-0.153-0.555 0l-0.646 0.647-1.14-0.458 0.315-1.57c0.0425-0.212-0.0863-0.449-0.287-0.529l-2.13-0.85c-0.201-0.0802-0.462 0.0017-0.582 0.182l-0.656 0.981h-0.939l-0.656-0.981c-0.0899-0.135-0.26-0.215-0.423-0.212zm-2.17 5.89c-0.466 0-0.916 0.184-1.25 0.517-0.333 0.329-0.517 0.779-0.517 1.25 0 0.466 0.184 0.918 0.517 1.25 0.329 0.333 0.779 0.516 1.25 0.516 0.466 0 0.916-0.183 1.25-0.516 0.333-0.329 0.517-0.781 0.517-1.25 0-0.466-0.184-0.916-0.517-1.25-0.329-0.333-0.779-0.517-1.25-0.517zm7.44 0c-0.466 0-0.916 0.184-1.25 0.517-0.333 0.329-0.517 0.779-0.517 1.25 0 0.466 0.184 0.918 0.517 1.25 0.329 0.333 0.779 0.516 1.25 0.516 0.466 0 0.916-0.183 1.25-0.516 0.333-0.329 0.517-0.781 0.517-1.25 0-0.466-0.184-0.916-0.517-1.25-0.329-0.333-0.779-0.517-1.25-0.517zm-3.92 0.587c-0.432 0-0.784 0.351-0.784 0.784v1.57c0 0.432 0.351 0.784 0.784 0.784h0.391c0.432 0 0.784-0.351 0.784-0.784v-1.57c0-0.432-0.351-0.784-0.784-0.784zm3.91 0.202a0.974 0.974 0 0 1 0.974 0.973 0.974 0.974 0 0 1-0.974 0.974 0.974 0.974 0 0 1-0.974-0.974 0.974 0.974 0 0 1 0.974-0.973zm-7.44 0.0044a0.974 0.974 0 0 1 0.974 0.974 0.974 0.974 0 0 1-0.974 0.974 0.974 0.974 0 0 1-0.974-0.974 0.974 0.974 0 0 1 0.974-0.974zm3.53 0.577h0.391v1.57h-0.391z" fill="currentColor" stroke-width=".366" style="isolation:isolate"/>
	<path id="path6" d="m32.5 27.8c-0.0545 8.82e-4 -0.108 0.0107-0.158 0.0308l-2.13 0.85c-0.201 0.0802-0.33 0.317-0.287 0.529l0.315 1.57-1.14 0.458-0.647-0.647c-0.153-0.153-0.401-0.153-0.554 0l-2.23 2.23c-0.153 0.153-0.153 0.401 0 0.554l1.14 1.14v1.72c0 0.324 0.263 0.587 0.587 0.587 0.324 0 0.587-0.264 0.587-0.587v-2.2l-0.933-0.933 1.13-1.13 0.643 0.643 2.77-1.11-0.393-1.96 1.06-0.426 0.693 1.04h2.19l0.693-1.04 1.06 0.426-0.393 1.96 2.77 1.11 0.643-0.643 1.13 1.13-0.932 0.933v5.25c-0.0667 0.215-0.152 0.427-0.258 0.627-0.11 0.212-0.244 0.407-0.393 0.587-0.157 0.188-0.333 0.36-0.524 0.513-0.227 0.176-0.466 0.328-0.716 0.461-0.11 0.055-0.223 0.109-0.337 0.157-0.125 0.0546-0.254 0.105-0.384 0.152-0.415 0.145-0.842 0.26-1.27 0.334-0.603 0.102-1.21 0.168-1.82 0.192-0.814 0.0352-1.63-0.0087-2.44-0.126-0.564-0.0824-1.11-0.238-1.64-0.461-0.274-0.117-0.54-0.258-0.791-0.419-0.227-0.145-0.443-0.31-0.643-0.498-0.2-0.18-0.38-0.38-0.541-0.592-0.141-0.192-0.273-0.391-0.387-0.599v-0.378h1.17v1.17h3.84v-1.17h2.04v1.17h3.84v-1.17h0.784v-1.1h-1.88v1.17h-1.64v-1.17h-4.23v1.17h-1.64v-1.17h-3.45v1.63c0 0.0942 0.0227 0.189 0.0659 0.271 0.16 0.309 0.348 0.606 0.56 0.888 0.204 0.266 0.431 0.518 0.678 0.749 0.251 0.231 0.52 0.439 0.81 0.623 0.306 0.196 0.626 0.364 0.959 0.508 0.619 0.263 1.26 0.447 1.93 0.545 0.877 0.125 1.77 0.173 2.66 0.138 0.662-0.0275 1.32-0.0985 1.97-0.208 0.501-0.0861 0.994-0.215 1.47-0.387 0.153-0.055 0.305-0.115 0.454-0.177 0.137-0.0626 0.275-0.126 0.412-0.196 0.317-0.165 0.619-0.359 0.901-0.579 0.258-0.203 0.493-0.431 0.7-0.686 0.204-0.243 0.384-0.51 0.533-0.795 0.153-0.294 0.278-0.603 0.368-0.92 0.0154-0.0546 0.0234-0.109 0.0234-0.164v-4.85l1.14-1.14c0.153-0.153 0.153-0.401 0-0.554l-2.23-2.23c-0.153-0.153-0.402-0.153-0.555 0l-0.646 0.647-1.14-0.458 0.315-1.57c0.0425-0.212-0.0863-0.449-0.287-0.529l-2.13-0.85c-0.201-0.0802-0.462 0.0017-0.582 0.182l-0.656 0.981h-0.939l-0.656-0.981c-0.0899-0.135-0.26-0.215-0.423-0.212zm-2.17 5.89c-0.466 0-0.916 0.184-1.25 0.517-0.333 0.329-0.517 0.779-0.517 1.25 0 0.466 0.184 0.918 0.517 1.25 0.329 0.333 0.779 0.516 1.25 0.516 0.466 0 0.916-0.183 1.25-0.516 0.333-0.329 0.517-0.781 0.517-1.25 0-0.466-0.184-0.916-0.517-1.25-0.329-0.333-0.779-0.517-1.25-0.517zm7.44 0c-0.466 0-0.916 0.184-1.25 0.517-0.333 0.329-0.517 0.779-0.517 1.25 0 0.466 0.184 0.918 0.517 1.25 0.329 0.333 0.779 0.516 1.25 0.516 0.466 0 0.916-0.183 1.25-0.516 0.333-0.329 0.517-0.781 0.517-1.25 0-0.466-0.184-0.916-0.517-1.25-0.329-0.333-0.779-0.517-1.25-0.517zm-3.92 0.587c-0.432 0-0.784 0.351-0.784 0.784v1.57c0 0.432 0.351 0.784 0.784 0.784h0.391c0.432 0 0.784-0.351 0.784-0.784v-1.57c0-0.432-0.351-0.784-0.784-0.784zm3.91 0.202a0.974 0.974 0 0 1 0.974 0.973 0.974 0.974 0 0 1-0.974 0.974 0.974 0.974 0 0 1-0.974-0.974 0.974 0.974 0 0 1 0.974-0.973zm-7.44 0.0044a0.974 0.974 0 0 1 0.974 0.974 0.974 0.974 0 0 1-0.974 0.974 0.974 0.974 0 0 1-0.974-0.974 0.974 0.974 0 0 1 0.974-0.974zm3.53 0.577h0.391v1.57h-0.391z" fill="#fff" fill-opacity=".2" stroke-width=".366" style="isolation:isolate"/>
</svg>
