<?xml version="1.0" encoding="UTF-8"?>
<svg id="svg5" width="48pt" height="48pt" style="isolation:isolate" version="1.1" viewBox="0 0 48 48" xmlns="http://www.w3.org/2000/svg">
	<defs id="defs2">
		<style id="current-color-scheme" type="text/css">.ColorScheme-Text { color:#fff; }
.ColorScheme-Highlight { color:#50c9c3; }
.ColorScheme-HighlightedText { color:#fff }</style>
		<linearGradient id="a" x1="1.5" x2="46" y1="32" y2="32" gradientTransform="translate(-.000766 -.557)" gradientUnits="userSpaceOnUse">
			<stop id="stop1" stop-color="#fff" stop-opacity="0" offset="0"/>
			<stop id="stop2" class="ColorScheme-HighlightedText" stop-color="currentColor" stop-opacity=".4" offset="1"/>
		</linearGradient>
	</defs>
	<path id="path2" class="ColorScheme-Highlight" d="m6.43 11.5c-2.71 0-4.92 2.21-4.92 4.93l-0.00593 25.1c0 2.72 2.21 4.93 4.92 4.93h35.2c2.71 0 4.92-2.21 4.92-4.93v-20.1c0-2.72-2.21-4.93-4.92-4.93h-15.1c-4.02 0-6.53-1.91-9.24-3.82-0.904-0.634-2.52-1.21-3.63-1.21z" fill="currentColor"/>
	<path id="path3" d="m6.52 11.5c-1.41-0.00369-2.69 0.568-3.59 1.45-0.703 2.2 0.405 3.25 2.48 3.55h21.1c-4.02 0-6.43-1.8-9.24-3.8-0.904-0.64-2.52-1.2-3.63-1.2z" fill-opacity=".2"/>
	<path id="path4" class="ColorScheme-HighlightedText" d="m1.51 16.5c-0.00201 8.43-0.00392 17.1-0.00593 25.1 6e-7 2.71 2.21 4.92 4.92 4.92h35.2c2.71 0 4.92-2.21 4.92-4.92v-20.1c0-2.71-2.21-5-4.92-5z" fill="url(#a)"/>
	<path id="pathtext" class="ColorScheme-Text" d="m34 26.5c-2.27 0-4.33 0.248-5.85 0.662-0.759 0.207-1.38 0.451-1.85 0.75-0.463 0.299-0.809 0.686-0.809 1.17v11.8c0 0.489 0.346 0.875 0.809 1.17 0.463 0.299 1.09 0.546 1.85 0.753 1.52 0.414 3.57 0.662 5.85 0.662 2.27 0 4.33-0.248 5.84-0.662 0.759-0.207 1.38-0.454 1.85-0.753 0.463-0.299 0.809-0.684 0.809-1.17v-11.8c1e-6 -0.489-0.346-0.876-0.809-1.17-0.463-0.299-1.09-0.543-1.85-0.75-1.52-0.414-3.57-0.662-5.84-0.662zm0 1.48c2.02 0 3.85 0.164 5.15 0.425 0.651 0.13 1.17 0.288 1.5 0.442 0.163 0.0773 0.276 0.154 0.33 0.207 0.0198 0.0194 0.0239 0.0265 0.0293 0.0337-0.00539 0.00718-0.00958 0.013-0.0293 0.0322-0.0535 0.0523-0.166 0.132-0.33 0.209-0.327 0.155-0.847 0.311-1.5 0.441-1.3 0.26-3.13 0.426-5.15 0.426s-3.85-0.166-5.15-0.426c-0.651-0.13-1.17-0.286-1.5-0.441-0.163-0.0773-0.276-0.157-0.33-0.209-0.0197-0.0193-0.0239-0.025-0.0293-0.0322 0.00536-0.00715 0.00946-0.0143 0.0293-0.0337 0.0535-0.0523 0.166-0.129 0.33-0.207 0.327-0.155 0.847-0.312 1.5-0.442 1.3-0.26 3.13-0.425 5.15-0.425zm-7.02 2.52c1.56 0.732 4.09 1.17 7.02 1.17 2.93-9.27e-4 5.46-0.44 7.02-1.17v2.27c-0.00308 0.00461-0.0128 0.0178-0.0396 0.0439-0.0535 0.0523-0.166 0.131-0.33 0.208-0.327 0.155-0.847 0.311-1.5 0.441-1.3 0.26-3.13 0.426-5.15 0.426s-3.85-0.166-5.15-0.426c-0.651-0.13-1.17-0.286-1.5-0.441-0.163-0.0773-0.276-0.156-0.33-0.208-0.0268-0.0262-0.0365-0.0393-0.0396-0.0439v-2.27zm0 3.7c1.56 0.732 4.09 1.17 7.02 1.17 2.93-9.26e-4 5.46-0.44 7.02-1.17v3.01c-0.00308 0.00461-0.0128 0.0193-0.0396 0.0454-0.0535 0.0523-0.166 0.132-0.33 0.209-0.327 0.155-0.847 0.311-1.5 0.441-1.3 0.26-3.13 0.426-5.15 0.426s-3.85-0.166-5.15-0.426c-0.651-0.13-1.17-0.286-1.5-0.441-0.163-0.0773-0.276-0.157-0.33-0.209-0.0268-0.0262-0.0365-0.0408-0.0396-0.0454v-3.01zm0 4.43c1.56 0.732 4.09 1.17 7.02 1.17 2.93-9.26e-4 5.46-0.441 7.02-1.17v2.27c-0.00308 0.0051-0.0128 0.0193-0.0396 0.0454-0.0535 0.0523-0.166 0.129-0.33 0.207-0.327 0.155-0.847 0.312-1.5 0.442-1.3 0.26-3.13 0.425-5.15 0.425s-3.85-0.164-5.15-0.425c-0.651-0.13-1.17-0.288-1.5-0.442-0.163-0.0773-0.276-0.154-0.33-0.207-0.0268-0.0262-0.0365-0.0403-0.0396-0.0454v-0.728-1.54z"  fill="currentColor" style="-inkscape-stroke:none;isolation:isolate"/>
	<path id="path7" d="m34 26.5c-2.27 0-4.33 0.248-5.85 0.662-0.759 0.207-1.38 0.451-1.85 0.75-0.463 0.299-0.809 0.686-0.809 1.17v11.8c0 0.489 0.346 0.875 0.809 1.17 0.463 0.299 1.09 0.546 1.85 0.753 1.52 0.414 3.57 0.662 5.85 0.662 2.27 0 4.33-0.248 5.84-0.662 0.759-0.207 1.38-0.454 1.85-0.753 0.463-0.299 0.809-0.684 0.809-1.17v-11.8c1e-6 -0.489-0.346-0.876-0.809-1.17-0.463-0.299-1.09-0.543-1.85-0.75-1.52-0.414-3.57-0.662-5.84-0.662zm0 1.48c2.02 0 3.85 0.164 5.15 0.425 0.651 0.13 1.17 0.288 1.5 0.442 0.163 0.0773 0.276 0.154 0.33 0.207 0.0198 0.0194 0.0239 0.0265 0.0293 0.0337-0.00539 0.00718-0.00958 0.013-0.0293 0.0322-0.0535 0.0523-0.166 0.132-0.33 0.209-0.327 0.155-0.847 0.311-1.5 0.441-1.3 0.26-3.13 0.426-5.15 0.426s-3.85-0.166-5.15-0.426c-0.651-0.13-1.17-0.286-1.5-0.441-0.163-0.0773-0.276-0.157-0.33-0.209-0.0197-0.0193-0.0239-0.025-0.0293-0.0322 0.00536-0.00715 0.00946-0.0143 0.0293-0.0337 0.0535-0.0523 0.166-0.129 0.33-0.207 0.327-0.155 0.847-0.312 1.5-0.442 1.3-0.26 3.13-0.425 5.15-0.425zm-7.02 2.52c1.56 0.732 4.09 1.17 7.02 1.17 2.93-9.27e-4 5.46-0.44 7.02-1.17v2.27c-0.00308 0.00461-0.0128 0.0178-0.0396 0.0439-0.0535 0.0523-0.166 0.131-0.33 0.208-0.327 0.155-0.847 0.311-1.5 0.441-1.3 0.26-3.13 0.426-5.15 0.426s-3.85-0.166-5.15-0.426c-0.651-0.13-1.17-0.286-1.5-0.441-0.163-0.0773-0.276-0.156-0.33-0.208-0.0268-0.0262-0.0365-0.0393-0.0396-0.0439v-2.27zm0 3.7c1.56 0.732 4.09 1.17 7.02 1.17 2.93-9.26e-4 5.46-0.44 7.02-1.17v3.01c-0.00308 0.00461-0.0128 0.0193-0.0396 0.0454-0.0535 0.0523-0.166 0.132-0.33 0.209-0.327 0.155-0.847 0.311-1.5 0.441-1.3 0.26-3.13 0.426-5.15 0.426s-3.85-0.166-5.15-0.426c-0.651-0.13-1.17-0.286-1.5-0.441-0.163-0.0773-0.276-0.157-0.33-0.209-0.0268-0.0262-0.0365-0.0408-0.0396-0.0454v-3.01zm0 4.43c1.56 0.732 4.09 1.17 7.02 1.17 2.93-9.26e-4 5.46-0.441 7.02-1.17v2.27c-0.00308 0.0051-0.0128 0.0193-0.0396 0.0454-0.0535 0.0523-0.166 0.129-0.33 0.207-0.327 0.155-0.847 0.312-1.5 0.442-1.3 0.26-3.13 0.425-5.15 0.425s-3.85-0.164-5.15-0.425c-0.651-0.13-1.17-0.288-1.5-0.442-0.163-0.0773-0.276-0.154-0.33-0.207-0.0268-0.0262-0.0365-0.0403-0.0396-0.0454v-0.728-1.54z"  fill="#fff" fill-opacity=".2" style="-inkscape-stroke:none;isolation:isolate"/>
</svg>
