<?xml version="1.0" encoding="UTF-8"?>
<svg id="svg5" width="48pt" height="48pt" style="isolation:isolate" version="1.1" viewBox="0 0 48 48" xmlns="http://www.w3.org/2000/svg">
	<defs id="defs2">
		<style id="current-color-scheme" type="text/css">.ColorScheme-Text { color:#fff; }
.ColorScheme-Highlight { color:#50c9c3; }
.ColorScheme-HighlightedText { color:#fff }</style>
		<linearGradient id="a" x1="1.5" x2="46" y1="32" y2="32" gradientTransform="translate(-.000766 -.557)" gradientUnits="userSpaceOnUse">
			<stop id="stop1" stop-color="#fff" stop-opacity="0" offset="0"/>
			<stop id="stop2" class="ColorScheme-HighlightedText" stop-color="currentColor" stop-opacity=".4" offset="1"/>
		</linearGradient>
	</defs>
	<path id="path2" class="ColorScheme-Highlight" d="m6.43 11.5c-2.71 0-4.92 2.21-4.92 4.93l-0.00593 25.1c0 2.72 2.21 4.93 4.92 4.93h35.2c2.71 0 4.92-2.21 4.92-4.93v-20.1c0-2.72-2.21-4.93-4.92-4.93h-15.1c-4.02 0-6.53-1.91-9.24-3.82-0.904-0.634-2.52-1.21-3.63-1.21z" fill="currentColor"/>
	<path id="path3" d="m6.52 11.5c-1.41-0.00369-2.69 0.568-3.59 1.45-0.703 2.2 0.405 3.25 2.48 3.55h21.1c-4.02 0-6.43-1.8-9.24-3.8-0.904-0.64-2.52-1.2-3.63-1.2z" fill-opacity=".2"/>
	<path id="path4" class="ColorScheme-HighlightedText" d="m1.51 16.5c-0.00201 8.43-0.00392 17.1-0.00593 25.1 6e-7 2.71 2.21 4.92 4.92 4.92h35.2c2.71 0 4.92-2.21 4.92-4.92v-20.1c0-2.71-2.21-5-4.92-5z" fill="url(#a)"/>
	<path id="pathtext" class="ColorScheme-Text" d="m27.8 35c0-0.427 0.346-0.773 0.773-0.773 0.427 0 0.773 0.346 0.773 0.773 0 0.427-0.346 0.773-0.773 0.773-0.427 0-0.773-0.346-0.773-0.773zm0 3.48c0-0.427 0.346-0.773 0.773-0.773 0.427 0 0.773 0.346 0.773 0.773 0 0.427-0.346 0.773-0.773 0.773-0.427 0-0.773-0.346-0.773-0.773zm2.02-8.43c0.126-0.124 0.33-0.124 0.455 0.0015 0.125 0.125 0.126 0.329 0.0015 0.455l-1.8 1.79c-0.377 0.376-0.683 0.25-0.683-0.283v-0.775c0-0.178 0.144-0.322 0.321-0.322 0.178 0 0.322 0.144 0.322 0.322v0.19zm10.8 12c0.39 0 0.707 0.331 0.707 0.739s-0.317 0.739-0.707 0.739h-12.6c-1.4 0-2.53-1.13-2.53-2.53v-10.4c0-0.408 0.317-0.739 0.707-0.739 0.39 0 0.707 0.331 0.707 0.739v10.4c0 0.598 0.486 1.08 1.08 1.08zm-13.3-14c-0.39 0-0.707-0.331-0.707-0.739s0.317-0.739 0.707-0.739h12.6c1.4 0 2.53 1.13 2.53 2.53v10.4c0 0.408-0.317 0.739-0.707 0.739s-0.707-0.331-0.707-0.739v-9.65c0-0.998-0.81-1.81-1.81-1.81zm5.04 2.53h6.66c0.4 0 0.725 0.325 0.725 0.725 0 0.4-0.325 0.725-0.725 0.725h-6.66c-0.4 0-0.725-0.325-0.725-0.725 0-0.4 0.325-0.725 0.725-0.725zm0 3.82h6.66c0.4 0 0.725 0.325 0.725 0.725s-0.325 0.725-0.725 0.725h-6.66c-0.4 0-0.725-0.325-0.725-0.725s0.325-0.725 0.725-0.725zm0 3.48h6.66c0.4 0 0.725 0.325 0.725 0.725s-0.325 0.725-0.725 0.725h-6.66c-0.4 0-0.725-0.325-0.725-0.725s0.325-0.725 0.725-0.725z" fill="currentColor" fill-rule="evenodd" stroke-width=".386" style="isolation:isolate"/>
	<path id="path6" d="m27.8 35c0-0.427 0.346-0.773 0.773-0.773 0.427 0 0.773 0.346 0.773 0.773 0 0.427-0.346 0.773-0.773 0.773-0.427 0-0.773-0.346-0.773-0.773zm0 3.48c0-0.427 0.346-0.773 0.773-0.773 0.427 0 0.773 0.346 0.773 0.773 0 0.427-0.346 0.773-0.773 0.773-0.427 0-0.773-0.346-0.773-0.773zm2.02-8.43c0.126-0.124 0.33-0.124 0.455 0.0015 0.125 0.125 0.126 0.329 0.0015 0.455l-1.8 1.79c-0.377 0.376-0.683 0.25-0.683-0.283v-0.775c0-0.178 0.144-0.322 0.321-0.322 0.178 0 0.322 0.144 0.322 0.322v0.19zm10.8 12c0.39 0 0.707 0.331 0.707 0.739s-0.317 0.739-0.707 0.739h-12.6c-1.4 0-2.53-1.13-2.53-2.53v-10.4c0-0.408 0.317-0.739 0.707-0.739 0.39 0 0.707 0.331 0.707 0.739v10.4c0 0.598 0.486 1.08 1.08 1.08zm-13.3-14c-0.39 0-0.707-0.331-0.707-0.739s0.317-0.739 0.707-0.739h12.6c1.4 0 2.53 1.13 2.53 2.53v10.4c0 0.408-0.317 0.739-0.707 0.739s-0.707-0.331-0.707-0.739v-9.65c0-0.998-0.81-1.81-1.81-1.81zm5.04 2.53h6.66c0.4 0 0.725 0.325 0.725 0.725 0 0.4-0.325 0.725-0.725 0.725h-6.66c-0.4 0-0.725-0.325-0.725-0.725 0-0.4 0.325-0.725 0.725-0.725zm0 3.82h6.66c0.4 0 0.725 0.325 0.725 0.725s-0.325 0.725-0.725 0.725h-6.66c-0.4 0-0.725-0.325-0.725-0.725s0.325-0.725 0.725-0.725zm0 3.48h6.66c0.4 0 0.725 0.325 0.725 0.725s-0.325 0.725-0.725 0.725h-6.66c-0.4 0-0.725-0.325-0.725-0.725s0.325-0.725 0.725-0.725z" fill="#fff" fill-opacity=".2" fill-rule="evenodd" stroke-width=".386" style="isolation:isolate"/>
</svg>
