<?xml version="1.0" encoding="UTF-8"?>
<svg xmlns="http://www.w3.org/2000/svg" id="svg5" width="48pt" height="48pt" style="isolation:isolate" version="1.1" viewBox="0 0 48 48">
	<defs id="defs2">
		<style id="current-color-scheme" type="text/css">.ColorScheme-Text { color:#fff; }
.ColorScheme-Highlight { color:#50c9c3; }
.ColorScheme-HighlightedText { color:#fff }</style>
		<linearGradient id="a" x1="1.5" x2="46" y1="32" y2="32" gradientTransform="translate(-.000766 -.557)" gradientUnits="userSpaceOnUse">
			<stop id="stop1" stop-color="#fff" stop-opacity="0" offset="0"/>
			<stop id="stop2" class="ColorScheme-HighlightedText" stop-color="currentColor" stop-opacity=".4" offset="1"/>
		</linearGradient>
	</defs>
	<path id="path2" class="ColorScheme-Highlight" d="m6.43 11.5c-2.71 0-4.92 2.21-4.92 4.93l-0.00593 25.1c0 2.72 2.21 4.93 4.92 4.93h35.2c2.71 0 4.92-2.21 4.92-4.93v-20.1c0-2.72-2.21-4.93-4.92-4.93h-15.1c-4.02 0-6.53-1.91-9.24-3.82-0.904-0.634-2.52-1.21-3.63-1.21z" fill="currentColor"/>
	<path id="path3" d="m6.52 11.5c-1.41-0.00369-2.69 0.568-3.59 1.45-0.703 2.2 0.405 3.25 2.48 3.55h21.1c-4.02 0-6.43-1.8-9.24-3.8-0.904-0.64-2.52-1.2-3.63-1.2z" fill-opacity=".2"/>
	<path id="path4" class="ColorScheme-HighlightedText" d="m1.51 16.5c-0.00201 8.43-0.00392 17.1-0.00593 25.1 6e-7 2.71 2.21 4.92 4.92 4.92h35.2c2.71 0 4.92-2.21 4.92-4.92v-20.1c0-2.71-2.21-5-4.92-5z" fill="url(#a)"/>
	<path id="path2-5" class="ColorScheme-Text" d="m27 30.3c0 0.427-0.346 0.773-0.773 0.773-0.427 0-0.773-0.346-0.773-0.773v-1.1c0-1.49 1.21-2.7 2.7-2.7h11.6c1.49 0 2.7 1.21 2.7 2.7v6.34c0 1.07-0.865 1.93-1.93 1.93h-2.09l-1.82-3.91-1.81 3.48-1.6-3.88-2.92 6.46-1.55-5.17h-0.958c-0.427 0-0.773 0.346-0.773 0.773v4.79c0 1.07 0.865 1.93 1.93 1.93h10c1.07 0 1.93-0.865 1.93-1.93v-0.707c0-0.427 0.346-0.773 0.773-0.773 0.427 0 0.773 0.346 0.773 0.773v1.48c0 1.49-1.21 2.7-2.7 2.7h-11.6c-1.49 0-2.7-1.21-2.7-2.7v-5.95c0-1.07 0.865-1.93 1.93-1.93h2.52l0.765 2.74 2.49-5.96 1.87 3.66 1.67-4.06 2.82 6.64h0.618c0.427 0 0.773-0.346 0.773-0.773v-5.18c0-1.07-0.865-1.93-1.93-1.93h-10c-1.07 0-1.93 0.865-1.93 1.93z" fill="currentColor" stroke-width=".386" style="isolation:isolate"/>
	<path id="path5" d="m27 30.3c0 0.427-0.346 0.773-0.773 0.773-0.427 0-0.773-0.346-0.773-0.773v-1.1c0-1.49 1.21-2.7 2.7-2.7h11.6c1.49 0 2.7 1.21 2.7 2.7v6.34c0 1.07-0.865 1.93-1.93 1.93h-2.09l-1.82-3.91-1.81 3.48-1.6-3.88-2.92 6.46-1.55-5.17h-0.958c-0.427 0-0.773 0.346-0.773 0.773v4.79c0 1.07 0.865 1.93 1.93 1.93h10c1.07 0 1.93-0.865 1.93-1.93v-0.707c0-0.427 0.346-0.773 0.773-0.773 0.427 0 0.773 0.346 0.773 0.773v1.48c0 1.49-1.21 2.7-2.7 2.7h-11.6c-1.49 0-2.7-1.21-2.7-2.7v-5.95c0-1.07 0.865-1.93 1.93-1.93h2.52l0.765 2.74 2.49-5.96 1.87 3.66 1.67-4.06 2.82 6.64h0.618c0.427 0 0.773-0.346 0.773-0.773v-5.18c0-1.07-0.865-1.93-1.93-1.93h-10c-1.07 0-1.93 0.865-1.93 1.93z" fill="#fff" fill-opacity=".2" stroke-width=".386" style="isolation:isolate"/>
</svg>
