<?xml version="1.0" encoding="UTF-8"?>
<svg xmlns="http://www.w3.org/2000/svg" id="svg5" width="48pt" height="48pt" style="isolation:isolate" version="1.1" viewBox="0 0 48 48">
	<defs id="defs2">
		<style id="current-color-scheme" type="text/css">.ColorScheme-Text { color:#fff; }
.ColorScheme-Highlight { color:#50c9c3; }
.ColorScheme-HighlightedText { color:#fff }</style>
		<linearGradient id="a" x1="1.5" x2="46" y1="32" y2="32" gradientTransform="translate(-.000766 -.557)" gradientUnits="userSpaceOnUse">
			<stop id="stop1" stop-color="#fff" stop-opacity="0" offset="0"/>
			<stop id="stop2" class="ColorScheme-HighlightedText" stop-color="currentColor" stop-opacity=".4" offset="1"/>
		</linearGradient>
	</defs>
	<path id="path2" class="ColorScheme-Highlight" d="m6.43 11.5c-2.71 0-4.92 2.21-4.92 4.93l-0.00593 25.1c0 2.72 2.21 4.93 4.92 4.93h35.2c2.71 0 4.92-2.21 4.92-4.93v-20.1c0-2.72-2.21-4.93-4.92-4.93h-15.1c-4.02 0-6.53-1.91-9.24-3.82-0.904-0.634-2.52-1.21-3.63-1.21z" fill="currentColor"/>
	<path id="path3" d="m6.52 11.5c-1.41-0.00369-2.69 0.568-3.59 1.45-0.703 2.2 0.405 3.25 2.48 3.55h21.1c-4.02 0-6.43-1.8-9.24-3.8-0.904-0.64-2.52-1.2-3.63-1.2z" fill-opacity=".2"/>
	<path id="path4" class="ColorScheme-HighlightedText" d="m1.51 16.5c-0.00201 8.43-0.00392 17.1-0.00593 25.1 6e-7 2.71 2.21 4.92 4.92 4.92h35.2c2.71 0 4.92-2.21 4.92-4.92v-20.1c0-2.71-2.21-5-4.92-5z" fill="url(#a)"/>
	<path id="path5" class="ColorScheme-Text" d="m32 26.5-4.04 0.0014c-1.35 0-2.45 1.1-2.45 2.44v1.51c0 0.509 0.422 0.931 0.932 0.931 0.51 0 0.932-0.421 0.932-0.931v-1.26c0-0.466 0.368-0.835 0.833-0.835h3.53c0.466 0 0.835 0.369 0.835 0.835v3.53c0 0.466-0.369 0.833-0.835 0.833h-3.78c-1.35 0-2.45 1.1-2.45 2.45v5.05c0 1.35 1.1 2.44 2.45 2.44h5.04c0.0868 0 0.177-0.0047 0.271-0.0167h0.0014c0.018-0.0026 0.0539-7e-3 0.0417-0.0056h0.0056c0.0572-0.0075 0.121-0.0157 0.191-0.0306l0.0056-0.0028c0.0478-0.0102 0.079-0.0204 0.0862-0.0223h0.0014c0.045-0.0115 0.0996-0.0253 0.161-0.0459 0.0415-0.0137 0.0618-0.0224 0.057-0.0209l0.0112-0.0028c0.0446-0.0165 0.101-0.038 0.159-0.064l0.0028-0.0014c0.0382-0.0159 0.0574-0.0271 0.0584-0.0278 0.0537-0.0257 0.111-0.0549 0.17-0.089l0.0111-0.0056c0.0191-0.0112 0.0374-0.0233 0.0334-0.0209l0.0042-0.0014 0.0014-0.0028c0.0589-0.0366 0.119-0.0755 0.175-0.117v-0.0014c-3.22e-4 2.37e-4 0.0157-0.011 0.025-0.0181l0.0167-0.0139c0.0527-0.0407 0.107-0.0852 0.16-0.134l0.0069-0.0056 0.0042-0.0056c0.0617-0.0569 0.119-0.115 0.172-0.175l0.0014-0.0028c0.278-0.316 0.363-0.756 0.449-1.19 0.0213-0.033 0.161-0.661 0.161-0.68v-3.53c0-0.466 0.369-0.832 0.835-0.832h3.53c0.0765 0 0.608-0.135 0.679-0.161 0.43-0.0862 0.871-0.173 1.19-0.451 0.0437-0.0388 0.0858-0.0835 0.128-0.127 0.0727-0.0575 0.0733-0.0733 0.089-0.0946 0.0409-0.0463 0.0818-0.0933 0.117-0.139l0.0069-0.0097 0.0028-0.0028 0.0014-0.0042 0.0014-0.0014 0.0056-0.0084c0.0432-0.0586 0.0848-0.116 0.121-0.175l0.0014-0.0042 0.0028-0.0042c0.0014-0.0024 0.0069-0.0114 0.0167-0.0278l0.0014-0.0014c0.0364-0.0618 0.0686-0.123 0.0974-0.184l0.0056-0.0112c-0.0054 0.0123 0.0052-0.0124 0.0125-0.0278 0.0322-0.0685 0.0539-0.129 0.0723-0.178l0.0014-0.0042 0.0028-0.0028c0.0038-0.011 0.0122-0.031 0.0223-0.0612v-0.0028c0.0213-0.0638 0.0338-0.116 0.0445-0.157v-0.0028l0.0014-0.0028c0.0019-0.0077 0.0106-0.0388 0.0209-0.0862 0.0145-0.0659 0.0256-0.132 0.0334-0.198h0.0014c-0.0016 0.0136 0.0027-0.0245 0.0056-0.0473l0.0014-0.0195c0.0086-0.081 0.0139-0.165 0.0139-0.249v-5.04c0-1.35-1.1-2.45-2.45-2.45h-4.54c-0.509 0-0.931 0.424-0.931 0.933 0 0.51 0.421 0.931 0.931 0.931h4.29c0.466 0 0.835 0.369 0.835 0.835v4.54c0 0.466-0.369 0.833-0.835 0.833h-3.79c-1.35 0-2.44 1.1-2.44 2.44v3.79c0 0.466-0.369 0.833-0.835 0.833h-4.54c-0.466 0-0.833-0.368-0.833-0.833v-4.54c0-0.466 0.368-0.835 0.833-0.835h3.78c1.35 0 2.45-1.1 2.45-2.44v-3.78l-0.164-0.68c-0.0864-0.429-0.17-0.87-0.448-1.19v-0.0028c-0.0528-0.0589-0.111-0.116-0.172-0.172v-0.0028l-0.0084-0.0056-7e-3 -7e-3c-0.0562-0.0514-0.113-0.0994-0.172-0.145v0.0014l-0.0042-0.0028-0.0014-0.0028-0.0056-0.0028-0.0125-0.0097c-0.0601-0.0447-0.12-0.0852-0.178-0.121l-0.0042-0.0014-0.0014-0.0028c1e-3 6.1e-4 -0.0106-0.0054-0.032-0.0181h-0.0014c-0.0591-0.0348-0.118-0.0659-0.178-0.0946l-0.0028-0.0014c-0.0185-0.0089-0.0304-0.0167-0.0362-0.0195h-0.0042l-0.0042-0.0014c-0.0671-0.031-0.126-0.0539-0.175-0.0723l-0.0042-0.0014h-0.0042c-0.0055-0.0019-0.0242-0.01-0.0556-0.0209l-0.0014-0.0014h-0.0014c-0.0659-0.0221-0.123-0.0362-0.167-0.0473l-0.0042-0.0014h-0.0042c-0.0012-2.92e-4 -0.0237-0.0071-0.0723-0.0181l-0.0028-0.0028h-0.0028c-0.0638-0.0136-0.129-0.0227-0.196-0.0306l0.0236 0.0014c0.0214 0.0038-0.0251-0.0049-0.0821-0.0111-0.092-0.011-0.178-0.0153-0.259-0.0153zm-5.55 5.04c-0.509 0-0.932 0.421-0.932 0.931 0 0.509 0.422 0.932 0.932 0.932 0.51 0 0.931-0.423 0.931-0.932 0-0.509-0.421-0.931-0.931-0.931zm15.1 5.04c-0.51 0-0.933 0.424-0.933 0.933v3.28c0 0.466-0.367 0.833-0.833 0.833h-3.28c-0.509 0-0.933 0.423-0.933 0.933 0 0.51 0.424 0.931 0.933 0.931h3.53c1.35 0 2.44-1.1 2.44-2.44v-3.53c0-0.509-0.421-0.933-0.931-0.933z" clip-rule="evenodd" fill="currentColor" fill-rule="evenodd" stroke-width=".95" style="-inkscape-stroke:none;isolation:isolate"/>
	<path id="path6" d="m32 26.5-4.04 0.0014c-1.35 0-2.45 1.1-2.45 2.44v1.51c0 0.509 0.422 0.931 0.932 0.931 0.51 0 0.932-0.421 0.932-0.931v-1.26c0-0.466 0.368-0.835 0.833-0.835h3.53c0.466 0 0.835 0.369 0.835 0.835v3.53c0 0.466-0.369 0.833-0.835 0.833h-3.78c-1.35 0-2.45 1.1-2.45 2.45v5.05c0 1.35 1.1 2.44 2.45 2.44h5.04c0.0868 0 0.177-0.0047 0.271-0.0167h0.0014c0.018-0.0026 0.0539-7e-3 0.0417-0.0056h0.0056c0.0572-0.0075 0.121-0.0157 0.191-0.0306l0.0056-0.0028c0.0478-0.0102 0.079-0.0204 0.0862-0.0223h0.0014c0.045-0.0115 0.0996-0.0253 0.161-0.0459 0.0415-0.0137 0.0618-0.0224 0.057-0.0209l0.0112-0.0028c0.0446-0.0165 0.101-0.038 0.159-0.064l0.0028-0.0014c0.0382-0.0159 0.0574-0.0271 0.0584-0.0278 0.0537-0.0257 0.111-0.0549 0.17-0.089l0.0111-0.0056c0.0191-0.0112 0.0374-0.0233 0.0334-0.0209l0.0042-0.0014 0.0014-0.0028c0.0589-0.0366 0.119-0.0755 0.175-0.117v-0.0014c-3.22e-4 2.37e-4 0.0157-0.011 0.025-0.0181l0.0167-0.0139c0.0527-0.0407 0.107-0.0852 0.16-0.134l0.0069-0.0056 0.0042-0.0056c0.0617-0.0569 0.119-0.115 0.172-0.175l0.0014-0.0028c0.278-0.316 0.363-0.756 0.449-1.19 0.0213-0.033 0.161-0.661 0.161-0.68v-3.53c0-0.466 0.369-0.832 0.835-0.832h3.53c0.0765 0 0.608-0.135 0.679-0.161 0.43-0.0862 0.871-0.173 1.19-0.451 0.0437-0.0388 0.0858-0.0835 0.128-0.127 0.0727-0.0575 0.0733-0.0733 0.089-0.0946 0.0409-0.0463 0.0818-0.0933 0.117-0.139l0.0069-0.0097 0.0028-0.0028 0.0014-0.0042 0.0014-0.0014 0.0056-0.0084c0.0432-0.0586 0.0848-0.116 0.121-0.175l0.0014-0.0042 0.0028-0.0042c0.0014-0.0024 0.0069-0.0114 0.0167-0.0278l0.0014-0.0014c0.0364-0.0618 0.0686-0.123 0.0974-0.184l0.0056-0.0112c-0.0054 0.0123 0.0052-0.0124 0.0125-0.0278 0.0322-0.0685 0.0539-0.129 0.0723-0.178l0.0014-0.0042 0.0028-0.0028c0.0038-0.011 0.0122-0.031 0.0223-0.0612v-0.0028c0.0213-0.0638 0.0338-0.116 0.0445-0.157v-0.0028l0.0014-0.0028c0.0019-0.0077 0.0106-0.0388 0.0209-0.0862 0.0145-0.0659 0.0256-0.132 0.0334-0.198h0.0014c-0.0016 0.0136 0.0027-0.0245 0.0056-0.0473l0.0014-0.0195c0.0086-0.081 0.0139-0.165 0.0139-0.249v-5.04c0-1.35-1.1-2.45-2.45-2.45h-4.54c-0.509 0-0.931 0.424-0.931 0.933 0 0.51 0.421 0.931 0.931 0.931h4.29c0.466 0 0.835 0.369 0.835 0.835v4.54c0 0.466-0.369 0.833-0.835 0.833h-3.79c-1.35 0-2.44 1.1-2.44 2.44v3.79c0 0.466-0.369 0.833-0.835 0.833h-4.54c-0.466 0-0.833-0.368-0.833-0.833v-4.54c0-0.466 0.368-0.835 0.833-0.835h3.78c1.35 0 2.45-1.1 2.45-2.44v-3.78l-0.164-0.68c-0.0864-0.429-0.17-0.87-0.448-1.19v-0.0028c-0.0528-0.0589-0.111-0.116-0.172-0.172v-0.0028l-0.0084-0.0056-7e-3 -7e-3c-0.0562-0.0514-0.113-0.0994-0.172-0.145v0.0014l-0.0042-0.0028-0.0014-0.0028-0.0056-0.0028-0.0125-0.0097c-0.0601-0.0447-0.12-0.0852-0.178-0.121l-0.0042-0.0014-0.0014-0.0028c1e-3 6.1e-4 -0.0106-0.0054-0.032-0.0181h-0.0014c-0.0591-0.0348-0.118-0.0659-0.178-0.0946l-0.0028-0.0014c-0.0185-0.0089-0.0304-0.0167-0.0362-0.0195h-0.0042l-0.0042-0.0014c-0.0671-0.031-0.126-0.0539-0.175-0.0723l-0.0042-0.0014h-0.0042c-0.0055-0.0019-0.0242-0.01-0.0556-0.0209l-0.0014-0.0014h-0.0014c-0.0659-0.0221-0.123-0.0362-0.167-0.0473l-0.0042-0.0014h-0.0042c-0.0012-2.92e-4 -0.0237-0.0071-0.0723-0.0181l-0.0028-0.0028h-0.0028c-0.0638-0.0136-0.129-0.0227-0.196-0.0306l0.0236 0.0014c0.0214 0.0038-0.0251-0.0049-0.0821-0.0111-0.092-0.011-0.178-0.0153-0.259-0.0153zm-5.55 5.04c-0.509 0-0.932 0.421-0.932 0.931 0 0.509 0.422 0.932 0.932 0.932 0.51 0 0.931-0.423 0.931-0.932 0-0.509-0.421-0.931-0.931-0.931zm15.1 5.04c-0.51 0-0.933 0.424-0.933 0.933v3.28c0 0.466-0.367 0.833-0.833 0.833h-3.28c-0.509 0-0.933 0.423-0.933 0.933 0 0.51 0.424 0.931 0.933 0.931h3.53c1.35 0 2.44-1.1 2.44-2.44v-3.53c0-0.509-0.421-0.933-0.931-0.933z" clip-rule="evenodd" fill="#fff" fill-opacity=".2" fill-rule="evenodd" stroke-width=".95" style="-inkscape-stroke:none;isolation:isolate"/>
</svg>
