<?xml version="1.0" encoding="UTF-8"?>
<svg id="svg5" width="48pt" height="48pt" style="isolation:isolate" version="1.1" viewBox="0 0 48 48" xmlns="http://www.w3.org/2000/svg">
	<defs id="defs2">
		<style id="current-color-scheme" type="text/css">.ColorScheme-Text { color:#fff; }
.ColorScheme-Highlight { color:#50c9c3; }
.ColorScheme-HighlightedText { color:#fff }</style>
		<linearGradient id="a" x1="1.5" x2="46" y1="32" y2="32" gradientTransform="translate(-.000766 -.557)" gradientUnits="userSpaceOnUse">
			<stop id="stop1" stop-color="#fff" stop-opacity="0" offset="0"/>
			<stop id="stop2" class="ColorScheme-HighlightedText" stop-color="currentColor" stop-opacity=".4" offset="1"/>
		</linearGradient>
	</defs>
	<path id="path2" class="ColorScheme-Highlight" d="m6.43 11.5c-2.71 0-4.92 2.21-4.92 4.93l-0.00593 25.1c0 2.72 2.21 4.93 4.92 4.93h35.2c2.71 0 4.92-2.21 4.92-4.93v-20.1c0-2.72-2.21-4.93-4.92-4.93h-15.1c-4.02 0-6.53-1.91-9.24-3.82-0.904-0.634-2.52-1.21-3.63-1.21z" fill="currentColor"/>
	<path id="path3" d="m6.52 11.5c-1.41-0.00369-2.69 0.568-3.59 1.45-0.703 2.2 0.405 3.25 2.48 3.55h21.1c-4.02 0-6.43-1.8-9.24-3.8-0.904-0.64-2.52-1.2-3.63-1.2z" fill-opacity=".2"/>
	<path id="path4" class="ColorScheme-HighlightedText" d="m1.51 16.5c-0.00201 8.43-0.00392 17.1-0.00593 25.1 6e-7 2.71 2.21 4.92 4.92 4.92h35.2c2.71 0 4.92-2.21 4.92-4.92v-20.1c0-2.71-2.21-5-4.92-5z" fill="url(#a)"/>
	<path id="path9" d="m32.5 30.6c-0.454 0-0.831 0.376-0.831 0.831s0.376 0.831 0.831 0.831c0.454 0 0.828-0.376 0.828-0.831 0-0.454-0.373-0.831-0.828-0.831z" clip-rule="evenodd"  fill="#08f100" fill-rule="evenodd" style="-inkscape-stroke:none;isolation:isolate"/>
	<path id="path8" d="m30.4 30.6c-0.454 0-0.829 0.376-0.829 0.831 0 0.454 0.375 0.831 0.829 0.831 0.454 0 0.829-0.376 0.829-0.831 0-0.454-0.375-0.831-0.829-0.831z" clip-rule="evenodd"  fill="#f2df00" fill-rule="evenodd" style="-inkscape-stroke:none;isolation:isolate"/>
	<path id="path7" d="m28.4 30.6c-0.454 0-0.831 0.376-0.831 0.831 0 0.454 0.376 0.831 0.831 0.831 0.454 0 0.829-0.376 0.829-0.831 0-0.454-0.375-0.831-0.829-0.831z" clip-rule="evenodd"  fill="currentColor" fill-rule="evenodd" style="-inkscape-stroke:none;isolation:isolate"/>
	<path id="pathtext" class="ColorScheme-Text" d="m27.9 28.5c-1.3 0-2.36 1.06-2.36 2.36v1.79c0 0.878 0.717 1.6 1.6 1.6h13.6c0.11 0 0.193 0.0829 0.193 0.193v6.65c0 0.393-0.312 0.703-0.705 0.703h-12.3c-0.393 0-0.705-0.31-0.705-0.703v-5.62c0-0.454-0.373-0.829-0.828-0.829-0.454 0-0.831 0.375-0.831 0.829v5.62c0 1.3 1.06 2.36 2.36 2.36h12.3c1.3 0 2.36-1.06 2.36-2.36v-6.9c0-0.878-0.717-1.6-1.6-1.6h-13.6c-0.11 0-0.193-0.0829-0.193-0.193v-1.54c0-0.393 0.312-0.706 0.705-0.706h12.3c0.393 0 0.705 0.313 0.705 0.706v0.511c0 0.454 0.375 0.831 0.829 0.831 0.454 0 0.829-0.376 0.829-0.831v-0.511c0-1.3-1.06-2.36-2.36-2.36z" clip-rule="evenodd"  fill="currentColor" fill-rule="evenodd" style="-inkscape-stroke:none;isolation:isolate"/>
	<path id="path10" d="m27.9 28.5c-1.3 0-2.36 1.06-2.36 2.36v1.79c0 0.878 0.717 1.6 1.6 1.6h13.6c0.11 0 0.193 0.0829 0.193 0.193v6.65c0 0.393-0.312 0.703-0.705 0.703h-12.3c-0.393 0-0.705-0.31-0.705-0.703v-5.62c0-0.454-0.373-0.829-0.828-0.829-0.454 0-0.831 0.375-0.831 0.829v5.62c0 1.3 1.06 2.36 2.36 2.36h12.3c1.3 0 2.36-1.06 2.36-2.36v-6.9c0-0.878-0.717-1.6-1.6-1.6h-13.6c-0.11 0-0.193-0.0829-0.193-0.193v-1.54c0-0.393 0.312-0.706 0.705-0.706h12.3c0.393 0 0.705 0.313 0.705 0.706v0.511c0 0.454 0.375 0.831 0.829 0.831 0.454 0 0.829-0.376 0.829-0.831v-0.511c0-1.3-1.06-2.36-2.36-2.36z" clip-rule="evenodd"  fill="#fff" fill-opacity=".2" fill-rule="evenodd" style="-inkscape-stroke:none;isolation:isolate"/>
</svg>
