<?xml version="1.0" encoding="UTF-8"?>
<svg id="svg5" width="48pt" height="48pt" style="isolation:isolate" version="1.1" viewBox="0 0 48 48" xmlns="http://www.w3.org/2000/svg">
	<defs id="defs2">
		<style id="current-color-scheme" type="text/css">.ColorScheme-Text { color:#fff; }
.ColorScheme-Highlight { color:#50c9c3; }
.ColorScheme-HighlightedText { color:#fff }</style>
		<linearGradient id="a" x1="1.5" x2="46" y1="32" y2="32" gradientTransform="translate(-.000766 -.557)" gradientUnits="userSpaceOnUse">
			<stop id="stop1" stop-color="#fff" stop-opacity="0" offset="0"/>
			<stop id="stop2" class="ColorScheme-HighlightedText" stop-color="currentColor" stop-opacity=".4" offset="1"/>
		</linearGradient>
	</defs>
	<path id="path2" class="ColorScheme-Highlight" d="m6.43 11.5c-2.71 0-4.92 2.21-4.92 4.93l-0.00593 25.1c0 2.72 2.21 4.93 4.92 4.93h35.2c2.71 0 4.92-2.21 4.92-4.93v-20.1c0-2.72-2.21-4.93-4.92-4.93h-15.1c-4.02 0-6.53-1.91-9.24-3.82-0.904-0.634-2.52-1.21-3.63-1.21z" fill="currentColor"/>
	<path id="path3" d="m6.52 11.5c-1.41-0.00369-2.69 0.568-3.59 1.45-0.703 2.2 0.405 3.25 2.48 3.55h21.1c-4.02 0-6.43-1.8-9.24-3.8-0.904-0.64-2.52-1.2-3.63-1.2z" fill-opacity=".2"/>
	<path id="path4" class="ColorScheme-HighlightedText" d="m1.51 16.5c-0.00201 8.43-0.00392 17.1-0.00593 25.1 6e-7 2.71 2.21 4.92 4.92 4.92h35.2c2.71 0 4.92-2.21 4.92-4.92v-20.1c0-2.71-2.21-5-4.92-5z" fill="url(#a)"/>
	<path id="pathtext" class="ColorScheme-Text" d="m31.2 42.2c0.192 0 0.377 0.067 0.514 0.188 0.134 0.118 0.21 0.281 0.21 0.45s-0.076 0.332-0.21 0.45c-0.137 0.121-0.322 0.188-0.514 0.188h-3.29c-1.31 0-2.38-1.06-2.38-2.38v-10.2c0-1.31 1.06-2.38 2.38-2.38h12.2c1.31 0 2.38 1.06 2.38 2.38v10.2c0 1.31-1.06 2.38-2.38 2.38h-3.29c-0.192 0-0.377-0.067-0.514-0.188-0.134-0.118-0.21-0.281-0.21-0.45s0.076-0.332 0.21-0.45c0.137-0.121 0.322-0.188 0.514-0.188h2.53c0.937 0 1.7-0.761 1.7-1.7v-9.04c0-0.938-0.761-1.7-1.7-1.7h-10.7c-0.937 0-1.7 0.761-1.7 1.7v9.04c0 0.937 0.761 1.7 1.7 1.7zm3.49-5.36-0.692 0.366c-0.891 0.472-1.62 0.036-1.62-0.973v-0.497c0-1.01 0.724-1.44 1.62-0.973l0.692 0.366c0.892 0.472 0.892 1.24 0 1.71zm2.48 0.342-4.63 2.45c-0.892 0.472-1.62 0.036-1.62-0.972v-5.35c0-1.01 0.724-1.44 1.62-0.972l4.63 2.45c1.25 0.661 1.25 1.73 0 2.4z" fill="currentColor" fill-rule="evenodd" style="isolation:isolate"/>
	<path id="path6" d="m31.2 42.2c0.192 0 0.377 0.067 0.514 0.188 0.134 0.118 0.21 0.281 0.21 0.45s-0.076 0.332-0.21 0.45c-0.137 0.121-0.322 0.188-0.514 0.188h-3.29c-1.31 0-2.38-1.06-2.38-2.38v-10.2c0-1.31 1.06-2.38 2.38-2.38h12.2c1.31 0 2.38 1.06 2.38 2.38v10.2c0 1.31-1.06 2.38-2.38 2.38h-3.29c-0.192 0-0.377-0.067-0.514-0.188-0.134-0.118-0.21-0.281-0.21-0.45s0.076-0.332 0.21-0.45c0.137-0.121 0.322-0.188 0.514-0.188h2.53c0.937 0 1.7-0.761 1.7-1.7v-9.04c0-0.938-0.761-1.7-1.7-1.7h-10.7c-0.937 0-1.7 0.761-1.7 1.7v9.04c0 0.937 0.761 1.7 1.7 1.7zm3.49-5.36-0.692 0.366c-0.891 0.472-1.62 0.036-1.62-0.973v-0.497c0-1.01 0.724-1.44 1.62-0.973l0.692 0.366c0.892 0.472 0.892 1.24 0 1.71zm2.48 0.342-4.63 2.45c-0.892 0.472-1.62 0.036-1.62-0.972v-5.35c0-1.01 0.724-1.44 1.62-0.972l4.63 2.45c1.25 0.661 1.25 1.73 0 2.4z" fill="#fff" fill-opacity=".2" fill-rule="evenodd" style="isolation:isolate"/>
</svg>
