<?xml version="1.0" encoding="UTF-8"?>
<svg id="svg5" width="48pt" height="48pt" style="isolation:isolate" version="1.1" viewBox="0 0 48 48" xmlns="http://www.w3.org/2000/svg">
	<defs id="defs2">
		<style id="current-color-scheme" type="text/css">.ColorScheme-Text { color:#fff; }
.ColorScheme-Highlight { color:#50c9c3; }
.ColorScheme-HighlightedText { color:#fff }</style>
		<linearGradient id="a" x1="1.5" x2="46" y1="32" y2="32" gradientTransform="translate(-.000766 -.557)" gradientUnits="userSpaceOnUse">
			<stop id="stop1" stop-color="#fff" stop-opacity="0" offset="0"/>
			<stop id="stop2" class="ColorScheme-HighlightedText" stop-color="currentColor" stop-opacity=".4" offset="1"/>
		</linearGradient>
	</defs>
	<path id="path2" class="ColorScheme-Highlight" d="m6.43 11.5c-2.71 0-4.92 2.21-4.92 4.93l-0.00593 25.1c0 2.72 2.21 4.93 4.92 4.93h35.2c2.71 0 4.92-2.21 4.92-4.93v-20.1c0-2.72-2.21-4.93-4.92-4.93h-15.1c-4.02 0-6.53-1.91-9.24-3.82-0.904-0.634-2.52-1.21-3.63-1.21z" fill="currentColor"/>
	<path id="path3" d="m6.52 11.5c-1.41-0.00369-2.69 0.568-3.59 1.45-0.703 2.2 0.405 3.25 2.48 3.55h21.1c-4.02 0-6.43-1.8-9.24-3.8-0.904-0.64-2.52-1.2-3.63-1.2z" fill-opacity=".2"/>
	<path id="path4" class="ColorScheme-HighlightedText" d="m1.51 16.5c-0.00201 8.43-0.00392 17.1-0.00593 25.1 6e-7 2.71 2.21 4.92 4.92 4.92h35.2c2.71 0 4.92-2.21 4.92-4.92v-20.1c0-2.71-2.21-5-4.92-5z" fill="url(#a)"/>
	<path id="pathtext" class="ColorScheme-Text" d="m33.3 41.5a0.773 0.773 0 0 0-0.912-0.76c-1.01 0.186-2.29 0.213-2.63-0.74a4.41 4.41 0 0 0-1.42-1.87 0.928 0.928 0 0 1-0.129-0.0843 0.772 0.772 0 0 0-0.719-0.499h-0.0038a0.772 0.772 0 0 0-0.772 0.769c-0.0028 0.63 0.626 1.03 0.882 1.17a3.43 3.43 0 0 1 0.714 1.05c0.281 0.791 1.1 1.99 3.45 1.84 7.74e-4 0.0272 0.0019 0.0529 0.0019 0.0762l0.0038 0.207a0.772 0.772 0 0 0 1.54 0l-0.0038-0.246c-0.0038-0.146-0.0094-0.358-0.0094-0.913zm8.24-11.7c0.0246-0.0966 0.0488-0.204 0.0699-0.324a4.85 4.85 0 0 0-0.315-2.54 0.774 0.774 0 0 0-0.476-0.448c-0.275-0.0928-1.29-0.275-3.23 0.966a10.7 10.7 0 0 0-4.91 0c-1.93-1.22-2.94-1.06-3.22-0.969a0.77 0.77 0 0 0-0.488 0.451 4.87 4.87 0 0 0-0.312 2.59c0.0189 0.0988 0.0394 0.19 0.0604 0.274a4.84 4.84 0 0 0-0.97 2.96 6.51 6.51 0 0 0 0.0328 0.712c0.258 3.56 2.58 4.62 4.19 4.99-0.0337 0.0966-0.0642 0.2-0.0913 0.309a0.773 0.773 0 0 0 1.5 0.37 1.3 1.3 0 0 1 0.361-0.678 0.772 0.772 0 0 0-0.422-1.35c-2.67-0.305-3.83-1.39-4-3.78a5.11 5.11 0 0 1-0.0261-0.57 3.29 3.29 0 0 1 0.71-2.1 2.33 2.33 0 0 1 0.151-0.179 0.772 0.772 0 0 0 0.145-0.791 2.62 2.62 0 0 1-0.12-0.429 3.16 3.16 0 0 1 0.0607-1.25 5.83 5.83 0 0 1 1.87 0.911 0.779 0.779 0 0 0 0.639 0.103 9.1 9.1 0 0 1 4.77 7.75e-4 0.777 0.777 0 0 0 0.642-0.106 5.85 5.85 0 0 1 1.86-0.92 3.12 3.12 0 0 1 0.0673 1.22 2.48 2.48 0 0 1-0.131 0.469 0.772 0.772 0 0 0 0.145 0.791c0.0595 0.067 0.119 0.139 0.173 0.207a3.18 3.18 0 0 1 0.697 2.07 5.44 5.44 0 0 1-0.0291 0.6c-0.17 2.36-1.33 3.45-4.01 3.75a0.772 0.772 0 0 0-0.421 1.35 1.26 1.26 0 0 1 0.36 0.702 2.36 2.36 0 0 1 0.0711 0.633v1.8c-0.0076 0.5-0.0076 0.875-0.0076 1.05a0.772 0.772 0 1 0 1.54 0c0-0.167 0-0.535 0.0076-1.03v-1.81a3.77 3.77 0 0 0-0.12-1.01 3.29 3.29 0 0 0-0.0897-0.321 5.03 5.03 0 0 0 4.21-4.96 6.72 6.72 0 0 0 0.0356-0.741 4.74 4.74 0 0 0-0.975-2.96z" fill="currentColor" stroke-width=".772" style="isolation:isolate"/>
	<path id="path6" d="m33.3 41.5a0.773 0.773 0 0 0-0.912-0.76c-1.01 0.186-2.29 0.213-2.63-0.74a4.41 4.41 0 0 0-1.42-1.87 0.928 0.928 0 0 1-0.129-0.0843 0.772 0.772 0 0 0-0.719-0.499h-0.0038a0.772 0.772 0 0 0-0.772 0.769c-0.0028 0.63 0.626 1.03 0.882 1.17a3.43 3.43 0 0 1 0.714 1.05c0.281 0.791 1.1 1.99 3.45 1.84 7.74e-4 0.0272 0.0019 0.0529 0.0019 0.0762l0.0038 0.207a0.772 0.772 0 0 0 1.54 0l-0.0038-0.246c-0.0038-0.146-0.0094-0.358-0.0094-0.913zm8.24-11.7c0.0246-0.0966 0.0488-0.204 0.0699-0.324a4.85 4.85 0 0 0-0.315-2.54 0.774 0.774 0 0 0-0.476-0.448c-0.275-0.0928-1.29-0.275-3.23 0.966a10.7 10.7 0 0 0-4.91 0c-1.93-1.22-2.94-1.06-3.22-0.969a0.77 0.77 0 0 0-0.488 0.451 4.87 4.87 0 0 0-0.312 2.59c0.0189 0.0988 0.0394 0.19 0.0604 0.274a4.84 4.84 0 0 0-0.97 2.96 6.51 6.51 0 0 0 0.0328 0.712c0.258 3.56 2.58 4.62 4.19 4.99-0.0337 0.0966-0.0642 0.2-0.0913 0.309a0.773 0.773 0 0 0 1.5 0.37 1.3 1.3 0 0 1 0.361-0.678 0.772 0.772 0 0 0-0.422-1.35c-2.67-0.305-3.83-1.39-4-3.78a5.11 5.11 0 0 1-0.0261-0.57 3.29 3.29 0 0 1 0.71-2.1 2.33 2.33 0 0 1 0.151-0.179 0.772 0.772 0 0 0 0.145-0.791 2.62 2.62 0 0 1-0.12-0.429 3.16 3.16 0 0 1 0.0607-1.25 5.83 5.83 0 0 1 1.87 0.911 0.779 0.779 0 0 0 0.639 0.103 9.1 9.1 0 0 1 4.77 7.75e-4 0.777 0.777 0 0 0 0.642-0.106 5.85 5.85 0 0 1 1.86-0.92 3.12 3.12 0 0 1 0.0673 1.22 2.48 2.48 0 0 1-0.131 0.469 0.772 0.772 0 0 0 0.145 0.791c0.0595 0.067 0.119 0.139 0.173 0.207a3.18 3.18 0 0 1 0.697 2.07 5.44 5.44 0 0 1-0.0291 0.6c-0.17 2.36-1.33 3.45-4.01 3.75a0.772 0.772 0 0 0-0.421 1.35 1.26 1.26 0 0 1 0.36 0.702 2.36 2.36 0 0 1 0.0711 0.633v1.8c-0.0076 0.5-0.0076 0.875-0.0076 1.05a0.772 0.772 0 1 0 1.54 0c0-0.167 0-0.535 0.0076-1.03v-1.81a3.77 3.77 0 0 0-0.12-1.01 3.29 3.29 0 0 0-0.0897-0.321 5.03 5.03 0 0 0 4.21-4.96 6.72 6.72 0 0 0 0.0356-0.741 4.74 4.74 0 0 0-0.975-2.96z" fill="#fff" fill-opacity=".2" stroke-width=".772" style="isolation:isolate"/>
</svg>
