<?xml version="1.0" encoding="UTF-8"?>
<svg id="svg5" width="48pt" height="48pt" style="isolation:isolate" version="1.1" viewBox="0 0 48 48" xmlns="http://www.w3.org/2000/svg">
	<defs id="defs2">
		<style id="current-color-scheme" type="text/css">.ColorScheme-Text { color:#fff; }
.ColorScheme-Highlight { color:#50c9c3; }
.ColorScheme-HighlightedText { color:#fff }</style>
		<linearGradient id="a" x1="1.5" x2="46" y1="32" y2="32" gradientTransform="translate(-.000766 -.557)" gradientUnits="userSpaceOnUse">
			<stop id="stop1" stop-color="#fff" stop-opacity="0" offset="0"/>
			<stop id="stop2" class="ColorScheme-HighlightedText" stop-color="currentColor" stop-opacity=".4" offset="1"/>
		</linearGradient>
	</defs>
	<path id="path2" class="ColorScheme-Highlight" d="m6.43 11.5c-2.71 0-4.92 2.21-4.92 4.93l-0.00593 25.1c0 2.72 2.21 4.93 4.92 4.93h35.2c2.71 0 4.92-2.21 4.92-4.93v-20.1c0-2.72-2.21-4.93-4.92-4.93h-15.1c-4.02 0-6.53-1.91-9.24-3.82-0.904-0.634-2.52-1.21-3.63-1.21z" fill="currentColor"/>
	<path id="path3" d="m6.52 11.5c-1.41-0.00369-2.69 0.568-3.59 1.45-0.703 2.2 0.405 3.25 2.48 3.55h21.1c-4.02 0-6.43-1.8-9.24-3.8-0.904-0.64-2.52-1.2-3.63-1.2z" fill-opacity=".2"/>
	<path id="path4" class="ColorScheme-HighlightedText" d="m1.51 16.5c-0.00201 8.43-0.00392 17.1-0.00593 25.1 6e-7 2.71 2.21 4.92 4.92 4.92h35.2c2.71 0 4.92-2.21 4.92-4.92v-20.1c0-2.71-2.21-5-4.92-5z" fill="url(#a)"/>
	<path id="pathtext" class="ColorScheme-Text" d="m27.9 26.7c-1.06 0-1.91 0.856-1.91 1.91v13c0 1.06 0.857 1.91 1.91 1.91h5.74c0.422 0 0.765-0.343 0.765-0.765s-0.343-0.766-0.765-0.766h-4.97c-0.633 0-1.15-0.512-1.15-1.15v-11.5c0-0.633 0.514-1.15 1.15-1.15h4.68c0.211 0 0.5 0.124 0.645 0.278l6.02 6.41c0.315 0.28 0.799 0.253 1.08-0.0601 0.282-0.314 0.257-0.797-0.0557-1.08l-5.93-6.25c-0.436-0.459-1.3-0.832-1.94-0.832zm9.18 0c-0.422 0-0.765 0.343-0.765 0.765s0.343 0.765 0.765 0.765h1.53c0.633 0 1.15 0.514 1.15 1.15v1.53c0 0.422 0.343 0.766 0.765 0.766 0.422 0 0.765-0.344 0.765-0.766v-2.29c0-1.06-0.857-1.91-1.91-1.91zm-7.15 3.82c-0.487 0-0.883 0.343-0.883 0.765 0 0.422 0.396 0.765 0.883 0.765h4.35c0.488 0 0.883-0.343 0.883-0.765 0-0.422-0.396-0.765-0.883-0.765zm1.76 3.06c-1.46 0.0161-2.65 1.21-2.65 2.68 0 1.48 1.2 2.68 2.68 2.68 1.48 0 2.68-1.2 2.68-2.68h-2.68zm1.94 0c-0.422 0-0.765 0.343-0.765 0.765 0 0.422 0.343 0.765 0.765 0.765h3.06c0.422 0 0.765-0.343 0.765-0.765 0-0.422-0.343-0.765-0.765-0.765zm5.01 2.29c-0.966 0-1.9 0.366-2.6 1.02-0.708 0.657-1.14 1.56-1.21 2.52-0.0144 0.192 0.129 0.358 0.321 0.372 0.192 0.014 0.359-0.13 0.374-0.321 0.0592-0.787 0.412-1.52 0.992-2.06 0.579-0.537 1.34-0.835 2.13-0.835 0.83 0 1.63 0.331 2.22 0.917 0.586 0.587 0.917 1.38 0.917 2.21s-0.331 1.63-0.917 2.21c-0.588 0.586-1.39 0.916-2.22 0.916-0.192 0-0.347 0.155-0.347 0.347 0 0.192 0.155 0.349 0.347 0.349 1.01 0 1.99-0.403 2.71-1.12 0.717-0.718 1.12-1.69 1.12-2.71s-0.404-1.99-1.12-2.7c-0.719-0.716-1.69-1.12-2.71-1.12zm0.0059 1.72c-0.186 0-0.337 0.144-0.337 0.322v3.56c0 0.178 0.151 0.324 0.337 0.324 0.186 0 0.335-0.145 0.335-0.324v-3.56c0-0.178-0.15-0.322-0.335-0.322zm-3.16 3.27c-0.0452 0.0024-0.0916 0.0141-0.135 0.0352-0.173 0.0838-0.244 0.292-0.16 0.464 0.357 0.735 0.941 1.34 1.67 1.72 0.17 0.0894 0.381 0.0232 0.47-0.146 0.0894-0.17 0.0235-0.379-0.146-0.469-0.593-0.313-1.07-0.805-1.36-1.41-0.0634-0.13-0.197-0.203-0.333-0.196z" fill="currentColor" style="isolation:isolate"/>
	<path id="path6" d="m27.9 26.7c-1.06 0-1.91 0.856-1.91 1.91v13c0 1.06 0.857 1.91 1.91 1.91h5.74c0.422 0 0.765-0.343 0.765-0.765s-0.343-0.766-0.765-0.766h-4.97c-0.633 0-1.15-0.512-1.15-1.15v-11.5c0-0.633 0.514-1.15 1.15-1.15h4.68c0.211 0 0.5 0.124 0.645 0.278l6.02 6.41c0.315 0.28 0.799 0.253 1.08-0.0601 0.282-0.314 0.257-0.797-0.0557-1.08l-5.93-6.25c-0.436-0.459-1.3-0.832-1.94-0.832zm9.18 0c-0.422 0-0.765 0.343-0.765 0.765s0.343 0.765 0.765 0.765h1.53c0.633 0 1.15 0.514 1.15 1.15v1.53c0 0.422 0.343 0.766 0.765 0.766 0.422 0 0.765-0.344 0.765-0.766v-2.29c0-1.06-0.857-1.91-1.91-1.91zm-7.15 3.82c-0.487 0-0.883 0.343-0.883 0.765 0 0.422 0.396 0.765 0.883 0.765h4.35c0.488 0 0.883-0.343 0.883-0.765 0-0.422-0.396-0.765-0.883-0.765zm1.76 3.06c-1.46 0.0161-2.65 1.21-2.65 2.68 0 1.48 1.2 2.68 2.68 2.68 1.48 0 2.68-1.2 2.68-2.68h-2.68zm1.94 0c-0.422 0-0.765 0.343-0.765 0.765 0 0.422 0.343 0.765 0.765 0.765h3.06c0.422 0 0.765-0.343 0.765-0.765 0-0.422-0.343-0.765-0.765-0.765zm5.01 2.29c-0.966 0-1.9 0.366-2.6 1.02-0.708 0.657-1.14 1.56-1.21 2.52-0.0144 0.192 0.129 0.358 0.321 0.372 0.192 0.014 0.359-0.13 0.374-0.321 0.0592-0.787 0.412-1.52 0.992-2.06 0.579-0.537 1.34-0.835 2.13-0.835 0.83 0 1.63 0.331 2.22 0.917 0.586 0.587 0.917 1.38 0.917 2.21s-0.331 1.63-0.917 2.21c-0.588 0.586-1.39 0.916-2.22 0.916-0.192 0-0.347 0.155-0.347 0.347 0 0.192 0.155 0.349 0.347 0.349 1.01 0 1.99-0.403 2.71-1.12 0.717-0.718 1.12-1.69 1.12-2.71s-0.404-1.99-1.12-2.7c-0.719-0.716-1.69-1.12-2.71-1.12zm0.0059 1.72c-0.186 0-0.337 0.144-0.337 0.322v3.56c0 0.178 0.151 0.324 0.337 0.324 0.186 0 0.335-0.145 0.335-0.324v-3.56c0-0.178-0.15-0.322-0.335-0.322zm-3.16 3.27c-0.0452 0.0024-0.0916 0.0141-0.135 0.0352-0.173 0.0838-0.244 0.292-0.16 0.464 0.357 0.735 0.941 1.34 1.67 1.72 0.17 0.0894 0.381 0.0232 0.47-0.146 0.0894-0.17 0.0235-0.379-0.146-0.469-0.593-0.313-1.07-0.805-1.36-1.41-0.0634-0.13-0.197-0.203-0.333-0.196z" fill="#fff" fill-opacity=".2" style="isolation:isolate"/>
</svg>
