<?xml version="1.0" encoding="UTF-8"?>
<svg id="svg5" width="48pt" height="48pt" style="isolation:isolate" version="1.1" viewBox="0 0 48 48" xmlns="http://www.w3.org/2000/svg">
	<defs id="defs2">
		<style id="current-color-scheme" type="text/css">.ColorScheme-Text { color:#fff; }
.ColorScheme-Highlight { color:#50c9c3; }
.ColorScheme-HighlightedText { color:#fff }</style>
		<linearGradient id="a" x1="1.5" x2="46" y1="32" y2="32" gradientTransform="translate(-.000766 -.557)" gradientUnits="userSpaceOnUse">
			<stop id="stop1" stop-color="#fff" stop-opacity="0" offset="0"/>
			<stop id="stop2" class="ColorScheme-HighlightedText" stop-color="currentColor" stop-opacity=".4" offset="1"/>
		</linearGradient>
	</defs>
	<path id="path2" class="ColorScheme-Highlight" d="m6.43 11.5c-2.71 0-4.92 2.21-4.92 4.93l-0.00593 25.1c0 2.72 2.21 4.93 4.92 4.93h35.2c2.71 0 4.92-2.21 4.92-4.93v-20.1c0-2.72-2.21-4.93-4.92-4.93h-15.1c-4.02 0-6.53-1.91-9.24-3.82-0.904-0.634-2.52-1.21-3.63-1.21z" fill="currentColor"/>
	<path id="path3" d="m6.52 11.5c-1.41-0.00369-2.69 0.568-3.59 1.45-0.703 2.2 0.405 3.25 2.48 3.55h21.1c-4.02 0-6.43-1.8-9.24-3.8-0.904-0.64-2.52-1.2-3.63-1.2z" fill-opacity=".2"/>
	<path id="path4" class="ColorScheme-HighlightedText" d="m1.51 16.5c-0.00201 8.43-0.00392 17.1-0.00593 25.1 6e-7 2.71 2.21 4.92 4.92 4.92h35.2c2.71 0 4.92-2.21 4.92-4.92v-20.1c0-2.71-2.21-5-4.92-5z" fill="url(#a)"/>
	<path id="pathtext" class="ColorScheme-Text" d="m37 26.5-1.92 1.92 3.53 3.53-3.53 3.53 1.92 1.92 5.45-5.45z"  fill="currentColor" fill-rule="evenodd" stroke-width=".321"/>
	<path id="path2-3" d="m30 26.8c-0.577 0-1.01 0.449-1.01 1 0 0.537 0.433 1 1.01 1 0.545 0 0.994-0.465 0.994-1 0-0.553-0.449-1-0.994-1z" fill="#fa8865" stroke-width=".321"/>
	<path id="path3-6" d="m27.3 33.1c-0.802 0-1.44 0.642-1.44 1.44 0 0.802 0.642 1.44 1.44 1.44 0.802 0 1.44-0.642 1.44-1.44 0-0.802-0.642-1.44-1.44-1.44z" fill="#63c605" stroke-width=".321"/>
	<path id="path4-7" d="m32.1 39.3c-1.15 0-2.08 0.93-2.08 2.08s0.93 2.08 2.08 2.08 2.08-0.93 2.08-2.08-0.93-2.08-2.08-2.08z" fill="#1b89f3" stroke-width=".321"/>
	<path id="path6" class="ColorScheme-Text" d="m37 26.5-1.92 1.92 3.53 3.53-3.53 3.53 1.92 1.92 5.45-5.45z"  fill="#fff" fill-opacity=".2" fill-rule="evenodd" stroke-width=".321"/>
</svg>
