<?xml version="1.0" encoding="UTF-8"?>
<svg id="svg5" width="48pt" height="48pt" style="isolation:isolate" version="1.1" viewBox="0 0 48 48" xmlns="http://www.w3.org/2000/svg">
	<defs id="defs2">
		<style id="current-color-scheme" type="text/css">.ColorScheme-Text { color:#fff; }
.ColorScheme-Highlight { color:#50c9c3; }
.ColorScheme-HighlightedText { color:#fff }</style>
		<linearGradient id="a" x1="1.5" x2="46" y1="32" y2="32" gradientTransform="translate(-.000766 -.557)" gradientUnits="userSpaceOnUse">
			<stop id="stop1" stop-color="#fff" stop-opacity="0" offset="0"/>
			<stop id="stop2" class="ColorScheme-HighlightedText" stop-color="currentColor" stop-opacity=".4" offset="1"/>
		</linearGradient>
	</defs>
	<path id="path2" class="ColorScheme-Highlight" d="m6.43 11.5c-2.71 0-4.92 2.21-4.92 4.93l-0.00593 25.1c0 2.72 2.21 4.93 4.92 4.93h35.2c2.71 0 4.92-2.21 4.92-4.93v-20.1c0-2.72-2.21-4.93-4.92-4.93h-15.1c-4.02 0-6.53-1.91-9.24-3.82-0.904-0.634-2.52-1.21-3.63-1.21z" fill="currentColor"/>
	<path id="path3" d="m6.52 11.5c-1.41-0.00369-2.69 0.568-3.59 1.45-0.703 2.2 0.405 3.25 2.48 3.55h21.1c-4.02 0-6.43-1.8-9.24-3.8-0.904-0.64-2.52-1.2-3.63-1.2z" fill-opacity=".2"/>
	<path id="path4" class="ColorScheme-HighlightedText" d="m1.51 16.5c-0.00201 8.43-0.00392 17.1-0.00593 25.1 6e-7 2.71 2.21 4.92 4.92 4.92h35.2c2.71 0 4.92-2.21 4.92-4.92v-20.1c0-2.71-2.21-5-4.92-5z" fill="url(#a)"/>
	<path id="pathtext" class="ColorScheme-Text" d="m34 26.5c-4.69 0-8.5 3.81-8.5 8.5 0 0.541 0.0557 1.07 0.152 1.58l0.0015 0.0029v0.0044c0.243 0.971 1.12 1.69 2.16 1.69h4.23c0.495 0 0.932-0.249 1.19-0.627l0.0015-0.0015 0.0015-0.0029c0.16-0.248 0.435-0.412 0.753-0.412 0.317 0 0.592 0.164 0.751 0.412l0.0015 0.0029 0.0029 0.0015c0.262 0.378 0.698 0.627 1.19 0.627h2.75c0.368 0 0.668-0.302 0.668-0.669 0-0.368-0.3-0.668-0.668-0.668h-2.68c-0.0822 0-0.154-0.0423-0.198-0.103h-0.0015c-0.0033-0.0046-0.0096-0.0032-0.0132-0.0073-0.405-0.563-1.06-0.936-1.81-0.936-0.744 0-1.4 0.37-1.8 0.929-0.0053 0.0053-0.0128 0.0054-0.0176 0.0117l-0.0029 0.0015v0.0015c-0.0444 0.0617-0.117 0.103-0.199 0.103h-4.16c-0.384 0-0.705-0.245-0.833-0.583-0.0895-0.441-0.145-0.894-0.145-1.36 0-3.96 3.21-7.16 7.16-7.16 3.96 0 7.16 3.2 7.16 7.16 0 3.96-3.2 7.16-7.16 7.16-1.98 0-3.77-0.802-5.07-2.1l-0.103-0.105-0.0454 0.044c-0.103-0.0657-0.203-0.142-0.334-0.142-0.368 0-0.669 0.3-0.669 0.668 0 0.196 0.0865 0.372 0.22 0.494 1.53 1.52 3.63 2.45 5.95 2.47l-0.0044 0.0102h0.0513c4.69-7.3e-5 8.5-3.81 8.5-8.5 0-4.69-3.81-8.5-8.5-8.5zm0 2.09c-0.368 0-0.671 0.302-0.671 0.669 0 0.368 0.303 0.668 0.671 0.668 0.368 0 0.669-0.3 0.669-0.668 0-0.368-0.302-0.669-0.669-0.669zm-3.92 1.57c-0.368 0-0.669 0.303-0.669 0.671 0 0.368 0.301 0.668 0.669 0.668 0.368 0 0.671-0.3 0.671-0.668 0-0.368-0.303-0.671-0.671-0.671zm7.82 0.516c-0.174 1.1e-5 -0.349 0.066-0.48 0.198l-3.38 3.38c-0.264 0.264-0.264 0.694 0 0.958 0.264 0.264 0.694 0.263 0.958 0l3.38-3.38c0.264-0.264 0.264-0.696 0-0.959-0.132-0.132-0.305-0.198-0.479-0.198zm-9.65 3.14c-0.368 0-0.671 0.302-0.671 0.669 0 0.368 0.303 0.668 0.671 0.668 0.368 0 0.668-0.3 0.668-0.668 0-0.368-0.3-0.669-0.668-0.669zm11.5 0c-0.368 0-0.671 0.302-0.671 0.669 0 0.368 0.303 0.668 0.671 0.668 0.368 0 0.669-0.3 0.669-0.668 0-0.368-0.301-0.669-0.669-0.669zm-7.31 5.22c-0.368 0-0.669 0.3-0.669 0.668 0 0.368 0.301 0.669 0.669 0.669h3.13c0.368 0 0.668-0.301 0.668-0.669 0-0.368-0.3-0.668-0.668-0.668zm1.54 4.32c0.0093 3.1e-5 0.0185 0 0.0278 0l-0.044 0.132-0.0469-0.0146z"  fill="currentColor" style="-inkscape-stroke:none;isolation:isolate"/>
	<path id="path29" d="m34 26.5c-4.69 0-8.5 3.81-8.5 8.5 0 0.541 0.0557 1.07 0.152 1.58l0.0015 0.0029v0.0044c0.243 0.971 1.12 1.69 2.16 1.69h4.23c0.495 0 0.932-0.249 1.19-0.627l0.0015-0.0015 0.0015-0.0029c0.16-0.248 0.435-0.412 0.753-0.412 0.317 0 0.592 0.164 0.751 0.412l0.0015 0.0029 0.0029 0.0015c0.262 0.378 0.698 0.627 1.19 0.627h2.75c0.368 0 0.668-0.302 0.668-0.669 0-0.368-0.3-0.668-0.668-0.668h-2.68c-0.0822 0-0.154-0.0423-0.198-0.103h-0.0015c-0.0033-0.0046-0.0096-0.0032-0.0132-0.0073-0.405-0.563-1.06-0.936-1.81-0.936-0.744 0-1.4 0.37-1.8 0.929-0.0053 0.0053-0.0128 0.0054-0.0176 0.0117l-0.0029 0.0015v0.0015c-0.0444 0.0617-0.117 0.103-0.199 0.103h-4.16c-0.384 0-0.705-0.245-0.833-0.583-0.0895-0.441-0.145-0.894-0.145-1.36 0-3.96 3.21-7.16 7.16-7.16 3.96 0 7.16 3.2 7.16 7.16 0 3.96-3.2 7.16-7.16 7.16-1.98 0-3.77-0.802-5.07-2.1l-0.103-0.105-0.0454 0.044c-0.103-0.0657-0.203-0.142-0.334-0.142-0.368 0-0.669 0.3-0.669 0.668 0 0.196 0.0865 0.372 0.22 0.494 1.53 1.52 3.63 2.45 5.95 2.47l-0.0044 0.0102h0.0513c4.69-7.3e-5 8.5-3.81 8.5-8.5 0-4.69-3.81-8.5-8.5-8.5zm0 2.09c-0.368 0-0.671 0.302-0.671 0.669 0 0.368 0.303 0.668 0.671 0.668 0.368 0 0.669-0.3 0.669-0.668 0-0.368-0.302-0.669-0.669-0.669zm-3.92 1.57c-0.368 0-0.669 0.303-0.669 0.671 0 0.368 0.301 0.668 0.669 0.668 0.368 0 0.671-0.3 0.671-0.668 0-0.368-0.303-0.671-0.671-0.671zm7.82 0.516c-0.174 1.1e-5 -0.349 0.066-0.48 0.198l-3.38 3.38c-0.264 0.264-0.264 0.694 0 0.958 0.264 0.264 0.694 0.263 0.958 0l3.38-3.38c0.264-0.264 0.264-0.696 0-0.959-0.132-0.132-0.305-0.198-0.479-0.198zm-9.65 3.14c-0.368 0-0.671 0.302-0.671 0.669 0 0.368 0.303 0.668 0.671 0.668 0.368 0 0.668-0.3 0.668-0.668 0-0.368-0.3-0.669-0.668-0.669zm11.5 0c-0.368 0-0.671 0.302-0.671 0.669 0 0.368 0.303 0.668 0.671 0.668 0.368 0 0.669-0.3 0.669-0.668 0-0.368-0.301-0.669-0.669-0.669zm-7.31 5.22c-0.368 0-0.669 0.3-0.669 0.668 0 0.368 0.301 0.669 0.669 0.669h3.13c0.368 0 0.668-0.301 0.668-0.669 0-0.368-0.3-0.668-0.668-0.668zm1.54 4.32c0.0093 3.1e-5 0.0185 0 0.0278 0l-0.044 0.132-0.0469-0.0146z"  fill="#fff" fill-opacity=".2" style="-inkscape-stroke:none;isolation:isolate"/>
</svg>
