<?xml version="1.0" encoding="UTF-8"?>
<svg id="svg5" width="48pt" height="48pt" style="isolation:isolate" version="1.1" viewBox="0 0 48 48" xmlns="http://www.w3.org/2000/svg">
	<defs id="defs2">
		<style id="current-color-scheme" type="text/css">.ColorScheme-Text { color:#fff; }
.ColorScheme-Highlight { color:#50c9c3; }
.ColorScheme-HighlightedText { color:#fff }</style>
		<linearGradient id="a" x1="1.5" x2="46" y1="32" y2="32" gradientTransform="translate(-.000766 -.557)" gradientUnits="userSpaceOnUse">
			<stop id="stop1" stop-color="#fff" stop-opacity="0" offset="0"/>
			<stop id="stop2" class="ColorScheme-HighlightedText" stop-color="currentColor" stop-opacity=".4" offset="1"/>
		</linearGradient>
	</defs>
	<path id="path2" class="ColorScheme-Highlight" d="m6.43 11.5c-2.71 0-4.92 2.21-4.92 4.93l-0.00593 25.1c0 2.72 2.21 4.93 4.92 4.93h35.2c2.71 0 4.92-2.21 4.92-4.93v-20.1c0-2.72-2.21-4.93-4.92-4.93h-15.1c-4.02 0-6.53-1.91-9.24-3.82-0.904-0.634-2.52-1.21-3.63-1.21z" fill="currentColor"/>
	<path id="path3" d="m6.52 11.5c-1.41-0.00369-2.69 0.568-3.59 1.45-0.703 2.2 0.405 3.25 2.48 3.55h21.1c-4.02 0-6.43-1.8-9.24-3.8-0.904-0.64-2.52-1.2-3.63-1.2z" fill-opacity=".2"/>
	<path id="path4" class="ColorScheme-HighlightedText" d="m1.51 16.5c-0.00201 8.43-0.00392 17.1-0.00593 25.1 6e-7 2.71 2.21 4.92 4.92 4.92h35.2c2.71 0 4.92-2.21 4.92-4.92v-20.1c0-2.71-2.21-5-4.92-5z" fill="url(#a)"/>
	<path id="pathtext" class="ColorScheme-Text" d="m32.8 28.3c-1.25 0-2.28 1.02-2.28 2.27v0.532c0 0.374 0.308 0.681 0.683 0.681 0.375 0 0.681-0.307 0.681-0.681v-0.267c0-0.653 0.525-1.18 1.18-1.18h6.91c0.653 0 1.18 0.525 1.18 1.18v3.72c0 0.329-0.124 0.63-0.303 0.844-0.179 0.214-0.411 0.334-0.609 0.334-0.272 0-0.553 0.177-0.79 0.439-0.237 0.263-0.423 0.626-0.423 1.04v0.532c0 0.0656-0.0502 0.116-0.116 0.116-0.0232 0-0.0425-0.0067-0.0601-0.0176l-1.28-0.961c-0.222-0.167-0.365-0.431-0.365-0.731v-1.33c0-1.25-1.02-2.27-2.28-2.27h-7.44c-1.25 0-2.27 1.02-2.27 2.27v4.25c0 0.996 0.66 1.81 1.55 2.12 0.0039 0.02-0.0082 0.0323 0.0044 0.0542 0.041 0.0711 0.126 0.0996 0.185 0.0996 0.212 0 0.381 0.169 0.381 0.381v0.265c0 0.815 0.665 1.48 1.48 1.48 0.29 0 0.548-0.108 0.776-0.252h0.00439 0.0469l0.0352-0.0278h0.00146l2.14-1.6h0.00146c0.198-0.153 0.445-0.242 0.715-0.242h1.86c0.374 0 0.681-0.307 0.681-0.681 0-0.375-0.307-0.683-0.681-0.683h-1.99c-0.485 0-0.933 0.162-1.29 0.434l-2.22 1.66-0.0103 0.00586c-0.0198 0.0137-0.0409 0.022-0.0659 0.022-0.0653 0-0.116-0.0506-0.116-0.116v-0.53c0-0.412-0.185-0.777-0.422-1.04s-0.519-0.439-0.791-0.439c-0.0253 0-0.0316-0.00183-0.0352-0.00293l-0.0176-0.0439-0.063-0.0205c-0.463-0.16-0.797-0.594-0.797-1.11v-3.72c0-0.652 0.525-1.18 1.18-1.18h6.91c0.652 0 1.18 0.525 1.18 1.18v1.06c0 0.738 0.354 1.4 0.901 1.81 0.0152 0.012 0.0263 0.0216 0.0381 0.0308h0.00293l1.27 0.952h0.00146l0.0352 0.0264h0.0469c0.229 0.146 0.488 0.252 0.779 0.252 0.814 0 1.48-0.663 1.48-1.48v-0.265c0-0.212 0.169-0.381 0.381-0.381h0.00146 0.00146v-0.00293c0.438-0.0017 0.87-0.267 1.19-0.677 0.325-0.411 0.546-0.974 0.546-1.6v-4.25c0-1.25-1.02-2.27-2.27-2.27h-7.44zm6.05 9.55c-3.9e-5 -3.1e-5 0.00293 0.00293 0.00293 0.00293l-0.0967 0.114c-2.9e-5 -2.9e-5 0.0938-0.117 0.0938-0.117zm-2.33 1.08c-0.374 0-0.681 0.307-0.681 0.681 0 0.375 0.307 0.683 0.681 0.683 0.374 0 0.683-0.308 0.683-0.683 0-0.375-0.308-0.681-0.683-0.681zm-7.64 3.17 0.0908 0.119c-2e-3 -0.0021-0.0995-0.108-0.0996-0.108-5.6e-5 5e-5 0.00879-0.0103 0.00879-0.0103z" clip-rule="evenodd"  fill="currentColor" fill-rule="evenodd" style="-inkscape-stroke:none;isolation:isolate"/>
	<path id="path8" d="m32.8 28.3c-1.25 0-2.28 1.02-2.28 2.27v0.532c0 0.374 0.308 0.681 0.683 0.681 0.375 0 0.681-0.307 0.681-0.681v-0.267c0-0.653 0.525-1.18 1.18-1.18h6.91c0.653 0 1.18 0.525 1.18 1.18v3.72c0 0.329-0.124 0.63-0.303 0.844-0.179 0.214-0.411 0.334-0.609 0.334-0.272 0-0.553 0.177-0.79 0.439-0.237 0.263-0.423 0.626-0.423 1.04v0.532c0 0.0656-0.0502 0.116-0.116 0.116-0.0232 0-0.0425-0.0067-0.0601-0.0176l-1.28-0.961c-0.222-0.167-0.365-0.431-0.365-0.731v-1.33c0-1.25-1.02-2.27-2.28-2.27h-7.44c-1.25 0-2.27 1.02-2.27 2.27v4.25c0 0.996 0.66 1.81 1.55 2.12 0.0039 0.02-0.0082 0.0323 0.0044 0.0542 0.041 0.0711 0.126 0.0996 0.185 0.0996 0.212 0 0.381 0.169 0.381 0.381v0.265c0 0.815 0.665 1.48 1.48 1.48 0.29 0 0.548-0.108 0.776-0.252h0.00439 0.0469l0.0352-0.0278h0.00146l2.14-1.6h0.00146c0.198-0.153 0.445-0.242 0.715-0.242h1.86c0.374 0 0.681-0.307 0.681-0.681 0-0.375-0.307-0.683-0.681-0.683h-1.99c-0.485 0-0.933 0.162-1.29 0.434l-2.22 1.66-0.0103 0.00586c-0.0198 0.0137-0.0409 0.022-0.0659 0.022-0.0653 0-0.116-0.0506-0.116-0.116v-0.53c0-0.412-0.185-0.777-0.422-1.04s-0.519-0.439-0.791-0.439c-0.0253 0-0.0316-0.00183-0.0352-0.00293l-0.0176-0.0439-0.063-0.0205c-0.463-0.16-0.797-0.594-0.797-1.11v-3.72c0-0.652 0.525-1.18 1.18-1.18h6.91c0.652 0 1.18 0.525 1.18 1.18v1.06c0 0.738 0.354 1.4 0.901 1.81 0.0152 0.012 0.0263 0.0216 0.0381 0.0308h0.00293l1.27 0.952h0.00146l0.0352 0.0264h0.0469c0.229 0.146 0.488 0.252 0.779 0.252 0.814 0 1.48-0.663 1.48-1.48v-0.265c0-0.212 0.169-0.381 0.381-0.381h0.00146 0.00146v-0.00293c0.438-0.0017 0.87-0.267 1.19-0.677 0.325-0.411 0.546-0.974 0.546-1.6v-4.25c0-1.25-1.02-2.27-2.27-2.27h-7.44zm6.05 9.55c-3.9e-5 -3.1e-5 0.00293 0.00293 0.00293 0.00293l-0.0967 0.114c-2.9e-5 -2.9e-5 0.0938-0.117 0.0938-0.117zm-2.33 1.08c-0.374 0-0.681 0.307-0.681 0.681 0 0.375 0.307 0.683 0.681 0.683 0.374 0 0.683-0.308 0.683-0.683 0-0.375-0.308-0.681-0.683-0.681zm-7.64 3.17 0.0908 0.119c-2e-3 -0.0021-0.0995-0.108-0.0996-0.108-5.6e-5 5e-5 0.00879-0.0103 0.00879-0.0103z" clip-rule="evenodd"  fill="#fff" fill-opacity=".2" fill-rule="evenodd" style="-inkscape-stroke:none;isolation:isolate"/>
</svg>
