<?xml version="1.0" encoding="UTF-8"?>
<svg id="svg5" width="48pt" height="48pt" style="isolation:isolate" version="1.1" viewBox="0 0 48 48" xmlns="http://www.w3.org/2000/svg">
	<defs id="defs2">
		<style id="current-color-scheme" type="text/css">.ColorScheme-Text { color:#fff; }
.ColorScheme-Highlight { color:#50c9c3; }
.ColorScheme-HighlightedText { color:#fff }</style>
		<linearGradient id="a" x1="1.5" x2="46" y1="32" y2="32" gradientTransform="translate(-.000766 -.557)" gradientUnits="userSpaceOnUse">
			<stop id="stop1" stop-color="#fff" stop-opacity="0" offset="0"/>
			<stop id="stop2" class="ColorScheme-HighlightedText" stop-color="currentColor" stop-opacity=".4" offset="1"/>
		</linearGradient>
	</defs>
	<path id="path2" class="ColorScheme-Highlight" d="m6.43 11.5c-2.71 0-4.92 2.21-4.92 4.93l-0.00593 25.1c0 2.72 2.21 4.93 4.92 4.93h35.2c2.71 0 4.92-2.21 4.92-4.93v-20.1c0-2.72-2.21-4.93-4.92-4.93h-15.1c-4.02 0-6.53-1.91-9.24-3.82-0.904-0.634-2.52-1.21-3.63-1.21z" fill="currentColor"/>
	<path id="path3" d="m6.52 11.5c-1.41-0.00369-2.69 0.568-3.59 1.45-0.703 2.2 0.405 3.25 2.48 3.55h21.1c-4.02 0-6.43-1.8-9.24-3.8-0.904-0.64-2.52-1.2-3.63-1.2z" fill-opacity=".2"/>
	<path id="path4" class="ColorScheme-HighlightedText" d="m1.51 16.5c-0.00201 8.43-0.00392 17.1-0.00593 25.1 6e-7 2.71 2.21 4.92 4.92 4.92h35.2c2.71 0 4.92-2.21 4.92-4.92v-20.1c0-2.71-2.21-5-4.92-5z" fill="url(#a)"/>
	<path id="pathtext" class="ColorScheme-Text" d="m27.8 26.2c-1.42 0-2.58 1.16-2.58 2.58v11.5c0 0.417 0.341 0.757 0.757 0.757 0.417 0 0.756-0.341 0.756-0.757v-11.5c0-0.589 0.476-1.06 1.06-1.06h12.1c0.59 0 1.06 0.475 1.06 1.06v12.1c0 0.59-0.474 1.06-1.06 1.06h-9.11c-0.416 0-0.757 0.341-0.757 0.757 0 0.416 0.341 0.759 0.757 0.759h9.11c1.42 0 2.58-1.16 2.58-2.58v-12.1c0-1.42-1.16-2.58-2.58-2.58zm1.69 4.32v2.12h2.12v-2.12zm6.38 0v2.12h2.12v-2.12zm-3.15 2.11v2.12h2.13v-2.12zm-1.22 3.13v2.13h2.13v-2.13zm2.44 0v2.13h2.12v-2.13zm-4.71 1.13v2.13h2.12v-2.13zm6.98 0v2.13h2.13v-2.13zm-7.79 5.09c-0.417 0-0.756 0.341-0.756 0.757 0 0.416 0.339 0.759 0.756 0.759 0.416 0 0.757-0.343 0.757-0.759 0-0.417-0.341-0.757-0.757-0.757z" clip-rule="evenodd"  fill="currentColor" fill-rule="evenodd" style="-inkscape-stroke:none;isolation:isolate"/>
	<path id="path7" d="m27.8 26.2c-1.42 0-2.58 1.16-2.58 2.58v11.5c0 0.417 0.341 0.757 0.757 0.757 0.417 0 0.756-0.341 0.756-0.757v-11.5c0-0.589 0.476-1.06 1.06-1.06h12.1c0.59 0 1.06 0.475 1.06 1.06v12.1c0 0.59-0.474 1.06-1.06 1.06h-9.11c-0.416 0-0.757 0.341-0.757 0.757 0 0.416 0.341 0.759 0.757 0.759h9.11c1.42 0 2.58-1.16 2.58-2.58v-12.1c0-1.42-1.16-2.58-2.58-2.58zm1.69 4.32v2.12h2.12v-2.12zm6.38 0v2.12h2.12v-2.12zm-3.15 2.11v2.12h2.13v-2.12zm-1.22 3.13v2.13h2.13v-2.13zm2.44 0v2.13h2.12v-2.13zm-4.71 1.13v2.13h2.12v-2.13zm6.98 0v2.13h2.13v-2.13zm-7.79 5.09c-0.417 0-0.756 0.341-0.756 0.757 0 0.416 0.339 0.759 0.756 0.759 0.416 0 0.757-0.343 0.757-0.759 0-0.417-0.341-0.757-0.757-0.757z" clip-rule="evenodd"  fill="#fff" fill-opacity=".2" fill-rule="evenodd" style="-inkscape-stroke:none;isolation:isolate"/>
</svg>
