<?xml version="1.0" encoding="UTF-8"?>
<svg id="svg5" width="48pt" height="48pt" style="isolation:isolate" version="1.1" viewBox="0 0 48 48" xmlns="http://www.w3.org/2000/svg">
	<defs id="defs2">
		<style id="current-color-scheme" type="text/css">.ColorScheme-Text { color:#fff; }
.ColorScheme-Highlight { color:#50c9c3; }
.ColorScheme-HighlightedText { color:#fff }</style>
		<linearGradient id="a" x1="1.5" x2="46" y1="32" y2="32" gradientTransform="translate(-.000766 -.557)" gradientUnits="userSpaceOnUse">
			<stop id="stop1" stop-color="#fff" stop-opacity="0" offset="0"/>
			<stop id="stop2" class="ColorScheme-HighlightedText" stop-color="currentColor" stop-opacity=".4" offset="1"/>
		</linearGradient>
	</defs>
	<path id="path2" class="ColorScheme-Highlight" d="m6.43 11.5c-2.71 0-4.92 2.21-4.92 4.93l-0.00593 25.1c0 2.72 2.21 4.93 4.92 4.93h35.2c2.71 0 4.92-2.21 4.92-4.93v-20.1c0-2.72-2.21-4.93-4.92-4.93h-15.1c-4.02 0-6.53-1.91-9.24-3.82-0.904-0.634-2.52-1.21-3.63-1.21z" fill="currentColor"/>
	<path id="path3" d="m6.52 11.5c-1.41-0.00369-2.69 0.568-3.59 1.45-0.703 2.2 0.405 3.25 2.48 3.55h21.1c-4.02 0-6.43-1.8-9.24-3.8-0.904-0.64-2.52-1.2-3.63-1.2z" fill-opacity=".2"/>
	<path id="path4" class="ColorScheme-HighlightedText" d="m1.51 16.5c-0.00201 8.43-0.00392 17.1-0.00593 25.1 6e-7 2.71 2.21 4.92 4.92 4.92h35.2c2.71 0 4.92-2.21 4.92-4.92v-20.1c0-2.71-2.21-5-4.92-5z" fill="url(#a)"/>
	<path id="pathtext" class="ColorScheme-Text" d="m32.4 29.7c-0.866 0-1.7 0.34-2.31 0.934-0.615 0.602-0.955 1.41-0.955 2.26 0 0.848 0.34 1.66 0.955 2.27 0.187 0.183 0.396 0.342 0.62 0.474l-0.0083 0.0119 0.51 0.352 6.56 4.54c0.141 0.0974 0.255 0.314 0.255 0.482v0.907c0 0.169-0.141 0.306-0.313 0.306h-10.6c-0.172 0-0.313-0.137-0.313-0.306v-0.886c0-0.169 0.119-0.378 0.264-0.468l3.42-2.11c0.291-0.179 0.38-0.557 0.197-0.843-0.183-0.287-0.57-0.373-0.863-0.192l-3.48 2.14c-0.439 0.269-0.794 0.901-0.794 1.41v1.56c0 0.506 0.42 0.918 0.938 0.918h11.9c0.518 0 0.938-0.411 0.938-0.918v-1.54c0-0.506-0.343-1.16-0.766-1.45l-5.19-3.59c0.517-0.151 0.993-0.425 1.38-0.803 0.615-0.602 0.955-1.42 0.955-2.27 0-0.848-0.34-1.66-0.955-2.26-0.607-0.594-1.44-0.934-2.31-0.934zm0 1.19a2.05 2 0 0 1 2.05 2.01 2.05 2 0 0 1-2.05 2 2.05 2 0 0 1-2.05-2 2.05 2 0 0 1 2.05-2.01zm6.08 2.22c-0.509 0-0.999 0.201-1.36 0.55-0.362 0.354-0.562 0.829-0.562 1.33 0 0.499 0.2 0.979 0.562 1.33 0.11 0.108 0.232 0.201 0.364 0.279l-0.0048 0.0071 0.3 0.207 3.86 2.67c0.0828 0.0573 0.151 0.184 0.151 0.283v0.533c0 0.0993-0.0823 0.18-0.184 0.18h-2.1c0.0284 0.116 0.0474 0.23 0.0474 0.338v0.383h2.42c0.305 0 0.551-0.243 0.551-0.541v-0.908c0-0.298-0.201-0.68-0.45-0.852l-3.05-2.11c0.304-0.089 0.584-0.25 0.811-0.472 0.362-0.354 0.561-0.835 0.561-1.33 0-0.499-0.199-0.973-0.561-1.33-0.357-0.35-0.848-0.55-1.36-0.55zm0 0.699a1.2 1.18 0 0 1 1.2 1.18 1.2 1.18 0 0 1-1.2 1.18 1.2 1.18 0 0 1-1.2-1.18 1.2 1.18 0 0 1 1.2-1.18zm-1.33 3.79c-0.0709-0.0022-0.144 0.0147-0.209 0.0545l-0.339 0.209 0.651 0.45 0.0806-0.0498c0.171-0.105 0.223-0.327 0.115-0.496-0.0672-0.105-0.181-0.165-0.299-0.168z" fill="currentColor" stroke-width=".801" style="isolation:isolate"/>
	<path id="path6" d="m32.4 29.7c-0.866 0-1.7 0.34-2.31 0.934-0.615 0.602-0.955 1.41-0.955 2.26 0 0.848 0.34 1.66 0.955 2.27 0.187 0.183 0.396 0.342 0.62 0.474l-0.0083 0.0119 0.51 0.352 6.56 4.54c0.141 0.0974 0.255 0.314 0.255 0.482v0.907c0 0.169-0.141 0.306-0.313 0.306h-10.6c-0.172 0-0.313-0.137-0.313-0.306v-0.886c0-0.169 0.119-0.378 0.264-0.468l3.42-2.11c0.291-0.179 0.38-0.557 0.197-0.843-0.183-0.287-0.57-0.373-0.863-0.192l-3.48 2.14c-0.439 0.269-0.794 0.901-0.794 1.41v1.56c0 0.506 0.42 0.918 0.938 0.918h11.9c0.518 0 0.938-0.411 0.938-0.918v-1.54c0-0.506-0.343-1.16-0.766-1.45l-5.19-3.59c0.517-0.151 0.993-0.425 1.38-0.803 0.615-0.602 0.955-1.42 0.955-2.27 0-0.848-0.34-1.66-0.955-2.26-0.607-0.594-1.44-0.934-2.31-0.934zm0 1.19a2.05 2 0 0 1 2.05 2.01 2.05 2 0 0 1-2.05 2 2.05 2 0 0 1-2.05-2 2.05 2 0 0 1 2.05-2.01zm6.08 2.22c-0.509 0-0.999 0.201-1.36 0.55-0.362 0.354-0.562 0.829-0.562 1.33 0 0.499 0.2 0.979 0.562 1.33 0.11 0.108 0.232 0.201 0.364 0.279l-0.0048 0.0071 0.3 0.207 3.86 2.67c0.0828 0.0573 0.151 0.184 0.151 0.283v0.533c0 0.0993-0.0823 0.18-0.184 0.18h-2.1c0.0284 0.116 0.0474 0.23 0.0474 0.338v0.383h2.42c0.305 0 0.551-0.243 0.551-0.541v-0.908c0-0.298-0.201-0.68-0.45-0.852l-3.05-2.11c0.304-0.089 0.584-0.25 0.811-0.472 0.362-0.354 0.561-0.835 0.561-1.33 0-0.499-0.199-0.973-0.561-1.33-0.357-0.35-0.848-0.55-1.36-0.55zm0 0.699a1.2 1.18 0 0 1 1.2 1.18 1.2 1.18 0 0 1-1.2 1.18 1.2 1.18 0 0 1-1.2-1.18 1.2 1.18 0 0 1 1.2-1.18zm-1.33 3.79c-0.0709-0.0022-0.144 0.0147-0.209 0.0545l-0.339 0.209 0.651 0.45 0.0806-0.0498c0.171-0.105 0.223-0.327 0.115-0.496-0.0672-0.105-0.181-0.165-0.299-0.168z" fill="#fff" fill-opacity=".2" stroke-width=".801" style="isolation:isolate"/>
</svg>
