<?xml version="1.0" encoding="UTF-8"?>
<svg id="svg5" width="48pt" height="48pt" style="isolation:isolate" version="1.1" viewBox="0 0 48 48" xmlns="http://www.w3.org/2000/svg">
	<defs id="defs2">
		<style id="current-color-scheme" type="text/css">.ColorScheme-Text { color:#fff; }
.ColorScheme-Highlight { color:#50c9c3; }
.ColorScheme-HighlightedText { color:#fff }</style>
		<linearGradient id="a" x1="1.5" x2="46" y1="32" y2="32" gradientTransform="translate(-.000766 -.557)" gradientUnits="userSpaceOnUse">
			<stop id="stop1" stop-color="#fff" stop-opacity="0" offset="0"/>
			<stop id="stop2" class="ColorScheme-HighlightedText" stop-color="currentColor" stop-opacity=".4" offset="1"/>
		</linearGradient>
	</defs>
	<path id="path2" class="ColorScheme-Highlight" d="m6.43 11.5c-2.71 0-4.92 2.21-4.92 4.93l-0.00593 25.1c0 2.72 2.21 4.93 4.92 4.93h35.2c2.71 0 4.92-2.21 4.92-4.93v-20.1c0-2.72-2.21-4.93-4.92-4.93h-15.1c-4.02 0-6.53-1.91-9.24-3.82-0.904-0.634-2.52-1.21-3.63-1.21z" fill="currentColor"/>
	<path id="path3" d="m6.52 11.5c-1.41-0.00369-2.69 0.568-3.59 1.45-0.703 2.2 0.405 3.25 2.48 3.55h21.1c-4.02 0-6.43-1.8-9.24-3.8-0.904-0.64-2.52-1.2-3.63-1.2z" fill-opacity=".2"/>
	<path id="path4" class="ColorScheme-HighlightedText" d="m1.51 16.5c-0.00201 8.43-0.00392 17.1-0.00593 25.1 6e-7 2.71 2.21 4.92 4.92 4.92h35.2c2.71 0 4.92-2.21 4.92-4.92v-20.1c0-2.71-2.21-5-4.92-5z" fill="url(#a)"/>
	<path id="pathtext" class="ColorScheme-Text" d="m31.6 39h-1.29c-0.126 0-0.25 0.0126-0.37 0.037v-10c0-0.612 0.497-1.11 1.11-1.11h0.554v6.51c0 0.612 0.351 0.757 0.784 0.325l1.25-1.25 1.25 1.25c0.432 0.432 0.784 0.287 0.784-0.325v-6.51h4.25c0.612 0 1.11 0.497 1.11 1.11v4.8c0 0.408 0.331 0.739 0.739 0.739s0.739-0.331 0.739-0.739v-5.54c0-1.02-0.828-1.85-1.85-1.85h-10.3c-1.02 0-1.85 0.828-1.85 1.85v13.3c0 1.02 0.828 1.85 1.85 1.85h11.5c0.408 0 0.739-0.331 0.739-0.739s-0.331-0.739-0.739-0.739h-11.1c-0.408 0-0.739-0.331-0.739-0.739s0.331-0.739 0.739-0.739h9.98c1.02 0 1.85-0.828 1.85-1.85v-1.11c0-0.408-0.331-0.739-0.739-0.739s-0.739 0.331-0.739 0.739v0.739c0 0.408-0.331 0.739-0.739 0.739h-7.58v-1.85c0-0.306-0.248-0.554-0.554-0.554s-0.554 0.248-0.554 0.554zm1.11-11.1h1.85v4.94l-0.663-0.663c-0.144-0.144-0.378-0.144-0.523 0l-0.663 0.663z" fill="currentColor" fill-rule="evenodd" stroke-width=".37" style="isolation:isolate"/>
	<path id="path6" d="m31.6 39h-1.29c-0.126 0-0.25 0.0126-0.37 0.037v-10c0-0.612 0.497-1.11 1.11-1.11h0.554v6.51c0 0.612 0.351 0.757 0.784 0.325l1.25-1.25 1.25 1.25c0.432 0.432 0.784 0.287 0.784-0.325v-6.51h4.25c0.612 0 1.11 0.497 1.11 1.11v4.8c0 0.408 0.331 0.739 0.739 0.739s0.739-0.331 0.739-0.739v-5.54c0-1.02-0.828-1.85-1.85-1.85h-10.3c-1.02 0-1.85 0.828-1.85 1.85v13.3c0 1.02 0.828 1.85 1.85 1.85h11.5c0.408 0 0.739-0.331 0.739-0.739s-0.331-0.739-0.739-0.739h-11.1c-0.408 0-0.739-0.331-0.739-0.739s0.331-0.739 0.739-0.739h9.98c1.02 0 1.85-0.828 1.85-1.85v-1.11c0-0.408-0.331-0.739-0.739-0.739s-0.739 0.331-0.739 0.739v0.739c0 0.408-0.331 0.739-0.739 0.739h-7.58v-1.85c0-0.306-0.248-0.554-0.554-0.554s-0.554 0.248-0.554 0.554zm1.11-11.1h1.85v4.94l-0.663-0.663c-0.144-0.144-0.378-0.144-0.523 0l-0.663 0.663z" fill="#fff" fill-opacity=".2" fill-rule="evenodd" stroke-width=".37" style="isolation:isolate"/>
</svg>
