<?xml version="1.0" encoding="UTF-8"?>
<svg id="svg5" width="48pt" height="48pt" style="isolation:isolate" version="1.1" viewBox="0 0 48 48" xmlns="http://www.w3.org/2000/svg">
	<defs id="defs2">
		<style id="current-color-scheme" type="text/css">.ColorScheme-Text { color:#fff; }
.ColorScheme-Highlight { color:#50c9c3; }
.ColorScheme-HighlightedText { color:#fff }</style>
		<linearGradient id="a" x1="1.5" x2="46" y1="32" y2="32" gradientTransform="translate(-.000766 -.557)" gradientUnits="userSpaceOnUse">
			<stop id="stop1" stop-color="#fff" stop-opacity="0" offset="0"/>
			<stop id="stop2" class="ColorScheme-HighlightedText" stop-color="currentColor" stop-opacity=".4" offset="1"/>
		</linearGradient>
	</defs>
	<path id="path2" class="ColorScheme-Highlight" d="m6.43 11.5c-2.71 0-4.92 2.21-4.92 4.93l-0.00593 25.1c0 2.72 2.21 4.93 4.92 4.93h35.2c2.71 0 4.92-2.21 4.92-4.93v-20.1c0-2.72-2.21-4.93-4.92-4.93h-15.1c-4.02 0-6.53-1.91-9.24-3.82-0.904-0.634-2.52-1.21-3.63-1.21z" fill="currentColor"/>
	<path id="path3" d="m6.52 11.5c-1.41-0.00369-2.69 0.568-3.59 1.45-0.703 2.2 0.405 3.25 2.48 3.55h21.1c-4.02 0-6.43-1.8-9.24-3.8-0.904-0.64-2.52-1.2-3.63-1.2z" fill-opacity=".2"/>
	<path id="path4" class="ColorScheme-HighlightedText" d="m1.51 16.5c-0.00201 8.43-0.00392 17.1-0.00593 25.1 6e-7 2.71 2.21 4.92 4.92 4.92h35.2c2.71 0 4.92-2.21 4.92-4.92v-20.1c0-2.71-2.21-5-4.92-5z" fill="url(#a)"/>
	<path id="pathtext" class="ColorScheme-Text" d="m34 26.5c-2.25 0-4.42 0.897-6.01 2.49-1.59 1.6-2.49 3.76-2.49 6.01 0 0.857 0.127 1.71 0.384 2.52 0.0879 0.285 0.391 0.445 0.677 0.356 0.285-0.089 0.445-0.393 0.357-0.678-0.221-0.713-0.333-1.46-0.333-2.2 0-1.96 0.78-3.85 2.17-5.25 1.39-1.39 3.28-2.17 5.25-2.17 1.96 0 3.85 0.78 5.24 2.17 1.39 1.39 2.17 3.28 2.17 5.25 0 1.96-0.782 3.85-2.17 5.24-1.39 1.39-3.28 2.17-5.24 2.17-0.778 0-1.55-0.123-2.29-0.362-0.285-0.0919-0.593 0.0643-0.686 0.349-0.093 0.284 0.0632 0.592 0.349 0.686 0.85 0.275 1.74 0.412 2.63 0.412 2.25 0 4.42-0.896 6.01-2.49 1.59-1.6 2.49-3.76 2.49-6.01 0-2.25-0.896-4.42-2.49-6.01-1.6-1.59-3.76-2.49-6.01-2.49zm0 1.27c-1.05 0-2.04 0.225-2.94 0.624l1.13 0.823v0.964l0.844 0.845h0.604v-0.472l0.724-0.614v-0.483l0.362-0.48v-1.17c-0.238-0.0235-0.479-0.0366-0.724-0.0366zm-4.78 1.81c-1.39 1.23-2.31 2.98-2.43 4.96l2.52 2.16v-0.724l-0.604-0.482 0.724-0.832h0.482l0.482 0.482 0.0161-0.904 0.708-0.675h0.362v-0.482l0.724-0.482v-0.724l-0.636-0.467-1.17-0.0146v1.08h-0.482l-0.602-0.602v-0.482l0.844-0.724h0.602v-0.483l-0.362-0.602zm8.4 0.362-0.724 0.724v0.374h0.724v-0.366h0.374v0.839l-0.242 0.237h-1.22v0.362h-0.362v0.724h-1.09v1.07h1.45v-0.338h0.724v0.242l0.602 0.482h0.122v-0.242l-0.122-0.24v-0.242h0.483l0.724 0.712h0.722v0.108l-0.24 0.253h-0.482l2.01 1.89c0.106-0.494 0.164-1.01 0.164-1.53 0-1.98-0.788-3.76-2.06-5.06h-1.31zm1.45 4.7h-1.45l-0.362-0.362h-1.57l-0.964 0.964v0.965l0.964 0.964h0.724l0.482 0.483v0.24l0.362 0.242v1.45l1.1 1.19c0.541-0.409 1.02-0.89 1.43-1.43v-1.68l0.362-0.483v-0.964l-1.08-1.1zm-12 3.7a0.575 0.575 0 0 0-0.576 0.574 0.575 0.575 0 0 0 0.576 0.576 0.575 0.575 0 0 0 0.574-0.576 0.575 0.575 0 0 0-0.574-0.574zm1.12 1.54a0.575 0.575 0 0 0-0.574 0.574 0.575 0.575 0 0 0 0.574 0.576 0.575 0.575 0 0 0 0.576-0.576 0.575 0.575 0 0 0-0.576-0.574zm1.51 1.24a0.575 0.575 0 0 0-0.574 0.576 0.575 0.575 0 0 0 0.574 0.574 0.575 0.575 0 0 0 0.576-0.574 0.575 0.575 0 0 0-0.576-0.576z" fill="currentColor" stroke-width=".362" style="isolation:isolate"/>
	<path id="path6" d="m34 26.5c-2.25 0-4.42 0.897-6.01 2.49-1.59 1.6-2.49 3.76-2.49 6.01 0 0.857 0.127 1.71 0.384 2.52 0.0879 0.285 0.391 0.445 0.677 0.356 0.285-0.089 0.445-0.393 0.357-0.678-0.221-0.713-0.333-1.46-0.333-2.2 0-1.96 0.78-3.85 2.17-5.25 1.39-1.39 3.28-2.17 5.25-2.17 1.96 0 3.85 0.78 5.24 2.17 1.39 1.39 2.17 3.28 2.17 5.25 0 1.96-0.782 3.85-2.17 5.24-1.39 1.39-3.28 2.17-5.24 2.17-0.778 0-1.55-0.123-2.29-0.362-0.285-0.0919-0.593 0.0643-0.686 0.349-0.093 0.284 0.0632 0.592 0.349 0.686 0.85 0.275 1.74 0.412 2.63 0.412 2.25 0 4.42-0.896 6.01-2.49 1.59-1.6 2.49-3.76 2.49-6.01 0-2.25-0.896-4.42-2.49-6.01-1.6-1.59-3.76-2.49-6.01-2.49zm0 1.27c-1.05 0-2.04 0.225-2.94 0.624l1.13 0.823v0.964l0.844 0.845h0.604v-0.472l0.724-0.614v-0.483l0.362-0.48v-1.17c-0.238-0.0235-0.479-0.0366-0.724-0.0366zm-4.78 1.81c-1.39 1.23-2.31 2.98-2.43 4.96l2.52 2.16v-0.724l-0.604-0.482 0.724-0.832h0.482l0.482 0.482 0.0161-0.904 0.708-0.675h0.362v-0.482l0.724-0.482v-0.724l-0.636-0.467-1.17-0.0146v1.08h-0.482l-0.602-0.602v-0.482l0.844-0.724h0.602v-0.483l-0.362-0.602zm8.4 0.362-0.724 0.724v0.374h0.724v-0.366h0.374v0.839l-0.242 0.237h-1.22v0.362h-0.362v0.724h-1.09v1.07h1.45v-0.338h0.724v0.242l0.602 0.482h0.122v-0.242l-0.122-0.24v-0.242h0.483l0.724 0.712h0.722v0.108l-0.24 0.253h-0.482l2.01 1.89c0.106-0.494 0.164-1.01 0.164-1.53 0-1.98-0.788-3.76-2.06-5.06h-1.31zm1.45 4.7h-1.45l-0.362-0.362h-1.57l-0.964 0.964v0.965l0.964 0.964h0.724l0.482 0.483v0.24l0.362 0.242v1.45l1.1 1.19c0.541-0.409 1.02-0.89 1.43-1.43v-1.68l0.362-0.483v-0.964l-1.08-1.1zm-12 3.7a0.575 0.575 0 0 0-0.576 0.574 0.575 0.575 0 0 0 0.576 0.576 0.575 0.575 0 0 0 0.574-0.576 0.575 0.575 0 0 0-0.574-0.574zm1.12 1.54a0.575 0.575 0 0 0-0.574 0.574 0.575 0.575 0 0 0 0.574 0.576 0.575 0.575 0 0 0 0.576-0.576 0.575 0.575 0 0 0-0.576-0.574zm1.51 1.24a0.575 0.575 0 0 0-0.574 0.576 0.575 0.575 0 0 0 0.574 0.574 0.575 0.575 0 0 0 0.576-0.574 0.575 0.575 0 0 0-0.576-0.576z" fill="#fff" fill-opacity=".2" stroke-width=".362" style="isolation:isolate"/>
</svg>
