<?xml version="1.0" encoding="UTF-8"?>
<svg id="svg5" width="48pt" height="48pt" style="isolation:isolate" version="1.1" viewBox="0 0 48 48" xmlns="http://www.w3.org/2000/svg">
	<defs id="defs2">
		<style id="current-color-scheme" type="text/css">.ColorScheme-Text { color:#fff; }
.ColorScheme-Highlight { color:#50c9c3; }
.ColorScheme-HighlightedText { color:#fff }</style>
		<linearGradient id="a" x1="1.5" x2="46" y1="32" y2="32" gradientTransform="translate(-.000766 -.557)" gradientUnits="userSpaceOnUse">
			<stop id="stop1" stop-color="#fff" stop-opacity="0" offset="0"/>
			<stop id="stop2" class="ColorScheme-HighlightedText" stop-color="currentColor" stop-opacity=".4" offset="1"/>
		</linearGradient>
	</defs>
	<path id="path2" class="ColorScheme-Highlight" d="m6.43 11.5c-2.71 0-4.92 2.21-4.92 4.93l-0.00593 25.1c0 2.72 2.21 4.93 4.92 4.93h35.2c2.71 0 4.92-2.21 4.92-4.93v-20.1c0-2.72-2.21-4.93-4.92-4.93h-15.1c-4.02 0-6.53-1.91-9.24-3.82-0.904-0.634-2.52-1.21-3.63-1.21z" fill="currentColor"/>
	<path id="path3" d="m6.52 11.5c-1.41-0.00369-2.69 0.568-3.59 1.45-0.703 2.2 0.405 3.25 2.48 3.55h21.1c-4.02 0-6.43-1.8-9.24-3.8-0.904-0.64-2.52-1.2-3.63-1.2z" fill-opacity=".2"/>
	<path id="path4" class="ColorScheme-HighlightedText" d="m1.51 16.5c-0.00201 8.43-0.00392 17.1-0.00593 25.1 6e-7 2.71 2.21 4.92 4.92 4.92h35.2c2.71 0 4.92-2.21 4.92-4.92v-20.1c0-2.71-2.21-5-4.92-5z" fill="url(#a)"/>
	<path id="pathtext" class="ColorScheme-Text" d="m32.5 38.7c0.317 0 0.574 0.257 0.574 0.573s-0.258 0.574-0.574 0.574h-2.38c-0.158 0-0.325 0.123-0.373 0.274l-0.632 2.01c-0.237 0.755-1.07 1.37-1.86 1.37h-0.387c-0.792 0-1.39-0.641-1.32-1.43l0.56-7.2c0.0609-0.789 0.428-1.91 0.818-2.49 0.391-0.585 1.35-1.06 2.14-1.06h5.5c0.317 0 0.573 0.258 0.573 0.574 0 0.317-0.257 0.573-0.573 0.573h-5.46c-0.475 0-1.06 0.297-1.3 0.661-0.244 0.365-0.476 1.05-0.519 1.52l-0.653 7.13c-0.0287 0.316 0.205 0.572 0.522 0.572h0.186c0.317 0 0.651-0.245 0.746-0.547l0.718-2.28c0.143-0.453 0.644-0.821 1.12-0.821zm4.85-6.23c-0.317 0-0.573-0.257-0.573-0.573 0-0.317 0.257-0.574 0.573-0.574h1.66c0.792 0 1.75 0.475 2.14 1.06 0.39 0.586 0.757 1.7 0.819 2.49l0.559 7.2c0.0618 0.789-0.532 1.43-1.32 1.43h-0.611c-0.792 0-1.71-0.581-2.05-1.3l-0.987-2.09c-0.0679-0.143-0.251-0.259-0.409-0.259h-2.26c-0.317 0-0.573-0.258-0.573-0.574s0.257-0.573 0.573-0.573h2.62c0.317 0 0.684 0.232 0.819 0.519l1.23 2.61c0.135 0.287 0.502 0.519 0.819 0.519h0.536c0.317 0 0.551-0.256 0.522-0.572l-0.652-7.13c-0.0435-0.472-0.276-1.15-0.519-1.52-0.243-0.365-0.826-0.661-1.3-0.661zm-8.53 2.75v0.75h0.942c0.153 0 0.278 0.124 0.278 0.278v0.942h0.751v-0.943c0-0.153 0.124-0.278 0.278-0.278h0.943v-0.75h-0.943c-0.153 0-0.278-0.124-0.278-0.278v-0.943h-0.751v0.942c0 0.154-0.124 0.278-0.278 0.278zm9.41 0.29c0-0.315 0.256-0.571 0.572-0.571 0.315 0 0.571 0.256 0.571 0.571s-0.256 0.571-0.571 0.571c-0.316 0-0.572-0.256-0.572-0.571zm-2.28 0c0-0.315 0.256-0.571 0.572-0.571 0.315 0 0.571 0.256 0.571 0.571s-0.256 0.571-0.571 0.571c-0.316 0-0.572-0.256-0.572-0.571zm1.71-1.71c0.315 0 0.571 0.256 0.571 0.572 0 0.315-0.256 0.571-0.571 0.571s-0.571-0.256-0.571-0.571c0-0.316 0.256-0.572 0.571-0.572zm-7.9-0.353h1.31c0.153 0 0.278 0.124 0.278 0.278v0.943h0.942c0.153 0 0.278 0.124 0.278 0.278v1.31c0 0.153-0.124 0.278-0.278 0.278h-0.943v0.942c0 0.154-0.124 0.278-0.278 0.278h-1.31c-0.153 0-0.278-0.124-0.278-0.278v-0.942h-0.943c-0.153 0-0.278-0.124-0.278-0.278v-1.31c0-0.154 0.124-0.278 0.278-0.278h0.943v-0.943c0-0.153 0.124-0.278 0.278-0.278zm7.9 2.64c0.315 0 0.571 0.256 0.571 0.572 0 0.315-0.256 0.571-0.571 0.571s-0.571-0.256-0.571-0.571c0-0.316 0.256-0.572 0.571-0.572z" fill="currentColor" fill-rule="evenodd" stroke-width=".87" style="isolation:isolate"/>
	<path id="path6" d="m32.5 38.7c0.317 0 0.574 0.257 0.574 0.573s-0.258 0.574-0.574 0.574h-2.38c-0.158 0-0.325 0.123-0.373 0.274l-0.632 2.01c-0.237 0.755-1.07 1.37-1.86 1.37h-0.387c-0.792 0-1.39-0.641-1.32-1.43l0.56-7.2c0.0609-0.789 0.428-1.91 0.818-2.49 0.391-0.585 1.35-1.06 2.14-1.06h5.5c0.317 0 0.573 0.258 0.573 0.574 0 0.317-0.257 0.573-0.573 0.573h-5.46c-0.475 0-1.06 0.297-1.3 0.661-0.244 0.365-0.476 1.05-0.519 1.52l-0.653 7.13c-0.0287 0.316 0.205 0.572 0.522 0.572h0.186c0.317 0 0.651-0.245 0.746-0.547l0.718-2.28c0.143-0.453 0.644-0.821 1.12-0.821zm4.85-6.23c-0.317 0-0.573-0.257-0.573-0.573 0-0.317 0.257-0.574 0.573-0.574h1.66c0.792 0 1.75 0.475 2.14 1.06 0.39 0.586 0.757 1.7 0.819 2.49l0.559 7.2c0.0618 0.789-0.532 1.43-1.32 1.43h-0.611c-0.792 0-1.71-0.581-2.05-1.3l-0.987-2.09c-0.0679-0.143-0.251-0.259-0.409-0.259h-2.26c-0.317 0-0.573-0.258-0.573-0.574s0.257-0.573 0.573-0.573h2.62c0.317 0 0.684 0.232 0.819 0.519l1.23 2.61c0.135 0.287 0.502 0.519 0.819 0.519h0.536c0.317 0 0.551-0.256 0.522-0.572l-0.652-7.13c-0.0435-0.472-0.276-1.15-0.519-1.52-0.243-0.365-0.826-0.661-1.3-0.661zm-8.53 2.75v0.75h0.942c0.153 0 0.278 0.124 0.278 0.278v0.942h0.751v-0.943c0-0.153 0.124-0.278 0.278-0.278h0.943v-0.75h-0.943c-0.153 0-0.278-0.124-0.278-0.278v-0.943h-0.751v0.942c0 0.154-0.124 0.278-0.278 0.278zm9.41 0.29c0-0.315 0.256-0.571 0.572-0.571 0.315 0 0.571 0.256 0.571 0.571s-0.256 0.571-0.571 0.571c-0.316 0-0.572-0.256-0.572-0.571zm-2.28 0c0-0.315 0.256-0.571 0.572-0.571 0.315 0 0.571 0.256 0.571 0.571s-0.256 0.571-0.571 0.571c-0.316 0-0.572-0.256-0.572-0.571zm1.71-1.71c0.315 0 0.571 0.256 0.571 0.572 0 0.315-0.256 0.571-0.571 0.571s-0.571-0.256-0.571-0.571c0-0.316 0.256-0.572 0.571-0.572zm-7.9-0.353h1.31c0.153 0 0.278 0.124 0.278 0.278v0.943h0.942c0.153 0 0.278 0.124 0.278 0.278v1.31c0 0.153-0.124 0.278-0.278 0.278h-0.943v0.942c0 0.154-0.124 0.278-0.278 0.278h-1.31c-0.153 0-0.278-0.124-0.278-0.278v-0.942h-0.943c-0.153 0-0.278-0.124-0.278-0.278v-1.31c0-0.154 0.124-0.278 0.278-0.278h0.943v-0.943c0-0.153 0.124-0.278 0.278-0.278zm7.9 2.64c0.315 0 0.571 0.256 0.571 0.572 0 0.315-0.256 0.571-0.571 0.571s-0.571-0.256-0.571-0.571c0-0.316 0.256-0.572 0.571-0.572z" fill="#fff" fill-opacity=".2" fill-rule="evenodd" stroke-width=".87" style="isolation:isolate"/>
</svg>
