<?xml version="1.0" encoding="UTF-8"?>
<svg id="svg5" width="48pt" height="48pt" style="isolation:isolate" version="1.1" viewBox="0 0 48 48" xmlns="http://www.w3.org/2000/svg">
	<defs id="defs2">
		<style id="current-color-scheme" type="text/css">.ColorScheme-Text { color:#fff; }
.ColorScheme-Highlight { color:#50c9c3; }
.ColorScheme-HighlightedText { color:#fff }</style>
		<linearGradient id="a" x1="1.5" x2="46" y1="32" y2="32" gradientTransform="translate(-.000766 -.557)" gradientUnits="userSpaceOnUse">
			<stop id="stop1" stop-color="#fff" stop-opacity="0" offset="0"/>
			<stop id="stop2" class="ColorScheme-HighlightedText" stop-color="currentColor" stop-opacity=".4" offset="1"/>
		</linearGradient>
	</defs>
	<path id="path2" class="ColorScheme-Highlight" d="m6.43 11.5c-2.71 0-4.92 2.21-4.92 4.93l-0.00593 25.1c0 2.72 2.21 4.93 4.92 4.93h35.2c2.71 0 4.92-2.21 4.92-4.93v-20.1c0-2.72-2.21-4.93-4.92-4.93h-15.1c-4.02 0-6.53-1.91-9.24-3.82-0.904-0.634-2.52-1.21-3.63-1.21z" fill="currentColor"/>
	<path id="path3" d="m6.52 11.5c-1.41-0.00369-2.69 0.568-3.59 1.45-0.703 2.2 0.405 3.25 2.48 3.55h21.1c-4.02 0-6.43-1.8-9.24-3.8-0.904-0.64-2.52-1.2-3.63-1.2z" fill-opacity=".2"/>
	<path id="path4" class="ColorScheme-HighlightedText" d="m1.51 16.5c-0.00201 8.43-0.00392 17.1-0.00593 25.1 6e-7 2.71 2.21 4.92 4.92 4.92h35.2c2.71 0 4.92-2.21 4.92-4.92v-20.1c0-2.71-2.21-5-4.92-5z" fill="url(#a)"/>
	<path id="pathtext" class="ColorScheme-Text" d="m34.6 41.9c-0.424 0.0362-0.74 0.411-0.706 0.837 0.0351 0.426 0.409 0.742 0.835 0.707 2.13-0.178 4.13-1.16 5.57-2.75 1.44-1.59 2.24-3.67 2.22-5.81-0.0205-2.26-0.936-4.41-2.54-6-1.61-1.58-3.78-2.46-6.03-2.44-2.25 0.0203-4.41 0.937-5.99 2.55-1.58 1.61-2.45 3.79-2.43 6.04 0.0039 0.427 0.353 0.771 0.78 0.767 0.427-4e-3 0.77-0.354 0.766-0.781-0.0166-1.85 0.702-3.62 1.99-4.94 1.29-1.32 3.06-2.07 4.9-2.08 1.84-0.0166 3.62 0.703 4.94 1.99 1.31 1.3 2.06 3.06 2.08 4.91 0.0156 1.76-0.63 3.46-1.81 4.76-1.18 1.3-2.81 2.1-4.56 2.25zm-6.42-3.65c-0.198-0.376-0.657-0.517-1.03-0.316-0.368 0.202-0.506 0.672-0.309 1.05 0.844 1.6 2.17 2.89 3.78 3.67 0.378 0.185 0.831 0.0206 1.01-0.365 0.18-0.386 0.0184-0.849-0.359-1.03-1.32-0.638-2.4-1.69-3.09-3zm4.59 0.668c-0.591-0.0387-0.991-0.106-1.38-0.232-0.558-0.181-0.917-0.428-1.24-0.851-0.396-0.524-0.654-1.29-0.719-2.12-0.0227-0.295-0.0251-0.468-0.0074-0.538 0.0283-0.11 0.0924-0.186 0.198-0.233 0.0471-0.0214 0.0538-0.0217 3.58-0.0217 2.32-3.61e-4 3.57-4e-3 3.64-0.0112 0.121-0.0116 0.311-0.0449 0.401-0.0698 0.126-0.0351 0.275-0.0948 0.275-0.11 0-4e-3 -0.0234-0.0517-0.0524-0.106-0.111-0.211-0.162-0.424-0.161-0.681 0-0.284 0.0652-0.544 0.205-0.825 0.0577-0.116 0.198-0.333 0.215-0.333 0.0166 0 0.188 0.105 0.268 0.164 0.317 0.235 0.565 0.619 0.628 0.976 0.0131 0.0749 0.0142 0.0771 0.0407 0.0716 0.157-0.0322 0.529-0.0416 0.695-0.0177 0.263 0.0376 0.459 0.111 0.617 0.231 0.0425 0.0318 0.0768 0.0615 0.0768 0.0658 0 0.0253-0.0595 0.174-0.101 0.253-0.0666 0.126-0.138 0.221-0.253 0.334-0.293 0.289-0.712 0.448-1.18 0.449l-0.102 3.62e-4 -0.0244 0.0608c-0.459 1.15-1.04 1.96-1.83 2.54-0.795 0.587-1.81 0.928-2.99 1-0.134 0.0083-0.689 0.0116-0.794 0.0043zm-2.43-5.42h0.638c0.117 0 0.212 0.0973 0.212 0.217v0.651c0 0.12-0.0953 0.217-0.212 0.217h-0.638c-0.117 0-0.212-0.0973-0.212-0.217v-0.651c0-0.12 0.0953-0.217 0.212-0.217zm1.42 0h0.638c0.117 0 0.212 0.0973 0.212 0.217v0.651c0 0.12-0.0953 0.217-0.212 0.217h-0.638c-0.117 0-0.212-0.0973-0.212-0.217v-0.651c0-0.12 0.0953-0.217 0.212-0.217zm1.42 0h0.638c0.117 0 0.212 0.0973 0.212 0.217v0.651c0 0.12-0.0953 0.217-0.212 0.217h-0.638c-0.117 0-0.212-0.0973-0.212-0.217v-0.651c0-0.12 0.0953-0.217 0.212-0.217zm1.42 0h0.638c0.117 0 0.212 0.0973 0.212 0.217v0.651c0 0.12-0.0953 0.217-0.212 0.217h-0.638c-0.117 0-0.212-0.0973-0.212-0.217v-0.651c0-0.12 0.0953-0.217 0.212-0.217zm1.42 0h0.638c0.117 0 0.212 0.0973 0.212 0.217v0.651c0 0.12-0.0953 0.217-0.212 0.217h-0.638c-0.117 0-0.212-0.0973-0.212-0.217v-0.651c0-0.12 0.0953-0.217 0.212-0.217zm-4.25-1.45h0.638c0.117 0 0.212 0.0973 0.212 0.217v0.651c0 0.12-0.0953 0.217-0.212 0.217h-0.638c-0.117 0-0.212-0.0973-0.212-0.217v-0.651c0-0.12 0.0953-0.217 0.212-0.217zm1.42 0h0.638c0.117 0 0.212 0.0973 0.212 0.217v0.651c0 0.12-0.0953 0.217-0.212 0.217h-0.638c-0.117 0-0.212-0.0973-0.212-0.217v-0.651c0-0.12 0.0953-0.217 0.212-0.217zm1.42 0h0.638c0.117 0 0.212 0.0973 0.212 0.217v0.651c0 0.12-0.0953 0.217-0.212 0.217h-0.638c-0.117 0-0.212-0.0973-0.212-0.217v-0.651c0-0.12 0.0953-0.217 0.212-0.217zm0-1.45h0.638c0.117 0 0.212 0.0973 0.212 0.217v0.651c0 0.12-0.0953 0.217-0.212 0.217h-0.638c-0.117 0-0.212-0.0973-0.212-0.217v-0.651c0-0.12 0.0953-0.217 0.212-0.217z" fill="currentColor" fill-rule="evenodd" stroke-width=".358" style="isolation:isolate"/>
	<path id="path6" d="m34.6 41.9c-0.424 0.0362-0.74 0.411-0.706 0.837 0.0351 0.426 0.409 0.742 0.835 0.707 2.13-0.178 4.13-1.16 5.57-2.75 1.44-1.59 2.24-3.67 2.22-5.81-0.0205-2.26-0.936-4.41-2.54-6-1.61-1.58-3.78-2.46-6.03-2.44-2.25 0.0203-4.41 0.937-5.99 2.55-1.58 1.61-2.45 3.79-2.43 6.04 0.0039 0.427 0.353 0.771 0.78 0.767 0.427-4e-3 0.77-0.354 0.766-0.781-0.0166-1.85 0.702-3.62 1.99-4.94 1.29-1.32 3.06-2.07 4.9-2.08 1.84-0.0166 3.62 0.703 4.94 1.99 1.31 1.3 2.06 3.06 2.08 4.91 0.0156 1.76-0.63 3.46-1.81 4.76-1.18 1.3-2.81 2.1-4.56 2.25zm-6.42-3.65c-0.198-0.376-0.657-0.517-1.03-0.316-0.368 0.202-0.506 0.672-0.309 1.05 0.844 1.6 2.17 2.89 3.78 3.67 0.378 0.185 0.831 0.0206 1.01-0.365 0.18-0.386 0.0184-0.849-0.359-1.03-1.32-0.638-2.4-1.69-3.09-3zm4.59 0.668c-0.591-0.0387-0.991-0.106-1.38-0.232-0.558-0.181-0.917-0.428-1.24-0.851-0.396-0.524-0.654-1.29-0.719-2.12-0.0227-0.295-0.0251-0.468-0.0074-0.538 0.0283-0.11 0.0924-0.186 0.198-0.233 0.0471-0.0214 0.0538-0.0217 3.58-0.0217 2.32-3.61e-4 3.57-4e-3 3.64-0.0112 0.121-0.0116 0.311-0.0449 0.401-0.0698 0.126-0.0351 0.275-0.0948 0.275-0.11 0-4e-3 -0.0234-0.0517-0.0524-0.106-0.111-0.211-0.162-0.424-0.161-0.681 0-0.284 0.0652-0.544 0.205-0.825 0.0577-0.116 0.198-0.333 0.215-0.333 0.0166 0 0.188 0.105 0.268 0.164 0.317 0.235 0.565 0.619 0.628 0.976 0.0131 0.0749 0.0142 0.0771 0.0407 0.0716 0.157-0.0322 0.529-0.0416 0.695-0.0177 0.263 0.0376 0.459 0.111 0.617 0.231 0.0425 0.0318 0.0768 0.0615 0.0768 0.0658 0 0.0253-0.0595 0.174-0.101 0.253-0.0666 0.126-0.138 0.221-0.253 0.334-0.293 0.289-0.712 0.448-1.18 0.449l-0.102 3.62e-4 -0.0244 0.0608c-0.459 1.15-1.04 1.96-1.83 2.54-0.795 0.587-1.81 0.928-2.99 1-0.134 0.0083-0.689 0.0116-0.794 0.0043zm-2.43-5.42h0.638c0.117 0 0.212 0.0973 0.212 0.217v0.651c0 0.12-0.0953 0.217-0.212 0.217h-0.638c-0.117 0-0.212-0.0973-0.212-0.217v-0.651c0-0.12 0.0953-0.217 0.212-0.217zm1.42 0h0.638c0.117 0 0.212 0.0973 0.212 0.217v0.651c0 0.12-0.0953 0.217-0.212 0.217h-0.638c-0.117 0-0.212-0.0973-0.212-0.217v-0.651c0-0.12 0.0953-0.217 0.212-0.217zm1.42 0h0.638c0.117 0 0.212 0.0973 0.212 0.217v0.651c0 0.12-0.0953 0.217-0.212 0.217h-0.638c-0.117 0-0.212-0.0973-0.212-0.217v-0.651c0-0.12 0.0953-0.217 0.212-0.217zm1.42 0h0.638c0.117 0 0.212 0.0973 0.212 0.217v0.651c0 0.12-0.0953 0.217-0.212 0.217h-0.638c-0.117 0-0.212-0.0973-0.212-0.217v-0.651c0-0.12 0.0953-0.217 0.212-0.217zm1.42 0h0.638c0.117 0 0.212 0.0973 0.212 0.217v0.651c0 0.12-0.0953 0.217-0.212 0.217h-0.638c-0.117 0-0.212-0.0973-0.212-0.217v-0.651c0-0.12 0.0953-0.217 0.212-0.217zm-4.25-1.45h0.638c0.117 0 0.212 0.0973 0.212 0.217v0.651c0 0.12-0.0953 0.217-0.212 0.217h-0.638c-0.117 0-0.212-0.0973-0.212-0.217v-0.651c0-0.12 0.0953-0.217 0.212-0.217zm1.42 0h0.638c0.117 0 0.212 0.0973 0.212 0.217v0.651c0 0.12-0.0953 0.217-0.212 0.217h-0.638c-0.117 0-0.212-0.0973-0.212-0.217v-0.651c0-0.12 0.0953-0.217 0.212-0.217zm1.42 0h0.638c0.117 0 0.212 0.0973 0.212 0.217v0.651c0 0.12-0.0953 0.217-0.212 0.217h-0.638c-0.117 0-0.212-0.0973-0.212-0.217v-0.651c0-0.12 0.0953-0.217 0.212-0.217zm0-1.45h0.638c0.117 0 0.212 0.0973 0.212 0.217v0.651c0 0.12-0.0953 0.217-0.212 0.217h-0.638c-0.117 0-0.212-0.0973-0.212-0.217v-0.651c0-0.12 0.0953-0.217 0.212-0.217z" fill="#fff" fill-opacity=".2" fill-rule="evenodd" stroke-width=".358" style="isolation:isolate"/>
</svg>
