<?xml version="1.0" encoding="UTF-8"?>
<svg id="svg5" width="48pt" height="48pt" style="isolation:isolate" version="1.1" viewBox="0 0 48 48" xmlns="http://www.w3.org/2000/svg">
	<defs id="defs2">
		<style id="current-color-scheme" type="text/css">.ColorScheme-Text { color:#fff; }
.ColorScheme-Highlight { color:#50c9c3; }
.ColorScheme-HighlightedText { color:#fff }</style>
		<linearGradient id="a" x1="1.5" x2="46" y1="32" y2="32" gradientTransform="translate(-.000766 -.557)" gradientUnits="userSpaceOnUse">
			<stop id="stop1" stop-color="#fff" stop-opacity="0" offset="0"/>
			<stop id="stop2" class="ColorScheme-HighlightedText" stop-color="currentColor" stop-opacity=".4" offset="1"/>
		</linearGradient>
	</defs>
	<path id="path2" class="ColorScheme-Highlight" d="m6.43 11.5c-2.71 0-4.92 2.21-4.92 4.93l-0.00593 25.1c0 2.72 2.21 4.93 4.92 4.93h35.2c2.71 0 4.92-2.21 4.92-4.93v-20.1c0-2.72-2.21-4.93-4.92-4.93h-15.1c-4.02 0-6.53-1.91-9.24-3.82-0.904-0.634-2.52-1.21-3.63-1.21z" fill="currentColor"/>
	<path id="path3" d="m6.52 11.5c-1.41-0.00369-2.69 0.568-3.59 1.45-0.703 2.2 0.405 3.25 2.48 3.55h21.1c-4.02 0-6.43-1.8-9.24-3.8-0.904-0.64-2.52-1.2-3.63-1.2z" fill-opacity=".2"/>
	<path id="path4" class="ColorScheme-HighlightedText" d="m1.51 16.5c-0.00201 8.43-0.00392 17.1-0.00593 25.1 6e-7 2.71 2.21 4.92 4.92 4.92h35.2c2.71 0 4.92-2.21 4.92-4.92v-20.1c0-2.71-2.21-5-4.92-5z" fill="url(#a)"/>
	<path id="pathtext" class="ColorScheme-Text" d="m26.7 34c0 0.319-0.259 0.578-0.578 0.578s-0.578-0.259-0.578-0.578v-1.57c0-0.729 0.592-1.32 1.32-1.32h14.4c0.729 0 1.32 0.592 1.32 1.32v5.86c0 0.319-0.259 0.578-0.578 0.578-0.319 0-0.578-0.259-0.578-0.578v-5.36c0-0.364-0.296-0.66-0.66-0.66h-13.4c-0.364 0-0.66 0.296-0.66 0.66zm14.7 6.93c0-0.319 0.259-0.578 0.578-0.578 0.319 0 0.578 0.259 0.578 0.578v1.24c0 0.729-0.592 1.32-1.32 1.32h-14.4c-0.729 0-1.32-0.592-1.32-1.32v-5.53c0-0.319 0.259-0.578 0.578-0.578s0.578 0.259 0.578 0.578v5.03c0 0.364 0.296 0.66 0.66 0.66h13.4c0.364 0 0.66-0.296 0.66-0.66zm-10-1.35c0.252-0.106 0.542 0.0125 0.649 0.264 0.107 0.252-0.0109 0.541-0.262 0.647-0.429 0.182-0.888 0.274-1.35 0.274-0.918 0-1.8-0.366-2.45-1.02-0.65-0.647-1.02-1.53-1.02-2.45s0.366-1.8 1.02-2.45c0.647-0.65 1.53-1.02 2.45-1.02s1.8 0.366 2.45 1.02c0.65 0.647 1.02 1.53 1.02 2.45 0 0.545-0.129 1.08-0.376 1.57-0.124 0.244-0.422 0.342-0.665 0.218-0.243-0.124-0.34-0.423-0.216-0.667 0.175-0.347 0.267-0.73 0.267-1.12 0-0.657-0.261-1.29-0.726-1.75-0.462-0.465-1.09-0.726-1.75-0.726s-1.29 0.261-1.75 0.726c-0.465 0.462-0.726 1.09-0.726 1.75 0 0.657 0.261 1.29 0.726 1.75 0.462 0.465 1.09 0.726 1.75 0.726 0.33 0 0.66-0.066 0.964-0.195zm4.81-3.77c0.273 0 0.495 0.222 0.495 0.495s-0.222 0.495-0.495 0.495h-1.32c-0.364 0-0.66-0.296-0.66-0.66v-2.31c0-0.364 0.296-0.66 0.66-0.66h5.61c0.364 0 0.66 0.296 0.66 0.66v2.31c0 0.364-0.296 0.66-0.66 0.66h-2.23c-0.364 0-0.66-0.296-0.66-0.66v-1.16c0-0.273 0.222-0.495 0.495-0.495 0.273 0 0.495 0.222 0.495 0.495v0.825h1.57v-1.65h-4.95v1.65zm-0.66 3.47c0-0.132 0.0528-0.257 0.145-0.35 0.0924-0.0924 0.218-0.145 0.35-0.145s0.257 0.0528 0.35 0.145c0.0924 0.0924 0.145 0.218 0.145 0.35s-0.0528 0.257-0.145 0.35c-0.0924 0.0924-0.218 0.145-0.35 0.145s-0.257-0.0528-0.35-0.145c-0.0924-0.0924-0.145-0.218-0.145-0.35zm3.3 0c0-0.132 0.0528-0.257 0.145-0.35 0.0924-0.0924 0.218-0.145 0.35-0.145s0.257 0.0528 0.35 0.145c0.0924 0.0924 0.145 0.218 0.145 0.35s-0.0528 0.257-0.145 0.35c-0.0924 0.0924-0.218 0.145-0.35 0.145s-0.257-0.0528-0.35-0.145c-0.0924-0.0924-0.145-0.218-0.145-0.35zm-10.2-2.94 2.55-0.909c0.172-0.0611 0.361 0.0284 0.422 0.2l0.0558 0.155c0.0611 0.171-0.0284 0.36-0.2 0.422l-2.55 0.909c-0.172 0.0614-0.361-0.0281-0.422-0.2l-0.0555-0.155c-0.0614-0.172 0.0281-0.36 0.2-0.422zm0.804 1.98 2.55-0.909c0.172-0.0611 0.36 0.0284 0.422 0.2l0.0555 0.155c0.0614 0.171-0.0281 0.36-0.2 0.422l-2.55 0.909c-0.171 0.0614-0.36-0.0281-0.422-0.2l-0.0555-0.155c-0.0614-0.172 0.0284-0.36 0.2-0.422zm5.14 0.961c0-0.393 0.155-0.772 0.436-1.05 0.277-0.281 0.657-0.436 1.05-0.436 0.393 0 0.772 0.155 1.05 0.436 0.281 0.277 0.436 0.657 0.436 1.05 0 0.393-0.155 0.772-0.436 1.05-0.277 0.281-0.657 0.436-1.05 0.436-0.393 0-0.772-0.155-1.05-0.436-0.281-0.277-0.436-0.657-0.436-1.05zm3.3 0c0-0.393 0.155-0.772 0.436-1.05 0.277-0.281 0.657-0.436 1.05-0.436 0.393 0 0.772 0.155 1.05 0.436 0.281 0.277 0.436 0.657 0.436 1.05 0 0.393-0.155 0.772-0.436 1.05-0.277 0.281-0.657 0.436-1.05 0.436-0.393 0-0.772-0.155-1.05-0.436-0.281-0.277-0.436-0.657-0.436-1.05zm-8.44-2.13 1.74-0.622c0.172-0.0614 0.361 0.0281 0.422 0.2l0.0558 0.155c0.0611 0.172-0.0284 0.36-0.2 0.422l-1.74 0.622c-0.171 0.0611-0.36-0.0284-0.422-0.2l-0.0555-0.155c-0.0614-0.172 0.0284-0.361 0.2-0.422z" fill="currentColor" fill-rule="evenodd" stroke-width=".33" style="isolation:isolate"/>
	<path id="path6" d="m26.7 34c0 0.319-0.259 0.578-0.578 0.578s-0.578-0.259-0.578-0.578v-1.57c0-0.729 0.592-1.32 1.32-1.32h14.4c0.729 0 1.32 0.592 1.32 1.32v5.86c0 0.319-0.259 0.578-0.578 0.578-0.319 0-0.578-0.259-0.578-0.578v-5.36c0-0.364-0.296-0.66-0.66-0.66h-13.4c-0.364 0-0.66 0.296-0.66 0.66zm14.7 6.93c0-0.319 0.259-0.578 0.578-0.578 0.319 0 0.578 0.259 0.578 0.578v1.24c0 0.729-0.592 1.32-1.32 1.32h-14.4c-0.729 0-1.32-0.592-1.32-1.32v-5.53c0-0.319 0.259-0.578 0.578-0.578s0.578 0.259 0.578 0.578v5.03c0 0.364 0.296 0.66 0.66 0.66h13.4c0.364 0 0.66-0.296 0.66-0.66zm-10-1.35c0.252-0.106 0.542 0.0125 0.649 0.264 0.107 0.252-0.0109 0.541-0.262 0.647-0.429 0.182-0.888 0.274-1.35 0.274-0.918 0-1.8-0.366-2.45-1.02-0.65-0.647-1.02-1.53-1.02-2.45s0.366-1.8 1.02-2.45c0.647-0.65 1.53-1.02 2.45-1.02s1.8 0.366 2.45 1.02c0.65 0.647 1.02 1.53 1.02 2.45 0 0.545-0.129 1.08-0.376 1.57-0.124 0.244-0.422 0.342-0.665 0.218-0.243-0.124-0.34-0.423-0.216-0.667 0.175-0.347 0.267-0.73 0.267-1.12 0-0.657-0.261-1.29-0.726-1.75-0.462-0.465-1.09-0.726-1.75-0.726s-1.29 0.261-1.75 0.726c-0.465 0.462-0.726 1.09-0.726 1.75 0 0.657 0.261 1.29 0.726 1.75 0.462 0.465 1.09 0.726 1.75 0.726 0.33 0 0.66-0.066 0.964-0.195zm4.81-3.77c0.273 0 0.495 0.222 0.495 0.495s-0.222 0.495-0.495 0.495h-1.32c-0.364 0-0.66-0.296-0.66-0.66v-2.31c0-0.364 0.296-0.66 0.66-0.66h5.61c0.364 0 0.66 0.296 0.66 0.66v2.31c0 0.364-0.296 0.66-0.66 0.66h-2.23c-0.364 0-0.66-0.296-0.66-0.66v-1.16c0-0.273 0.222-0.495 0.495-0.495 0.273 0 0.495 0.222 0.495 0.495v0.825h1.57v-1.65h-4.95v1.65zm-0.66 3.47c0-0.132 0.0528-0.257 0.145-0.35 0.0924-0.0924 0.218-0.145 0.35-0.145s0.257 0.0528 0.35 0.145c0.0924 0.0924 0.145 0.218 0.145 0.35s-0.0528 0.257-0.145 0.35c-0.0924 0.0924-0.218 0.145-0.35 0.145s-0.257-0.0528-0.35-0.145c-0.0924-0.0924-0.145-0.218-0.145-0.35zm3.3 0c0-0.132 0.0528-0.257 0.145-0.35 0.0924-0.0924 0.218-0.145 0.35-0.145s0.257 0.0528 0.35 0.145c0.0924 0.0924 0.145 0.218 0.145 0.35s-0.0528 0.257-0.145 0.35c-0.0924 0.0924-0.218 0.145-0.35 0.145s-0.257-0.0528-0.35-0.145c-0.0924-0.0924-0.145-0.218-0.145-0.35zm-10.2-2.94 2.55-0.909c0.172-0.0611 0.361 0.0284 0.422 0.2l0.0558 0.155c0.0611 0.171-0.0284 0.36-0.2 0.422l-2.55 0.909c-0.172 0.0614-0.361-0.0281-0.422-0.2l-0.0555-0.155c-0.0614-0.172 0.0281-0.36 0.2-0.422zm0.804 1.98 2.55-0.909c0.172-0.0611 0.36 0.0284 0.422 0.2l0.0555 0.155c0.0614 0.171-0.0281 0.36-0.2 0.422l-2.55 0.909c-0.171 0.0614-0.36-0.0281-0.422-0.2l-0.0555-0.155c-0.0614-0.172 0.0284-0.36 0.2-0.422zm5.14 0.961c0-0.393 0.155-0.772 0.436-1.05 0.277-0.281 0.657-0.436 1.05-0.436 0.393 0 0.772 0.155 1.05 0.436 0.281 0.277 0.436 0.657 0.436 1.05 0 0.393-0.155 0.772-0.436 1.05-0.277 0.281-0.657 0.436-1.05 0.436-0.393 0-0.772-0.155-1.05-0.436-0.281-0.277-0.436-0.657-0.436-1.05zm3.3 0c0-0.393 0.155-0.772 0.436-1.05 0.277-0.281 0.657-0.436 1.05-0.436 0.393 0 0.772 0.155 1.05 0.436 0.281 0.277 0.436 0.657 0.436 1.05 0 0.393-0.155 0.772-0.436 1.05-0.277 0.281-0.657 0.436-1.05 0.436-0.393 0-0.772-0.155-1.05-0.436-0.281-0.277-0.436-0.657-0.436-1.05zm-8.44-2.13 1.74-0.622c0.172-0.0614 0.361 0.0281 0.422 0.2l0.0558 0.155c0.0611 0.172-0.0284 0.36-0.2 0.422l-1.74 0.622c-0.171 0.0611-0.36-0.0284-0.422-0.2l-0.0555-0.155c-0.0614-0.172 0.0284-0.361 0.2-0.422z" fill="#fff" fill-opacity=".2" fill-rule="evenodd" stroke-width=".33" style="isolation:isolate"/>
</svg>
