<?xml version="1.0" encoding="UTF-8"?>
<svg id="svg5" width="48pt" height="48pt" style="isolation:isolate" version="1.1" viewBox="0 0 48 48" xmlns="http://www.w3.org/2000/svg">
	<defs id="defs2">
		<style id="current-color-scheme" type="text/css">.ColorScheme-Text { color:#fff; }
.ColorScheme-Highlight { color:#50c9c3; }
.ColorScheme-HighlightedText { color:#fff }</style>
		<linearGradient id="a" x1="1.5" x2="46" y1="32" y2="32" gradientTransform="translate(-.000766 -.557)" gradientUnits="userSpaceOnUse">
			<stop id="stop1" stop-color="#fff" stop-opacity="0" offset="0"/>
			<stop id="stop2" class="ColorScheme-HighlightedText" stop-color="currentColor" stop-opacity=".4" offset="1"/>
		</linearGradient>
	</defs>
	<path id="path2" class="ColorScheme-Highlight" d="m6.43 11.5c-2.71 0-4.92 2.21-4.92 4.93l-0.00593 25.1c0 2.72 2.21 4.93 4.92 4.93h35.2c2.71 0 4.92-2.21 4.92-4.93v-20.1c0-2.72-2.21-4.93-4.92-4.93h-15.1c-4.02 0-6.53-1.91-9.24-3.82-0.904-0.634-2.52-1.21-3.63-1.21z" fill="currentColor"/>
	<path id="path3" d="m6.52 11.5c-1.41-0.00369-2.69 0.568-3.59 1.45-0.703 2.2 0.405 3.25 2.48 3.55h21.1c-4.02 0-6.43-1.8-9.24-3.8-0.904-0.64-2.52-1.2-3.63-1.2z" fill-opacity=".2"/>
	<path id="path4" class="ColorScheme-HighlightedText" d="m1.51 16.5c-0.00201 8.43-0.00392 17.1-0.00593 25.1 6e-7 2.71 2.21 4.92 4.92 4.92h35.2c2.71 0 4.92-2.21 4.92-4.92v-20.1c0-2.71-2.21-5-4.92-5z" fill="url(#a)"/>
	<path id="pathtext" class="ColorScheme-Text" d="m31.9 33.8-0.01 0.0147 0.63 0.435 8.1 5.61c0.174 0.12 0.316 0.388 0.316 0.596v1.12c0 0.209-0.174 0.378-0.387 0.378h-13.1c-0.213 0-0.387-0.169-0.387-0.378v-1.09c0-0.209 0.147-0.468 0.327-0.58l4.23-2.61c0.36-0.221 0.469-0.688 0.243-1.04-0.226-0.354-0.704-0.46-1.07-0.237l-4.3 2.64c-0.542 0.333-0.982 1.11-0.982 1.74v1.93c0 0.626 0.519 1.13 1.16 1.13h14.7c0.64 0 1.16-0.509 1.16-1.13v-1.91c0-0.626-0.424-1.43-0.947-1.79l-6.41-4.43c0.639-0.187 1.23-0.526 1.7-0.992 0.76-0.744 1.18-1.75 1.18-2.8 0-1.05-0.42-2.05-1.18-2.79-0.75-0.734-1.78-1.16-2.85-1.16s-2.1 0.421-2.85 1.16c-0.76 0.744-1.18 1.74-1.18 2.79 0 1.05 0.42 2.06 1.18 2.8 0.231 0.226 0.489 0.423 0.766 0.586zm0.866-1.21 0.013-0.0176 0.119 0.0832c0.337 0.156 0.708 0.24 1.09 0.24 0.67 0 1.32-0.264 1.79-0.724 0.48-0.47 0.74-1.1 0.74-1.76 0-0.656-0.26-1.28-0.74-1.75-0.47-0.46-1.12-0.724-1.79-0.724s-1.32 0.264-1.79 0.724c-0.48 0.47-0.74 1.1-0.74 1.75 0 0.666 0.26 1.29 0.74 1.76 0.17 0.166 0.363 0.306 0.572 0.419z" fill="currentColor" fill-rule="evenodd" stroke-width=".989" style="isolation:isolate"/>
	<path id="path6" d="m31.9 33.8-0.01 0.0147 0.63 0.435 8.1 5.61c0.174 0.12 0.316 0.388 0.316 0.596v1.12c0 0.209-0.174 0.378-0.387 0.378h-13.1c-0.213 0-0.387-0.169-0.387-0.378v-1.09c0-0.209 0.147-0.468 0.327-0.58l4.23-2.61c0.36-0.221 0.469-0.688 0.243-1.04-0.226-0.354-0.704-0.46-1.07-0.237l-4.3 2.64c-0.542 0.333-0.982 1.11-0.982 1.74v1.93c0 0.626 0.519 1.13 1.16 1.13h14.7c0.64 0 1.16-0.509 1.16-1.13v-1.91c0-0.626-0.424-1.43-0.947-1.79l-6.41-4.43c0.639-0.187 1.23-0.526 1.7-0.992 0.76-0.744 1.18-1.75 1.18-2.8 0-1.05-0.42-2.05-1.18-2.79-0.75-0.734-1.78-1.16-2.85-1.16s-2.1 0.421-2.85 1.16c-0.76 0.744-1.18 1.74-1.18 2.79 0 1.05 0.42 2.06 1.18 2.8 0.231 0.226 0.489 0.423 0.766 0.586zm0.866-1.21 0.013-0.0176 0.119 0.0832c0.337 0.156 0.708 0.24 1.09 0.24 0.67 0 1.32-0.264 1.79-0.724 0.48-0.47 0.74-1.1 0.74-1.76 0-0.656-0.26-1.28-0.74-1.75-0.47-0.46-1.12-0.724-1.79-0.724s-1.32 0.264-1.79 0.724c-0.48 0.47-0.74 1.1-0.74 1.75 0 0.666 0.26 1.29 0.74 1.76 0.17 0.166 0.363 0.306 0.572 0.419z" fill="#fff" fill-opacity=".2" fill-rule="evenodd" stroke-width=".989" style="isolation:isolate"/>
</svg>
