<?xml version="1.0" encoding="UTF-8"?>
<svg id="svg5" width="48pt" height="48pt" style="isolation:isolate" version="1.1" viewBox="0 0 48 48" xmlns="http://www.w3.org/2000/svg">
	<defs id="defs2">
		<style id="current-color-scheme" type="text/css">.ColorScheme-Text { color:#fff; }
.ColorScheme-Highlight { color:#50c9c3; }
.ColorScheme-HighlightedText { color:#fff }</style>
		<linearGradient id="a" x1="1.5" x2="46" y1="32" y2="32" gradientTransform="translate(-.000766 -.557)" gradientUnits="userSpaceOnUse">
			<stop id="stop1" stop-color="#fff" stop-opacity="0" offset="0"/>
			<stop id="stop2" class="ColorScheme-HighlightedText" stop-color="currentColor" stop-opacity=".4" offset="1"/>
		</linearGradient>
	</defs>
	<path id="path2" class="ColorScheme-Highlight" d="m6.43 11.5c-2.71 0-4.92 2.21-4.92 4.93l-0.00593 25.1c0 2.72 2.21 4.93 4.92 4.93h35.2c2.71 0 4.92-2.21 4.92-4.93v-20.1c0-2.72-2.21-4.93-4.92-4.93h-15.1c-4.02 0-6.53-1.91-9.24-3.82-0.904-0.634-2.52-1.21-3.63-1.21z" fill="currentColor"/>
	<path id="path3" d="m6.52 11.5c-1.41-0.00369-2.69 0.568-3.59 1.45-0.703 2.2 0.405 3.25 2.48 3.55h21.1c-4.02 0-6.43-1.8-9.24-3.8-0.904-0.64-2.52-1.2-3.63-1.2z" fill-opacity=".2"/>
	<path id="path4" class="ColorScheme-HighlightedText" d="m1.51 16.5c-0.00201 8.43-0.00392 17.1-0.00593 25.1 6e-7 2.71 2.21 4.92 4.92 4.92h35.2c2.71 0 4.92-2.21 4.92-4.92v-20.1c0-2.71-2.21-5-4.92-5z" fill="url(#a)"/>
	<path id="pathtext" class="ColorScheme-Text" d="m33.2 27.4c-0.26-0.0166-0.523 0.0923-0.694 0.313l-0.0542 0.0703c-0.273 0.354-0.209 0.862 0.145 1.14l2.12 1.64c-0.0484-0.00911-0.0969-0.0136-0.148-0.0132l-7.1 0.0454c-0.418 0.00267-0.753 0.344-0.75 0.762l0.00146 0.154c0.00343 0.418 0.345 0.756 0.763 0.753l4.96-0.0322-6.52 5.27c-0.404 0.327-0.498 0.885-0.208 1.24 0.29 0.359 0.856 0.387 1.26 0.063l3.15-2.52c-0.0506 0.321-0.0776 0.647-0.0776 0.976 0 0.735 0.13 1.46 0.13 1.46 0.139 0.38 0.571 0.571 0.967 0.426 0.395-0.145 0.631-0.497 0.526-0.785 0 0-0.0996-0.548-0.0996-1.1 0-1.25 0.499-2.45 1.38-3.34 0.887-0.884 2.09-1.38 3.34-1.38 1.25 0 2.45 0.499 3.34 1.38 0.884 0.887 1.38 2.09 1.38 3.34 0 1.25-0.498 2.45-1.38 3.34-0.887 0.884-2.09 1.38-3.34 1.38-1.25 0-2.44-0.491-2.78-0.833-0.298-0.297-0.78-0.294-1.08 0.00439-0.295 0.299-0.293 0.781 0.00439 1.08 0.626 0.624 2.21 1.27 3.86 1.27 1.66 0 3.24-0.659 4.42-1.83 1.17-1.17 1.83-2.76 1.83-4.42 0-1.66-0.659-3.24-1.83-4.42-0.569-0.567-1.23-1.01-1.96-1.32l-5.11-3.95c-0.133-0.103-0.287-0.157-0.442-0.167zm3.09 6.24c-0.96 0-1.88 0.381-2.56 1.06-0.678 0.678-1.06 1.6-1.06 2.56 0 0.96 0.381 1.88 1.06 2.56 0.678 0.678 1.6 1.06 2.56 1.06 0.96-1e-6 1.88-0.38 2.56-1.06 0.678-0.678 1.06-1.6 1.06-2.56 0-0.96-0.38-1.88-1.06-2.56-0.678-0.678-1.6-1.06-2.56-1.06z" fill="currentColor" stroke-width=".381" style="isolation:isolate"/>
	<path id="path6" d="m33.2 27.4c-0.26-0.0166-0.523 0.0923-0.694 0.313l-0.0542 0.0703c-0.273 0.354-0.209 0.862 0.145 1.14l2.12 1.64c-0.0484-0.00911-0.0969-0.0136-0.148-0.0132l-7.1 0.0454c-0.418 0.00267-0.753 0.344-0.75 0.762l0.00146 0.154c0.00343 0.418 0.345 0.756 0.763 0.753l4.96-0.0322-6.52 5.27c-0.404 0.327-0.498 0.885-0.208 1.24 0.29 0.359 0.856 0.387 1.26 0.063l3.15-2.52c-0.0506 0.321-0.0776 0.647-0.0776 0.976 0 0.735 0.13 1.46 0.13 1.46 0.139 0.38 0.571 0.571 0.967 0.426 0.395-0.145 0.631-0.497 0.526-0.785 0 0-0.0996-0.548-0.0996-1.1 0-1.25 0.499-2.45 1.38-3.34 0.887-0.884 2.09-1.38 3.34-1.38 1.25 0 2.45 0.499 3.34 1.38 0.884 0.887 1.38 2.09 1.38 3.34 0 1.25-0.498 2.45-1.38 3.34-0.887 0.884-2.09 1.38-3.34 1.38-1.25 0-2.44-0.491-2.78-0.833-0.298-0.297-0.78-0.294-1.08 0.00439-0.295 0.299-0.293 0.781 0.00439 1.08 0.626 0.624 2.21 1.27 3.86 1.27 1.66 0 3.24-0.659 4.42-1.83 1.17-1.17 1.83-2.76 1.83-4.42 0-1.66-0.659-3.24-1.83-4.42-0.569-0.567-1.23-1.01-1.96-1.32l-5.11-3.95c-0.133-0.103-0.287-0.157-0.442-0.167zm3.09 6.24c-0.96 0-1.88 0.381-2.56 1.06-0.678 0.678-1.06 1.6-1.06 2.56 0 0.96 0.381 1.88 1.06 2.56 0.678 0.678 1.6 1.06 2.56 1.06 0.96-1e-6 1.88-0.38 2.56-1.06 0.678-0.678 1.06-1.6 1.06-2.56 0-0.96-0.38-1.88-1.06-2.56-0.678-0.678-1.6-1.06-2.56-1.06z" fill="#fff" fill-opacity=".2" stroke-width=".381" style="isolation:isolate"/>
</svg>
