<?xml version="1.0" encoding="UTF-8"?>
<svg id="svg5" width="48pt" height="48pt" style="isolation:isolate" version="1.1" viewBox="0 0 48 48" xmlns="http://www.w3.org/2000/svg">
	<defs id="defs2">
		<style id="current-color-scheme" type="text/css">.ColorScheme-Text { color:#fff; }
.ColorScheme-Highlight { color:#50c9c3; }
.ColorScheme-HighlightedText { color:#fff }</style>
		<linearGradient id="a" x1="1.5" x2="46" y1="32" y2="32" gradientTransform="translate(-.000766 -.557)" gradientUnits="userSpaceOnUse">
			<stop id="stop1" stop-color="#fff" stop-opacity="0" offset="0"/>
			<stop id="stop2" class="ColorScheme-HighlightedText" stop-color="currentColor" stop-opacity=".4" offset="1"/>
		</linearGradient>
	</defs>
	<path id="path2" class="ColorScheme-Highlight" d="m6.43 11.5c-2.71 0-4.92 2.21-4.92 4.93l-0.00593 25.1c0 2.72 2.21 4.93 4.92 4.93h35.2c2.71 0 4.92-2.21 4.92-4.93v-20.1c0-2.72-2.21-4.93-4.92-4.93h-15.1c-4.02 0-6.53-1.91-9.24-3.82-0.904-0.634-2.52-1.21-3.63-1.21z" fill="currentColor"/>
	<path id="path3" d="m6.52 11.5c-1.41-0.00369-2.69 0.568-3.59 1.45-0.703 2.2 0.405 3.25 2.48 3.55h21.1c-4.02 0-6.43-1.8-9.24-3.8-0.904-0.64-2.52-1.2-3.63-1.2z" fill-opacity=".2"/>
	<path id="path4" class="ColorScheme-HighlightedText" d="m1.51 16.5c-0.00201 8.43-0.00392 17.1-0.00593 25.1 6e-7 2.71 2.21 4.92 4.92 4.92h35.2c2.71 0 4.92-2.21 4.92-4.92v-20.1c0-2.71-2.21-5-4.92-5z" fill="url(#a)"/>
	<path id="pathtext" class="ColorScheme-Text" d="m36.3 26.5v3.09h-1.55l3.09 3.37 3.09-3.37h-1.55v-3.09zm0.773 7.73v0.851c-0.484 0.0997-0.943 0.292-1.36 0.564l-0.604-0.604-1.09 1.09 0.604 0.604c-0.272 0.412-0.463 0.872-0.561 1.36h-0.854v1.55h0.851c0.0997 0.484 0.292 0.943 0.564 1.36l-0.604 0.604 1.09 1.09 0.604-0.604c0.412 0.272 0.872 0.463 1.36 0.561v0.854h1.55v-0.851c0.484-0.0997 0.943-0.292 1.36-0.564l0.604 0.604 1.09-1.09-0.604-0.604c0.272-0.412 0.462-0.872 0.561-1.36h0.854v-1.55h-0.851c-0.0997-0.484-0.292-0.943-0.564-1.36l0.604-0.604-1.09-1.09-0.604 0.604c-0.412-0.272-0.872-0.462-1.36-0.561v-0.854zm0.773 2.32c1.28 0 2.32 1.04 2.32 2.32 0 1.28-1.04 2.32-2.32 2.32-1.28 0-2.32-1.04-2.32-2.32 0-1.28 1.04-2.32 2.32-2.32z"  fill="currentColor" style="isolation:isolate"/>
	<path id="path6" class="ColorScheme-Text" d="m36.3 26.5v3.09h-1.55l3.09 3.37 3.09-3.37h-1.55v-3.09zm0.773 7.73v0.851c-0.484 0.0997-0.943 0.292-1.36 0.564l-0.604-0.604-1.09 1.09 0.604 0.604c-0.272 0.412-0.463 0.872-0.561 1.36h-0.854v1.55h0.851c0.0997 0.484 0.292 0.943 0.564 1.36l-0.604 0.604 1.09 1.09 0.604-0.604c0.412 0.272 0.872 0.463 1.36 0.561v0.854h1.55v-0.851c0.484-0.0997 0.943-0.292 1.36-0.564l0.604 0.604 1.09-1.09-0.604-0.604c0.272-0.412 0.462-0.872 0.561-1.36h0.854v-1.55h-0.851c-0.0997-0.484-0.292-0.943-0.564-1.36l0.604-0.604-1.09-1.09-0.604 0.604c-0.412-0.272-0.872-0.462-1.36-0.561v-0.854zm0.773 2.32c1.28 0 2.32 1.04 2.32 2.32 0 1.28-1.04 2.32-2.32 2.32-1.28 0-2.32-1.04-2.32-2.32 0-1.28 1.04-2.32 2.32-2.32z"  fill="#fff" fill-opacity=".2" style="isolation:isolate"/>
</svg>
