<?xml version="1.0" encoding="UTF-8"?>
<svg xmlns="http://www.w3.org/2000/svg" id="svg5" width="48pt" height="48pt" style="isolation:isolate" version="1.1" viewBox="0 0 48 48">
	<defs id="defs2">
		<style id="current-color-scheme" type="text/css">.ColorScheme-Text { color:#fff; }
.ColorScheme-Highlight { color:#50c9c3; }
.ColorScheme-HighlightedText { color:#fff }</style>
		<linearGradient id="a" x1="1.5" x2="46" y1="32" y2="32" gradientTransform="translate(-.000766 -.557)" gradientUnits="userSpaceOnUse">
			<stop id="stop1" stop-color="#fff" stop-opacity="0" offset="0"/>
			<stop id="stop2" class="ColorScheme-HighlightedText" stop-color="currentColor" stop-opacity=".4" offset="1"/>
		</linearGradient>
	</defs>
	<path id="path2" class="ColorScheme-Highlight" d="m6.43 11.5c-2.71 0-4.92 2.21-4.92 4.93l-0.00593 25.1c0 2.72 2.21 4.93 4.92 4.93h35.2c2.71 0 4.92-2.21 4.92-4.93v-20.1c0-2.72-2.21-4.93-4.92-4.93h-15.1c-4.02 0-6.53-1.91-9.24-3.82-0.904-0.634-2.52-1.21-3.63-1.21z" fill="currentColor"/>
	<path id="path3" d="m6.52 11.5c-1.41-0.00369-2.69 0.568-3.59 1.45-0.703 2.2 0.405 3.25 2.48 3.55h21.1c-4.02 0-6.43-1.8-9.24-3.8-0.904-0.64-2.52-1.2-3.63-1.2z" fill-opacity=".2"/>
	<path id="path4" class="ColorScheme-HighlightedText" d="m1.51 16.5c-0.00201 8.43-0.00392 17.1-0.00593 25.1 6e-7 2.71 2.21 4.92 4.92 4.92h35.2c2.71 0 4.92-2.21 4.92-4.92v-20.1c0-2.71-2.21-5-4.92-5z" fill="url(#a)"/>
	<path id="path17553-6-4-7" class="ColorScheme-Text" d="m32.6 28.3c0.435 0.181 0.798 0.509 1.07 0.98l1.94 3.37-1.21 0.688 3.93 0.0569 1.92-3.45-1.2 0.709-1.11-1.89c-0.182-0.308-0.49-0.472-0.889-0.472zm-1.03 0.163c-0.688 0-1.25 0.326-1.6 0.925l-1.65 2.85 3.46 2.01 2.14-3.7-0.617-1.03c-0.416-0.706-0.996-1.05-1.74-1.05zm9.06 4.97-3.46 1.98 2.14 3.7h1.2c0.38 0 0.761-0.0918 1.03-0.238 0.579-0.326 0.997-1.01 0.997-1.67 0-0.314-0.0908-0.634-0.254-0.924zm-11.1 0.835-3.95 0.0745 1.21 0.688-1.09 1.9c-0.073 0.127-0.127 0.326-0.127 0.489 0 0.163 0.054 0.345 0.127 0.471l2.27 3.9c-0.0181-0.126-0.0187-0.216-0.0187-0.288 0-0.309 0.145-0.799 0.326-1.12h-0.0018l1.94-3.35 1.23 0.707zm7.17 3.86-2.03 3.39 2.03 3.39v-1.4h2.12c0.38 0 0.706-0.181 0.887-0.489l2.25-3.91c-0.38 0.289-0.833 0.434-1.38 0.434h-3.88zm-7.43 1.38-0.579 1.03c-0.181 0.308-0.308 0.798-0.308 1.1 0 1.02 0.851 1.87 1.88 1.87h3.3v-4.01z" fill="currentColor" style="isolation:isolate"/>
	<path id="path6" class="ColorScheme-Text" d="m32.6 28.3c0.435 0.181 0.798 0.509 1.07 0.98l1.94 3.37-1.21 0.688 3.93 0.0569 1.92-3.45-1.2 0.709-1.11-1.89c-0.182-0.308-0.49-0.472-0.889-0.472zm-1.03 0.163c-0.688 0-1.25 0.326-1.6 0.925l-1.65 2.85 3.46 2.01 2.14-3.7-0.617-1.03c-0.416-0.706-0.996-1.05-1.74-1.05zm9.06 4.97-3.46 1.98 2.14 3.7h1.2c0.38 0 0.761-0.0918 1.03-0.238 0.579-0.326 0.997-1.01 0.997-1.67 0-0.314-0.0908-0.634-0.254-0.924zm-11.1 0.835-3.95 0.0745 1.21 0.688-1.09 1.9c-0.073 0.127-0.127 0.326-0.127 0.489 0 0.163 0.054 0.345 0.127 0.471l2.27 3.9c-0.0181-0.126-0.0187-0.216-0.0187-0.288 0-0.309 0.145-0.799 0.326-1.12h-0.0018l1.94-3.35 1.23 0.707zm7.17 3.86-2.03 3.39 2.03 3.39v-1.4h2.12c0.38 0 0.706-0.181 0.887-0.489l2.25-3.91c-0.38 0.289-0.833 0.434-1.38 0.434h-3.88zm-7.43 1.38-0.579 1.03c-0.181 0.308-0.308 0.798-0.308 1.1 0 1.02 0.851 1.87 1.88 1.87h3.3v-4.01z" fill="#fff" fill-opacity=".2" style="isolation:isolate"/>
</svg>
