<?xml version="1.0" encoding="UTF-8"?>
<svg xmlns="http://www.w3.org/2000/svg" id="svg5" width="48pt" height="48pt" style="isolation:isolate" version="1.1" viewBox="0 0 48 48">
	<defs id="defs2">
		<style id="current-color-scheme" type="text/css">.ColorScheme-Text { color:#fff; }
.ColorScheme-Highlight { color:#50c9c3; }
.ColorScheme-HighlightedText { color:#fff }</style>
		<linearGradient id="a" x1="1.5" x2="46" y1="32" y2="32" gradientTransform="translate(-.000766 -.557)" gradientUnits="userSpaceOnUse">
			<stop id="stop1" stop-color="#fff" stop-opacity="0" offset="0"/>
			<stop id="stop2" class="ColorScheme-HighlightedText" stop-color="currentColor" stop-opacity=".4" offset="1"/>
		</linearGradient>
	</defs>
	<path id="path2" class="ColorScheme-Highlight" d="m6.43 11.5c-2.71 0-4.92 2.21-4.92 4.93l-0.00593 25.1c0 2.72 2.21 4.93 4.92 4.93h35.2c2.71 0 4.92-2.21 4.92-4.93v-20.1c0-2.72-2.21-4.93-4.92-4.93h-15.1c-4.02 0-6.53-1.91-9.24-3.82-0.904-0.634-2.52-1.21-3.63-1.21z" fill="currentColor"/>
	<path id="path3" d="m6.52 11.5c-1.41-0.00369-2.69 0.568-3.59 1.45-0.703 2.2 0.405 3.25 2.48 3.55h21.1c-4.02 0-6.43-1.8-9.24-3.8-0.904-0.64-2.52-1.2-3.63-1.2z" fill-opacity=".2"/>
	<path id="path4" class="ColorScheme-HighlightedText" d="m1.51 16.5c-0.00201 8.43-0.00392 17.1-0.00593 25.1 6e-7 2.71 2.21 4.92 4.92 4.92h35.2c2.71 0 4.92-2.21 4.92-4.92v-20.1c0-2.71-2.21-5-4.92-5z" fill="url(#a)"/>
	<path id="path3-3" class="ColorScheme-Text" d="m27.2 41c0.0445 0.439 0.415 0.781 0.866 0.781h11.8c0.481 0 0.872-0.391 0.872-0.872v-3.94l-3.96 2.71c-0.595 0.407-1.49 0.324-2-0.187l-2.23-2.23c-0.171-0.171-0.459-0.185-0.646-0.0331l-4.43 3.62c-0.0689 0.0689-0.15 0.119-0.238 0.143zm-0.0061-1.64v-5.5c0-0.481 0.391-0.872 0.872-0.872h2.42c0.481 0 0.872-0.391 0.872-0.872s-0.391-0.872-0.872-0.872h-3.73c-0.722 0-1.31 0.586-1.31 1.31v9.67c0 0.722 0.586 1.31 1.31 1.31h14.4c0.722 0 1.31-0.586 1.31-1.31v-9.67c0-0.722-0.586-1.31-1.31-1.31h-7.01c-0.481 0-0.872 0.391-0.872 0.872s0.391 0.872 0.872 0.872h5.71c0.481 0 0.872 0.391 0.872 0.872v1.56c-0.0785 0.0279-0.153 0.0706-0.218 0.129l-4.4 2.84c-0.202 0.131-0.504 0.0985-0.675-0.0724l-2.28-2.28c-0.511-0.511-1.37-0.547-1.92-0.0802zm9.37-4.34c0-0.602 0.488-1.09 1.09-1.09 0.602 0 1.09 0.488 1.09 1.09 0 0.602-0.488 1.09-1.09 1.09-0.602 0-1.09-0.488-1.09-1.09z" fill="currentColor" fill-rule="evenodd" stroke-width=".872" style="isolation:isolate"/>
	<path id="path6" d="m27.2 41c0.0445 0.439 0.415 0.781 0.866 0.781h11.8c0.481 0 0.872-0.391 0.872-0.872v-3.94l-3.96 2.71c-0.595 0.407-1.49 0.324-2-0.187l-2.23-2.23c-0.171-0.171-0.459-0.185-0.646-0.0331l-4.43 3.62c-0.0689 0.0689-0.15 0.119-0.238 0.143zm-0.0061-1.64v-5.5c0-0.481 0.391-0.872 0.872-0.872h2.42c0.481 0 0.872-0.391 0.872-0.872s-0.391-0.872-0.872-0.872h-3.73c-0.722 0-1.31 0.586-1.31 1.31v9.67c0 0.722 0.586 1.31 1.31 1.31h14.4c0.722 0 1.31-0.586 1.31-1.31v-9.67c0-0.722-0.586-1.31-1.31-1.31h-7.01c-0.481 0-0.872 0.391-0.872 0.872s0.391 0.872 0.872 0.872h5.71c0.481 0 0.872 0.391 0.872 0.872v1.56c-0.0785 0.0279-0.153 0.0706-0.218 0.129l-4.4 2.84c-0.202 0.131-0.504 0.0985-0.675-0.0724l-2.28-2.28c-0.511-0.511-1.37-0.547-1.92-0.0802zm9.37-4.34c0-0.602 0.488-1.09 1.09-1.09 0.602 0 1.09 0.488 1.09 1.09 0 0.602-0.488 1.09-1.09 1.09-0.602 0-1.09-0.488-1.09-1.09z" fill="#fff" fill-opacity=".2" fill-rule="evenodd" stroke-width=".872" style="isolation:isolate"/>
</svg>
