<?xml version="1.0" encoding="UTF-8"?>
<svg id="svg5" width="48pt" height="48pt" style="isolation:isolate" version="1.1" viewBox="0 0 48 48" xmlns="http://www.w3.org/2000/svg">
	<defs id="defs2">
		<style id="current-color-scheme" type="text/css">.ColorScheme-Text { color:#fff; }
.ColorScheme-Highlight { color:#50c9c3; }
.ColorScheme-HighlightedText { color:#fff }</style>
		<linearGradient id="a" x1="1.5" x2="46" y1="32" y2="32" gradientTransform="translate(-.000766 -.557)" gradientUnits="userSpaceOnUse">
			<stop id="stop1" stop-color="#fff" stop-opacity="0" offset="0"/>
			<stop id="stop2" class="ColorScheme-HighlightedText" stop-color="currentColor" stop-opacity=".4" offset="1"/>
		</linearGradient>
	</defs>
	<path id="path2" class="ColorScheme-Highlight" d="m6.43 11.5c-2.71 0-4.92 2.21-4.92 4.93l-0.00593 25.1c0 2.72 2.21 4.93 4.92 4.93h35.2c2.71 0 4.92-2.21 4.92-4.93v-20.1c0-2.72-2.21-4.93-4.92-4.93h-15.1c-4.02 0-6.53-1.91-9.24-3.82-0.904-0.634-2.52-1.21-3.63-1.21z" fill="currentColor"/>
	<path id="path3" d="m6.52 11.5c-1.41-0.00369-2.69 0.568-3.59 1.45-0.703 2.2 0.405 3.25 2.48 3.55h21.1c-4.02 0-6.43-1.8-9.24-3.8-0.904-0.64-2.52-1.2-3.63-1.2z" fill-opacity=".2"/>
	<path id="path4" class="ColorScheme-HighlightedText" d="m1.51 16.5c-0.00201 8.43-0.00392 17.1-0.00593 25.1 6e-7 2.71 2.21 4.92 4.92 4.92h35.2c2.71 0 4.92-2.21 4.92-4.92v-20.1c0-2.71-2.21-5-4.92-5z" fill="url(#a)"/>
	<path id="pathtext" class="ColorScheme-Text" d="m36.1 26.5c-0.3 0-0.546 0.242-0.546 0.542v0.496c-0.967 0.248-1.66 1.11-1.66 2.14 0 0.722 0.345 1.36 0.882 1.77 0.0583 0.0676 0.0928 0.153 0.0928 0.249 0 0.0267 1.9e-5 0.0553-0.0057 0.0808l-2.39 5.07h-0.989c-0.161 0-0.294 0.13-0.294 0.291v0.0019c0 0.161 0.132 0.291 0.294 0.291h0.713l-1.85 3.91c-0.116 0.248-0.0589 0.535 0.124 0.721l-0.711 1.44 1.12-1.22c0.298 0.0777 0.617-0.064 0.753-0.35l2.13-4.51h1.87v0.387c0 0.246 0.201 0.445 0.449 0.445h0.0247c0.248 0 0.45-0.199 0.45-0.445v-0.387h1.91l2.13 4.51c0.134 0.288 0.455 0.428 0.752 0.35l1.12 1.22-0.709-1.44c0.18-0.186 0.239-0.471 0.123-0.72l-1.85-3.91h0.67c0.163 0 0.294-0.13 0.294-0.291 0-0.161-0.131-0.291-0.294-0.293h-0.945l-2.39-5.07c-0.0057-0.026-0.0057-0.054-0.0057-0.0807 0-0.0936 0.0351-0.181 0.0904-0.249 0.538-0.404 0.885-1.05 0.885-1.77 0-1.05-0.729-1.91-1.71-2.15v-0.485c0-0.3-0.243-0.542-0.545-0.542zm0.519 2c0.46 0.193 0.783 0.646 0.783 1.17 0 0.704-0.572 1.28-1.28 1.28-0.711 0-1.28-0.571-1.28-1.28 0-0.511 0.304-0.95 0.742-1.15 0.0646 0.226 0.266 0.396 0.516 0.396 0.256 0 0.462-0.18 0.519-0.418zm-0.508 4.24h0.0189c0.0698 0 0.131 0.0315 0.169 0.0812l1.9 4.02h-1.64v-0.471c0-0.248-0.202-0.447-0.45-0.447h-0.0244c-0.248 0-0.449 0.201-0.449 0.447v0.471h-1.59l1.9-4.02c0.041-0.0499 0.101-0.0812 0.17-0.0812z"  fill="currentColor" style="isolation:isolate"/>
	<path id="path6" class="ColorScheme-Text" d="m36.1 26.5c-0.3 0-0.546 0.242-0.546 0.542v0.496c-0.967 0.248-1.66 1.11-1.66 2.14 0 0.722 0.345 1.36 0.882 1.77 0.0583 0.0676 0.0928 0.153 0.0928 0.249 0 0.0267 1.9e-5 0.0553-0.0057 0.0808l-2.39 5.07h-0.989c-0.161 0-0.294 0.13-0.294 0.291v0.0019c0 0.161 0.132 0.291 0.294 0.291h0.713l-1.85 3.91c-0.116 0.248-0.0589 0.535 0.124 0.721l-0.711 1.44 1.12-1.22c0.298 0.0777 0.617-0.064 0.753-0.35l2.13-4.51h1.87v0.387c0 0.246 0.201 0.445 0.449 0.445h0.0247c0.248 0 0.45-0.199 0.45-0.445v-0.387h1.91l2.13 4.51c0.134 0.288 0.455 0.428 0.752 0.35l1.12 1.22-0.709-1.44c0.18-0.186 0.239-0.471 0.123-0.72l-1.85-3.91h0.67c0.163 0 0.294-0.13 0.294-0.291 0-0.161-0.131-0.291-0.294-0.293h-0.945l-2.39-5.07c-0.0057-0.026-0.0057-0.054-0.0057-0.0807 0-0.0936 0.0351-0.181 0.0904-0.249 0.538-0.404 0.885-1.05 0.885-1.77 0-1.05-0.729-1.91-1.71-2.15v-0.485c0-0.3-0.243-0.542-0.545-0.542zm0.519 2c0.46 0.193 0.783 0.646 0.783 1.17 0 0.704-0.572 1.28-1.28 1.28-0.711 0-1.28-0.571-1.28-1.28 0-0.511 0.304-0.95 0.742-1.15 0.0646 0.226 0.266 0.396 0.516 0.396 0.256 0 0.462-0.18 0.519-0.418zm-0.508 4.24h0.0189c0.0698 0 0.131 0.0315 0.169 0.0812l1.9 4.02h-1.64v-0.471c0-0.248-0.202-0.447-0.45-0.447h-0.0244c-0.248 0-0.449 0.201-0.449 0.447v0.471h-1.59l1.9-4.02c0.041-0.0499 0.101-0.0812 0.17-0.0812z"  fill="#fff" fill-opacity=".2" style="isolation:isolate"/>
</svg>
