<?xml version="1.0" encoding="UTF-8"?>
<svg id="svg5" width="48pt" height="48pt" style="isolation:isolate" version="1.1" viewBox="0 0 48 48" xmlns="http://www.w3.org/2000/svg">
	<defs id="defs2">
		<style id="current-color-scheme" type="text/css">.ColorScheme-Text { color:#fff; }
.ColorScheme-Highlight { color:#50c9c3; }
.ColorScheme-HighlightedText { color:#fff }</style>
		<linearGradient id="a" x1="1.5" x2="46" y1="32" y2="32" gradientTransform="translate(-.000766 -.557)" gradientUnits="userSpaceOnUse">
			<stop id="stop1" stop-color="#fff" stop-opacity="0" offset="0"/>
			<stop id="stop2" class="ColorScheme-HighlightedText" stop-color="currentColor" stop-opacity=".4" offset="1"/>
		</linearGradient>
	</defs>
	<path id="path2" class="ColorScheme-Highlight" d="m6.43 11.5c-2.71 0-4.92 2.21-4.92 4.93l-0.00593 25.1c0 2.72 2.21 4.93 4.92 4.93h35.2c2.71 0 4.92-2.21 4.92-4.93v-20.1c0-2.72-2.21-4.93-4.92-4.93h-15.1c-4.02 0-6.53-1.91-9.24-3.82-0.904-0.634-2.52-1.21-3.63-1.21z" fill="currentColor"/>
	<path id="path3" d="m6.52 11.5c-1.41-0.00369-2.69 0.568-3.59 1.45-0.703 2.2 0.405 3.25 2.48 3.55h21.1c-4.02 0-6.43-1.8-9.24-3.8-0.904-0.64-2.52-1.2-3.63-1.2z" fill-opacity=".2"/>
	<path id="path4" class="ColorScheme-HighlightedText" d="m1.51 16.5c-0.00201 8.43-0.00392 17.1-0.00593 25.1 6e-7 2.71 2.21 4.92 4.92 4.92h35.2c2.71 0 4.92-2.21 4.92-4.92v-20.1c0-2.71-2.21-5-4.92-5z" fill="url(#a)"/>
	<path id="pathtext" class="ColorScheme-Text" d="m33.9 30c-2.08 5.5e-4 -4.01 0.847-5.52 2.3l-1.7-1.7c-0.0702-0.0701-0.273-0.245-0.532-0.245-0.288 6.6e-5 -0.533 0.176-0.64 0.426s-0.0453 0.586 0.179 0.81l1.79 1.79c-1.04 1.42-1.61 3.07-1.61 4.8v5.29h16.2v-5.29c0-1.74-0.625-3.38-1.61-4.8l1.79-1.79c0.203-0.203 0.245-0.507 0.163-0.738-0.0826-0.231-0.276-0.421-0.538-0.486l-0.0425-0.0117h-0.0439c-0.0353 0-0.132-0.0048-0.252 0.0352-0.0992 0.0331-0.216 0.115-0.297 0.229l-1.68 1.68c-1.63-1.45-3.57-2.3-5.66-2.3zm0 1.41c3.68 0 6.7 2.99 6.7 6.69v3.88h-13.4v-3.88c0-3.68 2.99-6.69 6.7-6.69zm-3.17 2.82c-0.769 0-1.41 0.638-1.41 1.41 0 0.769 0.641 1.41 1.41 1.41 0.769 0 1.41-0.641 1.41-1.41 0-0.769-0.638-1.41-1.41-1.41zm6.34 0c-0.769 0-1.41 0.638-1.41 1.41 0 0.769 0.638 1.41 1.41 1.41 0.769 0 1.41-0.641 1.41-1.41 0-0.769-0.641-1.41-1.41-1.41z"  fill="currentColor" style="-inkscape-stroke:none;isolation:isolate"/>
	<path id="path7" d="m33.9 30c-2.08 5.5e-4 -4.01 0.847-5.52 2.3l-1.7-1.7c-0.0702-0.0701-0.273-0.245-0.532-0.245-0.288 6.6e-5 -0.533 0.176-0.64 0.426s-0.0453 0.586 0.179 0.81l1.79 1.79c-1.04 1.42-1.61 3.07-1.61 4.8v5.29h16.2v-5.29c0-1.74-0.625-3.38-1.61-4.8l1.79-1.79c0.203-0.203 0.245-0.507 0.163-0.738-0.0826-0.231-0.276-0.421-0.538-0.486l-0.0425-0.0117h-0.0439c-0.0353 0-0.132-0.0048-0.252 0.0352-0.0992 0.0331-0.216 0.115-0.297 0.229l-1.68 1.68c-1.63-1.45-3.57-2.3-5.66-2.3zm0 1.41c3.68 0 6.7 2.99 6.7 6.69v3.88h-13.4v-3.88c0-3.68 2.99-6.69 6.7-6.69zm-3.17 2.82c-0.769 0-1.41 0.638-1.41 1.41 0 0.769 0.641 1.41 1.41 1.41 0.769 0 1.41-0.641 1.41-1.41 0-0.769-0.638-1.41-1.41-1.41zm6.34 0c-0.769 0-1.41 0.638-1.41 1.41 0 0.769 0.638 1.41 1.41 1.41 0.769 0 1.41-0.641 1.41-1.41 0-0.769-0.641-1.41-1.41-1.41z"  fill="#fff" fill-opacity=".2" style="-inkscape-stroke:none;isolation:isolate"/>
</svg>
