<?xml version="1.0" encoding="UTF-8"?>
<svg xmlns="http://www.w3.org/2000/svg" id="svg5" width="48pt" height="48pt" style="isolation:isolate" version="1.1" viewBox="0 0 48 48">
	<defs id="defs2">
		<style id="current-color-scheme" type="text/css">.ColorScheme-Text { color:#fff; }
.ColorScheme-Highlight { color:#50c9c3; }
.ColorScheme-HighlightedText { color:#fff }</style>
		<linearGradient id="a" x1="1.5" x2="46" y1="32" y2="32" gradientTransform="translate(-.000766 -.557)" gradientUnits="userSpaceOnUse">
			<stop id="stop1" stop-color="#fff" stop-opacity="0" offset="0"/>
			<stop id="stop2" class="ColorScheme-HighlightedText" stop-color="currentColor" stop-opacity=".4" offset="1"/>
		</linearGradient>
	</defs>
	<path id="path2" class="ColorScheme-Highlight" d="m6.43 11.5c-2.71 0-4.92 2.21-4.92 4.93l-0.00593 25.1c0 2.72 2.21 4.93 4.92 4.93h35.2c2.71 0 4.92-2.21 4.92-4.93v-20.1c0-2.72-2.21-4.93-4.92-4.93h-15.1c-4.02 0-6.53-1.91-9.24-3.82-0.904-0.634-2.52-1.21-3.63-1.21z" fill="currentColor"/>
	<path id="path3" d="m6.52 11.5c-1.41-0.00369-2.69 0.568-3.59 1.45-0.703 2.2 0.405 3.25 2.48 3.55h21.1c-4.02 0-6.43-1.8-9.24-3.8-0.904-0.64-2.52-1.2-3.63-1.2z" fill-opacity=".2"/>
	<path id="path4" class="ColorScheme-HighlightedText" d="m1.51 16.5c-0.00201 8.43-0.00392 17.1-0.00593 25.1 6e-7 2.71 2.21 4.92 4.92 4.92h35.2c2.71 0 4.92-2.21 4.92-4.92v-20.1c0-2.71-2.21-5-4.92-5z" fill="url(#a)"/>
	<path id="path3-3" class="ColorScheme-Text" d="m34.7 32.6c0-0.48 0.39-0.87 0.869-0.87 0.48 0 0.87 0.39 0.87 0.87v3.59l2.82-1.88c0.999-0.666 2.23-0.329 2.76 0.751l0.298 0.617c0.523 1.08 0.143 2.51-0.847 3.18l-6.2 4.24c-0.793 0.541-2.08 0.541-2.87 0l-6.2-4.24c-0.991-0.678-1.37-2.1-0.848-3.18l0.298-0.617c0.523-1.08 1.76-1.42 2.76-0.751l2.82 1.88v-8.81c0-0.48 0.39-0.87 0.87-0.87s0.87 0.39 0.87 0.87v11.2c0 0.48-0.325 0.653-0.724 0.387l-4.36-2.91c-0.399-0.266-0.817-0.134-0.932 0.296-0.116 0.429 0.112 0.998 0.509 1.27l5.66 3.88c0.396 0.271 1.04 0.271 1.44 0l5.66-3.88c0.396-0.271 0.624-0.84 0.509-1.27s-0.533-0.562-0.932-0.296l-4.36 2.91c-0.399 0.266-0.723 0.093-0.723-0.387zm0-3.91c0-0.48 0.39-0.87 0.869-0.87 0.48 0 0.87 0.39 0.87 0.87s-0.39 0.87-0.87 0.87c-0.479 0-0.869-0.39-0.869-0.87z" fill="currentColor" fill-rule="evenodd" style="isolation:isolate"/>
	<path id="path1" d="m34.7 32.6c0-0.48 0.39-0.87 0.869-0.87 0.48 0 0.87 0.39 0.87 0.87v3.59l2.82-1.88c0.999-0.666 2.23-0.329 2.76 0.751l0.298 0.617c0.523 1.08 0.143 2.51-0.847 3.18l-6.2 4.24c-0.793 0.541-2.08 0.541-2.87 0l-6.2-4.24c-0.991-0.678-1.37-2.1-0.848-3.18l0.298-0.617c0.523-1.08 1.76-1.42 2.76-0.751l2.82 1.88v-8.81c0-0.48 0.39-0.87 0.87-0.87s0.87 0.39 0.87 0.87v11.2c0 0.48-0.325 0.653-0.724 0.387l-4.36-2.91c-0.399-0.266-0.817-0.134-0.932 0.296-0.116 0.429 0.112 0.998 0.509 1.27l5.66 3.88c0.396 0.271 1.04 0.271 1.44 0l5.66-3.88c0.396-0.271 0.624-0.84 0.509-1.27s-0.533-0.562-0.932-0.296l-4.36 2.91c-0.399 0.266-0.723 0.093-0.723-0.387zm0-3.91c0-0.48 0.39-0.87 0.869-0.87 0.48 0 0.87 0.39 0.87 0.87s-0.39 0.87-0.87 0.87c-0.479 0-0.869-0.39-0.869-0.87z" fill="#fff" fill-opacity=".2" fill-rule="evenodd" style="isolation:isolate"/>
</svg>
