<?xml version="1.0" encoding="UTF-8"?>
<svg id="svg5" width="48pt" height="48pt" style="isolation:isolate" version="1.1" viewBox="0 0 48 48" xmlns="http://www.w3.org/2000/svg">
	<defs id="defs2">
		<style id="current-color-scheme" type="text/css">.ColorScheme-Text { color:#fff; }
.ColorScheme-Highlight { color:#50c9c3; }
.ColorScheme-HighlightedText { color:#fff }</style>
		<linearGradient id="a" x1="1.5" x2="46" y1="32" y2="32" gradientTransform="translate(-.000766 -.557)" gradientUnits="userSpaceOnUse">
			<stop id="stop1" stop-color="#fff" stop-opacity="0" offset="0"/>
			<stop id="stop2" class="ColorScheme-HighlightedText" stop-color="currentColor" stop-opacity=".4" offset="1"/>
		</linearGradient>
	</defs>
	<path id="path2" class="ColorScheme-Highlight" d="m6.43 11.5c-2.71 0-4.92 2.21-4.92 4.93l-0.00593 25.1c0 2.72 2.21 4.93 4.92 4.93h35.2c2.71 0 4.92-2.21 4.92-4.93v-20.1c0-2.72-2.21-4.93-4.92-4.93h-15.1c-4.02 0-6.53-1.91-9.24-3.82-0.904-0.634-2.52-1.21-3.63-1.21z" fill="currentColor"/>
	<path id="path3" d="m6.52 11.5c-1.41-0.00369-2.69 0.568-3.59 1.45-0.703 2.2 0.405 3.25 2.48 3.55h21.1c-4.02 0-6.43-1.8-9.24-3.8-0.904-0.64-2.52-1.2-3.63-1.2z" fill-opacity=".2"/>
	<path id="path4" class="ColorScheme-HighlightedText" d="m1.51 16.5c-0.00201 8.43-0.00392 17.1-0.00593 25.1 6e-7 2.71 2.21 4.92 4.92 4.92h35.2c2.71 0 4.92-2.21 4.92-4.92v-20.1c0-2.71-2.21-5-4.92-5z" fill="url(#a)"/>
	<path id="pathtext" class="ColorScheme-Text" d="m30 28.6c-0.222 0.136-0.514 0.0661-0.652-0.155-0.138-0.222-0.0697-0.514 0.152-0.651 1.35-0.826 2.89-1.27 4.47-1.27 2.25 0 4.42 0.897 6.01 2.49 1.59 1.6 2.49 3.76 2.49 6.01 0 2.25-0.897 4.42-2.49 6.01-1.6 1.59-3.76 2.49-6.01 2.49-1.63 0-3.24-0.472-4.61-1.36-1.37-0.888-2.46-2.15-3.14-3.64-0.107-0.238-8.94e-4 -0.517 0.236-0.625 0.238-0.108 0.519-0.0036 0.628 0.233 0.595 1.33 1.56 2.45 2.79 3.24 1.22 0.789 2.64 1.21 4.1 1.21 2 0 3.92-0.798 5.34-2.21 1.42-1.42 2.21-3.34 2.21-5.34s-0.798-3.92-2.21-5.34c-1.42-1.42-3.34-2.21-5.34-2.21-1.4 0-2.78 0.388-3.97 1.13zm-3.52 7.48c0.0286 0.258-0.159 0.49-0.418 0.519s-0.493-0.159-0.522-0.42l-0.0474-0.473c-0.0286-0.257 0.159-0.49 0.418-0.519 0.259-0.0286 0.493 0.16 0.522 0.42zm0.0045-2.13c-0.0438 0.256-0.289 0.428-0.545 0.385-0.257-0.0429-0.43-0.288-0.385-0.546l0.0616-0.377c0.0438-0.256 0.289-0.428 0.545-0.385 0.257 0.0429 0.432 0.287 0.39 0.545zm11 2.21c0.245 0.0911 0.37 0.363 0.279 0.607-0.092 0.244-0.365 0.367-0.609 0.276l-4.08-1.53v-4.58c0-0.261 0.211-0.473 0.472-0.473 0.261 0 0.473 0.212 0.473 0.473v3.92z" fill="currentColor" fill-rule="evenodd" stroke-width=".893" style="isolation:isolate"/>
	<path id="path6" d="m30 28.6c-0.222 0.136-0.514 0.0661-0.652-0.155-0.138-0.222-0.0697-0.514 0.152-0.651 1.35-0.826 2.89-1.27 4.47-1.27 2.25 0 4.42 0.897 6.01 2.49 1.59 1.6 2.49 3.76 2.49 6.01 0 2.25-0.897 4.42-2.49 6.01-1.6 1.59-3.76 2.49-6.01 2.49-1.63 0-3.24-0.472-4.61-1.36-1.37-0.888-2.46-2.15-3.14-3.64-0.107-0.238-8.94e-4 -0.517 0.236-0.625 0.238-0.108 0.519-0.0036 0.628 0.233 0.595 1.33 1.56 2.45 2.79 3.24 1.22 0.789 2.64 1.21 4.1 1.21 2 0 3.92-0.798 5.34-2.21 1.42-1.42 2.21-3.34 2.21-5.34s-0.798-3.92-2.21-5.34c-1.42-1.42-3.34-2.21-5.34-2.21-1.4 0-2.78 0.388-3.97 1.13zm-3.52 7.48c0.0286 0.258-0.159 0.49-0.418 0.519s-0.493-0.159-0.522-0.42l-0.0474-0.473c-0.0286-0.257 0.159-0.49 0.418-0.519 0.259-0.0286 0.493 0.16 0.522 0.42zm0.0045-2.13c-0.0438 0.256-0.289 0.428-0.545 0.385-0.257-0.0429-0.43-0.288-0.385-0.546l0.0616-0.377c0.0438-0.256 0.289-0.428 0.545-0.385 0.257 0.0429 0.432 0.287 0.39 0.545zm11 2.21c0.245 0.0911 0.37 0.363 0.279 0.607-0.092 0.244-0.365 0.367-0.609 0.276l-4.08-1.53v-4.58c0-0.261 0.211-0.473 0.472-0.473 0.261 0 0.473 0.212 0.473 0.473v3.92z" fill="#fff" fill-opacity=".2" fill-rule="evenodd" stroke-width=".893" style="isolation:isolate"/>
</svg>
