<?xml version="1.0" encoding="UTF-8"?>
<svg id="svg5" width="48pt" height="48pt" style="isolation:isolate" version="1.1" viewBox="0 0 48 48" xmlns="http://www.w3.org/2000/svg">
	<defs id="defs2">
		<style id="current-color-scheme" type="text/css">.ColorScheme-Text { color:#fff; }
.ColorScheme-Highlight { color:#50c9c3; }
.ColorScheme-HighlightedText { color:#fff }</style>
		<linearGradient id="a" x1="1.5" x2="46" y1="32" y2="32" gradientTransform="translate(-.000766 -.557)" gradientUnits="userSpaceOnUse">
			<stop id="stop1" stop-color="#fff" stop-opacity="0" offset="0"/>
			<stop id="stop2" class="ColorScheme-HighlightedText" stop-color="currentColor" stop-opacity=".4" offset="1"/>
		</linearGradient>
	</defs>
	<path id="path2" class="ColorScheme-Highlight" d="m6.43 11.5c-2.71 0-4.92 2.21-4.92 4.93l-0.00593 25.1c0 2.72 2.21 4.93 4.92 4.93h35.2c2.71 0 4.92-2.21 4.92-4.93v-20.1c0-2.72-2.21-4.93-4.92-4.93h-15.1c-4.02 0-6.53-1.91-9.24-3.82-0.904-0.634-2.52-1.21-3.63-1.21z" fill="currentColor"/>
	<path id="path3" d="m6.52 11.5c-1.41-0.00369-2.69 0.568-3.59 1.45-0.703 2.2 0.405 3.25 2.48 3.55h21.1c-4.02 0-6.43-1.8-9.24-3.8-0.904-0.64-2.52-1.2-3.63-1.2z" fill-opacity=".2"/>
	<path id="path4" class="ColorScheme-HighlightedText" d="m1.51 16.5c-0.00201 8.43-0.00392 17.1-0.00593 25.1 6e-7 2.71 2.21 4.92 4.92 4.92h35.2c2.71 0 4.92-2.21 4.92-4.92v-20.1c0-2.71-2.21-5-4.92-5z" fill="url(#a)"/>
	<path id="pathtext" class="ColorScheme-Text" d="m29 28.1c-0.81-0.0228-1.37 0.8-1.26 1.56 0.0035 2.6-7e-3 5.21 0.0053 7.81 0.0332 0.849 0.716 1.48 1.48 1.72 1.28 0.54 2.57 1.1 3.85 1.63 0.861 0.313 1.77-0.529 1.64-1.41v-7.68c0.318-0.714 1.38-0.738 2-1.16 0.697-0.189 1.55-0.939 2.16-0.755v7.43c-0.0603 0.472-0.635 0.494-0.973 0.703-0.694 0.325-1.42 0.599-2.09 0.957-0.709 0.509 0.0913 1.69 0.824 1.2 0.872-0.37 1.74-0.741 2.62-1.11 0.591-0.35 1.1-1.02 1.03-1.76-0.0043-2.66 0.0087-5.32-0.0065-7.98-0.0513-0.9-1.15-1.45-1.91-0.981-1.39 0.605-2.81 1.16-4.19 1.8-0.738 0.417-0.937 1.3-0.873 2.08v7.01c-0.163 0.306-0.515-0.0866-0.76-0.131-1.06-0.473-2.12-0.946-3.18-1.42-0.369-0.275-0.165-0.793-0.218-1.19v-6.6c0.595-0.252 1.46 0.606 2.15 0.753 0.756 0.62 1.72-0.73 0.837-1.23-0.957-0.412-1.91-0.848-2.88-1.21l-0.124-0.0193-0.127-0.0066zm-2.78 2.55c-0.661-0.0046-0.755 0.709-0.705 1.22 0.0031 2.43-0.0062 4.86 0.0047 7.29 0.0334 0.833 0.695 1.48 1.46 1.71 1.91 0.782 3.81 1.6 5.73 2.36 1.16 0.407 2.44 0.178 3.51-0.372l5.56-2.42c0.598-0.421 0.8-1.16 0.734-1.86-0.0094-1.69 0.0189-3.39-0.0143-5.08-0.166-0.937-1.61-0.569-1.39 0.326-0.0096 1.75 0.0193 3.49-0.0144 5.24-0.186 0.381-0.686 0.406-1.03 0.606-1.72 0.728-3.42 1.5-5.15 2.2-0.972 0.356-1.97-0.0109-2.85-0.429-1.65-0.711-3.3-1.42-4.95-2.13-0.343-0.286-0.148-0.785-0.199-1.18-0.0094-2.3 0.0189-4.6-0.0143-6.9-0.0602-0.321-0.36-0.576-0.689-0.57zm15.6 0c-1.2 0.0012-0.612 1.99 0.394 1.31 0.572-0.362 0.288-1.33-0.394-1.31z"  fill="currentColor" style="-inkscape-stroke:none;isolation:isolate"/>
	<path id="path14" d="m29 28.1c-0.81-0.0228-1.37 0.8-1.26 1.56 0.0035 2.6-7e-3 5.21 0.0053 7.81 0.0332 0.849 0.716 1.48 1.48 1.72 1.28 0.54 2.57 1.1 3.85 1.63 0.861 0.313 1.77-0.529 1.64-1.41v-7.68c0.318-0.714 1.38-0.738 2-1.16 0.697-0.189 1.55-0.939 2.16-0.755v7.43c-0.0603 0.472-0.635 0.494-0.973 0.703-0.694 0.325-1.42 0.599-2.09 0.957-0.709 0.509 0.0913 1.69 0.824 1.2 0.872-0.37 1.74-0.741 2.62-1.11 0.591-0.35 1.1-1.02 1.03-1.76-0.0043-2.66 0.0087-5.32-0.0065-7.98-0.0513-0.9-1.15-1.45-1.91-0.981-1.39 0.605-2.81 1.16-4.19 1.8-0.738 0.417-0.937 1.3-0.873 2.08v7.01c-0.163 0.306-0.515-0.0866-0.76-0.131-1.06-0.473-2.12-0.946-3.18-1.42-0.369-0.275-0.165-0.793-0.218-1.19v-6.6c0.595-0.252 1.46 0.606 2.15 0.753 0.756 0.62 1.72-0.73 0.837-1.23-0.957-0.412-1.91-0.848-2.88-1.21l-0.124-0.0193-0.127-0.0066zm-2.78 2.55c-0.661-0.0046-0.755 0.709-0.705 1.22 0.0031 2.43-0.0062 4.86 0.0047 7.29 0.0334 0.833 0.695 1.48 1.46 1.71 1.91 0.782 3.81 1.6 5.73 2.36 1.16 0.407 2.44 0.178 3.51-0.372l5.56-2.42c0.598-0.421 0.8-1.16 0.734-1.86-0.0094-1.69 0.0189-3.39-0.0143-5.08-0.166-0.937-1.61-0.569-1.39 0.326-0.0096 1.75 0.0193 3.49-0.0144 5.24-0.186 0.381-0.686 0.406-1.03 0.606-1.72 0.728-3.42 1.5-5.15 2.2-0.972 0.356-1.97-0.0109-2.85-0.429-1.65-0.711-3.3-1.42-4.95-2.13-0.343-0.286-0.148-0.785-0.199-1.18-0.0094-2.3 0.0189-4.6-0.0143-6.9-0.0602-0.321-0.36-0.576-0.689-0.57zm15.6 0c-1.2 0.0012-0.612 1.99 0.394 1.31 0.572-0.362 0.288-1.33-0.394-1.31z"  fill="#fff" fill-opacity=".2" style="-inkscape-stroke:none;isolation:isolate"/>
</svg>
