<?xml version="1.0" encoding="UTF-8"?>
<svg id="svg5" width="48pt" height="48pt" style="isolation:isolate" version="1.1" viewBox="0 0 48 48" xmlns="http://www.w3.org/2000/svg">
	<defs id="defs2">
		<style id="current-color-scheme" type="text/css">.ColorScheme-Text { color:#fff; }
.ColorScheme-Highlight { color:#50c9c3; }
.ColorScheme-HighlightedText { color:#fff }</style>
		<linearGradient id="a" x1="1.5" x2="46" y1="32" y2="32" gradientTransform="translate(-.000766 -.557)" gradientUnits="userSpaceOnUse">
			<stop id="stop1" stop-color="#fff" stop-opacity="0" offset="0"/>
			<stop id="stop2" class="ColorScheme-HighlightedText" stop-color="currentColor" stop-opacity=".4" offset="1"/>
		</linearGradient>
	</defs>
	<path id="path2" class="ColorScheme-Highlight" d="m6.43 11.5c-2.71 0-4.92 2.21-4.92 4.93l-0.00593 25.1c0 2.72 2.21 4.93 4.92 4.93h35.2c2.71 0 4.92-2.21 4.92-4.93v-20.1c0-2.72-2.21-4.93-4.92-4.93h-15.1c-4.02 0-6.53-1.91-9.24-3.82-0.904-0.634-2.52-1.21-3.63-1.21z" fill="currentColor"/>
	<path id="path3" d="m6.52 11.5c-1.41-0.00369-2.69 0.568-3.59 1.45-0.703 2.2 0.405 3.25 2.48 3.55h21.1c-4.02 0-6.43-1.8-9.24-3.8-0.904-0.64-2.52-1.2-3.63-1.2z" fill-opacity=".2"/>
	<path id="path4" class="ColorScheme-HighlightedText" d="m1.51 16.5c-0.00201 8.43-0.00392 17.1-0.00593 25.1 6e-7 2.71 2.21 4.92 4.92 4.92h35.2c2.71 0 4.92-2.21 4.92-4.92v-20.1c0-2.71-2.21-5-4.92-5z" fill="url(#a)"/>
	<path id="pathtext" class="ColorScheme-Text" d="m42.1 26.5c-0.0743-7.8e-4 -0.151 0.0197-0.222 0.0655-0.0384 0.0266-0.205 0.226-0.369 0.445l-0.298 0.401-0.108-0.0738c-0.151-0.0997-0.297-0.122-0.433-0.0603-0.0941 0.0424-0.315 0.327-1.76 2.25-0.913 1.21-1.66 2.21-1.65 2.23 0.0018 0.0129 0.373 0.302 0.821 0.639l0.82 0.616 1.08-1.44c0.594-0.791 1.09-1.43 1.1-1.42 0.0384 0.0287 0.108 0.649 0.0946 0.849-0.0055 0.109-0.0462 0.305-0.0883 0.434-0.0751 0.232-0.0832 0.246-1.42 2.03-0.74 0.988-1.36 1.83-1.37 1.86-0.0318 0.0914 0.0035 0.263 0.0727 0.361 0.116 0.165 0.402 0.218 0.564 0.0998 0.112-0.0819 2.76-3.65 2.85-3.83 0.246-0.53 0.297-1.21 0.141-1.88-0.0615-0.265-0.142-0.52-0.22-0.701-0.0228-0.0495 0.0152-0.113 0.263-0.446 0.234-0.318 0.288-0.407 0.292-0.489 0.0093-0.175-0.0443-0.273-0.216-0.406l-0.16-0.125 0.318-0.427c0.261-0.353 0.317-0.446 0.321-0.528 0.0118-0.262-0.191-0.455-0.414-0.457zm-5.36 5.92c-0.0078 0.0011-0.981 1.29-2.16 2.87-1.9 2.54-2.17 2.91-2.35 3.23-0.349 0.642-0.728 1.62-0.98 2.52-0.163 0.574-0.172 0.522 0.0561 0.4 0.702-0.379 1.62-0.995 2.15-1.45 0.522-0.443 0.611-0.556 2.82-3.5l2.13-2.83-0.826-0.62c-0.454-0.341-0.831-0.619-0.839-0.618zm0.239 6.57c-0.104-0.0059-0.212-0.0026-0.282 0.0114v0.0011c-0.33 0.0697-0.698 0.356-0.876 0.686-0.0479 0.0857-0.124 0.28-0.171 0.426-0.0447 0.149-0.0862 0.273-0.0894 0.276-0.0255 0.0319-0.657 0.183-1.03 0.247-0.873 0.153-1.11 0.21-1.2 0.289-0.168 0.155-0.0378 0.312 0.201 0.242 0.0633-0.0192 0.333-0.0727 0.593-0.117 0.261-0.0447 0.657-0.127 0.882-0.178 0.226-0.0537 0.416-0.0896 0.426-0.08 0.0096 0.0096-0.0282 0.19-0.0883 0.403l-0.108 0.381-0.239 0.105c-0.13 0.0569-0.317 0.155-0.416 0.222-0.298 0.197-0.356 0.444-0.147 0.603 0.114 0.0857 0.432 0.0825 0.629-0.0031 0.175-0.0793 0.273-0.19 0.409-0.479 0.0729-0.15 0.13-0.228 0.175-0.238 0.0351-0.0096 0.35-0.0731 0.699-0.147 0.35-0.0697 0.667-0.137 0.708-0.147 0.0665-0.016 0.0732-0.0097 0.054 0.0509-0.0128 0.0383-0.0703 0.15-0.131 0.248-0.0601 0.0984-0.108 0.216-0.108 0.263 0 0.0984 0.0831 0.197 0.15 0.171 0.0255-0.0096 0.0599-0.0187 0.0759-0.0187s0.0862-0.051 0.156-0.114c0.13-0.118 0.445-0.693 0.445-0.814 0-0.0601 0.0477-0.0754 0.0759-0.0281 0.0096 0.016 0.0818 0.0448 0.161 0.0634 0.111 0.0287 0.143 0.0502 0.143 0.101 0 0.0984 0.162 0.242 0.306 0.27 0.111 0.0192 0.254-0.0032 0.406-0.0665 0.0537-0.0224 0.0571-0.016 0.0384 0.0665-0.0128 0.0511-0.105 0.213-0.204 0.363-0.21 0.311-0.463 0.806-0.53 1.03-0.0537 0.187-0.0319 0.327 0.0665 0.394 0.0888 0.0569 0.235 0.031 0.311-0.052 0.0665-0.0729 0.429-0.838 0.562-1.19 0.0952-0.245 0.139-0.312 0.355-0.54 0.178-0.187 0.236-0.232 0.197-0.159-0.0633 0.137-0.0604 0.241 0.0094 0.304 0.149 0.137 0.365 0.0033 0.553-0.34 0.111-0.203 0.194-0.263 0.607-0.457l0.215-0.0987-0.0218 0.117c-0.0128 0.0633-0.086 0.245-0.162 0.4-0.15 0.314-0.177 0.515-0.0883 0.686 0.0601 0.118 0.124 0.121 0.416 0.0197 0.406-0.137 0.937-0.452 1.07-0.633 0.187-0.254 0.245-0.498 0.131-0.581-0.118-0.0857-0.184-0.0509-0.334 0.168-0.2 0.298-0.447 0.531-0.686 0.648-0.111 0.0569-0.21 0.0948-0.219 0.0852-0.0128-0.0128 0.241-0.695 0.377-1.02 0.0287-0.0665 0.052-0.149 0.052-0.184 0-0.0888-0.112-0.19-0.207-0.19-0.0447 0-0.255 0.0853-0.465 0.193-0.435 0.216-0.406 0.235-0.295-0.171 0.0665-0.251 0.0446-0.318-0.108-0.334-0.146-0.016-0.203 0.0324-0.337 0.27-0.0857 0.162-0.2 0.296-0.419 0.499-0.289 0.267-0.302 0.276-0.369 0.229-0.102-0.0729-0.159-0.0632-0.406 0.0603-0.242 0.121-0.321 0.137-0.381 0.0634-0.0511-0.0601 0.0291-0.092 0.471-0.178 0.429-0.0825 0.482-0.105 0.482-0.194 0-0.143-0.118-0.279-0.327-0.371-0.362-0.162-0.403-0.172-0.561-0.131-0.171 0.0447-0.426 0.289-0.46 0.442-0.0351 0.159-0.143 0.111-0.143-0.0634 0-0.0729-0.0892-0.257-0.14-0.289-0.108-0.0729-0.282 0.0862-0.416 0.378l-0.105 0.225-0.235 0.0509c-0.305 0.0665-1.19 0.244-1.31 0.267-0.0761 0.0128-0.0887 0.0062-0.0727-0.0384 0.0128-0.0319 0.0506-0.171 0.0883-0.314 0.0984-0.394 0.128-0.445 0.27-0.496 0.171-0.0601 0.75-0.308 0.899-0.384 0.0697-0.0351 0.212-0.143 0.317-0.238 0.321-0.298 0.371-0.575 0.142-0.778-0.0633-0.0537-0.146-0.111-0.184-0.127-0.0585-0.0224-0.16-0.0377-0.264-0.0436zm-0.32 0.371c0.0441-0.0025 0.0963-8.52e-4 0.162 0.0031 0.168 0.0096 0.235 0.0253 0.283 0.0759 0.0633 0.0633 0.0632 0.0663 0.0062 0.187-0.0383 0.0761-0.127 0.166-0.238 0.242-0.194 0.134-0.801 0.378-0.82 0.334-0.0255-0.0729 0.169-0.509 0.293-0.648 0.124-0.14 0.182-0.186 0.314-0.193zm-1.63 2.66c0.0242 0.0016 0.0246 0.0227 0.0042 0.0624-0.0415 0.0793-0.15 0.137-0.21 0.114-0.0697-0.0287-0.0509-0.0662 0.0603-0.124 0.0732-0.0364 0.121-0.0546 0.145-0.053z"  fill="currentColor" style="isolation:isolate"/>
	<path id="path6" class="ColorScheme-Text" d="m42.1 26.5c-0.0743-7.8e-4 -0.151 0.0197-0.222 0.0655-0.0384 0.0266-0.205 0.226-0.369 0.445l-0.298 0.401-0.108-0.0738c-0.151-0.0997-0.297-0.122-0.433-0.0603-0.0941 0.0424-0.315 0.327-1.76 2.25-0.913 1.21-1.66 2.21-1.65 2.23 0.0018 0.0129 0.373 0.302 0.821 0.639l0.82 0.616 1.08-1.44c0.594-0.791 1.09-1.43 1.1-1.42 0.0384 0.0287 0.108 0.649 0.0946 0.849-0.0055 0.109-0.0462 0.305-0.0883 0.434-0.0751 0.232-0.0832 0.246-1.42 2.03-0.74 0.988-1.36 1.83-1.37 1.86-0.0318 0.0914 0.0035 0.263 0.0727 0.361 0.116 0.165 0.402 0.218 0.564 0.0998 0.112-0.0819 2.76-3.65 2.85-3.83 0.246-0.53 0.297-1.21 0.141-1.88-0.0615-0.265-0.142-0.52-0.22-0.701-0.0228-0.0495 0.0152-0.113 0.263-0.446 0.234-0.318 0.288-0.407 0.292-0.489 0.0093-0.175-0.0443-0.273-0.216-0.406l-0.16-0.125 0.318-0.427c0.261-0.353 0.317-0.446 0.321-0.528 0.0118-0.262-0.191-0.455-0.414-0.457zm-5.36 5.92c-0.0078 0.0011-0.981 1.29-2.16 2.87-1.9 2.54-2.17 2.91-2.35 3.23-0.349 0.642-0.728 1.62-0.98 2.52-0.163 0.574-0.172 0.522 0.0561 0.4 0.702-0.379 1.62-0.995 2.15-1.45 0.522-0.443 0.611-0.556 2.82-3.5l2.13-2.83-0.826-0.62c-0.454-0.341-0.831-0.619-0.839-0.618zm0.239 6.57c-0.104-0.0059-0.212-0.0026-0.282 0.0114v0.0011c-0.33 0.0697-0.698 0.356-0.876 0.686-0.0479 0.0857-0.124 0.28-0.171 0.426-0.0447 0.149-0.0862 0.273-0.0894 0.276-0.0255 0.0319-0.657 0.183-1.03 0.247-0.873 0.153-1.11 0.21-1.2 0.289-0.168 0.155-0.0378 0.312 0.201 0.242 0.0633-0.0192 0.333-0.0727 0.593-0.117 0.261-0.0447 0.657-0.127 0.882-0.178 0.226-0.0537 0.416-0.0896 0.426-0.08 0.0096 0.0096-0.0282 0.19-0.0883 0.403l-0.108 0.381-0.239 0.105c-0.13 0.0569-0.317 0.155-0.416 0.222-0.298 0.197-0.356 0.444-0.147 0.603 0.114 0.0857 0.432 0.0825 0.629-0.0031 0.175-0.0793 0.273-0.19 0.409-0.479 0.0729-0.15 0.13-0.228 0.175-0.238 0.0351-0.0096 0.35-0.0731 0.699-0.147 0.35-0.0697 0.667-0.137 0.708-0.147 0.0665-0.016 0.0732-0.0097 0.054 0.0509-0.0128 0.0383-0.0703 0.15-0.131 0.248-0.0601 0.0984-0.108 0.216-0.108 0.263 0 0.0984 0.0831 0.197 0.15 0.171 0.0255-0.0096 0.0599-0.0187 0.0759-0.0187s0.0862-0.051 0.156-0.114c0.13-0.118 0.445-0.693 0.445-0.814 0-0.0601 0.0477-0.0754 0.0759-0.0281 0.0096 0.016 0.0818 0.0448 0.161 0.0634 0.111 0.0287 0.143 0.0502 0.143 0.101 0 0.0984 0.162 0.242 0.306 0.27 0.111 0.0192 0.254-0.0032 0.406-0.0665 0.0537-0.0224 0.0571-0.016 0.0384 0.0665-0.0128 0.0511-0.105 0.213-0.204 0.363-0.21 0.311-0.463 0.806-0.53 1.03-0.0537 0.187-0.0319 0.327 0.0665 0.394 0.0888 0.0569 0.235 0.031 0.311-0.052 0.0665-0.0729 0.429-0.838 0.562-1.19 0.0952-0.245 0.139-0.312 0.355-0.54 0.178-0.187 0.236-0.232 0.197-0.159-0.0633 0.137-0.0604 0.241 0.0094 0.304 0.149 0.137 0.365 0.0033 0.553-0.34 0.111-0.203 0.194-0.263 0.607-0.457l0.215-0.0987-0.0218 0.117c-0.0128 0.0633-0.086 0.245-0.162 0.4-0.15 0.314-0.177 0.515-0.0883 0.686 0.0601 0.118 0.124 0.121 0.416 0.0197 0.406-0.137 0.937-0.452 1.07-0.633 0.187-0.254 0.245-0.498 0.131-0.581-0.118-0.0857-0.184-0.0509-0.334 0.168-0.2 0.298-0.447 0.531-0.686 0.648-0.111 0.0569-0.21 0.0948-0.219 0.0852-0.0128-0.0128 0.241-0.695 0.377-1.02 0.0287-0.0665 0.052-0.149 0.052-0.184 0-0.0888-0.112-0.19-0.207-0.19-0.0447 0-0.255 0.0853-0.465 0.193-0.435 0.216-0.406 0.235-0.295-0.171 0.0665-0.251 0.0446-0.318-0.108-0.334-0.146-0.016-0.203 0.0324-0.337 0.27-0.0857 0.162-0.2 0.296-0.419 0.499-0.289 0.267-0.302 0.276-0.369 0.229-0.102-0.0729-0.159-0.0632-0.406 0.0603-0.242 0.121-0.321 0.137-0.381 0.0634-0.0511-0.0601 0.0291-0.092 0.471-0.178 0.429-0.0825 0.482-0.105 0.482-0.194 0-0.143-0.118-0.279-0.327-0.371-0.362-0.162-0.403-0.172-0.561-0.131-0.171 0.0447-0.426 0.289-0.46 0.442-0.0351 0.159-0.143 0.111-0.143-0.0634 0-0.0729-0.0892-0.257-0.14-0.289-0.108-0.0729-0.282 0.0862-0.416 0.378l-0.105 0.225-0.235 0.0509c-0.305 0.0665-1.19 0.244-1.31 0.267-0.0761 0.0128-0.0887 0.0062-0.0727-0.0384 0.0128-0.0319 0.0506-0.171 0.0883-0.314 0.0984-0.394 0.128-0.445 0.27-0.496 0.171-0.0601 0.75-0.308 0.899-0.384 0.0697-0.0351 0.212-0.143 0.317-0.238 0.321-0.298 0.371-0.575 0.142-0.778-0.0633-0.0537-0.146-0.111-0.184-0.127-0.0585-0.0224-0.16-0.0377-0.264-0.0436zm-0.32 0.371c0.0441-0.0025 0.0963-8.52e-4 0.162 0.0031 0.168 0.0096 0.235 0.0253 0.283 0.0759 0.0633 0.0633 0.0632 0.0663 0.0062 0.187-0.0383 0.0761-0.127 0.166-0.238 0.242-0.194 0.134-0.801 0.378-0.82 0.334-0.0255-0.0729 0.169-0.509 0.293-0.648 0.124-0.14 0.182-0.186 0.314-0.193zm-1.63 2.66c0.0242 0.0016 0.0246 0.0227 0.0042 0.0624-0.0415 0.0793-0.15 0.137-0.21 0.114-0.0697-0.0287-0.0509-0.0662 0.0603-0.124 0.0732-0.0364 0.121-0.0546 0.145-0.053z"  fill="#fff" fill-opacity=".2" style="isolation:isolate"/>
</svg>
