<?xml version="1.0" encoding="UTF-8"?>
<svg id="svg5" width="48pt" height="48pt" style="isolation:isolate" version="1.1" viewBox="0 0 48 48" xmlns="http://www.w3.org/2000/svg">
	<defs id="defs2">
		<style id="current-color-scheme" type="text/css">.ColorScheme-Text { color:#fff; }
.ColorScheme-Highlight { color:#50c9c3; }
.ColorScheme-HighlightedText { color:#fff }</style>
		<linearGradient id="a" x1="1.5" x2="46" y1="32" y2="32" gradientTransform="translate(-.000766 -.557)" gradientUnits="userSpaceOnUse">
			<stop id="stop1" stop-color="#fff" stop-opacity="0" offset="0"/>
			<stop id="stop2" class="ColorScheme-HighlightedText" stop-color="currentColor" stop-opacity=".4" offset="1"/>
		</linearGradient>
	</defs>
	<path id="path2" class="ColorScheme-Highlight" d="m6.43 11.5c-2.71 0-4.92 2.21-4.92 4.93l-0.00593 25.1c0 2.72 2.21 4.93 4.92 4.93h35.2c2.71 0 4.92-2.21 4.92-4.93v-20.1c0-2.72-2.21-4.93-4.92-4.93h-15.1c-4.02 0-6.53-1.91-9.24-3.82-0.904-0.634-2.52-1.21-3.63-1.21z" fill="currentColor"/>
	<path id="path3" d="m6.52 11.5c-1.41-0.00369-2.69 0.568-3.59 1.45-0.703 2.2 0.405 3.25 2.48 3.55h21.1c-4.02 0-6.43-1.8-9.24-3.8-0.904-0.64-2.52-1.2-3.63-1.2z" fill-opacity=".2"/>
	<path id="path4" class="ColorScheme-HighlightedText" d="m1.51 16.5c-0.00201 8.43-0.00392 17.1-0.00593 25.1 6e-7 2.71 2.21 4.92 4.92 4.92h35.2c2.71 0 4.92-2.21 4.92-4.92v-20.1c0-2.71-2.21-5-4.92-5z" fill="url(#a)"/>
	<path id="pathtext" class="ColorScheme-Text" d="m33.3 28c0.408 0 0.739-0.331 0.739-0.739s-0.331-0.739-0.739-0.739h-5.95c-1.02 0-1.85 0.828-1.85 1.85v13.3c0 1.02 0.828 1.85 1.85 1.85h13.3c1.02 0 1.85-0.828 1.85-1.85v-7.36c0-0.408-0.331-0.739-0.739-0.739h-4.84c-0.204 0-0.369-0.166-0.369-0.37v-3.3c0-0.204 0.129-0.266 0.288-0.139l3.72 2.97c0.318 0.255 0.783 0.203 1.04-0.115s0.204-0.783-0.114-1.04l-5.54-4.43c-0.478-0.382-0.866-0.195-0.866 0.417v6.38c0 0.611 0.497 1.11 1.11 1.11h4.1c0.408 0 0.739 0.331 0.739 0.739v5.14c0 0.612-0.497 1.11-1.11 1.11h-11.8c-0.612 0-1.11-0.497-1.11-1.11v-11.8c0-0.612 0.497-1.11 1.11-1.11zm-0.632 11.6h-3.28v-3.28zm2.31 1.11h-6.33c-0.204 0-0.369-0.165-0.369-0.369v-6.33c0-0.204 0.117-0.253 0.261-0.109l6.54 6.54c0.144 0.144 0.095 0.261-0.109 0.261z" fill="currentColor" fill-rule="evenodd" style="isolation:isolate"/>
	<path id="path6" d="m33.3 28c0.408 0 0.739-0.331 0.739-0.739s-0.331-0.739-0.739-0.739h-5.95c-1.02 0-1.85 0.828-1.85 1.85v13.3c0 1.02 0.828 1.85 1.85 1.85h13.3c1.02 0 1.85-0.828 1.85-1.85v-7.36c0-0.408-0.331-0.739-0.739-0.739h-4.84c-0.204 0-0.369-0.166-0.369-0.37v-3.3c0-0.204 0.129-0.266 0.288-0.139l3.72 2.97c0.318 0.255 0.783 0.203 1.04-0.115s0.204-0.783-0.114-1.04l-5.54-4.43c-0.478-0.382-0.866-0.195-0.866 0.417v6.38c0 0.611 0.497 1.11 1.11 1.11h4.1c0.408 0 0.739 0.331 0.739 0.739v5.14c0 0.612-0.497 1.11-1.11 1.11h-11.8c-0.612 0-1.11-0.497-1.11-1.11v-11.8c0-0.612 0.497-1.11 1.11-1.11zm-0.632 11.6h-3.28v-3.28zm2.31 1.11h-6.33c-0.204 0-0.369-0.165-0.369-0.369v-6.33c0-0.204 0.117-0.253 0.261-0.109l6.54 6.54c0.144 0.144 0.095 0.261-0.109 0.261z" fill="#fff" fill-opacity=".2" fill-rule="evenodd" style="isolation:isolate"/>
</svg>
