<?xml version="1.0" encoding="UTF-8"?>
<svg id="svg5" width="48pt" height="48pt" style="isolation:isolate" version="1.1" viewBox="0 0 48 48" xmlns="http://www.w3.org/2000/svg">
	<defs id="defs2">
		<style id="current-color-scheme" type="text/css">.ColorScheme-Text { color:#fff; }
.ColorScheme-Highlight { color:#50c9c3; }
.ColorScheme-HighlightedText { color:#fff }</style>
		<linearGradient id="a" x1="1.5" x2="46" y1="32" y2="32" gradientTransform="translate(-.000766 -.557)" gradientUnits="userSpaceOnUse">
			<stop id="stop1" stop-color="#fff" stop-opacity="0" offset="0"/>
			<stop id="stop2" class="ColorScheme-HighlightedText" stop-color="currentColor" stop-opacity=".4" offset="1"/>
		</linearGradient>
	</defs>
	<path id="path2" class="ColorScheme-Highlight" d="m6.43 11.5c-2.71 0-4.92 2.21-4.92 4.93l-0.00593 25.1c0 2.72 2.21 4.93 4.92 4.93h35.2c2.71 0 4.92-2.21 4.92-4.93v-20.1c0-2.72-2.21-4.93-4.92-4.93h-15.1c-4.02 0-6.53-1.91-9.24-3.82-0.904-0.634-2.52-1.21-3.63-1.21z" fill="currentColor"/>
	<path id="path3" d="m6.52 11.5c-1.41-0.00369-2.69 0.568-3.59 1.45-0.703 2.2 0.405 3.25 2.48 3.55h21.1c-4.02 0-6.43-1.8-9.24-3.8-0.904-0.64-2.52-1.2-3.63-1.2z" fill-opacity=".2"/>
	<path id="path4" class="ColorScheme-HighlightedText" d="m1.51 16.5c-0.00201 8.43-0.00392 17.1-0.00593 25.1 6e-7 2.71 2.21 4.92 4.92 4.92h35.2c2.71 0 4.92-2.21 4.92-4.92v-20.1c0-2.71-2.21-5-4.92-5z" fill="url(#a)"/>
	<path id="pathtext" class="ColorScheme-Text" d="m31.7 31.5h5.02v-3.48c0-0.213-0.173-0.386-0.386-0.386h-4.25c-0.213 0-0.386 0.173-0.386 0.386v3.28zm0.58 7.92h3.09c0.213 0 0.386 0.173 0.386 0.386 0 0.213-0.173 0.386-0.386 0.386h-3.09c-0.213 0-0.386-0.173-0.386-0.386 0-0.213 0.173-0.386 0.386-0.386zm-0.966-0.966h5.8v3.48c0 0.213-0.173 0.386-0.386 0.386h-5.02c-0.213 0-0.386-0.173-0.386-0.386zm-0.773-6.95h-3.48c-0.64 0-1.16 0.519-1.16 1.16v7.34c0 0.64 0.519 1.16 1.16 1.16h1.74c0.32 0 0.58-0.26 0.58-0.58s-0.26-0.58-0.58-0.58h-1.35c-0.213 0-0.386-0.173-0.386-0.386v-6.57c0-0.213 0.173-0.386 0.386-0.386h13.5c0.213 0 0.386 0.173 0.386 0.386v6.57c0 0.213-0.173 0.386-0.386 0.386h-1.35c-0.32 0-0.58 0.26-0.58 0.58s0.26 0.58 0.58 0.58h1.74c0.64 0 1.16-0.519 1.16-1.16v-7.34c0-0.64-0.519-1.16-1.16-1.16h-3.48v-4.25c0-0.427-0.346-0.773-0.773-0.773h-5.8c-0.427 0-0.773 0.346-0.773 0.773v4.06zm0 5.8h7.34c0.213 0 0.386 0.173 0.386 0.386v4.64c0 0.64-0.519 1.16-1.16 1.16h-5.8c-0.64 0-1.16-0.519-1.16-1.16v-4.64c0-0.213 0.173-0.386 0.386-0.386zm1.65 3.67h1.72c0.165 0 0.299 0.134 0.299 0.299v0.174c0 0.165-0.134 0.299-0.299 0.299h-1.72c-0.165 0-0.299-0.134-0.299-0.299v-0.174c0-0.165 0.134-0.299 0.299-0.299z" fill="currentColor" fill-rule="evenodd" stroke-width=".386" style="isolation:isolate"/>
	<path id="path6" d="m31.7 31.5h5.02v-3.48c0-0.213-0.173-0.386-0.386-0.386h-4.25c-0.213 0-0.386 0.173-0.386 0.386v3.28zm0.58 7.92h3.09c0.213 0 0.386 0.173 0.386 0.386 0 0.213-0.173 0.386-0.386 0.386h-3.09c-0.213 0-0.386-0.173-0.386-0.386 0-0.213 0.173-0.386 0.386-0.386zm-0.966-0.966h5.8v3.48c0 0.213-0.173 0.386-0.386 0.386h-5.02c-0.213 0-0.386-0.173-0.386-0.386zm-0.773-6.95h-3.48c-0.64 0-1.16 0.519-1.16 1.16v7.34c0 0.64 0.519 1.16 1.16 1.16h1.74c0.32 0 0.58-0.26 0.58-0.58s-0.26-0.58-0.58-0.58h-1.35c-0.213 0-0.386-0.173-0.386-0.386v-6.57c0-0.213 0.173-0.386 0.386-0.386h13.5c0.213 0 0.386 0.173 0.386 0.386v6.57c0 0.213-0.173 0.386-0.386 0.386h-1.35c-0.32 0-0.58 0.26-0.58 0.58s0.26 0.58 0.58 0.58h1.74c0.64 0 1.16-0.519 1.16-1.16v-7.34c0-0.64-0.519-1.16-1.16-1.16h-3.48v-4.25c0-0.427-0.346-0.773-0.773-0.773h-5.8c-0.427 0-0.773 0.346-0.773 0.773v4.06zm0 5.8h7.34c0.213 0 0.386 0.173 0.386 0.386v4.64c0 0.64-0.519 1.16-1.16 1.16h-5.8c-0.64 0-1.16-0.519-1.16-1.16v-4.64c0-0.213 0.173-0.386 0.386-0.386zm1.65 3.67h1.72c0.165 0 0.299 0.134 0.299 0.299v0.174c0 0.165-0.134 0.299-0.299 0.299h-1.72c-0.165 0-0.299-0.134-0.299-0.299v-0.174c0-0.165 0.134-0.299 0.299-0.299z" fill="#fff" fill-opacity=".2" fill-rule="evenodd" stroke-width=".386" style="isolation:isolate"/>
</svg>
