<?xml version="1.0" encoding="UTF-8"?>
<svg id="svg5" width="48pt" height="48pt" style="isolation:isolate" version="1.1" viewBox="0 0 48 48" xmlns="http://www.w3.org/2000/svg">
	<defs id="defs2">
		<style id="current-color-scheme" type="text/css">.ColorScheme-Text { color:#fff; }
.ColorScheme-Highlight { color:#50c9c3; }
.ColorScheme-HighlightedText { color:#fff }</style>
		<linearGradient id="a" x1="1.5" x2="46" y1="32" y2="32" gradientTransform="translate(-.000766 -.557)" gradientUnits="userSpaceOnUse">
			<stop id="stop1" stop-color="#fff" stop-opacity="0" offset="0"/>
			<stop id="stop2" class="ColorScheme-HighlightedText" stop-color="currentColor" stop-opacity=".4" offset="1"/>
		</linearGradient>
	</defs>
	<path id="path2" class="ColorScheme-Highlight" d="m6.43 11.5c-2.71 0-4.92 2.21-4.92 4.93l-0.00593 25.1c0 2.72 2.21 4.93 4.92 4.93h35.2c2.71 0 4.92-2.21 4.92-4.93v-20.1c0-2.72-2.21-4.93-4.92-4.93h-15.1c-4.02 0-6.53-1.91-9.24-3.82-0.904-0.634-2.52-1.21-3.63-1.21z" fill="currentColor"/>
	<path id="path3" d="m6.52 11.5c-1.41-0.00369-2.69 0.568-3.59 1.45-0.703 2.2 0.405 3.25 2.48 3.55h21.1c-4.02 0-6.43-1.8-9.24-3.8-0.904-0.64-2.52-1.2-3.63-1.2z" fill-opacity=".2"/>
	<path id="path4" class="ColorScheme-HighlightedText" d="m1.51 16.5c-0.00201 8.43-0.00392 17.1-0.00593 25.1 6e-7 2.71 2.21 4.92 4.92 4.92h35.2c2.71 0 4.92-2.21 4.92-4.92v-20.1c0-2.71-2.21-5-4.92-5z" fill="url(#a)"/>
	<path id="pathtext" class="ColorScheme-Text" d="m26.6 27.3c-0.6 0-1.09 0.499-1.09 1.1v2.94c0 0.606 0.488 1.1 1.09 1.1h14.8c0.6 0 1.09-0.497 1.09-1.1v-2.94c0-0.606-0.487-1.1-1.09-1.1h-14.8zm0 0.996h14.8c0.046 0 0.0908 0.0444 0.0908 0.108v2.94c0 0.064-0.0448 0.107-0.0908 0.107h-14.8c-0.0461 0-0.0923-0.0419-0.0923-0.107v-2.94c0-0.065 0.0462-0.108 0.0923-0.108zm13.4 0.697c-0.484 5.25e-4 -0.881 0.395-0.88 0.879-2.84e-4 0.485 0.397 0.882 0.882 0.882 0.483-0.0015 0.879-0.399 0.879-0.882 2.84e-4 -0.483-0.396-0.877-0.879-0.879h-0.00146zm-13.4 3.83c-0.6 0-1.09 0.496-1.09 1.1v2.94c0 0.606 0.489 1.1 1.09 1.1h14.8c0.6 0 1.09-0.496 1.09-1.1v-2.94c0-0.606-0.487-1.1-1.09-1.1h-14.8zm0 0.996h14.8c0.046 0 0.0908 0.0415 0.0908 0.105v2.94c0 0.064-0.0448 0.105-0.0908 0.105h-14.8c-0.0461 0-0.0923-0.0405-0.0923-0.105v-2.94c0-0.065 0.0462-0.105 0.0923-0.105zm13.4 0.694c-0.484 5.24e-4 -0.881 0.398-0.88 0.882 6.67e-4 0.484 0.398 0.877 0.882 0.876 0.483-0.0015 0.878-0.393 0.879-0.876 2.84e-4 -0.483-0.396-0.88-0.879-0.882h-0.00146zm-13.4 3.83c-0.6 0-1.09 0.5-1.09 1.11v2.94c0 0.606 0.489 1.1 1.09 1.1h14.8c0.6 0 1.09-0.498 1.09-1.1v-2.94c0-0.606-0.487-1.11-1.09-1.11h-14.8zm0 0.999h14.8c0.046 0 0.0908 0.0429 0.0908 0.107v2.94c0 0.0642-0.0447 0.108-0.0908 0.108h-14.8c-0.0462 0-0.0923-0.0432-0.0923-0.108v-2.94c0-0.065 0.0462-0.107 0.0923-0.107zm13.4 0.694c-0.484 5.24e-4 -0.881 0.398-0.88 0.882-2.85e-4 0.485 0.397 0.879 0.882 0.879 0.483-0.0015 0.879-0.396 0.879-0.879 2.83e-4 -0.483-0.396-0.88-0.879-0.882h-0.00146z"  fill="currentColor" style="-inkscape-stroke:none;isolation:isolate"/>
	<path id="path7" d="m26.6 27.3c-0.6 0-1.09 0.499-1.09 1.1v2.94c0 0.606 0.488 1.1 1.09 1.1h14.8c0.6 0 1.09-0.497 1.09-1.1v-2.94c0-0.606-0.487-1.1-1.09-1.1h-14.8zm0 0.996h14.8c0.046 0 0.0908 0.0444 0.0908 0.108v2.94c0 0.064-0.0448 0.107-0.0908 0.107h-14.8c-0.0461 0-0.0923-0.0419-0.0923-0.107v-2.94c0-0.065 0.0462-0.108 0.0923-0.108zm13.4 0.697c-0.484 5.25e-4 -0.881 0.395-0.88 0.879-2.84e-4 0.485 0.397 0.882 0.882 0.882 0.483-0.0015 0.879-0.399 0.879-0.882 2.84e-4 -0.483-0.396-0.877-0.879-0.879h-0.00146zm-13.4 3.83c-0.6 0-1.09 0.496-1.09 1.1v2.94c0 0.606 0.489 1.1 1.09 1.1h14.8c0.6 0 1.09-0.496 1.09-1.1v-2.94c0-0.606-0.487-1.1-1.09-1.1h-14.8zm0 0.996h14.8c0.046 0 0.0908 0.0415 0.0908 0.105v2.94c0 0.064-0.0448 0.105-0.0908 0.105h-14.8c-0.0461 0-0.0923-0.0405-0.0923-0.105v-2.94c0-0.065 0.0462-0.105 0.0923-0.105zm13.4 0.694c-0.484 5.24e-4 -0.881 0.398-0.88 0.882 6.67e-4 0.484 0.398 0.877 0.882 0.876 0.483-0.0015 0.878-0.393 0.879-0.876 2.84e-4 -0.483-0.396-0.88-0.879-0.882h-0.00146zm-13.4 3.83c-0.6 0-1.09 0.5-1.09 1.11v2.94c0 0.606 0.489 1.1 1.09 1.1h14.8c0.6 0 1.09-0.498 1.09-1.1v-2.94c0-0.606-0.487-1.11-1.09-1.11h-14.8zm0 0.999h14.8c0.046 0 0.0908 0.0429 0.0908 0.107v2.94c0 0.0642-0.0447 0.108-0.0908 0.108h-14.8c-0.0462 0-0.0923-0.0432-0.0923-0.108v-2.94c0-0.065 0.0462-0.107 0.0923-0.107zm13.4 0.694c-0.484 5.24e-4 -0.881 0.398-0.88 0.882-2.85e-4 0.485 0.397 0.879 0.882 0.879 0.483-0.0015 0.879-0.396 0.879-0.879 2.83e-4 -0.483-0.396-0.88-0.879-0.882h-0.00146z"  fill="#fff" fill-opacity=".2" style="-inkscape-stroke:none;isolation:isolate"/>
</svg>
