<?xml version="1.0" encoding="UTF-8"?>
<svg id="svg5" width="48pt" height="48pt" style="isolation:isolate" version="1.1" viewBox="0 0 48 48" xmlns="http://www.w3.org/2000/svg">
	<defs id="defs2">
		<style id="current-color-scheme" type="text/css">.ColorScheme-Text { color:#fff; }
.ColorScheme-Highlight { color:#50c9c3; }
.ColorScheme-HighlightedText { color:#fff }</style>
		<linearGradient id="a" x1="1.5" x2="46" y1="32" y2="32" gradientTransform="translate(-.000766 -.557)" gradientUnits="userSpaceOnUse">
			<stop id="stop1" stop-color="#fff" stop-opacity="0" offset="0"/>
			<stop id="stop2" class="ColorScheme-HighlightedText" stop-color="currentColor" stop-opacity=".4" offset="1"/>
		</linearGradient>
	</defs>
	<path id="path2" class="ColorScheme-Highlight" d="m6.43 11.5c-2.71 0-4.92 2.21-4.92 4.93l-0.00593 25.1c0 2.72 2.21 4.93 4.92 4.93h35.2c2.71 0 4.92-2.21 4.92-4.93v-20.1c0-2.72-2.21-4.93-4.92-4.93h-15.1c-4.02 0-6.53-1.91-9.24-3.82-0.904-0.634-2.52-1.21-3.63-1.21z" fill="currentColor"/>
	<path id="path3" d="m6.52 11.5c-1.41-0.00369-2.69 0.568-3.59 1.45-0.703 2.2 0.405 3.25 2.48 3.55h21.1c-4.02 0-6.43-1.8-9.24-3.8-0.904-0.64-2.52-1.2-3.63-1.2z" fill-opacity=".2"/>
	<path id="path4" class="ColorScheme-HighlightedText" d="m1.51 16.5c-0.00201 8.43-0.00392 17.1-0.00593 25.1 6e-7 2.71 2.21 4.92 4.92 4.92h35.2c2.71 0 4.92-2.21 4.92-4.92v-20.1c0-2.71-2.21-5-4.92-5z" fill="url(#a)"/>
	<path id="pathtext" class="ColorScheme-Text" d="m37.2 35.1h-0.406v3.16h-1.42v-2.37h-2.62v2.37h-1.39v-3.16h-0.582l3.27-3.07zm0.25 5.27c0.474-0.303 1.11-0.164 1.41 0.31 0.305 0.474 0.167 1.1-0.307 1.41-0.785 0.509-1.65 0.878-2.56 1.1-2.19 0.54-4.51 0.19-6.43-0.974-1.93-1.16-3.32-3.05-3.86-5.24-0.54-2.19-0.189-4.51 0.974-6.43 1.16-1.93 3.05-3.32 5.24-3.86 2.19-0.54 4.51-0.19 6.43 0.974 1.93 1.16 3.32 3.05 3.86 5.24 0.158 0.641 0.244 1.3 0.247 1.96 0.0079 0.563-0.443 1.02-1.01 1.03-0.563 0.0059-1.03-0.446-1.03-1.01-0.0049-0.503-0.0662-1.01-0.187-1.5-0.411-1.66-1.47-3.1-2.93-3.98-1.47-0.885-3.23-1.15-4.89-0.739-1.66 0.411-3.1 1.47-3.98 2.93-0.885 1.47-1.15 3.23-0.739 4.89s1.47 3.1 2.93 3.98c1.47 0.885 3.23 1.15 4.89 0.739 0.687-0.17 1.35-0.452 1.94-0.838zm-7.15-4.2h-2.22l5.99-5.62 5.76 5.62h-1.96v3.16h-3.56v-2.37h-0.481v2.37h-3.52zm9.43 1.4c0.233-0.51 0.839-0.732 1.35-0.495s0.736 0.844 0.499 1.35c-0.151 0.325-0.318 0.639-0.51 0.939-0.299 0.48-0.93 0.626-1.41 0.327-0.478-0.299-0.623-0.929-0.323-1.41 0.146-0.232 0.277-0.468 0.39-0.72z" fill="currentColor" fill-rule="evenodd" style="isolation:isolate"/>
	<path id="path6" d="m37.2 35.1h-0.406v3.16h-1.42v-2.37h-2.62v2.37h-1.39v-3.16h-0.582l3.27-3.07zm0.25 5.27c0.474-0.303 1.11-0.164 1.41 0.31 0.305 0.474 0.167 1.1-0.307 1.41-0.785 0.509-1.65 0.878-2.56 1.1-2.19 0.54-4.51 0.19-6.43-0.974-1.93-1.16-3.32-3.05-3.86-5.24-0.54-2.19-0.189-4.51 0.974-6.43 1.16-1.93 3.05-3.32 5.24-3.86 2.19-0.54 4.51-0.19 6.43 0.974 1.93 1.16 3.32 3.05 3.86 5.24 0.158 0.641 0.244 1.3 0.247 1.96 0.0079 0.563-0.443 1.02-1.01 1.03-0.563 0.0059-1.03-0.446-1.03-1.01-0.0049-0.503-0.0662-1.01-0.187-1.5-0.411-1.66-1.47-3.1-2.93-3.98-1.47-0.885-3.23-1.15-4.89-0.739-1.66 0.411-3.1 1.47-3.98 2.93-0.885 1.47-1.15 3.23-0.739 4.89s1.47 3.1 2.93 3.98c1.47 0.885 3.23 1.15 4.89 0.739 0.687-0.17 1.35-0.452 1.94-0.838zm-7.15-4.2h-2.22l5.99-5.62 5.76 5.62h-1.96v3.16h-3.56v-2.37h-0.481v2.37h-3.52zm9.43 1.4c0.233-0.51 0.839-0.732 1.35-0.495s0.736 0.844 0.499 1.35c-0.151 0.325-0.318 0.639-0.51 0.939-0.299 0.48-0.93 0.626-1.41 0.327-0.478-0.299-0.623-0.929-0.323-1.41 0.146-0.232 0.277-0.468 0.39-0.72z" fill="#fff" fill-opacity=".2" fill-rule="evenodd" style="isolation:isolate"/>
</svg>
