<?xml version="1.0" encoding="UTF-8"?>
<svg id="svg40" width="64" height="64" version="1.1" xmlns="http://www.w3.org/2000/svg" xmlns:xlink="http://www.w3.org/1999/xlink">
	<defs id="defs5455">
		<style id="current-color-scheme" type="text/css">.ColorScheme-Text { color:#fff; }
.ColorScheme-Highlight { color:#50c9c3; }
.ColorScheme-HighlightedText { color:#fff }</style>
		<linearGradient id="linearGradient27547" x1="1" x2="63" y1="29.5" y2="29.5" gradientUnits="userSpaceOnUse" xlink:href="#linearGradient25266"/>
		<linearGradient id="linearGradient25266">
			<stop id="stop25262" stop-color="#ff2a35" stop-opacity=".188" offset="0"/>
			<stop id="stop25270" stop-color="#1dbd9f" stop-opacity=".318" offset=".181"/>
			<stop id="stop25272" stop-color="#0040f4" stop-opacity=".536" offset=".359"/>
			<stop id="stop25274" stop-color="#8ddb1d" stop-opacity=".306" offset=".549"/>
			<stop id="stop25276" stop-color="#75157a" stop-opacity=".384" offset=".781"/>
			<stop id="stop25264" stop-color="#1bd8ff" stop-opacity=".259" offset="1"/>
		</linearGradient>
		<linearGradient id="linearGradient18" x1="392" x2="432" y1="563" y2="563" gradientTransform="matrix(1 0 0 .977 -380 -491)" gradientUnits="userSpaceOnUse">
			<stop id="stop9" stop-color="#f00" offset="0"/>
			<stop id="stop11" stop-color="#76f834" offset=".12"/>
			<stop id="stop12" stop-color="#fa55ff" offset=".228"/>
			<stop id="stop13" stop-color="#55f0ff" offset=".344"/>
			<stop id="stop14" stop-color="#f4ff55" offset=".47"/>
			<stop id="stop15" stop-color="#ff7834" offset=".569"/>
			<stop id="stop16" stop-color="#3134ff" offset=".692"/>
			<stop id="stop17" stop-color="#ff70be" offset=".801"/>
			<stop id="stop18" stop-color="#00ffc9" offset=".901"/>
			<stop id="stop10" stop-color="#ff4c13" offset="1"/>
		</linearGradient>
		<linearGradient id="linearGradient2" x1="417" x2="417" y1="540" y2="494" gradientTransform="matrix(1 0 0 .977 -385 -466)" gradientUnits="userSpaceOnUse">
			<stop id="stop1" stop-color="#3e7bbf" offset="0"/>
			<stop id="stop4" stop-color="#1d71af" offset=".437"/>
			<stop id="stop3" stop-color="#17888c" offset=".561"/>
			<stop id="stop2" stop-color="#3bb1c4" offset="1"/>
		</linearGradient>
	</defs>
	<path id="pathtext" class="ColorScheme-Highlight" d="m5.5 17c-1.94 0-3.5 1.39-3.5 3.12v17.9h-0.0117v20.9c0 1.73 1.56 3.12 3.5 3.12h53c1.94 0 3.5-1.39 3.5-3.12v-19.4h0.0137v-19.4c0-1.73-1.56-3.12-3.5-3.12z" fill="currentColor" stroke-width=".909"/>
	<path id="path1" d="m5.5 17c-1.94 0-3.5 1.39-3.5 3.12v17.9h-0.0117v20.9c0 1.73 1.56 3.12 3.5 3.12h53c1.94 0 3.5-1.39 3.5-3.12v-19.4h0.0137v-19.4c0-1.73-1.56-3.12-3.5-3.12z" fill="url(#linearGradient2)" opacity=".3" stroke-width=".909"/>
	<g id="g24471" transform="matrix(-.967 0 0 .864 62.9 14)" fill-opacity="0" opacity=".891" stroke="url(#linearGradient27547)" stroke-width=".3">
		<path id="path24401" d="m1.12 35.8c1.74-2.49 3.34-5.09 4.77-7.77 0.747-1.4 1.46-2.83 2.46-4.06s2.35-2.25 3.91-2.52c1.32-0.233 2.71 0.0947 3.87 0.78 1.15 0.686 2.08 1.71 2.78 2.86 1.39 2.3 1.83 5.02 2.39 7.64 0.558 2.62 1.31 5.34 3.14 7.3 0.913 0.984 2.09 1.75 3.4 2.05 1.31 0.302 2.75 0.114 3.87-0.627 0.942-0.625 1.61-1.6 2.07-2.62 0.466-1.03 0.75-2.13 1.08-3.21 0.328-1.08 0.708-2.16 1.34-3.1 0.632-0.936 1.55-1.72 2.64-2 1.04-0.261 2.16-0.0408 3.11 0.441 0.956 0.481 1.77 1.21 2.5 1.99 0.734 0.779 1.4 1.62 2.15 2.39 0.746 0.768 1.58 1.47 2.56 1.91 1.13 0.505 2.42 0.629 3.64 0.428 1.22-0.2 2.38-0.716 3.4-1.42 2.04-1.41 3.47-3.53 4.64-5.72 0.122-0.229 0.244-0.461 0.413-0.657 0.169-0.197 0.394-0.358 0.65-0.399 0.222-0.0364 0.457 0.0228 0.635 0.159 0.178 0.137 0.295 0.348 0.317 0.571"/>
		<path id="path24403" d="m1.12 35.8c1.74-2.49 3.33-5.08 4.76-7.76 0.747-1.4 1.46-2.83 2.46-4.05 1.01-1.23 2.36-2.24 3.92-2.52 1.32-0.231 2.71 0.0986 3.87 0.785 1.16 0.687 2.09 1.71 2.78 2.86 1.39 2.3 1.84 5.01 2.4 7.63 0.559 2.62 1.31 5.32 3.14 7.29 0.915 0.981 2.09 1.74 3.4 2.04 1.31 0.299 2.74 0.108 3.86-0.635 0.941-0.627 1.61-1.6 2.07-2.63 0.467-1.03 0.753-2.13 1.08-3.21 0.329-1.08 0.71-2.16 1.34-3.09 0.633-0.934 1.55-1.72 2.64-1.99 1.04-0.26 2.15-0.0389 3.11 0.443 0.954 0.481 1.76 1.21 2.5 1.99 0.733 0.781 1.4 1.62 2.15 2.39 0.745 0.769 1.58 1.47 2.56 1.91 1.13 0.505 2.41 0.629 3.64 0.429 1.22-0.2 2.38-0.714 3.4-1.42 2.03-1.41 3.46-3.53 4.63-5.71 0.123-0.229 0.244-0.462 0.413-0.659 0.169-0.199 0.393-0.361 0.649-0.405 0.222-0.0407 0.459 0.0142 0.638 0.147 0.18 0.132 0.3 0.341 0.325 0.56"/>
		<path id="path24405" d="m1.12 35.8c1.73-2.48 3.32-5.07 4.75-7.74 0.748-1.39 1.46-2.82 2.47-4.05 1.01-1.22 2.36-2.24 3.92-2.51 1.33-0.227 2.72 0.105 3.87 0.794 1.16 0.689 2.09 1.72 2.79 2.87 1.39 2.29 1.84 5 2.41 7.61 0.561 2.61 1.32 5.3 3.14 7.26 0.918 0.976 2.1 1.73 3.4 2.02 1.31 0.293 2.74 0.0975 3.85-0.649 0.94-0.63 1.61-1.6 2.07-2.63 0.468-1.03 0.757-2.13 1.09-3.21 0.33-1.08 0.713-2.15 1.35-3.08 0.633-0.93 1.55-1.71 2.64-1.98 1.03-0.258 2.15-0.0357 3.1 0.446 0.952 0.482 1.76 1.21 2.49 1.99 0.732 0.783 1.4 1.63 2.14 2.4 0.744 0.771 1.58 1.48 2.56 1.92 1.13 0.505 2.41 0.629 3.63 0.431 1.22-0.199 2.38-0.712 3.39-1.42 2.03-1.41 3.45-3.52 4.62-5.69 0.123-0.23 0.245-0.463 0.414-0.662 0.17-0.201 0.393-0.367 0.648-0.414 0.222-0.0478 0.46-1.82e-4 0.643 0.126 0.183 0.126 0.308 0.327 0.339 0.542"/>
		<path id="path24407" d="m1.12 35.8c1.73-2.48 3.31-5.05 4.73-7.71 0.748-1.39 1.46-2.82 2.47-4.03 1.01-1.22 2.37-2.23 3.93-2.49 1.33-0.222 2.72 0.114 3.88 0.806 1.16 0.691 2.09 1.72 2.8 2.87 1.39 2.29 1.85 4.99 2.42 7.58 0.563 2.6 1.32 5.28 3.13 7.22 0.923 0.969 2.1 1.71 3.41 1.99 1.3 0.285 2.73 0.0827 3.85-0.667 0.938-0.634 1.6-1.61 2.07-2.64s0.763-2.13 1.1-3.21c0.332-1.07 0.717-2.14 1.35-3.07 0.634-0.925 1.55-1.7 2.64-1.97 1.03-0.254 2.14-0.0312 3.09 0.451s1.75 1.21 2.48 1.98c0.731 0.785 1.39 1.63 2.14 2.41 0.742 0.774 1.58 1.48 2.55 1.93 1.12 0.504 2.4 0.63 3.62 0.433s2.37-0.708 3.39-1.41c2.02-1.4 3.44-3.5 4.6-5.67 0.124-0.231 0.246-0.466 0.414-0.665 0.17-0.205 0.392-0.376 0.647-0.427 0.222-0.0578 0.463-0.0203 0.65 0.0959 0.187 0.116 0.319 0.309 0.358 0.517"/>
		<path id="path24409" d="m1.12 35.7c1.72-2.47 3.29-5.03 4.71-7.68 0.749-1.39 1.47-2.81 2.47-4.02 1.02-1.21 2.38-2.21 3.95-2.47 1.33-0.216 2.72 0.126 3.88 0.821s2.1 1.73 2.81 2.87c1.39 2.28 1.86 4.96 2.44 7.55 0.566 2.58 1.33 5.24 3.13 7.17 0.93 0.96 2.11 1.69 3.42 1.96 1.3 0.274 2.73 0.0636 3.83-0.691 0.935-0.64 1.6-1.62 2.07-2.65 0.472-1.04 0.77-2.14 1.12-3.21 0.334-1.07 0.722-2.13 1.36-3.05 0.635-0.919 1.55-1.69 2.63-1.95 1.03-0.25 2.14-0.0254 3.08 0.457s1.75 1.21 2.47 1.98c0.73 0.789 1.39 1.64 2.13 2.42 0.74 0.778 1.57 1.49 2.55 1.94 1.12 0.504 2.39 0.631 3.61 0.436s2.37-0.703 3.38-1.4c2.01-1.39 3.42-3.48 4.57-5.63 0.125-0.232 0.247-0.468 0.415-0.67 0.171-0.21 0.392-0.386 0.645-0.444 0.223-0.0706 0.466-0.0462 0.659 0.0578s0.333 0.286 0.383 0.484"/>
		<path id="path24411" d="m1.12 35.7c1.7-2.45 3.27-5.01 4.69-7.64 0.749-1.38 1.47-2.8 2.48-4 1.03-1.21 2.39-2.2 3.96-2.44 1.33-0.208 2.73 0.14 3.89 0.839s2.11 1.73 2.82 2.88c1.39 2.27 1.87 4.94 2.47 7.51 0.57 2.56 1.33 5.2 3.13 7.11 0.937 0.949 2.12 1.66 3.43 1.92 1.3 0.261 2.72 0.0404 3.82-0.72 0.932-0.647 1.6-1.63 2.07-2.67 0.475-1.04 0.78-2.14 1.14-3.21 0.338-1.06 0.728-2.12 1.36-3.03s1.55-1.67 2.63-1.93c1.03-0.245 2.13-0.0184 3.07 0.465 0.941 0.483 1.74 1.21 2.46 1.98 0.728 0.793 1.38 1.65 2.12 2.43 0.737 0.782 1.57 1.5 2.55 1.95 1.12 0.503 2.38 0.632 3.59 0.439 1.21-0.192 2.36-0.697 3.36-1.39 1.99-1.38 3.4-3.46 4.54-5.59 0.126-0.234 0.249-0.472 0.417-0.675 0.171-0.217 0.391-0.399 0.644-0.465 0.223-0.0863 0.471-0.0778 0.671 0.0113s0.35 0.257 0.413 0.444"/>
		<path id="path24413" d="m1.12 35.6c1.69-2.44 3.25-4.98 4.66-7.59 0.75-1.38 1.47-2.78 2.48-3.97 1.04-1.2 2.41-2.18 3.98-2.42 1.34-0.199 2.74 0.157 3.9 0.861 1.17 0.704 2.11 1.74 2.84 2.89 1.39 2.25 1.89 4.91 2.49 7.45 0.574 2.54 1.34 5.15 3.13 7.04 0.946 0.936 2.14 1.63 3.44 1.87 1.29 0.246 2.7 0.0128 3.8-0.755 0.929-0.655 1.59-1.64 2.07-2.68 0.478-1.04 0.791-2.15 1.16-3.21 0.341-1.05 0.736-2.1 1.37-3.01 0.638-0.903 1.55-1.66 2.63-1.91 1.02-0.24 2.12-0.0101 3.05 0.474s1.73 1.21 2.44 1.98c0.726 0.798 1.38 1.66 2.11 2.44 0.734 0.788 1.56 1.51 2.54 1.96 1.11 0.502 2.37 0.633 3.57 0.443 1.2-0.189 2.35-0.69 3.35-1.38 1.98-1.37 3.37-3.43 4.5-5.55 0.127-0.235 0.251-0.476 0.418-0.682 0.172-0.224 0.39-0.415 0.641-0.489 0.224-0.105 0.476-0.115 0.684-0.0437 0.208 0.0715 0.37 0.223 0.449 0.397"/>
		<path id="path24415" d="m1.12 35.6c1.67-2.43 3.22-4.95 4.62-7.54 0.751-1.37 1.48-2.77 2.49-3.95 1.04-1.19 2.42-2.15 4-2.38 1.34-0.188 2.74 0.177 3.91 0.886 1.17 0.71 2.12 1.75 2.86 2.9 1.39 2.24 1.9 4.88 2.52 7.39 0.579 2.51 1.35 5.09 3.13 6.96 0.957 0.921 2.15 1.59 3.45 1.81 1.29 0.228 2.69-0.019 3.78-0.795 0.925-0.664 1.59-1.66 2.07-2.7 0.482-1.04 0.803-2.15 1.18-3.21 0.345-1.05 0.744-2.09 1.38-2.98 0.639-0.892 1.55-1.63 2.62-1.88 1.02-0.233 2.11-4.89e-4 3.03 0.484 0.929 0.484 1.72 1.21 2.43 1.98 0.723 0.804 1.37 1.67 2.1 2.46 0.73 0.794 1.56 1.53 2.54 1.98 1.1 0.501 2.36 0.634 3.55 0.448 1.2-0.186 2.34-0.682 3.33-1.37 1.96-1.36 3.34-3.39 4.46-5.49 0.129-0.237 0.253-0.48 0.42-0.69 0.173-0.232 0.388-0.433 0.639-0.518 0.224-0.126 0.481-0.158 0.699-0.107 0.218 0.0511 0.393 0.184 0.49 0.342"/>
		<path id="path24417" d="m1.12 35.5c1.66-2.41 3.19-4.91 4.58-7.48 0.752-1.36 1.48-2.75 2.5-3.92 1.06-1.18 2.44-2.13 4.02-2.34 1.35-0.176 2.75 0.199 3.93 0.915s2.14 1.76 2.88 2.91c1.4 2.23 1.92 4.84 2.56 7.33 0.585 2.48 1.36 5.03 3.13 6.86 0.969 0.904 2.17 1.55 3.47 1.74 1.29 0.208 2.68-0.055 3.76-0.84 0.921-0.675 1.58-1.68 2.07-2.72 0.486-1.05 0.818-2.16 1.21-3.21 0.35-1.04 0.754-2.06 1.39-2.94 0.641-0.88 1.55-1.61 2.62-1.85 1.01-0.225 2.09 0.0104 3.01 0.496 0.922 0.485 1.7 1.2 2.41 1.97 0.72 0.81 1.36 1.68 2.09 2.48 0.726 0.801 1.55 1.54 2.53 2 1.1 0.5 2.34 0.635 3.53 0.453s2.32-0.673 3.31-1.36c1.94-1.34 3.3-3.35 4.41-5.43 0.13-0.24 0.255-0.486 0.421-0.698 0.174-0.242 0.387-0.453 0.636-0.55 0.225-0.15 0.488-0.207 0.716-0.179 0.228 0.0281 0.42 0.139 0.536 0.28"/>
		<path id="path24419" d="m1.12 35.4c1.63-2.39 3.15-4.87 4.54-7.41 0.754-1.36 1.49-2.73 2.5-3.89 1.07-1.17 2.46-2.1 4.04-2.3 1.36-0.163 2.76 0.223 3.94 0.947s2.15 1.77 2.91 2.92c1.4 2.21 1.94 4.79 2.6 7.25 0.591 2.44 1.37 4.95 3.13 6.76 0.982 0.885 2.19 1.5 3.48 1.67 1.28 0.186 2.66-0.0952 3.74-0.89 0.916-0.687 1.57-1.69 2.07-2.75 0.491-1.05 0.834-2.16 1.24-3.22 0.355-1.03 0.765-2.04 1.41-2.91 0.643-0.867 1.55-1.58 2.61-1.81 1-0.217 2.08 0.0226 2.99 0.509s1.69 1.2 2.39 1.97c0.717 0.817 1.35 1.7 2.07 2.51 0.721 0.809 1.54 1.56 2.53 2.03 1.09 0.499 2.32 0.637 3.5 0.459s2.31-0.663 3.29-1.34c1.91-1.32 3.26-3.31 4.36-5.36 0.132-0.242 0.258-0.491 0.423-0.708 0.175-0.253 0.386-0.475 0.632-0.586 0.226-0.177 0.495-0.262 0.735-0.259 0.24 0.0023 0.449 0.0893 0.588 0.211"/>
		<path id="path24421" d="m1.12 35.3c1.61-2.37 3.11-4.82 4.49-7.33 0.755-1.35 1.5-2.71 2.51-3.85 1.08-1.16 2.49-2.07 4.07-2.25 1.36-0.148 2.77 0.251 3.96 0.982 1.19 0.732 2.16 1.78 2.93 2.93 1.4 2.19 1.96 4.75 2.64 7.17 0.598 2.4 1.38 4.87 3.13 6.64 0.997 0.864 2.21 1.45 3.5 1.59 1.27 0.161 2.64-0.14 3.71-0.946 0.91-0.7 1.57-1.72 2.06-2.77 0.496-1.06 0.852-2.17 1.28-3.22 0.361-1.01 0.777-2.02 1.42-2.87 0.645-0.853 1.55-1.55 2.61-1.77 0.998-0.208 2.06 0.036 2.97 0.523s1.67 1.2 2.36 1.97c0.713 0.825 1.34 1.71 2.06 2.53 0.716 0.818 1.53 1.58 2.52 2.05 1.08 0.498 2.3 0.639 3.48 0.466 1.17-0.173 2.29-0.652 3.27-1.33 1.89-1.31 3.22-3.26 4.3-5.28 0.134-0.245 0.261-0.498 0.426-0.719 0.176-0.265 0.384-0.5 0.629-0.625 0.226-0.207 0.503-0.322 0.756-0.348 0.254-0.0262 0.482 0.0343 0.646 0.135"/>
		<path id="path24423" d="m1.13 35.2c1.59-2.34 3.07-4.77 4.44-7.25 0.756-1.34 1.51-2.68 2.52-3.81 1.1-1.15 2.51-2.03 4.1-2.2 1.37-0.132 2.78 0.281 3.98 1.02 1.19 0.74 2.18 1.79 2.96 2.94 1.4 2.17 1.99 4.69 2.69 7.08 0.606 2.36 1.39 4.78 3.12 6.51 1.01 0.841 2.24 1.39 3.52 1.5 1.27 0.134 2.62-0.188 3.68-1.01 0.904-0.714 1.56-1.74 2.06-2.8 0.502-1.06 0.871-2.18 1.32-3.22 0.367-1 0.79-1.99 1.44-2.83 0.648-0.837 1.55-1.52 2.6-1.73 0.99-0.197 2.04 0.0507 2.94 0.539 0.896 0.488 1.65 1.2 2.33 1.97 0.709 0.834 1.33 1.73 2.04 2.56 0.711 0.827 1.52 1.6 2.51 2.08 1.07 0.497 2.28 0.641 3.44 0.473s2.28-0.64 3.25-1.31c1.86-1.28 3.17-3.21 4.24-5.2 0.137-0.248 0.264-0.505 0.428-0.731 0.178-0.277 0.382-0.527 0.625-0.669 0.227-0.24 0.511-0.388 0.78-0.445 0.268-0.0574 0.518-0.0259 0.709 0.0514"/>
		<path id="path24425" d="m1.13 35.1c1.56-2.32 3.02-4.71 4.38-7.15 0.758-1.33 1.51-2.65 2.53-3.76 1.11-1.14 2.54-1.99 4.13-2.14 1.38-0.114 2.8 0.313 4 1.06 1.2 0.75 2.19 1.81 3 2.95 1.41 2.15 2.02 4.64 2.74 6.98 0.614 2.31 1.41 4.69 3.12 6.38 1.03 0.816 2.26 1.33 3.55 1.41 1.26 0.105 2.6-0.241 3.65-1.07 0.897-0.73 1.55-1.76 2.06-2.83 0.508-1.07 0.893-2.18 1.36-3.22 0.374-0.987 0.804-1.96 1.45-2.78 0.651-0.82 1.55-1.49 2.59-1.68 0.982-0.186 2.02 0.0667 2.91 0.556 0.886 0.489 1.63 1.2 2.3 1.96 0.705 0.844 1.32 1.75 2.02 2.59 0.704 0.838 1.51 1.62 2.5 2.11 1.05 0.495 2.26 0.643 3.41 0.481s2.26-0.626 3.22-1.29c1.83-1.26 3.12-3.16 4.17-5.11 0.139-0.252 0.268-0.513 0.431-0.744 0.179-0.292 0.38-0.557 0.62-0.716 0.228-0.276 0.521-0.46 0.805-0.551 0.284-0.0912 0.557-0.0914 0.778-0.0394"/>
		<path id="path24427" d="m1.13 35c1.53-2.29 2.97-4.65 4.32-7.06 0.76-1.31 1.52-2.63 2.55-3.72 1.13-1.12 2.57-1.95 4.17-2.08 1.39-0.0948 2.81 0.348 4.02 1.11 1.21 0.76 2.21 1.82 3.03 2.97 1.41 2.12 2.05 4.58 2.8 6.87 0.623 2.26 1.42 4.58 3.12 6.23 1.05 0.789 2.29 1.27 3.57 1.31 1.25 0.0731 2.57-0.299 3.61-1.15 0.89-0.747 1.54-1.79 2.06-2.87 0.515-1.08 0.916-2.19 1.4-3.22 0.382-0.972 0.819-1.92 1.47-2.73 0.654-0.801 1.55-1.45 2.58-1.63 0.973-0.174 2 0.084 2.88 0.575 0.875 0.491 1.61 1.2 2.27 1.96 0.7 0.854 1.31 1.77 2 2.62 0.698 0.849 1.5 1.64 2.5 2.14 1.04 0.494 2.23 0.645 3.37 0.489s2.24-0.612 3.19-1.27c1.79-1.24 3.06-3.09 4.09-5.01 0.142-0.255 0.272-0.521 0.434-0.758 0.181-0.307 0.378-0.589 0.616-0.767 0.229-0.314 0.531-0.538 0.832-0.665 0.301-0.128 0.599-0.162 0.852-0.137"/>
		<path id="path24429" d="m1.13 34.9c1.5-2.26 2.92-4.59 4.25-6.95 0.762-1.3 1.53-2.6 2.56-3.67 1.15-1.11 2.61-1.91 4.21-2.02 1.4-0.0744 2.83 0.386 4.04 1.16 1.21 0.772 2.23 1.84 3.07 2.99 1.41 2.09 2.08 4.51 2.86 6.76 0.633 2.21 1.44 4.47 3.12 6.07 1.07 0.76 2.32 1.19 3.6 1.19 1.25 0.039 2.55-0.36 3.58-1.22 0.883-0.765 1.53-1.82 2.05-2.9 0.522-1.08 0.94-2.2 1.45-3.22 0.39-0.956 0.836-1.89 1.49-2.67 0.657-0.781 1.55-1.41 2.57-1.57 0.964-0.161 1.98 0.103 2.84 0.595 0.863 0.492 1.59 1.2 2.24 1.95 0.695 0.865 1.29 1.8 1.98 2.66 0.691 0.861 1.49 1.67 2.49 2.18 1.03 0.492 2.2 0.647 3.33 0.498s2.21-0.596 3.16-1.24c1.75-1.21 3-3.03 4.01-4.91 0.145-0.259 0.276-0.53 0.437-0.772 0.183-0.323 0.375-0.624 0.611-0.822 0.231-0.356 0.542-0.621 0.861-0.788s0.644-0.238 0.931-0.243"/>
		<path id="path24431" d="m1.13 34.7c1.46-2.22 2.86-4.52 4.18-6.84 0.764-1.29 1.54-2.56 2.57-3.61 1.17-1.09 2.64-1.86 4.25-1.95 1.41-0.0524 2.84 0.426 4.06 1.21 1.22 0.783 2.25 1.86 3.11 3 1.42 2.07 2.11 4.44 2.93 6.63 0.644 2.15 1.45 4.35 3.12 5.89 1.09 0.729 2.35 1.12 3.62 1.08 1.24 0.0025 2.52-0.426 3.54-1.3 0.875-0.785 1.52-1.85 2.05-2.94s0.966-2.21 1.5-3.22c0.398-0.939 0.853-1.85 1.51-2.61 0.66-0.76 1.55-1.36 2.57-1.51 0.953-0.147 1.95 0.122 2.8 0.616s1.56 1.2 2.2 1.95c0.69 0.877 1.28 1.82 1.96 2.69s1.48 1.69 2.48 2.21c1.01 0.49 2.17 0.65 3.29 0.508s2.19-0.58 3.12-1.22c1.72-1.18 2.93-2.96 3.92-4.79 0.148-0.264 0.28-0.539 0.44-0.788 0.184-0.341 0.373-0.66 0.605-0.88 0.232-0.4 0.554-0.71 0.893-0.919s0.692-0.319 1.02-0.355"/>
		<path id="path24433" d="m1.13 34.6c1.43-2.19 2.8-4.44 4.1-6.71 0.766-1.27 1.55-2.53 2.59-3.55 1.19-1.07 2.68-1.81 4.29-1.87 1.42-0.0291 2.86 0.469 4.09 1.27 1.23 0.796 2.27 1.88 3.15 3.02 1.42 2.04 2.15 4.36 2.99 6.5 0.655 2.09 1.47 4.22 3.11 5.71 1.11 0.696 2.38 1.04 3.65 0.95 1.23-0.0363 2.49-0.496 3.49-1.39 0.866-0.805 1.51-1.89 2.05-2.98 0.538-1.1 0.994-2.22 1.56-3.22 0.408-0.921 0.872-1.81 1.54-2.55 0.664-0.737 1.55-1.32 2.56-1.45 0.942-0.133 1.93 0.144 2.76 0.639 0.836 0.495 1.54 1.2 2.17 1.94 0.684 0.89 1.26 1.85 1.94 2.73 0.675 0.888 1.47 1.72 2.46 2.25 1 0.488 2.14 0.653 3.24 0.518 1.1-0.134 2.16-0.562 3.09-1.19 1.67-1.15 2.86-2.88 3.83-4.67 0.152-0.268 0.285-0.549 0.444-0.805 0.186-0.359 0.37-0.699 0.599-0.942 0.233-0.447 0.566-0.805 0.926-1.06 0.36-0.254 0.744-0.405 1.11-0.475"/>
		<path id="path24435" d="m1.13 34.4c1.39-2.15 2.74-4.36 4.02-6.59 0.768-1.26 1.56-2.49 2.6-3.49 1.21-1.05 2.72-1.76 4.34-1.79 1.44-0.0044 2.88 0.515 4.12 1.32 1.24 0.809 2.29 1.9 3.2 3.04 1.43 2 2.19 4.28 3.07 6.36 0.666 2.03 1.49 4.09 3.11 5.52 1.14 0.661 2.42 0.951 3.69 0.816 1.22-0.0774 2.46-0.57 3.45-1.48 0.857-0.827 1.5-1.92 2.04-3.03 0.547-1.11 1.02-2.24 1.61-3.23 0.417-0.901 0.892-1.77 1.56-2.48 0.668-0.713 1.55-1.27 2.54-1.38 0.931-0.117 1.9 0.166 2.72 0.663 0.822 0.497 1.51 1.2 2.12 1.94 0.678 0.903 1.24 1.87 1.91 2.77 0.666 0.902 1.45 1.75 2.45 2.29 0.983 0.486 2.11 0.655 3.2 0.529s2.14-0.543 3.05-1.16c1.63-1.12 2.79-2.81 3.73-4.55 0.155-0.273 0.29-0.56 0.448-0.823 0.188-0.379 0.367-0.741 0.593-1.01 0.234-0.497 0.579-0.905 0.961-1.21 0.382-0.301 0.798-0.497 1.2-0.603"/>
		<path id="path24437" d="m1.13 34.3c1.35-2.11 2.67-4.28 3.93-6.45 0.77-1.24 1.58-2.45 2.62-3.43 1.23-1.03 2.76-1.7 4.39-1.71 1.45 0.0218 2.9 0.563 4.15 1.39 1.25 0.824 2.32 1.92 3.25 3.06 1.43 1.97 2.23 4.2 3.15 6.22 0.679 1.96 1.51 3.94 3.11 5.32 1.16 0.624 2.46 0.859 3.72 0.675 1.21-0.121 2.43-0.648 3.4-1.58 0.847-0.85 1.48-1.96 2.04-3.07 0.557-1.11 1.06-2.25 1.67-3.23 0.428-0.88 0.913-1.72 1.59-2.41 0.672-0.687 1.55-1.21 2.53-1.31 0.919-0.101 1.87 0.19 2.68 0.688 0.807 0.499 1.48 1.19 2.08 1.93 0.672 0.917 1.23 1.9 1.88 2.82s1.44 1.78 2.44 2.34c0.966 0.484 2.07 0.659 3.15 0.541 1.07-0.118 2.11-0.524 3.01-1.13 1.58-1.09 2.71-2.72 3.63-4.41 0.159-0.278 0.295-0.572 0.452-0.842 0.191-0.4 0.364-0.785 0.587-1.08 0.236-0.549 0.593-1.01 0.998-1.36 0.405-0.352 0.856-0.594 1.3-0.737"/>
		<path id="path24439" d="m1.13 34.1c1.3-2.07 2.6-4.19 3.84-6.31 0.773-1.23 1.59-2.41 2.63-3.36 1.26-1.01 2.81-1.64 4.44-1.62 1.46 0.0494 2.92 0.613 4.18 1.45 1.26 0.839 2.34 1.94 3.3 3.08 1.44 1.93 2.27 4.11 3.23 6.06 0.692 1.89 1.53 3.79 3.11 5.1 1.19 0.586 2.5 0.763 3.75 0.526 1.2-0.167 2.39-0.731 3.35-1.69 0.837-0.875 1.47-2 2.04-3.12 0.566-1.12 1.09-2.26 1.74-3.23 0.438-0.859 0.936-1.68 1.61-2.34 0.676-0.66 1.55-1.16 2.52-1.24 0.906-0.0833 1.84 0.215 2.63 0.715 0.79 0.501 1.45 1.19 2.04 1.93 0.665 0.932 1.21 1.93 1.86 2.87 0.648 0.934 1.42 1.82 2.43 2.39 0.949 0.482 2.04 0.662 3.09 0.553 1.06-0.109 2.08-0.503 2.97-1.1 1.53-1.05 2.63-2.63 3.52-4.27 0.163-0.283 0.301-0.584 0.456-0.862 0.193-0.422 0.361-0.831 0.58-1.15 0.237-0.605 0.608-1.12 1.04-1.53 0.43-0.404 0.917-0.696 1.41-0.879"/>
		<path id="path24441" d="m1.13 33.9c1.26-2.03 2.52-4.1 3.75-6.16 0.776-1.21 1.6-2.37 2.65-3.29 1.29-0.99 2.85-1.58 4.49-1.53 1.48 0.0784 2.94 0.667 4.21 1.52 1.27 0.854 2.37 1.97 3.35 3.1 1.44 1.9 2.31 4.02 3.31 5.9 0.706 1.81 1.56 3.63 3.1 4.87 1.22 0.545 2.54 0.662 3.79 0.369 1.19-0.215 2.36-0.817 3.3-1.8 0.826-0.901 1.46-2.04 2.03-3.17 0.577-1.13 1.12-2.27 1.81-3.23 0.45-0.836 0.959-1.63 1.64-2.26 0.681-0.632 1.55-1.1 2.51-1.16 0.892-0.065 1.81 0.241 2.58 0.743 0.773 0.503 1.42 1.19 1.99 1.92 0.658 0.948 1.19 1.96 1.83 2.92s1.4 1.85 2.41 2.43c0.93 0.479 2 0.665 3.04 0.566 1.04-0.0994 2.05-0.481 2.92-1.07 1.48-1.02 2.54-2.54 3.4-4.12 0.167-0.289 0.307-0.596 0.46-0.883 0.195-0.445 0.357-0.88 0.573-1.23 0.239-0.663 0.624-1.24 1.08-1.7s0.98-0.803 1.52-1.03"/>
		<path id="path24443" d="m1.13 33.7c1.21-1.99 2.44-4.01 3.65-6 0.778-1.19 1.62-2.32 2.67-3.21 1.31-0.967 2.9-1.52 4.55-1.43 1.49 0.109 2.96 0.723 4.24 1.59 1.28 0.871 2.4 1.99 3.41 3.13 1.45 1.86 2.36 3.92 3.4 5.73 0.72 1.73 1.58 3.47 3.1 4.64 1.25 0.502 2.58 0.556 3.83 0.205 1.18-0.266 2.32-0.909 3.24-1.91 0.815-0.927 1.44-2.08 2.03-3.23 0.588-1.14 1.16-2.29 1.88-3.23 0.462-0.812 0.983-1.58 1.67-2.18 0.685-0.602 1.55-1.04 2.5-1.08 0.878-0.0458 1.77 0.268 2.53 0.773s1.38 1.19 1.94 1.92c0.651 0.964 1.17 2 1.79 2.97 0.627 0.968 1.39 1.89 2.4 2.49 0.91 0.477 1.96 0.669 2.98 0.579 1.02-0.0895 2.02-0.458 2.87-1.04 1.43-0.98 2.45-2.44 3.28-3.97 0.171-0.295 0.313-0.609 0.465-0.905 0.198-0.469 0.354-0.931 0.565-1.31 0.241-0.725 0.64-1.37 1.12-1.88 0.483-0.518 1.05-0.916 1.64-1.18"/>
		<path id="path24445" d="m1.13 33.6c1.16-1.94 2.36-3.91 3.54-5.84 0.781-1.17 1.63-2.27 2.69-3.13 1.34-0.943 2.95-1.45 4.61-1.33 1.51 0.141 2.98 0.781 4.28 1.67s2.42 2.02 3.47 3.15c1.45 1.82 2.41 3.82 3.5 5.55 0.735 1.65 1.61 3.29 3.1 4.39 1.28 0.457 2.63 0.445 3.87 0.0331 1.16-0.318 2.28-1 3.19-2.03 0.803-0.956 1.43-2.13 2.03-3.28 0.599-1.15 1.2-2.3 1.95-3.24 0.474-0.787 1.01-1.52 1.7-2.09 0.69-0.571 1.55-0.977 2.48-0.994 0.863-0.0258 1.74 0.297 2.47 0.804s1.35 1.19 1.89 1.91c0.643 0.981 1.14 2.03 1.76 3.02 0.616 0.987 1.37 1.93 2.39 2.54 0.889 0.474 1.91 0.672 2.91 0.593 1-0.0792 1.98-0.434 2.82-0.999 1.37-0.939 2.36-2.34 3.15-3.8 0.176-0.301 0.319-0.623 0.47-0.928 0.201-0.494 0.35-0.984 0.558-1.4 0.242-0.789 0.657-1.49 1.17-2.07 0.511-0.579 1.12-1.03 1.76-1.35"/>
		<path id="path24447" d="m1.13 33.4c1.11-1.89 2.27-3.8 3.43-5.66 0.784-1.15 1.65-2.22 2.71-3.05 1.37-0.918 3.01-1.38 4.67-1.23 1.53 0.174 3.01 0.842 4.31 1.75 1.31 0.906 2.45 2.04 3.53 3.18 1.46 1.77 2.46 3.71 3.59 5.37 0.751 1.56 1.63 3.11 3.09 4.13 1.31 0.41 2.68 0.329 3.91-0.146 1.15-0.374 2.24-1.1 3.13-2.15 0.79-0.985 1.41-2.18 2.02-3.34s1.24-2.32 2.03-3.24c0.487-0.761 1.04-1.46 1.73-2 0.695-0.539 1.55-0.91 2.47-0.905 0.848-0.0048 1.7 0.327 2.42 0.836 0.717 0.509 1.31 1.19 1.83 1.9 0.635 0.999 1.12 2.07 1.73 3.08 0.605 1.01 1.35 1.97 2.37 2.6 0.868 0.471 1.87 0.676 2.85 0.608 0.982-0.0684 1.95-0.409 2.77-0.962 1.31-0.897 2.26-2.24 3.02-3.63 0.181-0.308 0.326-0.638 0.475-0.953 0.203-0.521 0.346-1.04 0.549-1.48 0.244-0.856 0.675-1.63 1.22-2.27 0.541-0.643 1.19-1.16 1.89-1.52"/>
		<path id="path24449" d="m1.13 33.1c1.06-1.84 2.18-3.69 3.32-5.48 0.788-1.13 1.66-2.17 2.73-2.97 1.4-0.891 3.06-1.3 4.73-1.12 1.54 0.208 3.03 0.906 4.35 1.83 1.32 0.925 2.49 2.07 3.59 3.21 1.46 1.73 2.51 3.6 3.7 5.17 0.767 1.47 1.66 2.92 3.09 3.86 1.35 0.361 2.73 0.208 3.95-0.334 1.14-0.431 2.19-1.21 3.06-2.28 0.777-1.02 1.39-2.22 2.02-3.4 0.623-1.18 1.28-2.33 2.11-3.24 0.501-0.734 1.06-1.4 1.76-1.91 0.701-0.505 1.55-0.841 2.45-0.812 0.831 0.017 1.66 0.359 2.36 0.87s1.27 1.18 1.78 1.9c0.627 1.02 1.1 2.11 1.69 3.14 0.593 1.03 1.33 2.02 2.35 2.65 0.845 0.468 1.82 0.68 2.78 0.623 0.961-0.0571 1.91-0.383 2.72-0.922 1.25-0.853 2.16-2.13 2.88-3.45 0.186-0.314 0.333-0.653 0.48-0.978 0.206-0.549 0.342-1.1 0.541-1.58 0.246-0.926 0.693-1.77 1.26-2.48 0.572-0.71 1.27-1.29 2.03-1.7"/>
		<path id="path24451" d="m1.13 32.9c1-1.79 2.08-3.58 3.2-5.3 0.791-1.11 1.68-2.12 2.75-2.88 1.44-0.864 3.12-1.22 4.8-1 1.56 0.245 3.06 0.972 4.39 1.92 1.33 0.944 2.52 2.1 3.66 3.23 1.47 1.68 2.57 3.48 3.8 4.97 0.785 1.38 1.69 2.72 3.08 3.58 1.38 0.31 2.78 0.0821 4-0.528 1.12-0.491 2.15-1.32 3-2.42 0.764-1.05 1.38-2.28 2.01-3.46 0.636-1.19 1.32-2.35 2.2-3.24 0.515-0.705 1.09-1.34 1.8-1.81 0.706-0.47 1.56-0.769 2.44-0.715 0.815 0.0398 1.62 0.391 2.3 0.905 0.676 0.514 1.23 1.18 1.72 1.89 0.618 1.04 1.07 2.15 1.65 3.2s1.31 2.06 2.34 2.72c0.822 0.465 1.77 0.685 2.71 0.639 0.94-0.0454 1.87-0.356 2.66-0.881 1.19-0.807 2.05-2.01 2.74-3.27 0.191-0.321 0.34-0.668 0.486-1 0.209-0.577 0.338-1.16 0.532-1.67 0.248-0.998 0.712-1.92 1.32-2.7 0.604-0.779 1.35-1.42 2.17-1.88"/>
		<path id="path24453" d="m1.13 32.7c0.942-1.73 1.98-3.46 3.08-5.1 0.794-1.08 1.69-2.06 2.77-2.78 1.47-0.835 3.18-1.14 4.87-0.88 1.58 0.282 3.08 1.04 4.43 2.01 1.35 0.965 2.55 2.13 3.73 3.26 1.48 1.63 2.63 3.36 3.91 4.76 0.802 1.28 1.72 2.52 3.08 3.28 1.42 0.257 2.84-0.0486 4.05-0.731 1.11-0.554 2.1-1.43 2.93-2.56 0.75-1.08 1.36-2.33 2.01-3.53s1.37-2.37 2.28-3.25c0.529-0.676 1.12-1.28 1.84-1.71 0.712-0.433 1.56-0.694 2.42-0.614 0.797 0.0634 1.58 0.425 2.23 0.942 0.654 0.517 1.19 1.18 1.65 1.88 0.609 1.06 1.05 2.19 1.61 3.26 0.567 1.07 1.29 2.11 2.32 2.78 0.797 0.462 1.72 0.689 2.64 0.656 0.918-0.0332 1.83-0.327 2.6-0.839 1.12-0.76 1.94-1.89 2.59-3.08 0.196-0.329 0.348-0.685 0.491-1.03 0.213-0.607 0.334-1.22 0.523-1.77 0.25-1.07 0.732-2.07 1.37-2.92 0.637-0.851 1.43-1.56 2.31-2.07"/>
		<path id="path24455" d="m1.14 32.5c0.882-1.67 1.88-3.34 2.95-4.9 0.798-1.06 1.71-2 2.8-2.69 1.51-0.806 3.24-1.06 4.94-0.756 1.6 0.321 3.11 1.11 4.47 2.1 1.36 0.986 2.59 2.16 3.8 3.29 1.48 1.58 2.69 3.24 4.03 4.54 0.821 1.18 1.75 2.31 3.08 2.98 1.46 0.202 2.89-0.184 4.1-0.941 1.1-0.618 2.05-1.54 2.86-2.71 0.736-1.12 1.34-2.38 2-3.6s1.41-2.39 2.37-3.25c0.545-0.645 1.15-1.21 1.87-1.61 0.718-0.395 1.56-0.616 2.41-0.509 0.779 0.0879 1.54 0.46 2.17 0.98 0.631 0.519 1.15 1.18 1.59 1.87 0.6 1.08 1.02 2.23 1.57 3.33 0.554 1.09 1.27 2.15 2.3 2.84 0.772 0.459 1.67 0.693 2.56 0.673 0.895-0.0206 1.79-0.298 2.54-0.795 1.05-0.711 1.82-1.77 2.44-2.88 0.202-0.336 0.356-0.702 0.497-1.06 0.216-0.638 0.329-1.29 0.513-1.88 0.252-1.15 0.753-2.23 1.43-3.15 0.672-0.925 1.51-1.7 2.46-2.27"/>
		<path id="path24457" d="m1.14 32.2c0.819-1.61 1.78-3.21 2.82-4.69 0.802-1.04 1.73-1.94 2.82-2.59 1.54-0.775 3.31-0.974 5.01-0.628 1.62 0.361 3.14 1.19 4.52 2.19 1.38 1.01 2.63 2.2 3.87 3.32 1.49 1.53 2.75 3.11 4.15 4.32 0.84 1.08 1.78 2.08 3.07 2.66 1.5 0.145 2.95-0.325 4.15-1.16 1.08-0.685 2-1.66 2.79-2.86 0.721-1.15 1.32-2.44 2-3.67 0.678-1.23 1.46-2.4 2.47-3.25 0.561-0.613 1.19-1.14 1.91-1.5 0.724-0.356 1.56-0.535 2.39-0.401 0.76 0.113 1.49 0.497 2.1 1.02 0.608 0.522 1.1 1.18 1.52 1.86 0.59 1.1 0.993 2.28 1.53 3.4 0.54 1.12 1.24 2.2 2.28 2.91 0.746 0.456 1.61 0.698 2.48 0.691 0.871-0.0075 1.74-0.267 2.48-0.749 0.98-0.659 1.7-1.64 2.28-2.67 0.208-0.344 0.364-0.719 0.503-1.09 0.219-0.67 0.324-1.35 0.503-1.98 0.254-1.23 0.775-2.39 1.48-3.39 0.708-1 1.6-1.85 2.62-2.48"/>
		<path id="path24459" d="m1.14 32c0.754-1.55 1.67-3.08 2.68-4.48 0.805-1.01 1.75-1.88 2.84-2.48 1.58-0.744 3.38-0.884 5.09-0.494 1.64 0.403 3.17 1.26 4.56 2.29s2.66 2.23 3.95 3.36c1.5 1.48 2.81 2.97 4.27 4.08 0.86 0.967 1.81 1.86 3.07 2.34 1.54 0.0866 3.01-0.471 4.2-1.38 1.06-0.755 1.95-1.79 2.71-3.01 0.705-1.19 1.3-2.5 1.99-3.74 0.693-1.24 1.51-2.42 2.57-3.25 0.577-0.581 1.22-1.07 1.95-1.39 0.731-0.315 1.56-0.452 2.37-0.289 0.741 0.14 1.44 0.535 2.03 1.06 0.583 0.525 1.05 1.17 1.46 1.86 0.58 1.12 0.965 2.32 1.49 3.47 0.525 1.14 1.22 2.26 2.26 2.98 0.719 0.452 1.56 0.703 2.4 0.709 0.846 6e-3 1.7-0.236 2.42-0.702 0.906-0.606 1.58-1.51 2.11-2.46 0.214-0.352 0.373-0.737 0.51-1.12 0.223-0.704 0.319-1.42 0.493-2.1 0.257-1.32 0.797-2.56 1.54-3.64 0.745-1.08 1.7-2 2.78-2.7"/>
		<path id="path24461" d="m1.14 31.7c0.687-1.49 1.55-2.94 2.54-4.26 0.809-0.983 1.77-1.82 2.87-2.38 1.62-0.711 3.45-0.792 5.17-0.357 1.66 0.446 3.2 1.34 4.61 2.4 1.41 1.05 2.7 2.27 4.03 3.39 1.51 1.42 2.88 2.83 4.4 3.84 0.88 0.855 1.85 1.62 3.06 2 1.58 0.0257 3.08-0.621 4.26-1.62 1.05-0.826 1.9-1.92 2.63-3.18 0.689-1.23 1.28-2.56 1.98-3.82 0.708-1.25 1.56-2.44 2.67-3.26 0.594-0.547 1.26-0.996 1.99-1.27 0.738-0.273 1.56-0.366 2.35-0.173 0.721 0.167 1.4 0.574 1.95 1.1 0.558 0.528 1.01 1.17 1.38 1.85 0.569 1.15 0.935 2.37 1.44 3.54 0.51 1.17 1.19 2.31 2.24 3.06 0.691 0.448 1.5 0.708 2.32 0.728 0.821 0.02 1.65-0.203 2.35-0.653 0.829-0.552 1.45-1.37 1.94-2.23 0.22-0.361 0.381-0.756 0.516-1.15 0.226-0.738 0.314-1.5 0.482-2.21 0.259-1.4 0.82-2.74 1.6-3.9 0.784-1.17 1.79-2.16 2.95-2.92"/>
		<path id="path24463" d="m1.14 31.4c0.618-1.42 1.44-2.8 2.39-4.02 0.814-0.956 1.79-1.75 2.9-2.27 1.66-0.677 3.52-0.696 5.25-0.214 1.68 0.491 3.24 1.42 4.66 2.5 1.43 1.08 2.74 2.3 4.11 3.43 1.51 1.36 2.95 2.69 4.53 3.59 0.901 0.739 1.88 1.38 3.06 1.65 1.63-0.0372 3.14-0.777 4.31-1.86 1.03-0.9 1.84-2.05 2.55-3.34 0.672-1.27 1.25-2.63 1.98-3.9 0.724-1.27 1.62-2.46 2.77-3.26 0.611-0.512 1.29-0.92 2.04-1.15 0.744-0.23 1.56-0.277 2.33-0.0528 0.7 0.195 1.35 0.614 1.88 1.14 0.532 0.531 0.955 1.17 1.31 1.84 0.559 1.17 0.904 2.42 1.4 3.61 0.495 1.19 1.17 2.36 2.22 3.13 0.662 0.445 1.44 0.713 2.23 0.748 0.794 0.0345 1.6-0.17 2.28-0.603 0.75-0.495 1.32-1.23 1.76-2.01 0.227-0.369 0.39-0.775 0.523-1.18 0.23-0.773 0.309-1.57 0.471-2.33 0.262-1.49 0.844-2.92 1.67-4.17s1.89-2.33 3.12-3.15"/>
		<path id="path24465" d="m1.14 31.1c0.546-1.35 1.32-2.65 2.24-3.79 0.818-0.928 1.81-1.68 2.93-2.15 1.7-0.642 3.59-0.597 5.34-0.0676 1.71 0.537 3.27 1.51 4.71 2.61s2.79 2.34 4.2 3.46c1.52 1.3 3.02 2.54 4.67 3.34 0.923 0.619 1.92 1.12 3.05 1.3 1.67-0.102 3.21-0.937 4.37-2.11 1.01-0.977 1.78-2.19 2.47-3.52 0.655-1.31 1.23-2.69 1.97-3.98 0.74-1.28 1.67-2.48 2.88-3.26 0.629-0.475 1.33-0.841 2.08-1.03 0.752-0.185 1.56-0.185 2.31 0.0709 0.678 0.224 1.3 0.656 1.8 1.19 0.505 0.534 0.904 1.17 1.24 1.83 0.548 1.2 0.873 2.47 1.35 3.69 0.479 1.22 1.14 2.42 2.2 3.21 0.632 0.441 1.38 0.719 2.14 0.768 0.767 0.0494 1.56-0.135 2.21-0.55 0.669-0.437 1.18-1.08 1.58-1.77 0.233-0.378 0.4-0.795 0.53-1.22 0.234-0.81 0.304-1.65 0.46-2.45 0.264-1.59 0.868-3.1 1.73-4.44 0.865-1.34 1.99-2.5 3.3-3.38"/>
		<path id="path24467" d="m1.14 30.9c0.472-1.28 1.19-2.5 2.09-3.54 0.822-0.899 1.83-1.61 2.95-2.03 1.74-0.606 3.67-0.496 5.43 0.0836 1.73 0.584 3.3 1.6 4.76 2.72 1.46 1.13 2.83 2.38 4.28 3.5 1.53 1.24 3.09 2.39 4.81 3.07 0.946 0.495 1.95 0.865 3.05 0.925 1.72-0.169 3.28-1.1 4.43-2.36 0.995-1.06 1.72-2.33 2.38-3.69 0.638-1.35 1.21-2.76 1.97-4.06 0.757-1.3 1.73-2.51 2.99-3.27 0.648-0.438 1.37-0.76 2.13-0.898 0.759-0.138 1.56-0.09 2.29 0.198 0.656 0.254 1.24 0.698 1.72 1.24 0.477 0.537 0.85 1.16 1.16 1.82 0.536 1.22 0.84 2.53 1.3 3.77s1.12 2.48 2.18 3.29c0.601 0.437 1.31 0.724 2.05 0.789 0.739 0.0648 1.5-0.0992 2.14-0.497 0.584-0.377 1.04-0.928 1.39-1.53 0.24-0.387 0.409-0.816 0.537-1.25 0.238-0.848 0.298-1.73 0.448-2.58 0.267-1.68 0.894-3.3 1.8-4.73s2.09-2.68 3.48-3.63"/>
		<path id="path24469" d="m1.14 30.6c0.396-1.21 1.06-2.35 1.93-3.29 0.827-0.869 1.86-1.54 2.98-1.91 1.79-0.569 3.75-0.391 5.52 0.239 1.76 0.633 3.34 1.69 4.82 2.84s2.87 2.42 4.37 3.54c1.54 1.18 3.17 2.23 4.95 2.8 0.969 0.368 1.99 0.598 3.04 0.544 1.77-0.238 3.35-1.27 4.49-2.63 0.976-1.14 1.66-2.48 2.29-3.88 0.62-1.39 1.19-2.83 1.96-4.15 0.775-1.32 1.79-2.53 3.1-3.27 0.667-0.4 1.41-0.676 2.17-0.767 0.766-0.0907 1.56 0.0075 2.27 0.33 0.633 0.284 1.19 0.743 1.64 1.28 0.449 0.541 0.796 1.16 1.08 1.81 0.524 1.25 0.806 2.58 1.25 3.86 0.445 1.28 1.09 2.54 2.16 3.37 0.569 0.433 1.25 0.73 1.96 0.811 0.71 0.0807 1.45-0.0623 2.06-0.441 0.498-0.315 0.893-0.772 1.2-1.28 0.247-0.397 0.419-0.837 0.545-1.29 0.242-0.887 0.293-1.81 0.436-2.71 0.269-1.78 0.92-3.49 1.87-5.02 0.951-1.52 2.2-2.86 3.67-3.88"/>
	</g>
	<g id="g24543" transform="matrix(-.967 0 0 .864 62.9 14)" fill-opacity="0" opacity=".891" stroke="url(#linearGradient27547)" stroke-width=".3">
		<path id="path24473" d="m1.14 30.2c0.319-1.14 0.932-2.19 1.76-3.02 0.831-0.837 1.88-1.46 3.01-1.78 1.83-0.529 3.83-0.281 5.61 0.401 1.78 0.683 3.37 1.78 4.87 2.96s2.92 2.46 4.47 3.57 3.24 2.07 5.1 2.51c0.993 0.236 2.03 0.322 3.04 0.15 1.81-0.31 3.42-1.45 4.56-2.9 1.91-2.44 2.57-5.63 4.15-8.29 0.793-1.33 1.85-2.55 3.22-3.27 0.687-0.36 1.45-0.589 2.22-0.63 0.774-0.0413 1.56 0.109 2.25 0.466 0.61 0.317 1.13 0.79 1.55 1.33 0.419 0.545 0.739 1.16 0.996 1.8 0.512 1.27 0.772 2.63 1.2 3.94 0.428 1.3 1.06 2.6 2.13 3.46 0.537 0.429 1.18 0.735 1.86 0.832 0.681 0.0965 1.4-0.0255 1.98-0.386 0.409-0.252 0.745-0.613 1-1.02s0.431-0.859 0.555-1.32c0.248-0.926 0.29-1.89 0.428-2.84 0.545-3.76 2.7-7.26 5.81-9.44"/>
		<path id="path24475" d="m1.14 30.2c0.32-1.13 0.933-2.17 1.76-3.01 0.83-0.832 1.88-1.45 3.01-1.77 1.83-0.525 3.82-0.276 5.6 0.407 1.78 0.682 3.37 1.77 4.87 2.95s2.92 2.45 4.46 3.56c1.55 1.11 3.24 2.06 5.09 2.5 0.992 0.234 2.03 0.317 3.03 0.143 1.81-0.314 3.42-1.46 4.55-2.9 1.91-2.44 2.57-5.62 4.15-8.28 0.793-1.33 1.85-2.55 3.22-3.26 0.687-0.359 1.45-0.586 2.22-0.626 0.774-0.0399 1.56 0.111 2.25 0.469 0.611 0.32 1.13 0.795 1.55 1.34 0.419 0.548 0.74 1.17 0.998 1.81 0.512 1.27 0.773 2.63 1.2 3.94 0.429 1.3 1.06 2.6 2.13 3.45 0.539 0.429 1.18 0.734 1.87 0.829 0.682 0.0949 1.4-0.0289 1.99-0.391 0.41-0.254 0.748-0.616 1.01-1.02 0.257-0.408 0.436-0.861 0.563-1.32 0.252-0.925 0.299-1.89 0.441-2.83 0.548-3.75 2.7-7.23 5.8-9.41"/>
		<path id="path24477" d="m1.14 30.2c0.322-1.12 0.936-2.15 1.77-2.98 0.829-0.824 1.87-1.43 3-1.75 1.82-0.519 3.81-0.266 5.59 0.416 1.78 0.681 3.37 1.77 4.86 2.94s2.91 2.44 4.46 3.54 3.23 2.05 5.08 2.48c0.99 0.229 2.03 0.308 3.03 0.131 1.81-0.32 3.41-1.47 4.55-2.91 1.91-2.43 2.56-5.6 4.14-8.25 0.794-1.33 1.85-2.54 3.22-3.25 0.688-0.356 1.45-0.581 2.22-0.619 0.773-0.0376 1.56 0.116 2.25 0.475 0.612 0.324 1.13 0.804 1.55 1.36 0.42 0.552 0.741 1.17 1 1.82 0.512 1.27 0.773 2.63 1.2 3.93 0.429 1.3 1.06 2.59 2.13 3.44 0.543 0.428 1.19 0.732 1.88 0.824 0.685 0.0923 1.41-0.0345 1.99-0.399 0.413-0.256 0.753-0.621 1.01-1.03 0.26-0.41 0.443-0.864 0.575-1.33 0.259-0.924 0.315-1.88 0.462-2.81 0.552-3.73 2.7-7.19 5.79-9.35"/>
		<path id="path24479" d="m1.14 30.2c0.325-1.11 0.94-2.13 1.77-2.94 0.827-0.813 1.87-1.41 3-1.72 1.82-0.51 3.8-0.253 5.57 0.428 1.77 0.68 3.36 1.76 4.85 2.93 1.49 1.16 2.91 2.42 4.45 3.51s3.22 2.03 5.06 2.45c0.988 0.223 2.02 0.296 3.02 0.115 1.81-0.329 3.4-1.48 4.55-2.93 1.9-2.42 2.56-5.58 4.14-8.22 0.796-1.32 1.85-2.53 3.22-3.24 0.688-0.353 1.45-0.575 2.22-0.609 0.773-0.0344 1.56 0.122 2.24 0.483 0.613 0.33 1.13 0.817 1.55 1.37s0.742 1.19 1.01 1.83c0.511 1.27 0.774 2.62 1.2 3.92 0.431 1.3 1.06 2.58 2.13 3.43 0.547 0.428 1.2 0.729 1.89 0.817 0.688 0.0886 1.41-0.0424 2-0.41 0.417-0.26 0.761-0.629 1.03-1.04 0.265-0.413 0.454-0.869 0.593-1.33 0.268-0.921 0.336-1.87 0.492-2.79 0.558-3.7 2.7-7.14 5.77-9.27"/>
		<path id="path24481" d="m1.14 30.1c0.329-1.09 0.946-2.09 1.77-2.88 0.825-0.799 1.86-1.39 2.99-1.69 1.81-0.499 3.78-0.236 5.55 0.444 1.77 0.678 3.35 1.75 4.84 2.91 1.49 1.15 2.9 2.4 4.44 3.48 1.53 1.08 3.21 2 5.04 2.42 0.986 0.215 2.01 0.281 3.01 0.0938 1.8-0.341 3.39-1.5 4.54-2.95 1.89-2.41 2.55-5.55 4.13-8.17 0.797-1.31 1.86-2.51 3.22-3.21 0.689-0.35 1.45-0.566 2.22-0.597 0.772-0.0303 1.56 0.13 2.24 0.494 0.615 0.338 1.14 0.833 1.56 1.4 0.42 0.566 0.743 1.2 1.01 1.86 0.511 1.26 0.776 2.61 1.21 3.9 0.432 1.29 1.07 2.57 2.14 3.42 0.553 0.428 1.21 0.725 1.9 0.808 0.693 0.0839 1.42-0.0526 2.01-0.424 0.421-0.265 0.77-0.638 1.04-1.05s0.468-0.874 0.616-1.34c0.281-0.918 0.364-1.86 0.531-2.76 0.566-3.67 2.7-7.06 5.75-9.16"/>
		<path id="path24483" d="m1.14 30c0.334-1.07 0.952-2.05 1.78-2.82 0.823-0.782 1.85-1.35 2.98-1.64 1.8-0.485 3.77-0.216 5.53 0.463 1.76 0.677 3.34 1.74 4.83 2.89 1.49 1.14 2.9 2.37 4.43 3.44 1.53 1.06 3.2 1.97 5.02 2.38 0.983 0.205 2.01 0.262 3 0.0681 1.79-0.355 3.38-1.52 4.53-2.97 1.88-2.39 2.54-5.52 4.11-8.12 0.799-1.31 1.86-2.5 3.22-3.19 0.691-0.345 1.45-0.556 2.22-0.582 0.771-0.0253 1.55 0.139 2.23 0.506 0.618 0.348 1.14 0.853 1.56 1.43 0.421 0.575 0.745 1.22 1.02 1.88 0.51 1.26 0.777 2.6 1.21 3.89 0.434 1.29 1.07 2.56 2.14 3.4 0.561 0.428 1.23 0.72 1.93 0.798 0.698 0.0782 1.43-0.065 2.03-0.442 0.427-0.271 0.782-0.65 1.06-1.07 0.279-0.42 0.485-0.881 0.644-1.34 0.296-0.915 0.398-1.84 0.578-2.73 0.575-3.62 2.7-6.97 5.72-9.04"/>
		<path id="path24485" d="m1.14 30c0.34-1.04 0.959-2 1.78-2.75 0.819-0.762 1.84-1.31 2.96-1.59 1.79-0.468 3.74-0.191 5.5 0.486 1.75 0.674 3.33 1.73 4.81 2.86s2.89 2.34 4.41 3.38c1.52 1.05 3.18 1.94 4.99 2.33 0.979 0.194 2 0.239 2.99 0.0376 1.79-0.371 3.37-1.54 4.52-3 1.87-2.38 2.54-5.47 4.1-8.05 0.802-1.3 1.86-2.48 3.22-3.16 0.692-0.339 1.45-0.544 2.22-0.564 0.77-0.0194 1.55 0.15 2.23 0.521 0.621 0.36 1.14 0.877 1.56 1.46 0.421 0.586 0.747 1.24 1.03 1.91 0.509 1.25 0.779 2.59 1.22 3.87 0.436 1.28 1.07 2.54 2.14 3.37 0.569 0.427 1.24 0.714 1.95 0.785 0.705 0.0714 1.44-0.0796 2.04-0.463 0.434-0.278 0.796-0.664 1.08-1.09 0.288-0.425 0.505-0.889 0.677-1.35 0.314-0.91 0.438-1.82 0.633-2.69 0.587-3.57 2.7-6.87 5.69-8.89"/>
		<path id="path24487" d="m1.14 29.9c0.347-1.01 0.968-1.94 1.79-2.66 0.816-0.738 1.83-1.27 2.95-1.52 1.78-0.449 3.72-0.163 5.47 0.513 1.74 0.672 3.32 1.72 4.79 2.83 1.48 1.11 2.88 2.3 4.39 3.33s3.16 1.89 4.96 2.27c0.975 0.18 1.99 0.214 2.97 0.0024 1.78-0.39 3.35-1.57 4.51-3.03 1.86-2.36 2.53-5.43 4.08-7.98 0.805-1.29 1.87-2.45 3.23-3.12 0.694-0.333 1.45-0.53 2.22-0.543 0.769-0.0126 1.55 0.163 2.22 0.539 0.624 0.373 1.14 0.904 1.57 1.5 0.422 0.599 0.749 1.27 1.04 1.95 0.508 1.25 0.781 2.58 1.22 3.85s1.08 2.52 2.14 3.35c0.579 0.427 1.26 0.707 1.98 0.771 0.712 0.0635 1.45-0.0965 2.06-0.486 0.442-0.287 0.812-0.68 1.11-1.11 0.298-0.431 0.528-0.899 0.715-1.36 0.335-0.905 0.485-1.8 0.698-2.64 0.6-3.51 2.7-6.74 5.66-8.72"/>
		<path id="path24489" d="m1.14 29.8c0.354-0.977 0.978-1.87 1.8-2.56 0.812-0.711 1.82-1.22 2.93-1.45 1.76-0.427 3.69-0.131 5.43 0.543 1.73 0.669 3.3 1.7 4.77 2.79s2.87 2.26 4.37 3.26c1.51 1 3.14 1.85 4.92 2.2 0.97 0.165 1.98 0.184 2.95-0.0374 1.77-0.412 3.34-1.61 4.5-3.06 1.84-2.34 2.52-5.37 4.07-7.89 0.808-1.27 1.87-2.42 3.23-3.08 0.696-0.325 1.46-0.514 2.22-0.519 0.767-0.0048 1.54 0.178 2.21 0.558 0.628 0.388 1.15 0.935 1.57 1.55 0.423 0.614 0.752 1.3 1.05 1.99 0.507 1.24 0.784 2.56 1.23 3.82 0.441 1.26 1.08 2.5 2.14 3.32 0.591 0.426 1.29 0.7 2.01 0.754 0.721 0.0546 1.47-0.116 2.08-0.514 0.451-0.296 0.83-0.698 1.14-1.14 0.31-0.437 0.554-0.909 0.758-1.36 0.359-0.9 0.537-1.78 0.77-2.59 0.614-3.45 2.7-6.6 5.62-8.52"/>
		<path id="path24491" d="m1.14 29.6c0.363-0.939 0.989-1.8 1.81-2.45 0.807-0.681 1.81-1.16 2.91-1.38 1.74-0.403 3.65-0.0953 5.39 0.576 1.72 0.665 3.28 1.68 4.75 2.75s2.86 2.21 4.35 3.19c1.5 0.975 3.12 1.79 4.88 2.13 0.965 0.148 1.97 0.152 2.93-0.082 1.76-0.436 3.32-1.64 4.49-3.1 1.83-2.31 2.5-5.31 4.05-7.8 0.812-1.26 1.88-2.4 3.23-3.04 0.698-0.317 1.46-0.497 2.22-0.493 0.766 0.0039 1.54 0.194 2.21 0.58 0.632 0.405 1.15 0.97 1.57 1.6s0.755 1.33 1.06 2.03c0.506 1.23 0.787 2.54 1.23 3.79 0.445 1.25 1.09 2.48 2.14 3.29 0.603 0.426 1.31 0.691 2.04 0.736 0.73 0.0447 1.48-0.137 2.11-0.544 0.461-0.306 0.85-0.719 1.17-1.16 0.323-0.444 0.583-0.921 0.806-1.37 0.385-0.893 0.596-1.75 0.852-2.53 0.631-3.37 2.7-6.45 5.57-8.3"/>
		<path id="path24493" d="m1.14 29.5c0.372-0.898 1-1.71 1.82-2.33 0.802-0.648 1.79-1.1 2.89-1.29 1.72-0.376 3.62-0.0558 5.34 0.613 1.71 0.662 3.26 1.66 4.72 2.71s2.84 2.16 4.33 3.1 3.09 1.73 4.83 2.05c0.959 0.13 1.95 0.116 2.91-0.131 1.74-0.463 3.29-1.68 4.47-3.14 1.81-2.29 2.49-5.24 4.02-7.69 0.816-1.25 1.88-2.36 3.23-2.99 0.701-0.308 1.46-0.477 2.23-0.464 0.764 0.0134 1.53 0.212 2.2 0.604 0.637 0.424 1.16 1.01 1.58 1.66 0.424 0.648 0.758 1.36 1.07 2.08 0.505 1.23 0.79 2.52 1.24 3.76 0.448 1.24 1.09 2.45 2.14 3.25 0.617 0.425 1.34 0.682 2.08 0.715 0.741 0.0337 1.5-0.161 2.13-0.577 0.472-0.318 0.872-0.741 1.21-1.19 0.337-0.452 0.616-0.934 0.859-1.39 0.414-0.886 0.661-1.72 0.941-2.46 0.649-3.29 2.7-6.28 5.53-8.06"/>
		<path id="path24495" d="m1.14 29.4c0.382-0.852 1.01-1.62 1.83-2.2 0.797-0.612 1.78-1.03 2.86-1.19 1.7-0.347 3.58-0.0126 5.29 0.654 1.7 0.658 3.24 1.64 4.69 2.66s2.83 2.1 4.3 3.01c1.47 0.913 3.06 1.67 4.78 1.96 0.952 0.109 1.94 0.076 2.89-0.185 1.73-0.492 3.27-1.73 4.46-3.19 1.79-2.26 2.47-5.17 4-7.58 0.82-1.23 1.89-2.33 3.23-2.94 0.703-0.298 1.46-0.456 2.23-0.432 0.762 0.0239 1.52 0.232 2.19 0.631 0.642 0.444 1.16 1.05 1.58 1.72 0.425 0.668 0.762 1.4 1.09 2.13 0.503 1.22 0.793 2.5 1.25 3.73 0.452 1.22 1.1 2.42 2.14 3.21 0.633 0.425 1.37 0.671 2.13 0.693 0.753 0.0217 1.52-0.187 2.16-0.614 0.484-0.331 0.897-0.766 1.25-1.23 0.353-0.461 0.651-0.949 0.917-1.4 0.446-0.878 0.733-1.68 1.04-2.39 0.669-3.2 2.7-6.09 5.47-7.8"/>
		<path id="path24497" d="m1.14 29.2c0.394-0.803 1.03-1.52 1.84-2.05 0.791-0.573 1.76-0.952 2.83-1.09 1.68-0.315 3.54 0.0344 5.24 0.698 1.68 0.653 3.22 1.61 4.66 2.61 1.44 0.996 2.81 2.04 4.27 2.92 1.46 0.878 3.03 1.6 4.72 1.87 0.945 0.0868 1.92 0.033 2.86-0.244 1.71-0.524 3.24-1.78 4.44-3.24 1.77-2.22 2.46-5.09 3.97-7.45 0.825-1.21 1.89-2.29 3.23-2.88 0.706-0.288 1.47-0.433 2.23-0.397 0.76 0.0353 1.52 0.254 2.17 0.66 0.647 0.466 1.16 1.1 1.59 1.78 0.426 0.689 0.765 1.44 1.1 2.19 0.502 1.21 0.797 2.48 1.25 3.69 0.456 1.21 1.1 2.39 2.15 3.17 0.649 0.424 1.41 0.66 2.17 0.669 0.765 0.0086 1.54-0.215 2.19-0.654 0.497-0.344 0.923-0.792 1.29-1.26 0.37-0.471 0.689-0.964 0.981-1.41 0.481-0.87 0.81-1.65 1.15-2.31 0.691-3.11 2.7-5.88 5.41-7.51"/>
		<path id="path24499" d="m1.14 29.1c0.406-0.75 1.04-1.42 1.85-1.9 0.784-0.53 1.74-0.871 2.81-0.98 1.66-0.28 3.49 0.0851 5.18 0.746 1.67 0.648 3.19 1.59 4.63 2.56 1.44 0.967 2.79 1.97 4.24 2.81 1.44 0.841 2.99 1.53 4.66 1.76 0.938 0.0627 1.9-0.0134 2.84-0.307 1.7-0.559 3.22-1.83 4.42-3.3 1.74-2.19 2.44-5 3.94-7.32 0.83-1.19 1.9-2.24 3.23-2.82 0.709-0.276 1.47-0.408 2.23-0.36 0.757 0.0476 1.51 0.277 2.16 0.691 0.653 0.49 1.17 1.14 1.6 1.86 0.427 0.712 0.77 1.49 1.12 2.25 0.5 1.19 0.801 2.45 1.26 3.65 0.461 1.19 1.11 2.36 2.15 3.12 0.667 0.423 1.44 0.648 2.22 0.643 0.779-0.0055 1.56-0.245 2.23-0.697 0.511-0.359 0.952-0.821 1.34-1.3 0.389-0.481 0.731-0.981 1.05-1.43 0.518-0.861 0.894-1.61 1.26-2.22 0.714-3 2.7-5.66 5.35-7.2"/>
		<path id="path24501" d="m1.14 28.9c0.418-0.692 1.06-1.3 1.86-1.73 0.778-0.485 1.72-0.784 2.78-0.86 1.63-0.243 3.44 0.14 5.12 0.797 1.65 0.643 3.17 1.56 4.59 2.5 1.43 0.935 2.78 1.9 4.2 2.7 1.43 0.8 2.96 1.44 4.6 1.65 0.93 0.0369 1.88-0.0633 2.81-0.375 1.68-0.596 3.19-1.89 4.4-3.36 1.72-2.15 2.42-4.9 3.91-7.18 0.836-1.17 1.91-2.2 3.23-2.75 0.713-0.264 1.48-0.381 2.23-0.32 0.755 0.0609 1.5 0.302 2.15 0.725 0.66 0.516 1.18 1.2 1.6 1.93 0.428 0.737 0.774 1.54 1.14 2.32 0.498 1.18 0.805 2.43 1.27 3.61s1.12 2.33 2.15 3.07c0.687 0.423 1.48 0.635 2.27 0.614 0.794-0.0207 1.59-0.278 2.26-0.743 0.527-0.375 0.983-0.852 1.39-1.34 0.409-0.492 0.775-0.999 1.12-1.44 0.558-0.851 0.983-1.57 1.39-2.13 0.739-2.89 2.7-5.43 5.28-6.87"/>
		<path id="path24503" d="m1.14 28.7c0.432-0.631 1.08-1.18 1.88-1.55 0.77-0.436 1.7-0.691 2.74-0.732 1.6-0.203 3.38 0.198 5.05 0.852 1.63 0.638 3.14 1.53 4.56 2.43s2.76 1.82 4.17 2.58 2.92 1.36 4.53 1.53c0.921 0.0092 1.86-0.117 2.77-0.448 1.66-0.635 3.15-1.95 4.38-3.42 1.69-2.11 2.4-4.8 3.88-7.02 0.842-1.15 1.92-2.15 3.23-2.68 0.716-0.25 1.48-0.352 2.23-0.277 0.752 0.075 1.49 0.329 2.13 0.76 0.667 0.544 1.18 1.25 1.61 2.02 0.429 0.764 0.779 1.59 1.16 2.39 0.496 1.17 0.81 2.4 1.28 3.56s1.13 2.29 2.15 3.02c0.707 0.422 1.52 0.621 2.33 0.584 0.809-0.0369 1.62-0.313 2.3-0.792 0.543-0.392 1.02-0.885 1.45-1.39s0.823-1.02 1.2-1.46c0.601-0.841 1.08-1.52 1.52-2.03 0.766-2.77 2.7-5.17 5.21-6.51"/>
		<path id="path24505" d="m1.14 28.5c0.447-0.566 1.1-1.05 1.89-1.36 0.762-0.384 1.68-0.592 2.71-0.596 1.57-0.161 3.33 0.26 4.98 0.91 1.61 0.632 3.11 1.5 4.51 2.36 1.41 0.865 2.74 1.74 4.13 2.45 1.4 0.71 2.87 1.27 4.46 1.41 0.912-0.0202 1.84-0.173 2.74-0.525 1.64-0.677 3.12-2.01 4.36-3.49 1.66-2.07 2.38-4.7 3.84-6.86 0.848-1.12 1.93-2.1 3.23-2.6 0.72-0.236 1.48-0.321 2.23-0.231 0.749 0.09 1.48 0.357 2.12 0.799 0.674 0.573 1.19 1.31 1.62 2.11 0.431 0.792 0.784 1.64 1.18 2.47 0.494 1.16 0.814 2.37 1.29 3.51s1.14 2.25 2.16 2.97c0.729 0.421 1.57 0.606 2.39 0.552 0.826-0.0542 1.64-0.35 2.34-0.845 0.56-0.41 1.05-0.921 1.5-1.44 0.453-0.516 0.874-1.04 1.28-1.47 0.647-0.829 1.18-1.47 1.66-1.93 0.795-2.64 2.7-4.9 5.13-6.13"/>
		<path id="path24507" d="m1.14 28.3c0.463-0.497 1.12-0.914 1.91-1.16 0.754-0.329 1.65-0.486 2.67-0.451 1.54-0.117 3.27 0.326 4.9 0.972 1.59 0.626 3.08 1.47 4.47 2.29 1.39 0.826 2.71 1.65 4.09 2.31 1.38 0.661 2.83 1.17 4.38 1.27 0.902-0.0513 1.82-0.233 2.7-0.607 1.62-0.722 3.08-2.08 4.33-3.56 1.63-2.03 2.36-4.58 3.81-6.68 0.855-1.1 1.94-2.04 3.24-2.52 0.724-0.221 1.49-0.288 2.23-0.182 0.746 0.106 1.48 0.388 2.1 0.839 0.682 0.604 1.19 1.38 1.63 2.2 0.432 0.822 0.789 1.7 1.2 2.55 0.492 1.14 0.82 2.34 1.3 3.46 0.482 1.12 1.15 2.2 2.16 2.91 0.753 0.42 1.61 0.591 2.46 0.518 0.843-0.0725 1.67-0.389 2.38-0.901 0.579-0.429 1.09-0.958 1.56-1.49 0.477-0.529 0.928-1.06 1.37-1.49 0.696-0.818 1.29-1.42 1.81-1.81 0.825-2.5 2.7-4.62 5.05-5.73"/>
		<path id="path24509" d="m1.14 28.1c0.479-0.424 1.14-0.768 1.93-0.943 0.745-0.271 1.63-0.375 2.63-0.298 1.51-0.0693 3.2 0.395 4.82 1.04 1.57 0.619 3.04 1.43 4.43 2.22 1.38 0.786 2.69 1.56 4.05 2.17s2.78 1.06 4.29 1.13c0.892-0.0843 1.79-0.297 2.66-0.694 1.6-0.769 3.04-2.15 4.31-3.63 1.6-1.98 2.33-4.46 3.77-6.5 0.862-1.07 1.95-1.99 3.24-2.43 0.729-0.205 1.49-0.254 2.24-0.131 0.743 0.123 1.47 0.42 2.09 0.882 0.69 0.637 1.2 1.44 1.64 2.3 0.433 0.854 0.795 1.77 1.22 2.64 0.49 1.13 0.825 2.3 1.31 3.4 0.488 1.1 1.16 2.16 2.16 2.84 0.777 0.419 1.66 0.574 2.53 0.482 0.862-0.0918 1.7-0.431 2.43-0.959 0.598-0.45 1.13-0.998 1.63-1.54 0.502-0.544 0.985-1.08 1.47-1.51 0.747-0.805 1.4-1.37 1.97-1.7 0.857-2.36 2.7-4.31 4.96-5.3"/>
		<path id="path24511" d="m1.14 27.8c0.496-0.347 1.16-0.614 1.94-0.718 0.736-0.209 1.6-0.258 2.59-0.137 1.47-0.0195 3.14 0.468 4.74 1.11 1.54 0.613 3.01 1.39 4.38 2.13 1.37 0.743 2.66 1.46 4 2.02 1.34 0.555 2.73 0.955 4.21 0.979 0.881-0.119 1.77-0.364 2.62-0.785 1.58-0.819 3-2.23 4.28-3.71 1.57-1.93 2.31-4.34 3.72-6.3 0.869-1.04 1.96-1.92 3.24-2.34 0.733-0.188 1.5-0.218 2.24-0.0772 0.74 0.141 1.45 0.453 2.07 0.927 0.698 0.672 1.21 1.52 1.64 2.4 0.435 0.887 0.801 1.83 1.24 2.73 0.487 1.11 0.831 2.27 1.33 3.34s1.17 2.11 2.16 2.78c0.803 0.418 1.72 0.557 2.6 0.445s1.74-0.475 2.48-1.02c0.619-0.471 1.17-1.04 1.7-1.6 0.529-0.558 1.04-1.11 1.57-1.53 0.801-0.792 1.53-1.31 2.13-1.57 0.891-2.21 2.7-3.99 4.87-4.86"/>
		<path id="path24513" d="m1.14 27.6c0.515-0.266 1.19-0.453 1.96-0.481 0.726-0.145 1.57-0.134 2.55 0.0319 1.44 0.0329 3.06 0.546 4.65 1.18 1.52 0.605 2.97 1.35 4.33 2.05s2.64 1.36 3.95 1.86 2.68 0.841 4.12 0.821c0.869-0.156 1.74-0.435 2.58-0.881 1.55-0.871 2.96-2.31 4.25-3.8 1.53-1.88 2.28-4.2 3.68-6.1 0.877-1.01 1.97-1.86 3.24-2.25 0.738-0.171 1.5-0.18 2.24-0.0203 0.736 0.159 1.44 0.489 2.05 0.974 0.707 0.709 1.22 1.59 1.65 2.51 0.437 0.922 0.807 1.9 1.27 2.83 0.485 1.09 0.837 2.23 1.34 3.28 0.502 1.06 1.18 2.06 2.17 2.71 0.831 0.417 1.77 0.538 2.67 0.405 0.902-0.134 1.77-0.521 2.53-1.09 0.64-0.494 1.21-1.08 1.77-1.66 0.557-0.574 1.11-1.13 1.67-1.55 0.858-0.778 1.65-1.25 2.31-1.44 0.926-2.05 2.7-3.66 4.77-4.39"/>
		<path id="path24515" d="m1.14 27.3c0.534-0.181 1.21-0.283 1.98-0.233 0.716-0.0771 1.54-0.0051 2.5 0.209 1.4 0.0878 2.99 0.626 4.55 1.25 1.49 0.598 2.93 1.31 4.27 1.96 1.34 0.651 2.61 1.25 3.9 1.69s2.62 0.721 4.02 0.656c0.857-0.194 1.71-0.509 2.54-0.982 1.53-0.926 2.92-2.4 4.22-3.89 1.5-1.82 2.25-4.06 3.63-5.88 0.885-0.982 1.98-1.79 3.24-2.15 0.743-0.152 1.51-0.14 2.24 0.0392 0.733 0.179 1.43 0.526 2.03 1.02 0.717 0.747 1.23 1.67 1.66 2.63 0.438 0.959 0.814 1.97 1.3 2.93 0.482 1.08 0.843 2.19 1.35 3.22s1.19 2.01 2.17 2.63c0.859 0.416 1.83 0.519 2.75 0.363 0.924-0.156 1.81-0.57 2.58-1.16 0.663-0.517 1.26-1.13 1.84-1.72 0.587-0.59 1.17-1.16 1.78-1.58 0.918-0.764 1.79-1.19 2.49-1.31 0.964-1.88 2.7-3.31 4.67-3.89"/>
		<path id="path24517" d="m1.14 27.1c0.554-0.0917 1.24-0.106 2 0.0272 0.705-0.0063 1.51 0.13 2.45 0.395 1.36 0.145 2.91 0.711 4.45 1.33 1.47 0.59 2.89 1.27 4.22 1.87 1.33 0.601 2.58 1.14 3.85 1.51 1.27 0.374 2.56 0.595 3.92 0.483 0.845-0.234 1.68-0.586 2.49-1.09 1.5-0.984 2.87-2.48 4.19-3.98 1.46-1.76 2.22-3.92 3.59-5.66 0.894-0.949 1.99-1.72 3.24-2.04 0.748-0.133 1.52-0.0979 2.24 0.102 0.729 0.199 1.42 0.565 2.01 1.08 0.727 0.787 1.24 1.75 1.68 2.75 0.44 0.998 0.821 2.05 1.33 3.03 0.479 1.06 0.85 2.15 1.37 3.15 0.516 1.01 1.2 1.95 2.17 2.56 0.889 0.415 1.89 0.499 2.84 0.319 0.947-0.18 1.85-0.62 2.64-1.23 0.686-0.542 1.31-1.18 1.92-1.78 0.617-0.607 1.24-1.19 1.89-1.6 0.98-0.749 1.92-1.12 2.69-1.16 1-1.7 2.7-2.94 4.57-3.37"/>
		<path id="path24519" d="m1.14 26.8c0.575 0.0012 1.27 0.0791 2.03 0.299 0.694 0.0676 1.48 0.272 2.41 0.589 1.32 0.205 2.83 0.799 4.35 1.42 1.44 0.582 2.84 1.22 4.16 1.77s2.55 1.02 3.8 1.33 2.5 0.464 3.81 0.302c0.832-0.276 1.65-0.667 2.44-1.2 1.47-1.04 2.82-2.58 4.16-4.07 1.42-1.7 2.19-3.77 3.54-5.42 0.903-0.915 2-1.65 3.25-1.93 0.754-0.113 1.52-0.0542 2.25 0.167s1.41 0.605 1.99 1.13c0.737 0.829 1.24 1.84 1.69 2.87 0.442 1.04 0.828 2.13 1.35 3.14 0.477 1.04 0.857 2.1 1.38 3.08 0.524 0.979 1.21 1.9 2.18 2.48 0.921 0.413 1.95 0.478 2.92 0.274s1.89-0.673 2.7-1.3c0.711-0.568 1.35-1.23 2-1.85 0.65-0.625 1.32-1.22 2.01-1.63 1.05-0.733 2.07-1.06 2.89-1.01 1.04-1.52 2.7-2.55 4.46-2.83"/>
		<path id="path24521" d="m1.14 26.5c0.597 0.098 1.29 0.272 2.05 0.582 0.682 0.145 1.44 0.419 2.35 0.792 1.27 0.268 2.75 0.891 4.24 1.5 1.41 0.573 2.8 1.17 4.1 1.67 1.3 0.496 2.52 0.898 3.74 1.14 1.22 0.24 2.44 0.327 3.71 0.114 0.818-0.319 1.62-0.751 2.39-1.31 1.44-1.11 2.77-2.67 4.12-4.17 1.37-1.64 2.16-3.61 3.48-5.18 0.912-0.879 2.02-1.57 3.25-1.82 0.759-0.0915 1.53-0.0086 2.25 0.235 0.72 0.243 1.39 0.648 1.97 1.19 0.748 0.872 1.25 1.92 1.7 3 0.444 1.08 0.836 2.21 1.39 3.26 0.474 1.02 0.864 2.06 1.4 3.01 0.532 0.951 1.23 1.84 2.18 2.39 0.953 0.412 2.02 0.456 3.02 0.226 0.995-0.23 1.93-0.729 2.76-1.38 0.737-0.595 1.41-1.28 2.09-1.92 0.683-0.644 1.39-1.25 2.14-1.65 1.11-0.716 2.22-0.985 3.1-0.859 1.09-1.33 2.7-2.15 4.34-2.27"/>
		<path id="path24523" d="m1.14 26.2c0.619 0.199 1.32 0.473 2.07 0.876 0.67 0.225 1.41 0.572 2.3 1 1.23 0.333 2.66 0.987 4.13 1.59 1.38 0.564 2.75 1.12 4.03 1.56s2.49 0.77 3.68 0.938 2.38 0.184 3.59-0.0819c0.804-0.365 1.58-0.839 2.34-1.43 1.41-1.17 2.72-2.77 4.09-4.28 1.33-1.57 2.13-3.44 3.43-4.92 0.922-0.842 2.03-1.49 3.25-1.7 0.765-0.0696 1.53 0.0388 2.25 0.305 0.716 0.267 1.38 0.692 1.94 1.25 0.759 0.918 1.26 2.02 1.71 3.14s0.844 2.29 1.42 3.38c0.47 0.998 0.871 2.01 1.41 2.93 0.541 0.922 1.24 1.77 2.19 2.31 0.987 0.411 2.09 0.433 3.11 0.177 1.02-0.257 1.97-0.786 2.82-1.46 0.764-0.623 1.46-1.33 2.18-2 0.718-0.663 1.47-1.28 2.27-1.68 1.18-0.699 2.38-0.911 3.31-0.697 1.13-1.13 2.71-1.74 4.22-1.69"/>
		<path id="path24525" d="m1.13 25.8c0.643 0.304 1.35 0.682 2.1 1.18 0.657 0.308 1.37 0.732 2.24 1.22 1.18 0.401 2.57 1.09 4.02 1.69 1.35 0.555 2.7 1.07 3.97 1.46s2.45 0.638 3.62 0.732c1.16 0.0938 2.31 0.0363 3.47-0.286 0.789-0.412 1.55-0.93 2.28-1.56 1.38-1.24 2.66-2.88 4.05-4.39 1.28-1.51 2.09-3.27 3.37-4.66 0.932-0.804 2.04-1.41 3.25-1.58 0.772-0.0468 1.54 0.0881 2.25 0.379 0.711 0.291 1.37 0.737 1.92 1.31 0.771 0.965 1.27 2.11 1.72 3.28 0.448 1.17 0.852 2.38 1.45 3.5 0.467 0.976 0.879 1.96 1.43 2.85 0.55 0.892 1.25 1.71 2.19 2.22 1.02 0.409 2.16 0.41 3.21 0.125 1.05-0.284 2.02-0.846 2.89-1.55 0.791-0.652 1.52-1.39 2.27-2.07 0.755-0.683 1.55-1.31 2.4-1.71 1.26-0.681 2.54-0.834 3.54-0.529 1.18-0.926 2.71-1.3 4.1-1.08"/>
		<path id="path24527" d="m1.13 25.5c0.667 0.412 1.39 0.899 2.12 1.5 0.644 0.395 1.33 0.897 2.19 1.45 1.13 0.471 2.47 1.19 3.9 1.78 1.32 0.545 2.65 1.02 3.9 1.34 1.25 0.321 2.42 0.5 3.55 0.517 1.13 0.0168 2.24-0.117 3.35-0.497 0.773-0.461 1.51-1.02 2.23-1.69 1.35-1.31 2.6-2.98 4.01-4.5 1.24-1.44 2.06-3.09 3.31-4.38 0.942-0.764 2.06-1.32 3.26-1.45 0.778-0.0231 1.55 0.139 2.26 0.455s1.35 0.785 1.89 1.37c0.783 1.01 1.28 2.21 1.73 3.43s0.86 2.48 1.48 3.63c0.464 0.954 0.887 1.91 1.45 2.77 0.559 0.861 1.27 1.64 2.19 2.12 1.06 0.408 2.23 0.385 3.31 0.0719 1.08-0.313 2.06-0.908 2.96-1.63 0.82-0.682 1.58-1.45 2.37-2.15s1.64-1.35 2.54-1.74c1.33-0.663 2.71-0.754 3.78-0.355 1.22-0.712 2.71-0.853 3.97-0.445"/>
		<path id="path24529" d="m1.13 25.2c0.693 0.525 1.42 1.12 2.15 1.83 0.631 0.485 1.29 1.07 2.13 1.68 1.08 0.544 2.37 1.3 3.77 1.88 1.28 0.535 2.6 0.965 3.83 1.22 1.23 0.259 2.38 0.358 3.49 0.295 1.1-0.0631 2.16-0.277 3.22-0.716 0.757-0.512 1.48-1.12 2.17-1.82 1.32-1.38 2.55-3.1 3.97-4.62 1.19-1.36 2.02-2.91 3.25-4.1 0.953-0.723 2.07-1.23 3.26-1.32 0.785 0.0014 1.56 0.192 2.26 0.534 0.702 0.342 1.34 0.834 1.87 1.44 0.796 1.06 1.3 2.32 1.75 3.58 0.452 1.27 0.869 2.57 1.52 3.76 0.46 0.931 0.896 1.86 1.46 2.69 0.568 0.829 1.28 1.57 2.2 2.03 1.1 0.406 2.31 0.36 3.42 0.0166 1.1-0.343 2.11-0.972 3.03-1.72 0.85-0.714 1.64-1.51 2.47-2.24 0.832-0.726 1.72-1.38 2.68-1.77 1.41-0.644 2.89-0.671 4.02-0.174 1.27-0.49 2.71-0.387 3.83 0.21"/>
		<path id="path24531" d="m1.13 24.8c0.719 0.641 1.45 1.36 2.17 2.17 0.617 0.577 1.25 1.25 2.06 1.93 1.02 0.619 2.27 1.41 3.64 1.99 1.25 0.525 2.55 0.908 3.76 1.1 1.21 0.194 2.34 0.21 3.42 0.0643 1.07-0.146 2.09-0.441 3.09-0.943 0.741-0.564 1.44-1.22 2.11-1.96 1.28-1.46 2.48-3.21 3.93-4.74 1.14-1.29 1.98-2.72 3.19-3.8 0.965-0.68 2.09-1.14 3.26-1.18 0.792 0.0268 1.56 0.247 2.26 0.616 0.697 0.369 1.32 0.885 1.84 1.5 0.809 1.12 1.31 2.42 1.76 3.74 0.455 1.32 0.878 2.67 1.56 3.9 0.457 0.906 0.904 1.8 1.48 2.6 0.578 0.795 1.3 1.5 2.2 1.92 1.14 0.405 2.39 0.333 3.52-0.0406s2.16-1.04 3.1-1.82c0.881-0.746 1.7-1.57 2.57-2.32 0.872-0.748 1.81-1.42 2.83-1.8 1.49-0.624 3.07-0.586 4.27 0.0136 1.32-0.261 2.71 0.0962 3.7 0.888"/>
		<path id="path24533" d="m1.13 24.4c0.746 0.762 1.49 1.6 2.2 2.52 0.602 0.673 1.21 1.43 2 2.18 0.97 0.697 2.16 1.52 3.51 2.1 1.21 0.514 2.49 0.849 3.68 0.977 1.19 0.127 2.31 0.0575 3.35-0.174 1.04-0.231 2.01-0.612 2.96-1.18 0.724-0.619 1.4-1.33 2.04-2.1 1.24-1.53 2.42-3.33 3.89-4.86 1.08-1.21 1.94-2.52 3.12-3.5 0.976-0.636 2.11-1.04 3.26-1.04 0.799 0.053 1.57 0.304 2.26 0.7 0.691 0.396 1.3 0.938 1.81 1.57 0.822 1.17 1.32 2.54 1.78 3.9 0.457 1.37 0.888 2.77 1.59 4.04 0.453 0.881 0.913 1.75 1.5 2.51 0.588 0.76 1.32 1.43 2.21 1.82 1.18 0.403 2.47 0.306 3.64-0.0998 1.16-0.406 2.22-1.11 3.17-1.91 0.913-0.78 1.76-1.64 2.68-2.41 0.914-0.771 1.91-1.46 2.99-1.83 1.58-0.603 3.26-0.497 4.53 0.207 1.38-0.0232 2.71 0.595 3.55 1.59"/>
		<path id="path24535" d="m1.13 24.1c0.774 0.886 1.53 1.84 2.23 2.89 0.587 0.773 1.17 1.62 1.93 2.44 0.913 0.778 2.05 1.64 3.37 2.21 1.18 0.503 2.43 0.789 3.6 0.847 1.17 0.0581 2.27-0.1 3.27-0.419 1.01-0.319 1.93-0.788 2.82-1.42 0.706-0.675 1.35-1.44 1.98-2.25 1.21-1.62 2.36-3.45 3.85-4.99 1.03-1.13 1.9-2.31 3.06-3.18 0.988-0.59 2.12-0.944 3.27-0.894 0.806 0.0801 1.58 0.362 2.27 0.788 0.686 0.425 1.29 0.992 1.78 1.65 0.836 1.23 1.33 2.65 1.79 4.07 0.459 1.42 0.898 2.88 1.63 4.19 0.449 0.856 0.923 1.69 1.52 2.41 0.599 0.725 1.33 1.35 2.21 1.71 1.22 0.401 2.56 0.278 3.75-0.161 1.2-0.439 2.27-1.18 3.25-2.02 0.947-0.814 1.83-1.71 2.79-2.5 0.957-0.795 2-1.5 3.15-1.86 1.67-0.582 3.46-0.406 4.8 0.407 1.43 0.222 2.71 1.11 3.4 2.31"/>
		<path id="path24537" d="m1.13 23.7c0.803 1.01 1.56 2.1 2.26 3.26 0.571 0.875 1.12 1.81 1.86 2.71 0.855 0.861 1.94 1.76 3.23 2.32 1.14 0.491 2.37 0.726 3.52 0.712 1.15-0.0132 2.22-0.263 3.2-0.673 0.973-0.41 1.84-0.969 2.67-1.67 0.688-0.733 1.31-1.55 1.91-2.4 1.17-1.7 2.29-3.58 3.8-5.12 0.972-1.04 1.86-2.1 2.99-2.86 1-0.543 2.14-0.841 3.27-0.743 0.814 0.108 1.59 0.423 2.27 0.878s1.27 1.05 1.75 1.72c0.851 1.29 1.34 2.77 1.81 4.25 0.462 1.48 0.908 2.99 1.67 4.34 0.445 0.829 0.932 1.63 1.54 2.32 0.61 0.688 1.35 1.27 2.22 1.6 1.26 0.4 2.64 0.249 3.87-0.224s2.32-1.25 3.33-2.12c0.981-0.85 1.9-1.78 2.9-2.6s2.1-1.54 3.31-1.9c1.76-0.56 3.66-0.311 5.08 0.613 1.49 0.475 2.71 1.64 3.25 3.06"/>
		<path id="path24539" d="m1.13 23.3c0.833 1.15 1.6 2.36 2.29 3.65 0.556 0.98 1.07 2.02 1.79 2.98 0.794 0.946 1.83 1.89 3.08 2.44 1.1 0.48 2.31 0.661 3.44 0.574 1.13-0.0868 2.18-0.43 3.12-0.935 0.937-0.504 1.76-1.16 2.52-1.93 0.669-0.792 1.27-1.66 1.84-2.56 1.13-1.78 2.22-3.71 3.76-5.26 0.914-0.959 1.81-1.89 2.91-2.52 1.01-0.494 2.16-0.736 3.27-0.587 0.821 0.137 1.6 0.485 2.27 0.97 0.675 0.485 1.25 1.11 1.72 1.8 0.865 1.34 1.36 2.89 1.82 4.43 0.465 1.54 0.918 3.1 1.72 4.5 0.441 0.802 0.942 1.57 1.56 2.22 0.621 0.65 1.37 1.19 2.22 1.49 1.31 0.398 2.74 0.219 4-0.289s2.38-1.33 3.42-2.23c1.02-0.887 1.97-1.85 3.02-2.69 1.05-0.845 2.21-1.58 3.48-1.93 1.85-0.538 3.87-0.214 5.37 0.826 1.55 0.736 2.71 2.19 3.09 3.83"/>
		<path id="path24541" d="m1.13 22.9c0.864 1.28 1.64 2.64 2.32 4.05 0.539 1.09 1.03 2.22 1.72 3.27 0.733 1.03 1.71 2.02 2.93 2.56 1.06 0.468 2.25 0.594 3.35 0.432 1.11-0.162 2.14-0.603 3.04-1.2 0.901-0.601 1.67-1.35 2.37-2.19 0.65-0.854 1.22-1.78 1.77-2.72 1.09-1.87 2.15-3.85 3.71-5.4 0.854-0.87 1.77-1.66 2.84-2.18 1.03-0.444 2.18-0.628 3.27-0.427 0.829 0.167 1.61 0.549 2.28 1.07s1.23 1.17 1.69 1.88c0.881 1.41 1.37 3.02 1.84 4.61 0.467 1.59 0.929 3.22 1.76 4.66 0.437 0.773 0.952 1.5 1.58 2.11 0.633 0.611 1.39 1.1 2.23 1.37 1.35 0.396 2.83 0.188 4.13-0.356s2.44-1.4 3.5-2.34c1.05-0.925 2.04-1.92 3.14-2.79 1.1-0.871 2.31-1.62 3.66-1.97 1.95-0.514 4.08-0.113 5.66 1.05 1.61 1 2.71 2.75 2.93 4.62"/>
	</g>
	<path id="text3" d="m47.3 23.6c0 0.369 0.192 0.579 0.534 0.579 0.339 0 0.531-0.207 0.531-0.579v-3.33c0-0.402-0.254-0.662-0.635-0.662-0.218 0-0.449 0.0757-0.703 0.24l-0.531 0.359c-0.192 0.122-0.29 0.267-0.29 0.428 0 0.217 0.156 0.375 0.371 0.375 0.107 0 0.199-0.0329 0.368-0.142l0.342-0.234h0.013zm2.21 0c0 0.369 0.192 0.579 0.534 0.579 0.339 0 0.531-0.207 0.531-0.579v-3.33c0-0.402-0.254-0.662-0.635-0.662-0.218 0-0.449 0.0757-0.703 0.24l-0.531 0.359c-0.192 0.122-0.29 0.267-0.29 0.428 0 0.217 0.156 0.375 0.371 0.375 0.107 0 0.199-0.0329 0.368-0.142l0.342-0.234h0.013zm1.16-0.593c0 0.326 0.264 0.593 0.586 0.593 0.319 0 0.586-0.267 0.586-0.593s-0.267-0.593-0.586-0.593c-0.322 0-0.586 0.267-0.586 0.593zm0-2.17c0 0.326 0.264 0.593 0.586 0.593 0.319 0 0.586-0.267 0.586-0.593s-0.267-0.593-0.586-0.593c-0.322 0-0.586 0.267-0.586 0.593zm1.29 2.37c0 0.53 0.681 1.02 1.58 1.02 1.07 0 1.77-0.645 1.77-1.63 0-0.882-0.58-1.47-1.44-1.47-0.384 0-0.736 0.135-0.892 0.342h-0.0553l0.0717-0.975h1.63c0.316 0 0.489-0.151 0.489-0.425 0-0.277-0.176-0.438-0.489-0.438h-1.85c-0.407 0-0.622 0.178-0.645 0.53l-0.107 1.6c-0.0228 0.333 0.215 0.56 0.534 0.56 0.13 0 0.244-0.0395 0.407-0.168 0.195-0.142 0.41-0.221 0.612-0.221 0.41 0 0.703 0.283 0.703 0.695 0 0.435-0.306 0.728-0.736 0.728-0.296 0-0.531-0.132-0.756-0.412-0.124-0.148-0.244-0.207-0.401-0.207-0.264 0-0.43 0.214-0.43 0.471zm3.39 0c0 0.53 0.681 1.02 1.58 1.02 1.07 0 1.77-0.645 1.77-1.63 0-0.882-0.58-1.47-1.44-1.47-0.384 0-0.736 0.135-0.892 0.342h-0.0554l0.0717-0.975h1.63c0.316 0 0.488-0.151 0.488-0.425 0-0.277-0.176-0.438-0.488-0.438h-1.85c-0.407 0-0.622 0.178-0.645 0.53l-0.107 1.6c-0.0228 0.333 0.215 0.56 0.534 0.56 0.13 0 0.244-0.0395 0.407-0.168 0.195-0.142 0.41-0.221 0.612-0.221 0.41 0 0.703 0.283 0.703 0.695 0 0.435-0.306 0.728-0.736 0.728-0.296 0-0.531-0.132-0.756-0.412-0.124-0.148-0.244-0.207-0.401-0.207-0.264 0-0.43 0.214-0.43 0.471z" fill="#fff" opacity=".8" stroke-width="1.12" aria-label=" 11:55"/>
	<path id="path9" d="m13.4 58a1.03 0.964 0 0 0-1.04 0.966 1.03 0.964 0 0 0 1.04 0.964 1.03 0.964 0 0 0 1.03-0.964 1.03 0.964 0 0 0-1.03-0.966zm4.13 0a1.03 0.964 0 0 0-1.04 0.966 1.03 0.964 0 0 0 1.04 0.964 1.03 0.964 0 0 0 1.03-0.964 1.03 0.964 0 0 0-1.03-0.966zm4.13 0a1.03 0.964 0 0 0-1.03 0.966 1.03 0.964 0 0 0 1.03 0.964 1.03 0.964 0 0 0 1.04-0.964 1.03 0.964 0 0 0-1.04-0.966zm4.13 0a1.03 0.964 0 0 0-1.04 0.966 1.03 0.964 0 0 0 1.04 0.964 1.03 0.964 0 0 0 1.04-0.964 1.03 0.964 0 0 0-1.04-0.966zm4.13 0a1.03 0.964 0 0 0-1.04 0.966 1.03 0.964 0 0 0 1.04 0.964 1.03 0.964 0 0 0 1.03-0.964 1.03 0.964 0 0 0-1.03-0.966zm4.13 0a1.03 0.964 0 0 0-1.03 0.966 1.03 0.964 0 0 0 1.03 0.964 1.03 0.964 0 0 0 1.04-0.964 1.03 0.964 0 0 0-1.04-0.966zm4.13 0a1.03 0.964 0 0 0-1.03 0.966 1.03 0.964 0 0 0 1.03 0.964 1.03 0.964 0 0 0 1.04-0.964 1.03 0.964 0 0 0-1.04-0.966zm4.13 0a1.03 0.964 0 0 0-1.04 0.966 1.03 0.964 0 0 0 1.04 0.964 1.03 0.964 0 0 0 1.03-0.964 1.03 0.964 0 0 0-1.03-0.966zm4.13 0a1.03 0.964 0 0 0-1.04 0.966 1.03 0.964 0 0 0 1.04 0.964 1.03 0.964 0 0 0 1.03-0.964 1.03 0.964 0 0 0-1.03-0.966zm4.13 0a1.03 0.964 0 0 0-1.03 0.966 1.03 0.964 0 0 0 1.03 0.964 1.03 0.964 0 0 0 1.04-0.964 1.03 0.964 0 0 0-1.04-0.966z" fill="url(#linearGradient18)" stroke-linecap="round" stroke-linejoin="round" stroke-width="2"/>
</svg>
