<?xml version="1.0" encoding="UTF-8" standalone="no"?>
<!-- Generator: Gravit.io -->

<svg
   xmlns:dc="http://purl.org/dc/elements/1.1/"
   xmlns:cc="http://creativecommons.org/ns#"
   xmlns:rdf="http://www.w3.org/1999/02/22-rdf-syntax-ns#"
   xmlns:svg="http://www.w3.org/2000/svg"
   xmlns="http://www.w3.org/2000/svg"
   xmlns:xlink="http://www.w3.org/1999/xlink"
   xmlns:sodipodi="http://sodipodi.sourceforge.net/DTD/sodipodi-0.dtd"
   xmlns:inkscape="http://www.inkscape.org/namespaces/inkscape"
   style="isolation:isolate"
   viewBox="0 0 48 48"
   width="48"
   height="48"
   version="1.1"
   id="svg25"
   sodipodi:docname="folder-music.svg"
   inkscape:version="0.92.3 (2405546, 2018-03-11)">
  <metadata
     id="metadata29">
    <rdf:RDF>
      <cc:Work
         rdf:about="">
        <dc:format>image/svg+xml</dc:format>
        <dc:type
           rdf:resource="http://purl.org/dc/dcmitype/StillImage" />
      </cc:Work>
    </rdf:RDF>
  </metadata>
  <sodipodi:namedview
     pagecolor="#ffffff"
     bordercolor="#666666"
     borderopacity="1"
     objecttolerance="10"
     gridtolerance="10"
     guidetolerance="10"
     inkscape:pageopacity="0"
     inkscape:pageshadow="2"
     inkscape:window-width="878"
     inkscape:window-height="480"
     id="namedview27"
     showgrid="false"
     inkscape:zoom="4.9166667"
     inkscape:cx="24"
     inkscape:cy="24"
     inkscape:window-x="0"
     inkscape:window-y="25"
     inkscape:window-maximized="0"
     inkscape:current-layer="g23" />
  <defs
     id="defs5">
    <clipPath
       id="_clipPath_cG5STF0pEYizwOVaIpk4UE0SfgsbCRoB">
      <rect
         width="48"
         height="48"
         id="rect2" />
    </clipPath>
    <linearGradient
       inkscape:collect="always"
       xlink:href="#_lgradient_31"
       id="linearGradient842"
       x1="14.25"
       y1="31.426859"
       x2="31.5"
       y2="31.426859"
       gradientUnits="userSpaceOnUse" />
    <linearGradient
       inkscape:collect="always"
       xlink:href="#_lgradient_31"
       id="linearGradient850"
       x1="0.72883397"
       y1="30.826435"
       x2="46.729"
       y2="30.826435"
       gradientUnits="userSpaceOnUse" />
    <linearGradient
       inkscape:collect="always"
       xlink:href="#_lgradient_31"
       id="linearGradient858"
       x1="0.74267697"
       y1="15.475848"
       x2="20.946566"
       y2="15.475848"
       gradientUnits="userSpaceOnUse" />
  </defs>
  <g
     clip-path="url(#_clipPath_cG5STF0pEYizwOVaIpk4UE0SfgsbCRoB)"
     id="g23">
    <linearGradient
       id="_lgradient_30"
       x1="-0.04632800608827978"
       y1="0.15974072496964337"
       x2="0.8522006595636732"
       y2="0.7102370619103313"
       gradientTransform="matrix(45,0,0,30.763,1.229,15.445)"
       gradientUnits="userSpaceOnUse">
      <stop
         offset="3.0434782608695654%"
         stop-opacity="1"
         style="stop-color:#FF416C"
         id="stop7" />
      <stop
         offset="98.26086956521739%"
         stop-opacity="1"
         style="stop-color:#FF4B2B"
         id="stop9" />
    </linearGradient>
    <path
       d=" M 1.545 46.208 L 45.923 46.198 C 46.092 46.198 46.229 46.061 46.229 45.892 L 46.229 15.772 C 46.229 15.603 46.092 15.466 45.923 15.465 L 20.107 15.445 L 15.886 18.651 C 15.818 18.702 15.695 18.743 15.61 18.743 L 1.229 18.688 L 1.238 45.902 C 1.238 46.071 1.376 46.208 1.545 46.208 Z "
       fill="url(#_lgradient_30)"
       vector-effect="non-scaling-stroke"
       stroke-width="1"
       stroke="#FF4B2B"
       stroke-linejoin="miter"
       stroke-linecap="square"
       stroke-miterlimit="3"
       id="path12"
       style="fill:none;stroke:url(#linearGradient850)" />
    <linearGradient
       id="_lgradient_31"
       x1="0"
       y1="0.5"
       x2="1"
       y2="0.5"
       gradientTransform="matrix(18.873,0,0,6.535,1.243,12.208)"
       gradientUnits="userSpaceOnUse">
      <stop
         offset="3.0434782608695654%"
         stop-opacity="1"
         style="stop-color:#FF416C"
         id="stop14" />
      <stop
         offset="98.26086956521739%"
         stop-opacity="1"
         style="stop-color:#FF4B2B"
         id="stop16" />
    </linearGradient>
    <path
       d=" M 20.116 15.456 L 15.887 12.3 C 15.819 12.249 15.695 12.208 15.61 12.208 L 1.554 12.208 C 1.385 12.208 1.247 12.346 1.247 12.515 L 1.243 18.683 L 15.8 18.743 L 20.116 15.456 Z "
       fill="url(#_lgradient_31)"
       vector-effect="non-scaling-stroke"
       stroke-width="1"
       stroke="#FF4B2B"
       stroke-linejoin="miter"
       stroke-linecap="square"
       stroke-miterlimit="3"
       id="path19"
       style="stroke:url(#linearGradient858);fill:none" />
    <path
       d=" M 31.385 22.21 C 31.312 22.146 31.216 22.117 31.118 22.128 L 20.633 23.485 C 20.464 23.507 20.338 23.65 20.338 23.82 L 20.338 25.855 L 20.338 27.28 L 20.338 35.866 C 19.721 35.123 18.739 34.64 17.632 34.64 C 15.767 34.64 14.25 36.006 14.25 37.684 C 14.25 39.363 15.767 40.728 17.632 40.728 C 19.497 40.728 21.015 39.363 21.015 37.684 C 21.015 37.606 21.008 37.529 21.002 37.452 C 21.006 37.43 21.015 37.41 21.015 37.387 L 21.015 27.577 L 30.824 26.308 L 30.824 32.483 C 30.206 31.741 29.225 31.258 28.118 31.258 C 26.253 31.258 24.735 32.623 24.735 34.302 C 24.735 35.981 26.253 37.346 28.118 37.346 C 29.966 37.346 31.471 36.005 31.498 34.347 C 31.498 34.343 31.5 34.339 31.5 34.334 L 31.5 25.923 L 31.5 24.499 L 31.5 22.464 C 31.5 22.366 31.458 22.274 31.385 22.21 Z  M 17.632 40.052 C 16.14 40.052 14.926 38.99 14.926 37.684 C 14.926 36.379 16.14 35.317 17.632 35.317 C 19.124 35.317 20.338 36.379 20.338 37.684 C 20.338 38.99 19.124 40.052 17.632 40.052 Z  M 28.118 36.67 C 26.626 36.67 25.412 35.607 25.412 34.302 C 25.412 32.997 26.626 31.934 28.118 31.934 C 29.61 31.934 30.824 32.997 30.824 34.302 C 30.824 35.607 29.61 36.67 28.118 36.67 Z  M 21.015 26.895 L 21.015 25.855 L 21.015 24.117 L 30.824 22.848 L 30.824 24.499 L 30.824 25.626 L 21.015 26.895 Z "
       fill="rgb(255,255,255)"
       id="path21"
       style="fill-opacity:1.0;fill:url(#linearGradient842)" />
  </g>
</svg>
