<?xml version="1.0" encoding="UTF-8" standalone="no"?>
<!-- Generator: Gravit.io -->

<svg
   xmlns:dc="http://purl.org/dc/elements/1.1/"
   xmlns:cc="http://creativecommons.org/ns#"
   xmlns:rdf="http://www.w3.org/1999/02/22-rdf-syntax-ns#"
   xmlns:svg="http://www.w3.org/2000/svg"
   xmlns="http://www.w3.org/2000/svg"
   xmlns:xlink="http://www.w3.org/1999/xlink"
   xmlns:sodipodi="http://sodipodi.sourceforge.net/DTD/sodipodi-0.dtd"
   xmlns:inkscape="http://www.inkscape.org/namespaces/inkscape"
   style="isolation:isolate"
   viewBox="0 0 48 48"
   width="48"
   height="48"
   version="1.1"
   id="svg25"
   sodipodi:docname="folder-templates.svg"
   inkscape:version="0.92.3 (2405546, 2018-03-11)">
  <metadata
     id="metadata29">
    <rdf:RDF>
      <cc:Work
         rdf:about="">
        <dc:format>image/svg+xml</dc:format>
        <dc:type
           rdf:resource="http://purl.org/dc/dcmitype/StillImage" />
      </cc:Work>
    </rdf:RDF>
  </metadata>
  <sodipodi:namedview
     pagecolor="#ffffff"
     bordercolor="#666666"
     borderopacity="1"
     objecttolerance="10"
     gridtolerance="10"
     guidetolerance="10"
     inkscape:pageopacity="0"
     inkscape:pageshadow="2"
     inkscape:window-width="1366"
     inkscape:window-height="713"
     id="namedview27"
     showgrid="false"
     inkscape:zoom="10.371094"
     inkscape:cx="24"
     inkscape:cy="24"
     inkscape:window-x="0"
     inkscape:window-y="25"
     inkscape:window-maximized="1"
     inkscape:current-layer="g23" />
  <defs
     id="defs5">
    <clipPath
       id="_clipPath_RylcPVcRiaQL1WtMYvwx0M1Spk3bVQEd">
      <rect
         width="48"
         height="48"
         id="rect2" />
    </clipPath>
    <linearGradient
       inkscape:collect="always"
       xlink:href="#_lgradient_29"
       id="linearGradient842"
       x1="15.188"
       y1="31.3125"
       x2="34.063"
       y2="31.3125"
       gradientUnits="userSpaceOnUse" />
    <linearGradient
       inkscape:collect="always"
       xlink:href="#_lgradient_29"
       id="linearGradient850"
       x1="0.72883397"
       y1="30.826435"
       x2="46.729"
       y2="30.826435"
       gradientUnits="userSpaceOnUse" />
    <linearGradient
       inkscape:collect="always"
       xlink:href="#_lgradient_29"
       id="linearGradient858"
       x1="0.74267697"
       y1="15.475848"
       x2="20.946566"
       y2="15.475848"
       gradientUnits="userSpaceOnUse" />
  </defs>
  <g
     clip-path="url(#_clipPath_RylcPVcRiaQL1WtMYvwx0M1Spk3bVQEd)"
     id="g23">
    <linearGradient
       id="_lgradient_28"
       x1="-0.04632800608827978"
       y1="0.15974072496964337"
       x2="0.8522006595636732"
       y2="0.7102370619103313"
       gradientTransform="matrix(45,0,0,30.763,1.229,15.445)"
       gradientUnits="userSpaceOnUse">
      <stop
         offset="3.0434782608695654%"
         stop-opacity="1"
         style="stop-color:#FF416C"
         id="stop7" />
      <stop
         offset="98.26086956521739%"
         stop-opacity="1"
         style="stop-color:#FF4B2B"
         id="stop9" />
    </linearGradient>
    <path
       d=" M 1.545 46.208 L 45.923 46.198 C 46.092 46.198 46.229 46.061 46.229 45.892 L 46.229 15.772 C 46.229 15.603 46.092 15.466 45.923 15.465 L 20.107 15.445 L 15.886 18.651 C 15.818 18.702 15.695 18.743 15.61 18.743 L 1.229 18.688 L 1.238 45.902 C 1.238 46.071 1.376 46.208 1.545 46.208 Z "
       fill="url(#_lgradient_28)"
       vector-effect="non-scaling-stroke"
       stroke-width="1"
       stroke="#FF4B2B"
       stroke-linejoin="miter"
       stroke-linecap="square"
       stroke-miterlimit="3"
       id="path12"
       style="fill:none;stroke:url(#linearGradient850)" />
    <linearGradient
       id="_lgradient_29"
       x1="0"
       y1="0.5"
       x2="1"
       y2="0.5"
       gradientTransform="matrix(18.873,0,0,6.535,1.243,12.208)"
       gradientUnits="userSpaceOnUse">
      <stop
         offset="3.0434782608695654%"
         stop-opacity="1"
         style="stop-color:#FF416C"
         id="stop14" />
      <stop
         offset="98.26086956521739%"
         stop-opacity="1"
         style="stop-color:#FF4B2B"
         id="stop16" />
    </linearGradient>
    <path
       d=" M 20.116 15.456 L 15.887 12.3 C 15.819 12.249 15.695 12.208 15.61 12.208 L 1.554 12.208 C 1.385 12.208 1.247 12.346 1.247 12.515 L 1.243 18.683 L 15.8 18.743 L 20.116 15.456 Z "
       fill="url(#_lgradient_29)"
       vector-effect="non-scaling-stroke"
       stroke-width="1"
       stroke="#FF4B2B"
       stroke-linejoin="miter"
       stroke-linecap="square"
       stroke-miterlimit="3"
       id="path19"
       style="stroke:url(#linearGradient858);fill:none" />
    <path
       d=" M 17.252 22.4 C 17.244 22.4 17.236 22.4 17.228 22.4 C 16.909 22.408 16.655 22.704 16.662 23.061 L 16.662 24.381 L 17.252 24.381 L 17.252 23.061 L 18.727 23.061 L 18.727 22.4 L 17.252 22.4 L 17.252 22.4 L 17.252 22.4 L 17.252 22.4 L 17.252 22.4 L 17.252 22.4 L 17.252 22.4 L 17.252 22.4 L 17.252 22.4 L 17.252 22.4 Z  M 20.496 36.594 L 31.113 36.594 L 31.113 37.254 L 20.496 37.254 L 20.496 36.594 L 20.496 36.594 L 20.496 36.594 L 20.496 36.594 Z  M 18.727 34.943 L 18.727 30.789 L 22.438 34.943 L 18.727 34.943 L 18.727 34.943 L 18.727 34.943 L 18.727 34.943 L 18.727 34.943 L 18.727 34.943 L 18.727 34.943 L 18.727 34.943 L 18.727 34.943 Z  M 22.855 34.477 L 19.144 30.322 L 22.855 30.322 L 22.855 34.477 L 22.855 34.477 L 22.855 34.477 L 22.855 34.477 L 22.855 34.477 L 22.855 34.477 L 22.855 34.477 L 22.855 34.477 L 22.855 34.477 Z  M 30.523 31.643 L 24.625 31.643 L 24.625 30.322 L 30.523 30.322 L 30.523 31.643 L 30.523 31.643 L 30.523 31.643 L 30.523 31.643 L 30.523 31.643 L 30.523 31.643 L 30.523 31.643 L 30.523 31.643 Z  M 30.523 28.012 L 18.727 28.012 L 18.727 24.711 L 30.523 24.711 L 30.523 28.012 L 30.523 28.012 L 30.523 28.012 L 30.523 28.012 L 30.523 28.012 L 30.523 28.012 L 30.523 28.012 L 30.523 28.012 L 30.523 28.012 L 30.523 28.012 Z  M 24.035 34.943 L 31.113 34.943 L 31.113 35.604 L 24.035 35.604 L 24.035 34.943 L 24.035 34.943 L 24.035 34.943 L 24.035 34.943 L 24.035 34.943 Z  M 24.035 33.293 L 31.113 33.293 L 31.113 33.953 L 24.035 33.953 L 24.035 33.293 L 24.035 33.293 L 24.035 33.293 L 24.035 33.293 L 24.035 33.293 L 24.035 33.293 Z  M 18.137 38.244 L 28.754 38.244 L 28.754 38.904 L 18.137 38.904 L 18.137 38.244 L 18.137 38.244 L 18.137 38.244 Z  M 18.137 36.594 L 18.727 36.594 L 18.727 37.254 L 18.137 37.254 L 18.137 36.594 L 18.137 36.594 Z  M 30.818 24.051 L 18.432 24.051 C 18.269 24.051 18.137 24.199 18.137 24.381 L 18.137 28.342 C 18.137 28.524 18.269 28.672 18.432 28.672 L 30.818 28.672 C 30.981 28.672 31.113 28.524 31.113 28.342 L 31.113 24.381 C 31.113 24.199 30.981 24.051 30.818 24.051 L 30.818 24.051 L 30.818 24.051 L 30.818 24.051 L 30.818 24.051 L 30.818 24.051 L 30.818 24.051 L 30.818 24.051 L 30.818 24.051 L 30.818 24.051 Z  M 30.818 29.662 L 24.33 29.662 C 24.167 29.662 24.035 29.81 24.035 29.992 L 24.035 31.973 C 24.035 32.155 24.167 32.303 24.33 32.303 L 30.818 32.303 C 30.981 32.303 31.113 32.155 31.113 31.973 L 31.113 29.992 C 31.113 29.81 30.981 29.662 30.818 29.662 L 30.818 29.662 L 30.818 29.662 L 30.818 29.662 L 30.818 29.662 L 30.818 29.662 L 30.818 29.662 L 30.818 29.662 Z  M 23.15 29.662 L 18.432 29.662 C 18.269 29.662 18.137 29.81 18.137 29.992 L 18.137 35.273 C 18.137 35.456 18.269 35.604 18.432 35.604 L 23.15 35.604 C 23.313 35.604 23.445 35.456 23.445 35.273 L 23.445 29.992 C 23.445 29.81 23.313 29.662 23.15 29.662 L 23.15 29.662 L 23.15 29.662 L 23.15 29.662 L 23.15 29.662 L 23.15 29.662 L 23.15 29.662 L 23.15 29.662 L 23.15 29.662 Z  M 33.473 40.225 C 33.473 40.772 33.077 41.215 32.588 41.215 L 16.662 41.215 C 16.173 41.215 15.777 40.772 15.777 40.225 L 15.777 22.4 C 15.777 21.853 16.173 21.41 16.662 21.41 L 32.588 21.41 C 33.077 21.41 33.473 21.853 33.473 22.4 L 33.473 40.225 L 33.473 40.225 L 33.473 40.225 L 33.473 40.225 L 33.473 40.225 L 33.473 40.225 L 33.473 40.225 L 33.473 40.225 L 33.473 40.225 L 33.473 40.225 L 33.473 40.225 Z  M 32.588 20.75 L 16.662 20.75 C 15.848 20.751 15.188 21.489 15.188 22.4 L 15.188 40.225 C 15.188 41.136 15.848 41.874 16.662 41.875 L 32.588 41.875 C 33.402 41.874 34.062 41.136 34.063 40.225 L 34.063 22.4 C 34.062 21.489 33.402 20.751 32.588 20.75 L 32.588 20.75 L 32.588 20.75 L 32.588 20.75 L 32.588 20.75 L 32.588 20.75 L 32.588 20.75 L 32.588 20.75 L 32.588 20.75 L 32.588 20.75 L 32.588 20.75 Z  M 19.316 36.594 L 19.906 36.594 L 19.906 37.254 L 19.316 37.254 L 19.316 36.594 Z "
       fill-rule="evenodd"
       fill="rgb(255,255,255)"
       id="path21"
       style="fill:url(#linearGradient842);fill-opacity:1.0" />
  </g>
</svg>
