<?xml version="1.0" encoding="UTF-8" standalone="no"?><!-- Generator: Gravit.io --><svg xmlns="http://www.w3.org/2000/svg" xmlns:xlink="http://www.w3.org/1999/xlink" style="isolation:isolate" viewBox="0 0 48 48" width="48pt" height="48pt"><linearGradient id="_lgradient_12" x1="0.1821679324322122" y1="0.22018368335520974" x2="0.9104042237403923" y2="0.9088790705669104" gradientTransform="matrix(45,0,0,45,1.5,1.5)" gradientUnits="userSpaceOnUse"><stop offset="1.3043478260869565%" stop-opacity="1" style="stop-color:rgb(223,87,255)"/><stop offset="97.91666666666666%" stop-opacity="1" style="stop-color:rgb(14,175,254)"/></linearGradient><path d=" M 24.543 6.5 L 16.615 6.5 L 16.615 6.5 L 23.115 13 L 31.043 13 L 24.543 6.5 Z  M 31.615 6.5 L 37.5 6.5 C 39.708 6.5 41.5 8.292 41.5 10.5 L 41.5 13 L 41.5 13 L 41.5 13 L 38.115 13 L 31.615 6.5 Z  M 9.637 6.594 C 7.844 6.989 6.5 8.589 6.5 10.5 L 6.5 13 L 16.043 13 L 9.637 6.594 L 9.637 6.594 Z  M 31.827 29.656 C 31.827 29.556 16.301 20.188 16.301 20.188 C 16.259 20.218 16.202 20.258 16.174 20.278 C 16.174 20.278 16.164 38.941 16.215 39 L 31.827 29.656 L 31.827 29.656 L 31.827 29.656 Z  M 41.5 18 L 41.5 37.5 C 41.5 39.708 39.708 41.5 37.5 41.5 L 10.5 41.5 C 8.292 41.5 6.5 39.708 6.5 37.5 L 6.5 18 L 41.5 18 L 41.5 18 L 41.5 18 L 41.5 18 Z  M 46.5 13 L 46.5 7.5 C 46.5 4.189 43.811 1.5 40.5 1.5 L 7.5 1.5 L 7.5 1.5 C 4.189 1.5 1.5 4.189 1.5 7.5 L 1.5 13 L 1.5 13 L 1.5 18 L 1.5 40.5 C 1.5 43.811 4.189 46.5 7.5 46.5 L 40.5 46.5 C 43.811 46.5 46.5 43.811 46.5 40.5 L 46.5 18 L 46.5 13 L 46.5 13 L 46.5 13 L 46.5 13 Z " fill-rule="evenodd" fill="url(#_lgradient_12)"/></svg>