<?xml version="1.0" encoding="UTF-8" standalone="no"?><!-- Generator: Gravit.io --><svg xmlns="http://www.w3.org/2000/svg" xmlns:xlink="http://www.w3.org/1999/xlink" style="isolation:isolate" viewBox="0 0 48 48" width="48pt" height="48pt"><linearGradient id="_lgradient_15" x1="0.06921675290635927" y1="0.04954622301483706" x2="0.8418412982366472" y2="0.9780219780219779" gradientTransform="matrix(44.977,0,0,45.5,1.511,1.25)" gradientUnits="userSpaceOnUse"><stop offset="0%" stop-opacity="1" style="stop-color:rgb(198,42,255)"/><stop offset="48.333333333333336%" stop-opacity="1" style="stop-color:rgb(14,207,252)"/><stop offset="99.58333333333333%" stop-opacity="1" style="stop-color:rgb(64,255,196)"/><stop offset="100%" stop-opacity="1" style="stop-color:rgb(0,0,0)"/></linearGradient><path d=" M 37.075 17.986 L 37.075 17.463 C 37.075 16.308 38.012 15.371 39.167 15.371 L 40.213 15.371 C 41.367 15.371 42.305 16.308 42.305 17.463 L 42.305 17.986 L 42.305 38.905 C 42.305 40.987 41.478 42.984 40.003 44.449 C 38.539 45.924 36.541 46.75 34.46 46.75 L 13.54 46.75 C 11.459 46.75 9.461 45.924 7.997 44.449 C 6.522 42.984 5.695 40.987 5.695 38.905 L 5.695 17.986 L 5.695 17.463 C 5.695 16.308 6.633 15.371 7.787 15.371 L 8.833 15.371 C 9.988 15.371 10.925 16.308 10.925 17.463 L 10.925 17.986 L 10.925 38.905 C 10.925 39.596 11.197 40.265 11.689 40.757 C 12.18 41.248 12.85 41.52 13.54 41.52 L 34.46 41.52 C 35.15 41.52 35.82 41.248 36.311 40.757 C 36.803 40.265 37.075 39.596 37.075 38.905 L 37.075 17.986 L 37.075 17.986 L 37.075 17.986 Z  M 18.917 7.526 L 18.917 11.71 C 18.917 12.864 17.979 13.802 16.825 13.802 L 4.126 13.802 L 4.126 13.802 C 2.683 13.802 1.511 12.63 1.511 11.187 L 1.511 11.187 C 1.511 9.744 2.683 8.572 4.126 8.572 L 4.126 8.572 L 13.687 8.572 L 13.687 5.957 C 13.687 4.712 14.178 3.509 15.057 2.631 C 15.946 1.742 17.138 1.25 18.394 1.25 L 28.655 1.25 C 29.91 1.25 31.102 1.742 31.991 2.631 C 32.87 3.509 33.361 4.712 33.361 5.957 L 33.361 8.572 L 43.874 8.572 L 43.874 8.572 C 45.317 8.572 46.489 9.744 46.489 11.187 L 46.489 11.187 C 46.489 12.63 45.317 13.802 43.874 13.802 L 43.874 13.802 L 30.224 13.802 C 29.069 13.802 28.132 12.864 28.132 11.71 L 28.132 7.526 C 28.132 6.949 27.663 6.48 27.086 6.48 L 19.963 6.48 C 19.385 6.48 18.917 6.949 18.917 7.526 L 18.917 7.526 L 18.917 7.526 Z  M 16.155 19.555 L 21.385 19.555 L 21.385 37.336 L 16.155 37.336 L 16.155 19.555 L 16.155 19.555 Z  M 26.615 19.555 L 31.845 19.555 L 31.845 37.336 L 26.615 37.336 L 26.615 19.555 Z " fill-rule="evenodd" fill="url(#_lgradient_15)"/></svg>