<?xml version="1.0" standalone="no"?><!-- Generator: Gravit.io --><svg xmlns="http://www.w3.org/2000/svg" xmlns:xlink="http://www.w3.org/1999/xlink" style="isolation:isolate" viewBox="0 0 48 48" width="48" height="48"><defs><clipPath id="_clipPath_ufsoPRSbK1w1q9mTdCdaNJr9VYC3xorz"><rect width="48" height="48"/></clipPath></defs><g clip-path="url(#_clipPath_ufsoPRSbK1w1q9mTdCdaNJr9VYC3xorz)"><linearGradient id="_lgradient_19" x1="-0.04632800608827978" y1="0.15974072496964337" x2="0.8522006595636732" y2="0.7102370619103313"><stop offset="3.0434782608695654%" stop-opacity="1" style="stop-color:#F7F206"/><stop offset="98.69565217391305%" stop-opacity="1" style="stop-color:#FFBB24"/></linearGradient><path d=" M 20.105 15.447 L 20.107 15.445 L 45.923 15.465 C 46.092 15.466 46.229 15.603 46.229 15.772 L 46.229 45.892 C 46.229 46.061 46.092 46.198 45.923 46.198 L 1.545 46.208 C 1.376 46.208 1.238 46.071 1.238 45.902 L 1.229 18.688 L 15.61 18.743 C 15.614 18.743 15.617 18.743 15.621 18.743 L 1.243 18.683 L 1.247 12.515 C 1.247 12.346 1.385 12.208 1.554 12.208 L 15.61 12.208 C 15.695 12.208 15.819 12.249 15.887 12.3 L 20.105 15.447 Z  M 20.105 15.447 L 15.886 18.651 C 15.821 18.7 15.705 18.74 15.621 18.743 L 15.8 18.743 L 20.116 15.456 L 20.105 15.447 Z " fill-rule="evenodd" fill="none" vector-effect="non-scaling-stroke" stroke-width="1.5" stroke="url(#_lgradient_19)" stroke-linejoin="miter" stroke-linecap="square" stroke-miterlimit="3"/><linearGradient id="_lgradient_20" x1="-0.04632800608827978" y1="0.15974072496964337" x2="0.8522006595636732" y2="0.7102370619103313" gradientTransform="matrix(15.354,0,0,20,16.271,21.292)" gradientUnits="userSpaceOnUse"><stop offset="3.0434782608695654%" stop-opacity="1" style="stop-color:#F7F206"/><stop offset="98.69565217391305%" stop-opacity="1" style="stop-color:#FFBB24"/></linearGradient><linearGradient id="_lgradient_21" x1="-0.04632800608827978" y1="0.15974072496964337" x2="0.8522006595636732" y2="0.7102370619103313"><stop offset="3.0434782608695654%" stop-opacity="1" style="stop-color:#F7F206"/><stop offset="98.69565217391305%" stop-opacity="1" style="stop-color:#FFBB24"/></linearGradient><path d=" M 28.746 29.625 L 20.749 29.625 C 20.573 29.625 20.429 29.774 20.429 29.958 C 20.429 30.143 20.573 30.292 20.749 30.292 L 28.746 30.292 C 28.923 30.292 29.066 30.143 29.066 29.958 C 29.066 29.774 28.923 29.625 28.746 29.625 L 28.746 29.625 L 28.746 29.625 L 28.746 29.625 L 28.746 29.625 Z  M 20.749 27.625 L 23.948 27.625 C 24.124 27.625 24.268 27.476 24.268 27.292 C 24.268 27.107 24.124 26.958 23.948 26.958 L 20.749 26.958 C 20.573 26.958 20.429 27.107 20.429 27.292 C 20.429 27.476 20.573 27.625 20.749 27.625 L 20.749 27.625 L 20.749 27.625 L 20.749 27.625 L 20.749 27.625 Z  M 28.746 32.292 L 20.749 32.292 C 20.573 32.292 20.429 32.441 20.429 32.625 C 20.429 32.809 20.573 32.958 20.749 32.958 L 28.746 32.958 C 28.923 32.958 29.066 32.809 29.066 32.625 C 29.066 32.441 28.923 32.292 28.746 32.292 L 28.746 32.292 L 28.746 32.292 L 28.746 32.292 Z  M 28.746 34.958 L 20.749 34.958 C 20.573 34.958 20.429 35.107 20.429 35.292 C 20.429 35.476 20.573 35.625 20.749 35.625 L 28.746 35.625 C 28.923 35.625 29.066 35.476 29.066 35.292 C 29.066 35.107 28.923 34.958 28.746 34.958 L 28.746 34.958 L 28.746 34.958 Z  M 28.746 37.625 L 20.749 37.625 C 20.573 37.625 20.429 37.774 20.429 37.958 C 20.429 38.143 20.573 38.292 20.749 38.292 L 28.746 38.292 C 28.923 38.292 29.066 38.143 29.066 37.958 C 29.066 37.774 28.923 37.625 28.746 37.625 L 28.746 37.625 Z  M 27.147 24.096 L 30.026 27.096 L 30.533 27.625 L 27.147 27.625 L 27.147 24.096 L 27.147 24.096 Z  M 16.911 38.958 L 16.911 21.958 L 29.386 21.958 L 29.386 25.487 L 26.959 22.958 L 17.87 22.958 L 17.87 38.958 L 16.911 38.958 L 16.911 38.958 Z  M 18.51 40.625 L 18.51 39.625 L 18.51 23.625 L 26.507 23.625 L 26.507 28.292 L 30.985 28.292 L 30.985 40.625 L 18.51 40.625 L 18.51 40.625 Z  M 30.026 26.154 L 30.026 21.292 L 16.271 21.292 L 16.271 39.625 L 17.87 39.625 L 17.87 41.292 L 31.625 41.292 L 31.625 27.82 L 30.026 26.154 L 30.026 26.154 Z  M 18.76 21.96 M 16.511 27.868" fill-rule="evenodd" fill="url(#_lgradient_20)" vector-effect="non-scaling-stroke" stroke-width="0.5" stroke="url(#_lgradient_21)" stroke-linejoin="miter" stroke-linecap="butt" stroke-miterlimit="4"/></g></svg>