<?xml version="1.0" encoding="UTF-8" standalone="no"?><!-- Generator: Gravit.io --><svg xmlns="http://www.w3.org/2000/svg" xmlns:xlink="http://www.w3.org/1999/xlink" style="isolation:isolate" viewBox="0 0 48 48" width="48pt" height="48pt"><linearGradient id="_lgradient_21" x1="0.018229166666666685" y1="0.9082207148480301" x2="0.9633695851688691" y2="0.03363744370558963" gradientTransform="matrix(45,0,0,41.625,1.5,3.187)" gradientUnits="userSpaceOnUse"><stop offset="0%" stop-opacity="1" style="stop-color:rgb(255,224,49)"/><stop offset="98.69565217391305%" stop-opacity="1" style="stop-color:rgb(252,82,82)"/></linearGradient><path d=" M 6.969 35.573 C 6.623 35.188 6.431 34.688 6.431 34.169 C 6.431 33.545 6.7 32.968 7.161 32.564 L 18.907 22.366 C 18.907 22.366 18.907 22.366 18.907 22.366 C 19.292 22.03 19.792 21.847 20.301 21.847 C 20.868 21.847 21.406 22.068 21.8 22.462 C 21.8 22.462 21.8 22.462 21.8 22.462 L 24.021 24.644 L 29.769 18.435 C 29.769 18.435 29.769 18.435 29.769 18.435 C 30.153 18.021 30.682 17.781 31.239 17.752 C 31.259 17.752 31.268 17.752 31.287 17.752 L 31.307 17.752 C 31.307 17.752 31.307 17.752 31.307 17.752 C 31.835 17.743 32.354 17.935 32.758 18.291 C 32.758 18.291 32.768 18.3 32.768 18.3 L 41.044 25.788 C 41.495 26.192 41.745 26.759 41.745 27.355 C 41.745 27.893 41.543 28.412 41.178 28.806 C 40.774 29.239 40.207 29.479 39.611 29.479 C 39.083 29.479 38.573 29.287 38.189 28.931 C 38.189 28.931 38.179 28.931 38.179 28.931 L 31.47 22.866 L 27.049 27.633 L 29.375 29.921 C 29.778 30.315 29.999 30.863 29.999 31.43 C 29.999 31.997 29.778 32.545 29.375 32.939 C 28.971 33.333 28.433 33.554 27.875 33.554 C 27.308 33.554 26.77 33.333 26.376 32.939 C 26.376 32.939 26.376 32.939 26.376 32.939 L 20.214 26.864 L 9.959 35.765 C 9.959 35.765 9.959 35.765 9.959 35.765 C 9.574 36.101 9.074 36.284 8.565 36.284 C 7.95 36.284 7.373 36.025 6.969 35.573 L 6.969 35.573 Z  M 42 24.811 L 42 11.062 C 42 9.2 40.488 7.687 38.625 7.687 L 9.375 7.687 C 7.512 7.687 6 9.2 6 11.062 L 6 28.388 L 6 33.045 L 6 34.237 L 6 36.937 C 6 38.8 7.512 40.313 9.375 40.313 L 38.625 40.313 C 40.488 40.313 42 38.8 42 36.937 L 42 24.811 L 46.5 24.646 L 46.5 39.188 C 46.5 42.292 43.98 44.813 40.875 44.813 L 7.125 44.813 C 4.02 44.813 1.5 42.292 1.5 39.188 L 1.5 8.812 C 1.5 5.708 4.02 3.187 7.125 3.187 L 40.875 3.187 C 43.98 3.187 46.5 5.708 46.5 8.812 L 46.5 24.646 L 42 24.811 L 42 24.811 Z  M 9.521 15.941 C 9.521 13.492 11.493 11.504 13.921 11.504 C 16.349 11.504 18.321 13.492 18.321 15.941 C 18.321 18.389 16.349 20.377 13.921 20.377 C 11.493 20.377 9.521 18.389 9.521 15.941 Z " fill-rule="evenodd" fill="url(#_lgradient_21)"/></svg>