<?xml version="1.0" encoding="UTF-8" standalone="no"?><!-- Generator: Gravit.io --><svg xmlns="http://www.w3.org/2000/svg" xmlns:xlink="http://www.w3.org/1999/xlink" style="isolation:isolate" viewBox="0 0 48 48" width="48pt" height="48pt"><g><linearGradient id="_lgradient_22" x1="0" y1="0.5" x2="1" y2="0.5" gradientTransform="matrix(41.575,0,0,45,3.213,1.5)" gradientUnits="userSpaceOnUse"><stop offset="0%" stop-opacity="1" style="stop-color:rgb(135,154,242)"/><stop offset="47.91666666666667%" stop-opacity="1" style="stop-color:rgb(211,32,139)"/><stop offset="97.91666666666666%" stop-opacity="1" style="stop-color:rgb(253,160,0)"/></linearGradient><path d=" M 11.6 38.914 L 7.737 38.914 C 7.469 38.914 7.211 38.809 7.013 38.622 C 6.825 38.423 6.72 38.166 6.72 37.897 C 6.72 37.897 6.72 37.897 6.72 37.897 L 6.72 6.025 C 6.72 6.025 6.72 6.025 6.72 6.025 C 6.72 5.756 6.825 5.499 7.013 5.3 C 7.211 5.113 7.469 5.008 7.737 5.008 L 18.412 5.008 L 26.51 5.008 L 32.606 5.008 C 32.875 5.008 33.132 5.113 33.319 5.3 C 33.506 5.499 33.612 5.756 33.612 6.025 C 33.612 6.025 33.612 6.025 33.612 6.025 L 33.612 6.119 L 16.256 5.841 L 16.256 5.841 L 16.256 5.841 C 15.875 5.83 15.486 5.881 15.12 5.974 C 14.176 6.215 13.347 6.765 12.751 7.532 C 12.155 8.3 11.831 9.251 11.824 10.243 C 11.824 10.243 11.824 10.243 11.824 10.243 L 11.6 38.914 L 11.6 38.914 Z  M 16.24 9.345 L 40.394 9.731 C 40.394 9.731 40.394 9.731 40.394 9.731 C 40.822 9.742 41.206 10.042 41.313 10.462 C 41.336 10.552 41.345 10.634 41.343 10.719 C 41.343 10.719 41.343 10.719 41.343 10.719 L 41.099 42.035 C 41.106 42.48 40.801 42.859 40.379 42.967 C 40.301 42.987 40.221 42.995 40.126 42.995 C 40.126 42.995 40.126 42.995 40.126 42.995 L 15.973 42.609 C 15.973 42.609 15.973 42.609 15.973 42.609 C 15.544 42.597 15.16 42.297 15.053 41.878 C 15.033 41.799 15.021 41.705 15.023 41.62 C 15.023 41.62 15.023 41.62 15.023 41.62 L 15.268 10.305 C 15.261 9.86 15.566 9.481 15.987 9.373 C 16.065 9.353 16.145 9.345 16.24 9.345 C 16.24 9.345 16.24 9.345 16.24 9.345 L 16.24 9.345 L 16.24 9.345 L 16.24 9.345 Z  M 37.119 6.175 L 37.119 6.025 C 37.119 4.832 36.64 3.675 35.798 2.833 C 34.956 1.979 33.799 1.5 32.606 1.5 C 32.606 1.5 32.606 1.5 32.606 1.5 L 7.726 1.5 C 7.726 1.5 7.726 1.5 7.726 1.5 C 6.533 1.5 5.376 1.979 4.534 2.833 C 3.692 3.675 3.213 4.832 3.213 6.025 L 3.213 37.897 C 3.213 39.089 3.692 40.247 4.534 41.089 C 5.376 41.942 6.533 42.422 7.726 42.422 C 7.726 42.422 7.726 42.422 7.726 42.422 L 11.656 42.422 C 11.675 42.524 11.698 42.626 11.724 42.728 C 11.967 43.68 12.515 44.529 13.286 45.141 C 14.046 45.755 14.983 46.095 15.957 46.112 L 40.11 46.498 C 40.492 46.51 40.88 46.459 41.247 46.365 C 42.19 46.124 43.019 45.575 43.615 44.807 C 44.211 44.04 44.535 43.088 44.542 42.097 C 44.542 42.097 44.542 42.097 44.542 42.097 L 44.787 10.781 C 44.792 10.382 44.74 9.997 44.642 9.612 C 44.399 8.66 43.851 7.81 43.081 7.199 C 42.321 6.584 41.383 6.244 40.409 6.228 L 37.119 6.175 L 37.119 6.175 Z  M 18.386 32.694 L 37.879 32.694 C 38.998 32.694 39.906 33.602 39.906 34.72 L 39.906 36.303 C 39.906 37.421 38.998 38.329 37.879 38.329 L 18.386 38.329 C 17.267 38.329 16.359 37.421 16.359 36.303 L 16.359 34.72 C 16.359 33.602 17.267 32.694 18.386 32.694 L 18.386 32.694 L 18.386 32.694 Z  M 18.386 23.005 L 37.879 23.005 C 38.998 23.005 39.906 23.913 39.906 25.032 L 39.906 26.614 C 39.906 27.733 38.998 28.641 37.879 28.641 L 18.386 28.641 C 17.267 28.641 16.359 27.733 16.359 26.614 L 16.359 25.032 C 16.359 23.913 17.267 23.005 18.386 23.005 L 18.386 23.005 L 18.386 23.005 Z  M 18.386 13.441 L 32.584 13.441 C 33.702 13.441 34.61 14.349 34.61 15.468 L 34.61 17.05 C 34.61 18.169 33.702 19.077 32.584 19.077 L 18.386 19.077 C 17.267 19.077 16.359 18.169 16.359 17.05 L 16.359 15.468 C 16.359 14.349 17.267 13.441 18.386 13.441 L 18.386 13.441 Z " fill-rule="evenodd" fill="url(#_lgradient_22)"/></g></svg>