<?xml version="1.0" standalone="no"?><!-- Generator: Gravit.io --><svg xmlns="http://www.w3.org/2000/svg" xmlns:xlink="http://www.w3.org/1999/xlink" style="isolation:isolate" viewBox="0 0 48 48" width="48" height="48"><linearGradient id="_lgradient_19" x1="0" y1="0.5" x2="1" y2="0.5"><stop offset="2.608695652173913%" stop-opacity="1" style="stop-color:rgb(197,14,210)"/><stop offset="98.69565217391305%" stop-opacity="1" style="stop-color:rgb(133,0,247)"/></linearGradient><path d=" M 1.545 46.083 L 45.923 46.073 C 46.092 46.073 46.229 45.936 46.229 45.767 L 46.229 15.647 C 46.229 15.478 46.092 15.341 45.923 15.34 L 20.107 15.32 L 15.886 18.526 C 15.818 18.577 15.695 18.618 15.61 18.618 L 1.229 18.563 L 1.238 45.777 C 1.238 45.946 1.376 46.083 1.545 46.083 Z " fill="none" vector-effect="non-scaling-stroke" stroke-width="1.5" stroke="url(#_lgradient_19)" stroke-linejoin="miter" stroke-linecap="square" stroke-miterlimit="3"/><path d=" M 20.116 15.581 L 15.887 12.425 C 15.819 12.374 15.695 12.333 15.61 12.333 L 1.554 12.333 C 1.385 12.333 1.247 12.471 1.247 12.64 L 1.243 18.808 L 15.8 18.868 L 20.116 15.581 Z " fill="none" vector-effect="non-scaling-stroke" stroke-width="1.5" stroke="rgb(197,14,210)" stroke-linejoin="miter" stroke-linecap="square" stroke-miterlimit="3"/><linearGradient id="_lgradient_20" x1="-0.000038208333333289435" y1="0.5000000833333331" x2="0.9999618333333335" y2="0.5000000833333331"><stop offset="0%" stop-opacity="1" style="stop-color:rgb(211,0,220)"/><stop offset="100%" stop-opacity="1" style="stop-color:rgb(135,0,255)"/></linearGradient><path d=" M 15.542 40 L 21.769 40 L 21.769 34 L 25.689 34 L 25.689 40 L 32 40 L 32 32 L 35 32 L 23.729 21 L 12 32 L 15.542 32 L 15.542 40 Z " fill="none" vector-effect="non-scaling-stroke" stroke-width="1.5" stroke="url(#_lgradient_20)" stroke-linejoin="miter" stroke-linecap="square" stroke-miterlimit="3"/></svg>