<?xml version="1.0" encoding="UTF-8" standalone="no"?><!-- Generator: Gravit.io --><svg xmlns="http://www.w3.org/2000/svg" xmlns:xlink="http://www.w3.org/1999/xlink" style="isolation:isolate" viewBox="0 0 48 48" width="48pt" height="48pt"><linearGradient id="_lgradient_0" x1="-0.000038208333333289435" y1="0.5000000833333331" x2="0.9999618333333335" y2="0.5000000833333331" gradientTransform="matrix(46.1,0,0,37.1,0.95,9.95)" gradientUnits="userSpaceOnUse"><stop offset="0%" stop-opacity="1" style="stop-color:#3BE4EA"/><stop offset="100%" stop-opacity="1" style="stop-color:#1A93ED"/></linearGradient><path d=" M 9 22.05 L 9 22.05 C 8.42 22.05 7.95 21.58 7.95 21 L 7.95 21 C 7.95 20.42 8.42 19.95 9 19.95 L 9 19.95 L 14.65 19.95 C 15.202 19.95 16.03 19.713 16.498 19.42 L 22.802 15.48 C 23.27 15.187 24.098 14.95 24.65 14.95 L 42.05 14.95 C 44.81 14.95 47.05 17.19 47.05 19.95 L 47.05 42.05 C 47.05 44.81 44.81 47.05 42.05 47.05 L 5.95 47.05 C 3.19 47.05 0.95 44.81 0.95 42.05 L 0.95 33 L 0.95 33 C 0.95 32.42 1.42 31.95 2 31.95 L 2 31.95 C 2.58 31.95 3.05 32.42 3.05 33 L 3.05 33 L 3.05 41.95 C 3.05 43.606 4.394 44.95 6.05 44.95 L 41.95 44.95 C 43.606 44.95 44.95 43.606 44.95 41.95 L 44.95 20.05 C 44.95 18.394 43.606 17.05 41.95 17.05 L 25.35 17.05 C 24.798 17.05 23.97 17.287 23.502 17.58 L 17.198 21.52 C 16.73 21.813 15.902 22.05 15.35 22.05 L 9 22.05 L 9 22.05 Z  M 3.05 25 L 3.05 25 C 3.05 25.58 2.58 26.05 2 26.05 L 2 26.05 C 1.42 26.05 0.95 25.58 0.95 25 L 0.95 25 L 0.95 14.95 C 0.95 12.19 3.19 9.95 5.95 9.95 L 16.43 9.95 C 16.982 9.95 17.747 10.267 18.137 10.657 L 20.74 13.26 L 20.74 13.26 C 21.148 13.668 21.148 14.332 20.74 14.74 L 20.74 14.74 C 20.332 15.148 19.668 15.148 19.26 14.74 L 19.26 14.74 L 16.57 12.05 L 6.05 12.05 C 4.394 12.05 3.05 13.394 3.05 15.05 L 3.05 25 L 3.05 25 Z  M 32.794 26.478 L 32.794 26.478 C 33.202 26.478 33.533 26.147 33.533 25.739 L 33.533 25.739 C 33.533 25.331 33.202 25 32.794 25 L 32.794 25 L 26.848 25 C 25.828 25 25 25.828 25 26.848 L 25 40.152 C 25 41.172 25.828 42 26.848 42 L 40.152 42 C 41.172 42 42 41.172 42 40.152 L 42 32.794 C 42 32.386 41.669 32.055 41.261 32.055 L 36.423 32.055 C 36.219 32.055 36.054 31.889 36.054 31.685 L 36.054 28.385 C 36.054 28.181 36.183 28.119 36.342 28.246 L 40.06 31.22 L 40.06 31.22 C 40.378 31.475 40.843 31.423 41.098 31.105 L 41.098 31.105 C 41.353 30.787 41.302 30.322 40.984 30.067 L 40.984 30.067 L 35.441 25.633 C 34.963 25.251 34.575 25.438 34.575 26.05 L 34.575 32.425 C 34.575 33.036 35.072 33.533 35.684 33.533 L 39.783 33.533 C 40.191 33.533 40.522 33.864 40.522 34.272 L 40.522 39.413 C 40.522 40.025 40.025 40.522 39.413 40.522 L 27.587 40.522 C 26.975 40.522 26.478 40.025 26.478 39.413 L 26.478 27.587 C 26.478 26.975 26.975 26.478 27.587 26.478 L 32.794 26.478 L 32.794 26.478 L 32.794 26.478 L 32.794 26.478 Z  M 28.442 37 L 38.352 37 C 38.71 37 39 37.29 39 37.648 L 39 37.852 C 39 38.21 38.71 38.5 38.352 38.5 L 28.442 38.5 C 28.085 38.5 27.794 38.21 27.794 37.852 L 27.794 37.648 C 27.794 37.29 28.085 37 28.442 37 L 28.442 37 L 28.442 37 L 28.442 37 Z  M 28.417 34 L 33.247 34 C 33.591 34 33.87 34.279 33.87 34.623 L 33.87 34.877 C 33.87 35.221 33.591 35.5 33.247 35.5 L 28.417 35.5 C 28.073 35.5 27.794 35.221 27.794 34.877 L 27.794 34.623 C 27.794 34.279 28.073 34 28.417 34 L 28.417 34 L 28.417 34 Z  M 28.417 30.932 L 33.247 30.932 C 33.591 30.932 33.87 31.211 33.87 31.554 L 33.87 31.809 C 33.87 32.153 33.591 32.432 33.247 32.432 L 28.417 32.432 C 28.073 32.432 27.794 32.153 27.794 31.809 L 27.794 31.554 C 27.794 31.211 28.073 30.932 28.417 30.932 L 28.417 30.932 Z " fill-rule="evenodd" fill="url(#_lgradient_0)"/></svg>