<?xml version="1.0" encoding="UTF-8" standalone="no"?><!-- Generator: Gravit.io --><svg xmlns="http://www.w3.org/2000/svg" xmlns:xlink="http://www.w3.org/1999/xlink" style="isolation:isolate" viewBox="0 0 48 48" width="48pt" height="48pt"><linearGradient id="_lgradient_7" x1="0.031182562838213412" y1="0.10866627890091946" x2="0.9583795358695032" y2="0.9751947012019755" gradientTransform="matrix(46.1,0,0,37.1,0.95,9.95)" gradientUnits="userSpaceOnUse"><stop offset="0%" stop-opacity="1" style="stop-color:#3BE4EA"/><stop offset="97.5%" stop-opacity="1" style="stop-color:#1A93ED"/></linearGradient><path d=" M 31.416 32.739 L 31.406 32.754 L 32.036 33.198 L 32.036 33.198 L 40.139 38.929 C 40.313 39.052 40.455 39.325 40.455 39.538 L 40.455 40.682 C 40.455 40.895 40.281 41.068 40.068 41.068 L 26.932 41.068 C 26.719 41.068 26.545 40.895 26.545 40.682 L 26.545 39.565 C 26.545 39.352 26.692 39.087 26.872 38.973 L 31.101 36.312 L 31.101 36.312 C 31.461 36.086 31.57 35.609 31.344 35.248 L 31.344 35.248 C 31.118 34.886 30.64 34.778 30.278 35.006 L 30.278 35.006 L 25.982 37.705 C 25.44 38.045 25 38.841 25 39.48 L 25 41.455 C 25 42.094 25.519 42.614 26.159 42.614 L 40.841 42.614 C 41.481 42.614 42 42.094 42 41.455 L 42 39.507 C 42 38.868 41.576 38.048 41.053 37.679 L 34.647 33.153 C 35.286 32.962 35.874 32.616 36.35 32.14 C 37.11 31.38 37.53 30.35 37.53 29.28 C 37.53 28.21 37.11 27.19 36.35 26.43 C 35.6 25.68 34.57 25.25 33.5 25.25 C 32.43 25.25 31.4 25.68 30.65 26.43 C 29.89 27.19 29.47 28.21 29.47 29.28 L 29.47 29.28 C 29.47 30.35 29.89 31.38 30.65 32.14 C 30.881 32.371 31.139 32.572 31.416 32.739 Z  M 32.282 31.508 L 32.295 31.49 L 32.414 31.575 C 32.751 31.734 33.122 31.82 33.5 31.82 C 34.17 31.82 34.82 31.55 35.29 31.08 C 35.77 30.6 36.03 29.96 36.03 29.28 C 36.03 28.61 35.77 27.97 35.29 27.49 C 34.82 27.02 34.17 26.75 33.5 26.75 C 32.83 26.75 32.18 27.02 31.71 27.49 C 31.23 27.97 30.97 28.61 30.97 29.28 L 30.97 29.28 C 30.97 29.96 31.23 30.6 31.71 31.08 C 31.88 31.25 32.073 31.393 32.282 31.508 Z  M 9 23.05 L 9 23.05 C 8.42 23.05 7.95 22.58 7.95 22 L 7.95 22 C 7.95 21.42 8.42 20.95 9 20.95 L 9 20.95 L 14.65 20.95 C 15.202 20.95 16.008 20.681 16.45 20.35 L 22.85 15.55 C 23.292 15.219 24.098 14.95 24.65 14.95 L 44.05 14.95 C 45.706 14.95 47.05 16.294 47.05 17.95 L 47.05 44.05 C 47.05 45.706 45.706 47.05 44.05 47.05 L 3.95 47.05 C 2.294 47.05 0.95 45.706 0.95 44.05 L 0.95 33 L 0.95 33 C 0.95 32.42 1.42 31.95 2 31.95 L 2 31.95 C 2.58 31.95 3.05 32.42 3.05 33 L 3.05 33 L 3.05 43.45 C 3.05 44.278 3.722 44.95 4.55 44.95 L 43.45 44.95 C 44.278 44.95 44.95 44.278 44.95 43.45 L 44.95 18.55 C 44.95 17.722 44.278 17.05 43.45 17.05 L 25.35 17.05 C 24.798 17.05 23.992 17.319 23.55 17.65 L 17.15 22.45 C 16.708 22.781 15.902 23.05 15.35 23.05 L 9 23.05 L 9 23.05 L 9 23.05 Z  M 3.05 25 L 3.05 25 C 3.05 25.58 2.58 26.05 2 26.05 L 2 26.05 C 1.42 26.05 0.95 25.58 0.95 25 L 0.95 25 L 0.95 12.95 C 0.95 11.294 2.294 9.95 3.95 9.95 L 16.43 9.95 C 16.982 9.95 17.747 10.267 18.137 10.657 L 20.74 13.26 L 20.74 13.26 C 21.148 13.668 21.148 14.332 20.74 14.74 L 20.74 14.74 C 20.332 15.148 19.668 15.148 19.26 14.74 L 19.26 14.74 L 16.57 12.05 L 4.55 12.05 C 3.722 12.05 3.05 12.722 3.05 13.55 L 3.05 25 L 3.05 25 L 3.05 25 Z " fill-rule="evenodd" fill="url(#_lgradient_7)"/></svg>