<?xml version="1.0" standalone="no"?><!-- Generator: Gravit.io --><svg xmlns="http://www.w3.org/2000/svg" xmlns:xlink="http://www.w3.org/1999/xlink" style="isolation:isolate" viewBox="0 0 48 48" width="48" height="48"><linearGradient id="_lgradient_20" x1="0" y1="0.5" x2="0.9074880558539661" y2="0.9200778838291643" gradientTransform="matrix(45,0,0,30.763,1.229,15.32)" gradientUnits="userSpaceOnUse"><stop offset="0%" stop-opacity="1" style="stop-color:rgb(247,241,7)"/><stop offset="83.88839793817618%" stop-opacity="1" style="stop-color:rgb(255,187,36)"/></linearGradient><linearGradient id="_lgradient_21" x1="0" y1="0.5" x2="0.9074880558539661" y2="0.9200778838291643"><stop offset="0%" stop-opacity="1" style="stop-color:rgb(247,241,7)"/><stop offset="83.88839793817618%" stop-opacity="1" style="stop-color:rgb(255,187,36)"/></linearGradient><path d=" M 1.545 46.083 L 45.923 46.073 C 46.092 46.073 46.229 45.936 46.229 45.767 L 46.229 15.647 C 46.229 15.478 46.092 15.341 45.923 15.34 L 20.107 15.32 L 15.886 18.526 C 15.818 18.577 15.695 18.618 15.61 18.618 L 1.229 18.563 L 1.238 45.777 C 1.238 45.946 1.376 46.083 1.545 46.083 Z " fill="url(#_lgradient_20)" vector-effect="non-scaling-stroke" stroke-width="1" stroke="url(#_lgradient_21)" stroke-linejoin="miter" stroke-linecap="square" stroke-miterlimit="3"/><linearGradient id="_lgradient_22" x1="0" y1="0.5" x2="0.9074880558539661" y2="0.9200778838291643" gradientTransform="matrix(18.873,0,0,6.535,1.229,12.053)" gradientUnits="userSpaceOnUse"><stop offset="0%" stop-opacity="1" style="stop-color:rgb(247,241,7)"/><stop offset="83.88839793817618%" stop-opacity="1" style="stop-color:rgb(255,187,36)"/></linearGradient><linearGradient id="_lgradient_23" x1="0" y1="0.5" x2="0.9074880558539661" y2="0.9200778838291643"><stop offset="0%" stop-opacity="1" style="stop-color:rgb(247,241,7)"/><stop offset="83.88839793817618%" stop-opacity="1" style="stop-color:rgb(255,187,36)"/></linearGradient><path d=" M 20.102 15.3 L 15.873 12.145 C 15.805 12.094 15.681 12.053 15.597 12.053 L 1.54 12.053 C 1.371 12.053 1.234 12.19 1.233 12.359 L 1.229 18.527 L 15.786 18.588 L 20.102 15.3 Z " fill="url(#_lgradient_22)" vector-effect="non-scaling-stroke" stroke-width="1" stroke="url(#_lgradient_23)" stroke-linejoin="miter" stroke-linecap="square" stroke-miterlimit="3"/><path d=" M 16.88 39.5 L 22.451 39.5 L 22.451 34.132 L 25.959 34.132 L 25.959 39.5 L 31.605 39.5 L 31.605 32.342 L 34.289 32.342 L 24.205 22.5 L 13.711 32.342 L 16.88 32.342 L 16.88 39.5 Z " fill="none" vector-effect="non-scaling-stroke" stroke-width="1" stroke="rgb(255,255,255)" stroke-linejoin="miter" stroke-linecap="square" stroke-miterlimit="3"/></svg>