<?xml version="1.0" standalone="no"?><!-- Generator: Gravit.io --><svg xmlns="http://www.w3.org/2000/svg" xmlns:xlink="http://www.w3.org/1999/xlink" style="isolation:isolate" viewBox="0 0 48 48" width="48" height="48"><defs><clipPath id="_clipPath_Sd08GpmkdqIAy1UR239YV2vyPFIZuRyU"><rect width="48" height="48"/></clipPath></defs><g clip-path="url(#_clipPath_Sd08GpmkdqIAy1UR239YV2vyPFIZuRyU)"><linearGradient id="_lgradient_14" x1="-0.04632800608827978" y1="0.15974072496964337" x2="0.8522006595636732" y2="0.7102370619103313"><stop offset="3.0434782608695654%" stop-opacity="1" style="stop-color:#00ffd9"/><stop offset="98.69565217391305%" stop-opacity="1" style="stop-color:#00ffb8"/></linearGradient><path d=" M 20.105 15.447 L 20.107 15.445 L 45.923 15.465 C 46.092 15.466 46.229 15.603 46.229 15.772 L 46.229 45.892 C 46.229 46.061 46.092 46.198 45.923 46.198 L 1.545 46.208 C 1.376 46.208 1.238 46.071 1.238 45.902 L 1.229 18.688 L 15.61 18.743 C 15.614 18.743 15.617 18.743 15.621 18.743 L 1.243 18.683 L 1.247 12.515 C 1.247 12.346 1.385 12.208 1.554 12.208 L 15.61 12.208 C 15.695 12.208 15.819 12.249 15.887 12.3 L 20.105 15.447 Z  M 20.105 15.447 L 15.886 18.651 C 15.821 18.7 15.705 18.74 15.621 18.743 L 15.8 18.743 L 20.116 15.456 L 20.105 15.447 Z " fill-rule="evenodd" fill="none" vector-effect="non-scaling-stroke" stroke-width="1.5" stroke="url(#_lgradient_14)" stroke-linejoin="miter" stroke-linecap="square" stroke-miterlimit="3"/><linearGradient id="_lgradient_15" x1="-0.04632800608827978" y1="0.15974072496964337" x2="0.8522006595636732" y2="0.7102370619103313" gradientTransform="matrix(18.875,0,0,21.125,15.188,20.75)" gradientUnits="userSpaceOnUse"><stop offset="3.0434782608695654%" stop-opacity="1" style="stop-color:#00ffd9"/><stop offset="98.69565217391305%" stop-opacity="1" style="stop-color:#00ffb8"/></linearGradient><path d=" M 17.252 22.4 C 17.244 22.4 17.236 22.4 17.228 22.4 C 16.909 22.408 16.655 22.704 16.662 23.061 L 16.662 24.381 L 17.252 24.381 L 17.252 23.061 L 18.727 23.061 L 18.727 22.4 L 17.252 22.4 L 17.252 22.4 L 17.252 22.4 L 17.252 22.4 L 17.252 22.4 L 17.252 22.4 L 17.252 22.4 L 17.252 22.4 L 17.252 22.4 L 17.252 22.4 Z  M 30.523 28.012 L 18.727 28.012 L 18.727 24.711 L 30.523 24.711 L 30.523 28.012 L 30.523 28.012 L 30.523 28.012 L 30.523 28.012 L 30.523 28.012 L 30.523 28.012 L 30.523 28.012 L 30.523 28.012 L 30.523 28.012 L 30.523 28.012 Z  M 18.727 34.943 L 18.727 30.789 L 22.438 34.943 L 18.727 34.943 L 18.727 34.943 L 18.727 34.943 L 18.727 34.943 L 18.727 34.943 L 18.727 34.943 L 18.727 34.943 L 18.727 34.943 L 18.727 34.943 Z  M 22.855 34.477 L 19.144 30.322 L 22.855 30.322 L 22.855 34.477 L 22.855 34.477 L 22.855 34.477 L 22.855 34.477 L 22.855 34.477 L 22.855 34.477 L 22.855 34.477 L 22.855 34.477 L 22.855 34.477 Z  M 30.523 31.643 L 24.625 31.643 L 24.625 30.322 L 30.523 30.322 L 30.523 31.643 L 30.523 31.643 L 30.523 31.643 L 30.523 31.643 L 30.523 31.643 L 30.523 31.643 L 30.523 31.643 L 30.523 31.643 Z  M 24.035 33.293 L 31.113 33.293 L 31.113 33.953 L 24.035 33.953 L 24.035 33.293 L 24.035 33.293 L 24.035 33.293 L 24.035 33.293 L 24.035 33.293 L 24.035 33.293 Z  M 24.035 34.943 L 31.113 34.943 L 31.113 35.604 L 24.035 35.604 L 24.035 34.943 L 24.035 34.943 L 24.035 34.943 L 24.035 34.943 L 24.035 34.943 Z  M 20.496 36.594 L 31.113 36.594 L 31.113 37.254 L 20.496 37.254 L 20.496 36.594 L 20.496 36.594 L 20.496 36.594 L 20.496 36.594 Z  M 18.137 38.244 L 28.754 38.244 L 28.754 38.904 L 18.137 38.904 L 18.137 38.244 L 18.137 38.244 L 18.137 38.244 Z  M 18.137 36.594 L 18.727 36.594 L 18.727 37.254 L 18.137 37.254 L 18.137 36.594 L 18.137 36.594 Z  M 30.818 24.051 L 18.432 24.051 C 18.269 24.051 18.137 24.199 18.137 24.381 L 18.137 28.342 C 18.137 28.524 18.269 28.672 18.432 28.672 L 30.818 28.672 C 30.981 28.672 31.113 28.524 31.113 28.342 L 31.113 24.381 C 31.113 24.199 30.981 24.051 30.818 24.051 L 30.818 24.051 L 30.818 24.051 L 30.818 24.051 L 30.818 24.051 L 30.818 24.051 L 30.818 24.051 L 30.818 24.051 L 30.818 24.051 L 30.818 24.051 Z  M 30.818 29.662 L 24.33 29.662 C 24.167 29.662 24.035 29.81 24.035 29.992 L 24.035 31.973 C 24.035 32.155 24.167 32.303 24.33 32.303 L 30.818 32.303 C 30.981 32.303 31.113 32.155 31.113 31.973 L 31.113 29.992 C 31.113 29.81 30.981 29.662 30.818 29.662 L 30.818 29.662 L 30.818 29.662 L 30.818 29.662 L 30.818 29.662 L 30.818 29.662 L 30.818 29.662 L 30.818 29.662 Z  M 23.15 29.662 L 18.432 29.662 C 18.269 29.662 18.137 29.81 18.137 29.992 L 18.137 35.273 C 18.137 35.456 18.269 35.604 18.432 35.604 L 23.15 35.604 C 23.313 35.604 23.445 35.456 23.445 35.273 L 23.445 29.992 C 23.445 29.81 23.313 29.662 23.15 29.662 L 23.15 29.662 L 23.15 29.662 L 23.15 29.662 L 23.15 29.662 L 23.15 29.662 L 23.15 29.662 L 23.15 29.662 L 23.15 29.662 Z  M 33.473 40.225 C 33.473 40.772 33.077 41.215 32.588 41.215 L 16.662 41.215 C 16.173 41.215 15.777 40.772 15.777 40.225 L 15.777 22.4 C 15.777 21.853 16.173 21.41 16.662 21.41 L 32.588 21.41 C 33.077 21.41 33.473 21.853 33.473 22.4 L 33.473 40.225 L 33.473 40.225 L 33.473 40.225 L 33.473 40.225 L 33.473 40.225 L 33.473 40.225 L 33.473 40.225 L 33.473 40.225 L 33.473 40.225 L 33.473 40.225 L 33.473 40.225 Z  M 32.588 20.75 L 16.662 20.75 C 15.848 20.751 15.188 21.489 15.188 22.4 L 15.188 40.225 C 15.188 41.136 15.848 41.874 16.662 41.875 L 32.588 41.875 C 33.402 41.874 34.062 41.136 34.063 40.225 L 34.063 22.4 C 34.062 21.489 33.402 20.751 32.588 20.75 L 32.588 20.75 L 32.588 20.75 L 32.588 20.75 L 32.588 20.75 L 32.588 20.75 L 32.588 20.75 L 32.588 20.75 L 32.588 20.75 L 32.588 20.75 L 32.588 20.75 Z  M 19.316 36.594 L 19.906 36.594 L 19.906 37.254 L 19.316 37.254 L 19.316 36.594 Z  M 18.76 21.96 M 16.511 27.868" fill-rule="evenodd" fill="url(#_lgradient_15)"/></g></svg>