<?xml version="1.0" standalone="no"?><!-- Generator: Gravit.io --><svg xmlns="http://www.w3.org/2000/svg" xmlns:xlink="http://www.w3.org/1999/xlink" style="isolation:isolate" viewBox="0 0 48 48" width="48" height="48"><defs><clipPath id="_clipPath_szI09MNJGyxikpNcHofb367aRzonsZAE"><rect width="48" height="48"/></clipPath></defs><g clip-path="url(#_clipPath_szI09MNJGyxikpNcHofb367aRzonsZAE)"><linearGradient id="_lgradient_23" x1="-0.04632800608827978" y1="0.15974072496964337" x2="0.8522006595636732" y2="0.7102370619103313"><stop offset="3.0434782608695654%" stop-opacity="1" style="stop-color:#00ffd9"/><stop offset="98.69565217391305%" stop-opacity="1" style="stop-color:#00ffb8"/></linearGradient><path d=" M 20.105 15.447 L 20.107 15.445 L 45.923 15.465 C 46.092 15.466 46.229 15.603 46.229 15.772 L 46.229 45.892 C 46.229 46.061 46.092 46.198 45.923 46.198 L 1.545 46.208 C 1.376 46.208 1.238 46.071 1.238 45.902 L 1.229 18.688 L 15.61 18.743 C 15.614 18.743 15.617 18.743 15.621 18.743 L 1.243 18.683 L 1.247 12.515 C 1.247 12.346 1.385 12.208 1.554 12.208 L 15.61 12.208 C 15.695 12.208 15.819 12.249 15.887 12.3 L 20.105 15.447 Z  M 20.105 15.447 L 15.886 18.651 C 15.821 18.7 15.705 18.74 15.621 18.743 L 15.8 18.743 L 20.116 15.456 L 20.105 15.447 Z " fill-rule="evenodd" fill="none" vector-effect="non-scaling-stroke" stroke-width="1.5" stroke="url(#_lgradient_23)" stroke-linejoin="miter" stroke-linecap="square" stroke-miterlimit="3"/><linearGradient id="_lgradient_24" x1="-0.04632800608827978" y1="0.15974072496964337" x2="0.8522006595636732" y2="0.7102370619103313" gradientTransform="matrix(27,0,0,18.999,11.625,21.96)" gradientUnits="userSpaceOnUse"><stop offset="3.0434782608695654%" stop-opacity="1" style="stop-color:#00ffd9"/><stop offset="98.69565217391305%" stop-opacity="1" style="stop-color:#00ffb8"/></linearGradient><path d=" M 18.76 21.96 M 16.511 27.868 M 26.925 29.708 L 15.225 29.708 C 14.976 29.708 14.775 29.91 14.775 30.158 L 14.775 37.358 C 14.775 37.607 14.976 37.808 15.225 37.808 L 26.925 37.808 C 27.174 37.808 27.375 37.607 27.375 37.358 L 27.375 30.158 C 27.375 29.91 27.174 29.708 26.925 29.708 Z  M 26.475 36.908 L 15.675 36.908 L 15.675 30.608 L 26.475 30.608 L 26.475 36.908 Z  M 37.893 28.457 C 37.443 28.224 36.901 28.263 36.49 28.559 L 32.185 31.634 C 32.101 31.554 31.991 31.509 31.875 31.508 L 30.525 31.508 L 30.525 28.808 C 30.523 27.566 29.517 26.56 28.275 26.558 L 27.375 26.558 L 27.375 23.408 C 27.375 23.16 27.173 22.958 26.925 22.958 L 15.225 22.958 C 14.976 22.958 14.775 23.16 14.775 23.408 L 14.775 26.558 L 13.875 26.558 C 12.633 26.56 11.626 27.566 11.625 28.808 L 11.625 38.708 C 11.626 39.95 12.633 40.957 13.875 40.958 L 28.275 40.958 C 29.517 40.957 30.523 39.95 30.525 38.708 L 30.525 36.008 L 31.875 36.008 C 31.991 36.008 32.101 35.963 32.185 35.882 L 36.49 38.958 C 37.097 39.392 37.94 39.251 38.373 38.644 C 38.537 38.416 38.625 38.141 38.625 37.86 L 38.625 29.657 C 38.626 29.151 38.343 28.687 37.893 28.457 Z  M 15.675 23.858 L 26.475 23.858 L 26.475 26.558 L 15.675 26.558 L 15.675 23.858 Z  M 29.625 38.708 C 29.625 39.454 29.021 40.058 28.275 40.058 L 13.875 40.058 C 13.129 40.058 12.525 39.454 12.525 38.708 L 12.525 28.808 C 12.525 28.063 13.129 27.458 13.875 27.458 L 28.275 27.458 C 29.021 27.458 29.625 28.063 29.625 28.808 L 29.625 38.708 L 29.625 38.708 Z  M 30.525 35.108 L 30.525 32.408 L 31.425 32.408 L 31.425 35.108 L 30.525 35.108 Z  M 37.725 37.86 C 37.725 38.108 37.523 38.31 37.275 38.31 C 37.181 38.31 37.089 38.28 37.013 38.226 L 32.325 34.877 L 32.325 32.64 L 37.013 29.291 C 37.215 29.147 37.496 29.193 37.641 29.395 C 37.696 29.472 37.725 29.563 37.725 29.657 L 37.725 37.86 L 37.725 37.86 Z " fill-rule="evenodd" fill="url(#_lgradient_24)"/></g></svg>