<?xml version="1.0" encoding="UTF-8" standalone="no"?><!-- Generator: Gravit.io --><svg xmlns="http://www.w3.org/2000/svg" xmlns:xlink="http://www.w3.org/1999/xlink" style="isolation:isolate" viewBox="0 0 48 48" width="48pt" height="48pt"><g><path d=" M 42 16.792 L 1.222 23.792 L 1.222 16 C 1.222 13.24 3.462 11 6.222 11 L 13.585 11 C 14.688 11 16.315 11.519 17.214 12.159 L 20.039 14.169 C 20.938 14.809 22.556 15.454 23.649 15.609 L 32 16.792 L 42 16.792 Z " fill="#8500F7"/><linearGradient id="_lgradient_21" x1="0" y1="0.5" x2="1" y2="0.5" gradientTransform="matrix(45.007,0,0,34.066,1.222,12.142)" gradientUnits="userSpaceOnUse"><stop offset="0%" stop-opacity="1" style="stop-color:#C50ED2"/><stop offset="98.33333333333333%" stop-opacity="1" style="stop-color:#8500F7"/></linearGradient><path d=" M 5 15.772 C 3.003 15.503 2.392 14.323 3.075 12.142 Q 2.915 12.203 2.866 12.31 C 2.169 12.898 1.123 14.595 1.229 15.792 L 1.229 41.208 C 1.229 43.968 3.469 46.208 6.229 46.208 L 41.229 46.208 C 43.989 46.208 46.229 43.968 46.229 41.208 L 46.229 20.772 C 46.229 18.012 43.989 15.772 41.229 15.772 L 5 15.772 Z " fill="url(#_lgradient_21)"/></g></svg>